<?xml version="1.0" encoding="UTF-8"?>
<!DOCTYPE svg PUBLIC "-//W3C//DTD SVG 1.1//EN" "http://www.w3.org/Graphics/SVG/1.1/DTD/svg11.dtd">
<!-- Creator: CorelDRAW 2020 (64-Bit) -->
<svg xmlns="http://www.w3.org/2000/svg" xml:space="preserve" width="290px" height="294px" version="1.1" style="shape-rendering:geometricPrecision; text-rendering:geometricPrecision; image-rendering:optimizeQuality; fill-rule:evenodd; clip-rule:evenodd"
viewBox="0 0 1.41 1.43"
 xmlns:xlink="http://www.w3.org/1999/xlink"
 xmlns:xodm="http://www.corel.com/coreldraw/odm/2003">
 <defs>
  <style type="text/css">
   <![CDATA[
    .fil0 {fill:url(#id0);fill-rule:nonzero}
   ]]>
  </style>
  <linearGradient id="id0" gradientUnits="userSpaceOnUse" x1="0.71" y1="1.43" x2="0.71" y2="0">
   <stop offset="0" style="stop-opacity:1; stop-color:#207953"/>
   <stop offset="0.611765" style="stop-opacity:1; stop-color:#E78A41"/>
   <stop offset="1" style="stop-opacity:1; stop-color:#FF8C3F"/>
  </linearGradient>
 </defs>
 <g id="Layer_x0020_1">
  <metadata id="CorelCorpID_0Corel-Layer"/>
  <path class="fil0" d="M0.7 1.43c0.39,0 0.71,-0.32 0.71,-0.71 0,-0.4 -0.32,-0.72 -0.71,-0.72 -0.34,0 -0.63,0.24 -0.7,0.56l0.34 0c0.06,-0.14 0.2,-0.23 0.36,-0.23 0.21,0 0.39,0.17 0.39,0.39 0,0.21 -0.18,0.38 -0.39,0.38 -0.16,0 -0.3,-0.09 -0.36,-0.22l-0.34 0c0.07,0.31 0.36,0.55 0.7,0.55z"/>
 </g>
</svg>
