<?xml version="1.0" encoding="UTF-8"?>
<!DOCTYPE svg PUBLIC "-//W3C//DTD SVG 1.1//EN" "http://www.w3.org/Graphics/SVG/1.1/DTD/svg11.dtd">
<!-- Creator: CorelDRAW 2020 (64-Bit) -->
<svg xmlns="http://www.w3.org/2000/svg" xml:space="preserve" width="1169px" height="473px" version="1.1" style="shape-rendering:geometricPrecision; text-rendering:geometricPrecision; image-rendering:optimizeQuality; fill-rule:evenodd; clip-rule:evenodd"
viewBox="0 0 22.5 9.11"
 xmlns:xlink="http://www.w3.org/1999/xlink"
 xmlns:xodm="http://www.corel.com/coreldraw/odm/2003">
 <defs>
  <style type="text/css">
   <![CDATA[
    .fil3 {fill:#207953}
    .fil1 {fill:#55CD90}
    .fil4 {fill:#FF6600}
    .fil8 {fill:white}
    .fil0 {fill:url(#id0)}
    .fil6 {fill:url(#id1)}
    .fil2 {fill:url(#id2)}
    .fil7 {fill:url(#id3)}
    .fil5 {fill:url(#id4)}
   ]]>
  </style>
  <linearGradient id="id0" gradientUnits="userSpaceOnUse" x1="11.25" y1="9.11" x2="11.25" y2="3.36">
   <stop offset="0" style="stop-opacity:1; stop-color:#5FB56D"/>
   <stop offset="1" style="stop-opacity:1; stop-color:#FB8C3F"/>
  </linearGradient>
  <linearGradient id="id1" gradientUnits="userSpaceOnUse" x1="11.32" y1="7.89" x2="11.32" y2="10.78">
   <stop offset="0" style="stop-opacity:1; stop-color:#140A00"/>
   <stop offset="1" style="stop-opacity:1; stop-color:#1FA672"/>
  </linearGradient>
  <linearGradient id="id2" gradientUnits="userSpaceOnUse" x1="11.34" y1="8.51" x2="11.27" y2="0.46">
   <stop offset="0" style="stop-opacity:0; stop-color:#93BF85"/>
   <stop offset="1" style="stop-opacity:0.447059; stop-color:#002611"/>
  </linearGradient>
  <linearGradient id="id3" gradientUnits="userSpaceOnUse" x1="11.87" y1="9.21" x2="13.34" y2="11.15">
   <stop offset="0" style="stop-opacity:0; stop-color:#26D491"/>
   <stop offset="0.631373" style="stop-opacity:1; stop-color:#1EF598"/>
   <stop offset="1" style="stop-opacity:1; stop-color:#1FFF9E"/>
  </linearGradient>
  <radialGradient id="id4" gradientUnits="userSpaceOnUse" gradientTransform="matrix(0.0257616 1.02872 -1.02875 0.0257617 20 -3)" cx="11.34" cy="8.49" r="2.93" fx="11.34" fy="8.49">
   <stop offset="0" style="stop-opacity:1; stop-color:#1F1F02"/>
   <stop offset="1" style="stop-opacity:0; stop-color:#003D23"/>
  </radialGradient>
 </defs>
 <g id="Layer_x0020_1">
  <metadata id="CorelCorpID_0Corel-Layer"/>
  <path class="fil0" d="M22.5 4.56c-7.5,-6.08 -15,-6.08 -22.5,0 7.5,6.07 15,6.07 22.5,0zm-0.41 0c-7.23,-5.75 -14.45,-5.75 -21.68,0 7.23,5.75 14.45,5.75 21.68,0z"/>
  <g id="_2016173205712">
   <path class="fil1" d="M7.75 4.11l2.59 3.18c-0.02,0.02 -0.05,0.04 -0.07,0.07l-2.77 -3.03c0.08,-0.08 0.17,-0.15 0.25,-0.22zm-0.29 0.25l2.8 3.01c-0.03,0.02 -0.05,0.04 -0.07,0.06l-2.99 -2.81c0.09,-0.09 0.17,-0.18 0.26,-0.26zm0.88 -0.68l2.17 3.49c-0.03,0.02 -0.06,0.04 -0.09,0.06l-2.35 -3.36c0.09,-0.07 0.18,-0.13 0.27,-0.19zm-0.31 0.22l2.38 3.34c-0.02,0.01 -0.04,0.03 -0.06,0.04l-2.56 -3.2c0.08,-0.07 0.16,-0.12 0.24,-0.18zm0.97 -0.57l1.7 3.75c-0.04,0.01 -0.07,0.03 -0.1,0.04l-1.9 -3.64c0.1,-0.05 0.2,-0.1 0.3,-0.15zm-0.35 0.18l1.94 3.62c-0.02,0.01 -0.05,0.02 -0.07,0.04l-2.13 -3.51c0.08,-0.06 0.17,-0.11 0.26,-0.15zm1.08 -0.45l1.17 3.94c-0.04,0.01 -0.07,0.02 -0.1,0.03l-1.39 -3.86c0.1,-0.04 0.21,-0.08 0.32,-0.11zm-0.37 0.12l1.42 3.86c-0.02,0.01 -0.05,0.02 -0.07,0.03l-1.66 -3.76c0.1,-0.04 0.2,-0.09 0.31,-0.13zm0.72 -0.21l0.9 4.01c-0.02,0 -0.04,0.01 -0.07,0.02l-1.13 -3.95c0.1,-0.03 0.2,-0.06 0.3,-0.08zm0.92 4.01l-0.87 -4.02c0.11,-0.03 0.22,-0.05 0.34,-0.06l0.64 4.06c-0.04,0 -0.08,0.01 -0.11,0.02zm-0.19 -4.13l0.37 4.1c-0.02,0 -0.04,0 -0.06,0l-0.6 -4.06c0.09,-0.02 0.19,-0.03 0.29,-0.04zm0.39 4.09l-0.34 -4.09c0.11,-0.01 0.22,-0.02 0.33,-0.02l0.12 4.11c-0.04,0 -0.08,0 -0.11,0zm0.34 -4.11l-0.15 4.11 -0.04 0 -0.03 0 -0.08 -4.11c0.04,0 0.07,0 0.11,0 0.06,0 0.13,0 0.19,0zm-0.14 4.11l0.19 -4.11c0.12,0.01 0.23,0.02 0.34,0.03l-0.42 4.09c-0.03,-0.01 -0.07,-0.01 -0.11,-0.01zm0.91 -4.03l-0.71 4.05c-0.02,-0.01 -0.05,-0.01 -0.07,-0.01l0.45 -4.09c0.11,0.02 0.22,0.03 0.33,0.05zm-0.69 4.05l0.74 -4.04c0.12,0.02 0.23,0.04 0.34,0.07l-0.97 3.99c-0.04,-0.01 -0.08,-0.01 -0.11,-0.02zm1.45 -3.87l-1.26 3.92c-0.02,-0.01 -0.04,-0.02 -0.07,-0.02l1.01 -3.99c0.11,0.03 0.22,0.06 0.32,0.09zm-1.24 3.92l1.29 -3.9c0.1,0.03 0.2,0.07 0.3,0.11l-1.49 3.83c-0.03,-0.02 -0.07,-0.03 -0.1,-0.04zm1.9 -3.66l-1.73 3.73c-0.02,-0.01 -0.04,-0.02 -0.06,-0.03l1.53 -3.81c0.09,0.03 0.17,0.07 0.26,0.11zm-1.72 3.73l1.77 -3.71c0.1,0.05 0.2,0.1 0.29,0.15l-1.96 3.61c-0.03,-0.02 -0.07,-0.03 -0.1,-0.05zm2.37 -3.37l-2.2 3.46c-0.02,-0.01 -0.04,-0.02 -0.06,-0.03l2 -3.59c0.09,0.05 0.18,0.1 0.26,0.16zm0.32 0.22l-2.41 3.31c-0.03,-0.02 -0.07,-0.04 -0.1,-0.06l2.24 -3.45c0.09,0.07 0.18,0.13 0.27,0.2zm0.31 0.24l-2.65 3.13c-0.02,-0.02 -0.04,-0.03 -0.06,-0.05l2.45 -3.29c0.09,0.06 0.18,0.14 0.26,0.21zm-2.5 3.27l3.05 -2.74c0.07,0.08 0.14,0.16 0.21,0.24l-3.19 2.58c-0.02,-0.02 -0.04,-0.05 -0.07,-0.08zm3.47 -2.23l-3.35 2.38c-0.01,-0.02 -0.02,-0.04 -0.04,-0.05l3.21 -2.56c0.06,0.08 0.12,0.15 0.18,0.23zm0.21 0.33l-3.49 2.15c-0.02,-0.03 -0.04,-0.06 -0.06,-0.09l3.37 -2.34c0.06,0.09 0.12,0.18 0.18,0.28zm0.35 0.65l-3.74 1.68c-0.01,-0.03 -0.03,-0.07 -0.05,-0.1l3.64 -1.88c0.05,0.1 0.1,0.2 0.15,0.3zm-0.17 -0.35l-3.63 1.92c-0.01,-0.02 -0.02,-0.04 -0.03,-0.06l3.51 -2.12c0.05,0.09 0.1,0.17 0.15,0.26zm0.31 0.69l-3.84 1.43c-0.01,-0.03 -0.02,-0.05 -0.03,-0.07l3.75 -1.65c0.04,0.09 0.08,0.19 0.12,0.29zm-3.74 2.15l0.35 0.04c0.19,-0.03 0.39,-0.07 0.58,-0.1l-0.93 -0.05c0,0.04 0,0.08 0,0.11zm0.28 0.05l-0.28 -0.03c0,0.02 -0.01,0.04 -0.01,0.07 0.1,-0.02 0.19,-0.03 0.29,-0.04zm-0.77 -1.35l2.85 -2.95c-0.08,-0.08 -0.16,-0.16 -0.25,-0.23l-2.68 3.11c0.03,0.02 0.06,0.05 0.08,0.07zm0.05 0.05l3.03 -2.77c-0.06,-0.07 -0.13,-0.13 -0.2,-0.2l-2.87 2.93c0.02,0.02 0.03,0.03 0.04,0.04zm-2.39 0.09l-3.17 -2.61c0.08,-0.08 0.15,-0.17 0.23,-0.25l3.01 2.78c-0.02,0.03 -0.05,0.05 -0.07,0.08zm-3.2 -2.57l3.19 2.58c-0.02,0.02 -0.03,0.05 -0.05,0.07l-3.34 -2.38c0.06,-0.09 0.13,-0.18 0.2,-0.27zm3.08 2.75l-3.5 -2.15c0.06,-0.1 0.13,-0.19 0.19,-0.29l3.36 2.35c-0.02,0.03 -0.04,0.06 -0.05,0.09zm-3.52 -2.11l3.51 2.12c-0.02,0.02 -0.03,0.04 -0.04,0.07l-3.62 -1.93c0.05,-0.09 0.1,-0.18 0.15,-0.26zm3.46 2.2l-3.63 -1.9c-0.05,0.1 -0.1,0.21 -0.15,0.31l3.74 1.68c0.01,-0.03 0.03,-0.06 0.04,-0.09zm-3.91 -1.28l3.83 1.45c0.01,-0.02 0.02,-0.05 0.03,-0.07l-3.75 -1.64c-0.04,0.09 -0.07,0.17 -0.11,0.26zm3.8 1.56l-3.92 -1.2c0.03,-0.1 0.07,-0.21 0.1,-0.31l3.85 1.42c-0.01,0.03 -0.02,0.06 -0.03,0.09zm-0.07 0.31l-3.06 -0.28c-0.33,-0.11 -0.65,-0.23 -0.98,-0.36 0,-0.02 0.01,-0.05 0.01,-0.07l4.05 0.62c-0.01,0.03 -0.01,0.06 -0.02,0.09zm0.02 -0.11l-4.04 -0.65c0.02,-0.11 0.04,-0.22 0.06,-0.33l4 0.89c-0.01,0.03 -0.02,0.06 -0.02,0.09zm-3.88 -1.35l3.92 1.16c-0.01,0.03 -0.01,0.06 -0.02,0.09l-3.99 -0.93c0.03,-0.11 0.06,-0.21 0.09,-0.32zm3.86 1.67l-1.05 0.04c-0.25,-0.05 -0.49,-0.1 -0.73,-0.16l1.78 0.03 0 0.04c0,0.02 0,0.03 0,0.05zm0 -0.1l-1.92 -0.05c-0.32,-0.08 -0.65,-0.17 -0.98,-0.28l2.9 0.24c0,0.03 0,0.06 0,0.09zm0 0.21l-0.39 0.04c-0.19,-0.03 -0.37,-0.06 -0.56,-0.09l0.95 -0.04c0,0.03 0,0.06 0,0.09zm-0.32 0.05l0.33 -0.04c0,0.03 0,0.05 0.01,0.08 -0.12,-0.01 -0.23,-0.03 -0.34,-0.04zm3.51 -0.38l2.81 -0.24c-0.33,0.11 -0.67,0.2 -1,0.29l-1.81 0.05c0,-0.03 0,-0.07 0,-0.1zm1.03 0.23l-1.02 -0.04 0 -0.02c0,-0.02 0,-0.04 -0.01,-0.05l1.68 -0.04c-0.22,0.06 -0.43,0.11 -0.65,0.15zm-1.07 -0.44l4 -0.88c0.02,0.11 0.04,0.22 0.06,0.33l-4.04 0.66c0,-0.04 -0.01,-0.08 -0.02,-0.11zm3.01 -0.09l-2.98 0.28c0,-0.02 0,-0.05 -0.01,-0.07l4.05 -0.62 0 0.01c-0.35,0.15 -0.71,0.28 -1.06,0.4zm-3.07 -0.1l3.85 -1.39c0.04,0.1 0.08,0.21 0.11,0.32l-3.92 1.17c-0.01,-0.03 -0.03,-0.07 -0.04,-0.1zm4.05 -0.74l-3.99 0.92c-0.01,-0.03 -0.01,-0.05 -0.02,-0.07l3.93 -1.13c0.03,0.09 0.06,0.19 0.08,0.28z"/>
   <path class="fil2" d="M11.54 2.83c-0.05,1.37 -0.1,2.74 -0.15,4.11l-0.04 0 0 -0.28 -0.01 0 0 0.28 -0.02 0 -0.08 -4.11c0.04,0 0.07,0 0.11,0 0.06,0 0.13,0 0.19,0zm0.39 0.03l-0.42 4.09c-0.03,-0.01 -0.07,-0.01 -0.11,-0.01l0.19 -4.11c0.12,0.01 0.23,0.02 0.34,0.03zm0.38 0.05l-0.71 4.05c-0.02,-0.01 -0.05,-0.01 -0.07,-0.01l0.45 -4.09c0.11,0.02 0.22,0.03 0.33,0.05zm0.39 0.08l-0.97 3.99c-0.04,-0.01 -0.08,-0.01 -0.11,-0.02l0.74 -4.04c0.12,0.02 0.23,0.04 0.34,0.07zm0.72 0.23l-1.49 3.83c-0.03,-0.02 -0.07,-0.03 -0.1,-0.04l1.29 -3.9c0.1,0.03 0.2,0.07 0.3,0.11zm-0.35 -0.13l-1.26 3.92c-0.02,-0.01 -0.04,-0.02 -0.07,-0.02l1.01 -3.99c0.11,0.03 0.22,0.06 0.32,0.09zm0.66 0.26l-1.73 3.73c-0.02,-0.01 -0.04,-0.02 -0.06,-0.03l1.53 -3.81c0.09,0.03 0.17,0.07 0.26,0.11zm0.34 0.17l-1.96 3.61c-0.03,-0.02 -0.07,-0.03 -0.1,-0.05l1.77 -3.71c0.1,0.05 0.2,0.1 0.29,0.15zm0.31 0.19l-2.2 3.46c-0.02,-0.01 -0.04,-0.02 -0.06,-0.03l2 -3.59c0.09,0.05 0.18,0.1 0.26,0.16zm-3.18 3.23l-0.34 -4.09c0.11,-0.01 0.22,-0.02 0.33,-0.02l0.12 4.11c-0.04,0 -0.08,0 -0.11,0zm0.99 0.24l2.24 -3.45c0.09,0.07 0.18,0.13 0.27,0.2l-2.41 3.31c-0.03,-0.02 -0.07,-0.04 -0.1,-0.06zm2.82 -3.01l-2.65 3.13c-0.02,-0.02 -0.04,-0.03 -0.06,-0.05l2.45 -3.29c0.09,0.06 0.18,0.14 0.26,0.21zm-2.5 3.27l3.05 -2.74c0.07,0.08 0.14,0.16 0.21,0.24l-3.19 2.58c-0.02,-0.02 -0.04,-0.05 -0.07,-0.08zm3.47 -2.23l-3.35 2.38c-0.01,-0.02 -0.02,-0.04 -0.04,-0.05l3.21 -2.56c0.06,0.08 0.12,0.15 0.18,0.23zm-3.04 3.47l0.35 0.04c0.19,-0.03 0.39,-0.07 0.58,-0.1l-0.93 -0.05c0,0.04 0,0.08 0,0.11zm0.28 0.05l-0.28 -0.03c0,0.02 -0.01,0.04 -0.01,0.07 0.1,-0.02 0.19,-0.03 0.29,-0.04zm-0.42 -0.86l3.74 -1.68c-0.05,-0.1 -0.1,-0.2 -0.15,-0.3l-3.64 1.88c0.02,0.03 0.04,0.07 0.05,0.1zm0.04 0.09l3.84 -1.43c-0.04,-0.1 -0.08,-0.2 -0.12,-0.29l-3.75 1.65c0.01,0.02 0.02,0.04 0.03,0.07zm-0.14 -0.27l3.49 -2.15c-0.06,-0.1 -0.12,-0.19 -0.18,-0.28l-3.37 2.34c0.02,0.03 0.04,0.06 0.06,0.09zm0.04 0.07l3.63 -1.92c-0.05,-0.09 -0.1,-0.17 -0.15,-0.26l-3.51 2.12c0.01,0.02 0.02,0.04 0.03,0.06zm-0.29 -0.38l2.85 -2.95c-0.08,-0.08 -0.16,-0.16 -0.25,-0.23l-2.68 3.11c0.03,0.02 0.06,0.05 0.08,0.07zm0.05 0.05l3.03 -2.77c-0.06,-0.07 -0.13,-0.13 -0.2,-0.2l-2.87 2.93c0.02,0.02 0.03,0.03 0.04,0.04zm-1.15 -0.49l0 -0.28 0 0.28zm-0.55 0.09l-1.39 -3.86c0.1,-0.04 0.21,-0.08 0.32,-0.11l1.17 3.94c-0.04,0.01 -0.07,0.02 -0.1,0.03zm-1.44 -3.85l1.42 3.86c-0.02,0.01 -0.05,0.02 -0.07,0.03l-1.66 -3.76c0.1,-0.04 0.2,-0.09 0.31,-0.13zm1.11 -0.28l0.64 4.06c-0.04,0 -0.08,0.01 -0.11,0.02l-0.87 -4.02c0.11,-0.03 0.22,-0.05 0.34,-0.06zm-0.39 0.07l0.9 4.01c-0.02,0 -0.04,0.01 -0.07,0.02l-1.13 -3.95c0.1,-0.03 0.2,-0.06 0.3,-0.08zm0.73 -0.12l0.37 4.1c-0.02,0 -0.04,0 -0.06,0l-0.6 -4.06c0.09,-0.02 0.19,-0.03 0.29,-0.04zm-0.21 4.27l-1.9 -3.64c0.1,-0.05 0.2,-0.1 0.3,-0.15l1.7 3.75c-0.04,0.01 -0.07,0.03 -0.1,0.04zm-1.95 -3.61l1.94 3.62c-0.02,0.01 -0.05,0.02 -0.07,0.04l-2.13 -3.51c0.08,-0.06 0.17,-0.11 0.26,-0.15zm1.77 3.72l-2.35 -3.36c0.09,-0.07 0.18,-0.13 0.27,-0.19l2.17 3.49c-0.03,0.02 -0.06,0.04 -0.09,0.06zm-0.31 0.29l-3.17 -2.61c0.08,-0.08 0.15,-0.17 0.23,-0.25l3.01 2.78c-0.02,0.03 -0.05,0.05 -0.07,0.08zm-2.65 -3.16l2.8 3.01c-0.03,0.02 -0.05,0.04 -0.07,0.06l-2.99 -2.81c0.09,-0.09 0.17,-0.18 0.26,-0.26zm2.81 3l-2.77 -3.03c0.08,-0.08 0.17,-0.15 0.25,-0.22l2.59 3.18c-0.02,0.02 -0.05,0.04 -0.07,0.07zm-2.24 -3.46l2.38 3.34c-0.02,0.01 -0.04,0.03 -0.06,0.04l-2.56 -3.2c0.08,-0.07 0.16,-0.12 0.24,-0.18zm1.86 3.98l-3.74 -1.68c0.05,-0.1 0.1,-0.21 0.15,-0.31l3.63 1.9c-0.01,0.03 -0.03,0.06 -0.04,0.09zm-3.42 -2.29l3.51 2.12c-0.02,0.02 -0.03,0.04 -0.04,0.07l-3.62 -1.93c0.05,-0.09 0.1,-0.18 0.15,-0.26zm3.52 2.11l-3.5 -2.15c0.06,-0.1 0.13,-0.19 0.19,-0.29l3.36 2.35c-0.02,0.03 -0.04,0.06 -0.05,0.09zm-3.08 -2.75l3.19 2.58c-0.02,0.02 -0.03,0.05 -0.05,0.07l-3.34 -2.38c0.06,-0.09 0.13,-0.18 0.2,-0.27zm2.91 3.12l-3.92 -1.2c0.03,-0.1 0.07,-0.21 0.1,-0.31l3.85 1.42c-0.01,0.03 -0.02,0.06 -0.03,0.09zm-3.69 -1.82l3.75 1.64c-0.01,0.03 -0.02,0.05 -0.03,0.07l-3.83 -1.45c0.04,-0.09 0.07,-0.17 0.11,-0.26zm3.62 2.13l-3.06 -0.28c-0.33,-0.11 -0.65,-0.23 -0.98,-0.36 0,-0.02 0.01,-0.05 0.01,-0.07l4.05 0.62c-0.01,0.03 -0.01,0.06 -0.02,0.09zm0.02 -0.11l-4.04 -0.65c0.02,-0.11 0.04,-0.22 0.06,-0.33l4 0.89c-0.01,0.03 -0.02,0.06 -0.02,0.09zm-3.88 -1.35l3.92 1.16c-0.01,0.03 -0.01,0.06 -0.02,0.09l-3.99 -0.93c0.03,-0.11 0.06,-0.21 0.09,-0.32zm3.86 1.67l-1.05 0.04c-0.25,-0.05 -0.49,-0.1 -0.73,-0.16l1.78 0.03 0 0.04c0,0.02 0,0.03 0,0.05zm-2.9 -0.43l2.9 0.24c0,0.03 0,0.06 0,0.09l-1.92 -0.05c-0.32,-0.08 -0.65,-0.18 -0.98,-0.28zm2.9 0.54l-0.39 0.04c-0.19,-0.03 -0.37,-0.06 -0.56,-0.09l0.95 -0.04c0,0.03 0,0.06 0,0.09zm-0.32 0.05l0.33 -0.04c0,0.03 0,0.05 0.01,0.08 -0.12,-0.01 -0.23,-0.03 -0.34,-0.04zm3.51 -0.38l2.81 -0.24c-0.33,0.11 -0.67,0.2 -1,0.29l-1.81 0.05c0,-0.03 0,-0.07 0,-0.1zm1.03 0.23l-1.02 -0.04 0 -0.02c0,-0.02 0,-0.04 -0.01,-0.05l1.68 -0.04c-0.22,0.06 -0.43,0.11 -0.65,0.15zm-1.07 -0.44l4 -0.88c0.02,0.11 0.04,0.22 0.06,0.33l-4.04 0.66c0,-0.04 -0.01,-0.08 -0.02,-0.11zm3.01 -0.09l-2.98 0.28c0,-0.02 0,-0.05 -0.01,-0.07l4.05 -0.62 0 0.01c-0.35,0.15 -0.71,0.28 -1.06,0.4zm-3.07 -0.1l3.85 -1.39c0.04,0.1 0.08,0.21 0.11,0.32l-3.92 1.17c-0.01,-0.03 -0.03,-0.07 -0.04,-0.1zm4.05 -0.74l-3.99 0.92c-0.01,-0.03 -0.01,-0.05 -0.02,-0.07l3.93 -1.13c0.03,0.09 0.06,0.19 0.08,0.28z"/>
   <path class="fil3" d="M12.94 8.37l0.05 -0.01 2.76 -0.23c-0.33,0.11 -0.67,0.2 -1,0.29l-1.81 0.05c0,-0.03 0,-0.07 0,-0.1z"/>
   <path class="fil3" d="M12.95 8.56l0.27 0.01 -0.27 -0.01 0 0zm0.35 0.15l-0.36 -0.03c0,-0.04 0,-0.07 0,-0.11l0.93 0.05c-0.19,0.03 -0.38,0.07 -0.57,0.09z"/>
   <path class="fil4" d="M16.69 6.58l-3.84 1.39c0.02,0.03 0.03,0.06 0.04,0.1l3.91 -1.17c-0.03,-0.11 -0.07,-0.22 -0.11,-0.32z"/>
   <path class="fil4" d="M12.38 7.3l0.15 -0.19 2.52 -2.91c0.09,0.07 0.17,0.15 0.25,0.23l-2.63 2.73 -0.21 0.21c-0.02,-0.03 -0.05,-0.05 -0.08,-0.07z"/>
   <path class="fil4" d="M11.63 6.93l0.13 -0.74 0.6 -3.27c0.12,0.02 0.23,0.04 0.34,0.07l-0.93 3.83 -0.04 0.13c-0.03,-0.01 -0.07,-0.01 -0.1,-0.02z"/>
   <path class="fil4" d="M10.78 6.98l-0.18 -0.48 -1.19 -3.33c0.1,-0.04 0.21,-0.08 0.32,-0.11l1.15 3.89c-0.03,0.01 -0.07,0.02 -0.1,0.03z"/>
   <path class="fil4" d="M10.04 7.46l-0.54 -0.44 -2.56 -2.11c0.08,-0.08 0.15,-0.17 0.23,-0.25l2.94 2.72c-0.02,0.03 -0.04,0.06 -0.07,0.08z"/>
   <path class="fil4" d="M9.65 8.25l-0.26 -0.04 -3.66 -0.59c0.02,-0.11 0.04,-0.22 0.06,-0.33l3.88 0.87c0,0.03 -0.01,0.06 -0.02,0.09zm-0.57 -0.25l0.6 0.14 0 0 -0.6 -0.14z"/>
   <path class="fil3" d="M9.75 8.59l-0.79 0.03 0.79 -0.03 0 0zm0 0.11l-0.21 0.02 -0.18 0.02c-0.19,-0.03 -0.37,-0.06 -0.56,-0.09l0.95 -0.04c0,0.03 0,0.06 0,0.09z"/>
   <path class="fil3" d="M9.75 8.38l-1.23 -0.11 1.23 0.11 0 0zm0 0.11l-0.21 -0.01 -1.71 -0.04c-0.32,-0.08 -0.65,-0.18 -0.98,-0.28l2.9 0.24c0,0.03 0,0.06 0,0.09z"/>
   <path class="fil3" d="M9.85 7.96l-0.47 -0.18 0.47 0.18 0 0zm-0.03 0.1l-0.24 -0.07 -3.68 -1.12c0.03,-0.1 0.07,-0.21 0.1,-0.31l3.85 1.42c-0.01,0.02 -0.02,0.05 -0.03,0.08z"/>
   <path class="fil3" d="M9.94 7.78l-0.13 -0.07 0.13 0.06 0 0.01zm-0.05 0.09l-1.07 -0.47 -2.67 -1.2c0.05,-0.1 0.1,-0.21 0.15,-0.31l3.63 1.9c-0.01,0.03 -0.03,0.05 -0.04,0.08z"/>
   <path class="fil3" d="M9.99 7.69l-0.69 -0.42 -2.81 -1.72c0.06,-0.1 0.13,-0.19 0.19,-0.29l3.36 2.35c-0.02,0.03 -0.04,0.05 -0.05,0.08z"/>
   <path class="fil3" d="M10.27 7.36l-0.48 -0.52 -2.29 -2.51c0.08,-0.08 0.17,-0.15 0.25,-0.22l2.59 3.18c-0.02,0.02 -0.05,0.04 -0.07,0.07z"/>
   <path class="fil3" d="M10.43 7.23l-2.36 -3.36c0.09,-0.07 0.18,-0.13 0.27,-0.19l2.17 3.49c-0.03,0.02 -0.06,0.04 -0.08,0.06z"/>
   <path class="fil3" d="M10.6 7.12l-0.32 -0.6 -1.58 -3.04c0.1,-0.05 0.2,-0.1 0.3,-0.15l1.7 3.75c-0.04,0.01 -0.07,0.02 -0.1,0.04z"/>
   <path class="fil3" d="M11 6.97l-0.21 -0.97 -0.66 -3.04c0.11,-0.03 0.22,-0.05 0.34,-0.06l0.64 4.06c-0.04,0 -0.07,0.01 -0.11,0.01z"/>
   <path class="fil3" d="M11.2 6.94l-0.05 -0.59 -0.29 -3.5c0.11,-0.01 0.22,-0.02 0.33,-0.02l0.12 4.11c-0.04,0 -0.07,0 -0.11,0z"/>
   <path class="fil3" d="M11.41 6.94l0.03 -0.88 0.15 -3.23c0.12,0.01 0.23,0.02 0.34,0.03l-0.42 4.09c-0.03,-0.01 -0.07,-0.01 -0.1,-0.01z"/>
   <path class="fil3" d="M11.83 7.01l0.02 -0.07 1.27 -3.83c0.1,0.03 0.2,0.07 0.3,0.11l-1.49 3.83c-0.03,-0.02 -0.07,-0.03 -0.1,-0.04z"/>
   <path class="fil3" d="M12.02 7.08l0.4 -0.85 1.36 -2.86c0.1,0.05 0.2,0.1 0.29,0.15l-1.96 3.61c-0.03,-0.01 -0.06,-0.03 -0.09,-0.05z"/>
   <path class="fil3" d="M12.2 7.18l0.29 -0.45 1.94 -3c0.09,0.07 0.18,0.13 0.27,0.2l-2.32 3.19 -0.09 0.12c-0.03,-0.02 -0.06,-0.04 -0.09,-0.06z"/>
   <path class="fil3" d="M12.51 7.44l3.05 -2.74c0.07,0.08 0.14,0.16 0.21,0.24l-3.19 2.58c-0.02,-0.02 -0.04,-0.05 -0.07,-0.08z"/>
   <path class="fil3" d="M12.64 7.6l0.43 -0.3 2.94 -2.04c0.06,0.09 0.12,0.18 0.18,0.28l-3.46 2.13 -0.03 0.02c-0.02,-0.03 -0.04,-0.06 -0.06,-0.09z"/>
   <path class="fil3" d="M12.75 7.77l0.26 -0.13 3.38 -1.75c0.05,0.1 0.1,0.2 0.15,0.3l-3.53 1.59 -0.21 0.09c-0.01,-0.03 -0.03,-0.06 -0.05,-0.1z"/>
   <path class="fil3" d="M12.9 8.16l4 -0.88c0.02,0.11 0.04,0.22 0.06,0.33l-4.04 0.66c0,-0.04 -0.01,-0.07 -0.02,-0.11z"/>
   <path class="fil5" d="M7.75 4.11l2.59 3.18 0 0 0.04 0.04c-0.03,0.02 -0.05,0.04 -0.08,0.07l-0.03 -0.04 -0.19 -0.21 -0.29 -0.31 -2.29 -2.51 0 -0.01 0.01 0 0 -0.01 0.01 0 0 0 0 -0.01 0.01 0 0 0 0.01 -0.01 0 0 0 0 0 0 0 0 0 0 0.01 -0.01 0 0 0 0 0 0 0.01 -0.01 0 0 0.01 0 0 0 0 -0.01 0 0 0.01 0 0 0 0 -0.01 0.01 0 0 0 0 0 0 -0.01 0.01 0 0 0 0 0 0 -0.01 0.01 0 0 0 0 0 0 0 0.01 -0.01 0 0 0 0 0 0 0 -0.01 0 0 0.01 0 0 0 0 0 0 0 0.01 -0.01 0 0 0 0 0 0 0.01 -0.01 0 0 0 0 0.01 0 0 -0.01 0 0 0 0 0.01 0 0 0 0 -0.01 0.01 0 0 0 0 0 0 -0.01 0.01 0 0 0 0 0 0 0 0.01 -0.01 0 0 0 0 0.01 -0.01 0 0 0.01 0 0 -0.01 0 0 0 0 0.01 0 0 -0.01 0.01 0 0 0 0 -0.01 0.01 0 0 0 0 0zm3.74 0l0 0 -0.1 2.88 -0.04 0 -0.03 0 -0.05 -2.88 0 0 -0.03 -1.28c0.04,0 0.07,0 0.11,0 0.06,0 0.13,0 0.19,0l-0.05 1.28zm-0.29 2.89l0 -0.06 0 0 -0.11 -1.27 -0.23 -2.82 0 0 0 0 0 0 0.01 0 0 0 0 0 0 0 0.01 0 0 0 0 0 0 0 0.01 0 0 0 0.01 0 0 0 0 0 0 0 0.01 0 0 0 0 -0.01 0 0 0.01 0 0 0 0 0 0 0 0.01 0 0 0 0 0 0 0 0.01 0 0 0 0 0 0.01 0 0 0 0 0 0 0 0.01 0 0 0 0 0 0 0 0.01 0 0 0 0 0 0 0 0.01 0 0 0 0 0 0 0 0.01 0 0 0 0.01 0 0 0 0 0 0 0 0.01 0 0 0 0 0 0 0 0.01 0 0 0 0 0 0 0 0.01 0 0 0 0.01 0 0 0 0.01 0 0 0 0.01 0 0 0 0 0 0.01 0 0 -0.01 0 0 0.01 0 0 0 0.01 0 0 0 0.01 0 0 0 0.01 0 0 0 0.01 0 0 0 0 0 0.01 0 0 0 0.01 0 0 0 0.01 0 0 0 0.01 0 0 0 0.01 0 0 0 0.01 0 0.01 0 0 0 0.12 4.11 0 0 0 0.05c-0.04,0 -0.07,0 -0.11,0.01zm0.2 -0.01l0 -0.05 0 0 0.04 -0.88 0 0 0.15 -3.23c0.12,0.01 0.23,0.02 0.34,0.03l-0.42 4.09 0 0 0 0 0 0.05c-0.04,0 -0.07,-0.01 -0.11,-0.01zm0.44 -2.86l0 0 0.14 -1.27c0.11,0.02 0.22,0.03 0.33,0.05l-0.22 1.26 0 0 -0.5 2.84c-0.02,0 -0.04,-0.01 -0.07,-0.01l0.32 -2.87zm-0.23 2.88l0.01 -0.05 0 0 0.14 -0.77 0 0 0.6 -3.27 0.01 0 0 0 0.01 0 0 0 0.01 0 0 0 0.01 0.01 0 0 0.01 0 0.01 0 0 0 0.01 0 0 0 0.01 0 0 0 0.01 0 0 0 0 0.01 0.01 0 0 0 0 0 0.01 0 0 0 0 0 0.01 0 0 0 0.01 0 0 0 0.01 0 0 0 0 0.01 0.01 0 0 0 0.01 0 0 0 0 0 0 0 0.01 0 0 0 0.01 0 0 0 0 0 0.01 0.01 0 0 0 0 0.01 0 0 0 0 0 0.01 0 0 0 0.01 0 0 0 0 0 0 0 0.01 0 0 0.01 0.01 0 0 0 0 0 0.01 0 0 0 0.01 0 0 0 0 0 0.01 0 0 0 0 0 0.01 0.01 0 0 0 0 0.01 0 0 0 0 0 0.01 0 0 0 0.01 0 0 0 0.01 0.01 0 0 0.01 0 0 0 0.01 0 0 0 -0.93 3.84 -0.04 0.15 0 0 -0.01 0.06c-0.04,-0.01 -0.08,-0.02 -0.11,-0.03zm0.83 -2.77l0 0 0.31 -1.24c0.11,0.03 0.22,0.06 0.32,0.09l-0.39 1.22 0 0 -0.88 2.75c-0.03,-0.01 -0.05,-0.02 -0.07,-0.02l0.71 -2.8zm-0.63 2.82l0.02 -0.05 0 0 0.02 -0.07 0 0 1.27 -3.83 0 0 0.01 0 0 0.01 0.01 0 0 0 0.01 0 0 0 0.01 0 0 0 0.01 0.01 0 0 0.01 0 0 0 0 0 0.01 0 0 0 0.01 0.01 0 0 0 0 0 0 0.01 0 0 0 0 0 0.01 0 0 0 0 0.01 0.01 0 0 0 0.01 0 0 0 0.01 0 0 0 0 0.01 0.01 0 0 0 0.01 0 0 0 0 0 0 0 0.01 0 0 0 0 0.01 0 0 0.01 0 0 0 0 0 0.01 0 0 0 0 0 0 0 0.01 0.01 0 0 0.01 0 0 0 0 0 0.01 0 0 0 0 0.01 0.01 0 0 0 0.01 0 0 0 0 0 0 0 0.01 0 0 0 0 0.01 0 0 0.01 0 0 0 0 0 0 0 0 0 0 0 0.01 0 0 0 0.01 0.01 0 0 0.01 0 0 0 0 0 0.01 0 0 0.01 0.01 0 0 0 -1.49 3.83 0 0 -0.02 0.05c-0.03,-0.02 -0.07,-0.03 -0.1,-0.04zm1.38 -2.55l0 0 -1.21 2.61c-0.02,0 -0.04,-0.01 -0.06,-0.02l1.07 -2.68 0.48 -1.18c0.09,0.03 0.17,0.07 0.26,0.11l-0.54 1.16zm-1.2 2.62l0.02 -0.05 0 0 0.4 -0.85 0.01 0 1.36 -2.86 0 0.01 0.01 0 0 0 0.01 0 0 0 0.01 0.01 0 0 0 0 0 0 0.01 0 0 0.01 0 0 0.01 0 0 0 0 0 0.01 0 0 0 0 0 0.01 0.01 0 0 0.01 0 0 0 0 0 0 0 0.01 0.01 0 0 0.01 0 0 0 0 0 0 0 0 0.01 0 0 0.01 0 0 0 0 0 0 0 0.01 0 0 0 0 0 0 0 0.01 0.01 0 0 0 0 0 0 0.01 0 0 0 0 0 0.01 0.01 0 0 0.01 0 0 0 0 0 0.01 0.01 0 0 0 0 0 0 0.01 0 0 0.01 0.01 0 0 0 0.01 0 0 0 0.01 0.01 0 0 0 0 0.01 0 0 0 0 0 0.01 0.01 0 0 0 0 0.01 0 0 0.01 0.01 0 0 0 0.01 0 0 0.01 0.01 0 0 0 0.01 0 0 0.01 0 0 0.01 0 0 0 -1.96 3.61 0 0 -0.03 0.05c-0.03,-0.02 -0.06,-0.03 -0.09,-0.05zm1.71 -2.35l0 0 -1.55 2.44c-0.02,-0.01 -0.03,-0.02 -0.05,-0.03l0.02 -0.05 2 -3.59c0.09,0.05 0.18,0.1 0.26,0.16l-0.68 1.07zm-1.54 2.45l0.03 -0.05 0 0 0.29 -0.45 1.95 -3 0 0.01 0.01 0 0 0 0 0.01 0.01 0 0 0 0.01 0 0 0.01 0.01 0 0 0 0 0 0.01 0.01 0 0 0 0 0.01 0.01 0 0 0.01 0 0 0 0 0 0.01 0.01 0 0 0.01 0 0 0.01 0 0 0 0 0 0 0.01 0 0 0 0 0 0.01 0.01 0 0 0.01 0 0 0.01 0 0 0 0 0.01 0 0 0 0 0.01 0.01 0 0 0 0.01 0 0 0 0 0.01 0 0 0.01 0 0 0 0 0.01 0 0 0.01 0 0 0 0 0 0 0 0.01 0.01 0 0 0 0 0 0 0.01 0 0 0 0 0 0 0 0 0.01 0.01 0 0 0 0 0 0.01 0.01 0 0 0 0 0.01 0 0 0 0 0.01 0 0 0 0 0.01 0 0 0.01 0.01 0 0 0 0 0 0.01 0 0 0.01 0 0 0.01 0 0 0.01 0.01 0 0 0 0 0.01 -0.75 1.03 0 0 -1.69 2.33c-0.03,-0.02 -0.06,-0.05 -0.1,-0.06zm2.03 -2.09l0 0 -1.87 2.2c-0.02,-0.02 -0.03,-0.03 -0.05,-0.05l0.03 -0.04 0 0 2.45 -3.29c0.09,0.06 0.18,0.14 0.26,0.21l-0.82 0.97zm-1.72 2.34l0.04 -0.04 0 0 0 0 3.05 -2.74 0.01 0 0 0.01 0 0 0.01 0.01 0 0 0 0 0 0 0 0 0 0 0.01 0.01 0 0 0 0 0 0 0.01 0.01 0 0 0 0 0 0 0.01 0.01 0 0 0 0.01 0.01 0 0 0 0 0 0 0.01 0 0 0.01 0 0 0 0 0.01 0 0 0.01 0 0 0.01 0.01 0 0 0.01 0 0 0 0 0 0 0.01 0.01 0 0 0 0 0 0.01 0.01 0 0 0 0 0 0 0.01 0.01 0 0 0 0 0 0 0.01 0.01 0 0 0.01 0 0 0 0 0.01 0 0 0 0 0.01 0 0 0 0 0 0 0.01 0 0 0 0 0.01 0 0 0 0 0 0 0.01 0.01 0 0 0 0 0 0 0 0 0 0 0 0.01 0.01 0 0 0 0 0 0 0 0 0.01 0 0 0.01 0 0 0 0 0.01 0 0 0 0 0.01 0 0 0 0 0.01 0 0 0 0 0 0 0.01 0 0 0 0 0.01 0 0 0 0 0 0 0 0.01 0 0 0.01 0 0 0 -0.99 0.8 0 0 -2.24 1.82c-0.02,-0.03 -0.04,-0.05 -0.07,-0.08zm2.47 -1.53l0 0 -2.35 1.67c-0.01,-0.02 -0.03,-0.04 -0.04,-0.05l0.04 -0.03 0 0 3.21 -2.56c0.06,0.08 0.12,0.15 0.18,0.23l-1.04 0.74zm-2.05 2.73l0.4 0.04c0.19,-0.03 0.38,-0.07 0.58,-0.1l-0.93 -0.05 0 0 0 0.01 -0.05 -0.01c0,0.04 0,0.07 0,0.11zm-0.02 0.09l0.01 0c0.12,-0.01 0.23,-0.03 0.34,-0.04l-0.28 -0.03 0 0 -0.06 -0.01c0,0.03 0,0.05 -0.01,0.08zm-0.12 -0.88l2.64 -1.18 0 0 1.15 -0.52 0 0 -0.01 -0.01 0 0 0 -0.01 0 0 0 -0.01 -0.01 0 0 -0.01 0 0 0 -0.01 -0.01 0 0 0 0 -0.01 0 0 0 0 0 -0.01 -0.01 0 0 -0.01 0 0 0 -0.01 -0.01 0 0 -0.01 0 0 0 -0.01 0 0 0 0 -0.01 -0.01 0 0 0 0 0 -0.01 0 0 -0.01 -0.01 0 0 0 0 0 -0.01 0 0 0 0 -0.01 0 0 -0.01 0 0 0 -0.01 0 0 0 0 0 0 -0.01 -0.01 0 0 0 0 0 0 0 -0.01 0 0 0 0 0 0 -0.01 -0.01 0 0 0 0 0 0 0 -0.01 0 0 0 0 -0.01 -0.01 0 0 0 -0.01 0 0 0 0 -0.01 -0.01 0 0 0 0 0 0 0 -0.01 0 0 -0.01 -0.01 0 0 0 -0.01 0 0 -0.01 -0.01 0 0 0 0 0 -0.01 0 0 0 0 -0.01 -0.01 0 0 -3.64 1.88 0 0 -0.05 0.03c0.02,0.03 0.04,0.06 0.05,0.09zm0.04 0.09l2.7 -1.01 0 0 1.19 -0.44c-0.04,-0.1 -0.08,-0.2 -0.12,-0.29l-3.75 1.65 0 0 -0.05 0.02c0.01,0.02 0.02,0.04 0.03,0.07zm-0.13 -0.26l2.45 -1.52 0 0 1.08 -0.66 0 0 0 -0.01 0 0 0 0 0 0 -0.01 -0.01 0 0 0 0 0 0 0 -0.01 0 0 -0.01 0 0 0 0 0 0 0 0 -0.01 0 0 0 0 0 0 -0.01 -0.01 0 0 0 0 0 0 0 -0.01 0 0 -0.01 0 0 0 0 -0.01 0 0 0 0 0 0 0 0 0 0 -0.01 -0.01 0 0 0 0 0 0 0 -0.01 0 0 -0.01 0 0 0 0 -0.01 0 0 0 0 0 0 0 -0.01 0 0 -0.01 0 0 0 0 0 0 -0.01 0 0 -0.01 0 0 0 0 -0.01 0 0 0 0 0 0 0 -0.01 0 0 -0.01 0 0 0 0 -0.01 0 0 0 0 0 0 -0.01 0 0 0 0 -0.01 0 0 0 0 0 0 0 -0.01 0 0 -0.01 0 0 0 0 -0.01 0 0 0 0 -0.01 0 0 0 0 -0.01 0 0 0 0 0 0 0 -0.01 0 0 -0.01 0 0 0 0 -0.01 0 0 0 0 0 0 -0.01 -0.01 0 0 0 0 0 0 0 0 0 0 -0.01 -0.01 0 0 0 -0.01 0 0 0 0 -0.01 -0.01 0 0 0 0 0 0 -0.01 -0.01 0 0 0 0 0 -0.01 0 0 -0.01 0 0 -0.01 0 0 0 0 -2.94 2.04 0 0 -0.43 0.3 0 0 -0.04 0.03c0.02,0.03 0.04,0.06 0.06,0.09zm0.04 0.07l2.55 -1.35 0 0 1.12 -0.6c-0.05,-0.09 -0.1,-0.17 -0.15,-0.26l-3.51 2.12 0 0 -0.05 0.03c0.02,0.02 0.03,0.04 0.04,0.06zm-0.28 -0.37l2 -2.08 0 0 0.88 -0.91 -0.01 -0.01 0 0 0 0 -0.01 -0.01 0 0 0 0 0 0 -0.01 -0.01 0 0 -0.01 -0.01 0 0 0 0 0 0 -0.01 -0.01 0 0 0 0 0 0 -0.01 -0.01 0 0 0 0 0 0 -0.01 0 0 -0.01 0 0 0 0 -0.01 0 0 0 0 -0.01 0 0 0 0 0 0 -0.01 -0.01 0 0 0 0 0 0 -0.01 0 0 0 0 -0.01 0 0 0 0 0 0 -0.01 0 0 -0.01 0 0 -0.01 0 0 0 0 0 0 0 0 -0.01 0 0 -0.01 0 0 0 0 0 0 -0.01 0 0 -0.01 0 0 0 0 0 0 0 -0.01 -0.01 0 0 0 0 0 0 0 -0.01 -0.01 0 0 0 0 0 -0.01 -0.01 0 0 0 0 0 0 0 0 0 0 -0.01 -0.01 0 0 0 0 0 0 -0.01 -0.01 0 0 0 0 0 0 -0.01 0 0 -0.01 0 0 -0.01 0 0 -0.01 -0.01 0 0 0 0 0 0 0 0 -0.01 -0.01 0 0 0 -0.01 -0.01 0 0 0 0 0 0 -0.01 -0.01 -2.52 2.91 0 0.01 -0.16 0.19 0 0 -0.04 0.04c0.03,0.02 0.06,0.05 0.09,0.07zm0.04 0.05l2.13 -1.95 0 0 0.94 -0.86c-0.06,-0.07 -0.13,-0.13 -0.2,-0.2l-2.87 2.93 0 0 -0.03 0.04c0.01,0.01 0.02,0.03 0.03,0.04zm-1.65 -0.39l-0.01 -0.05 0 0 -1.39 -3.86 0 0 0.01 -0.01 0 0 0 0 0.01 0 0 0 0 0 0 0 0.01 -0.01 0.01 0 0 0 0.01 0 0.01 0 0 0 0 -0.01 0 0 0.01 0 0 0 0 0 0 0 0.01 0 0 0 0 0 0.01 -0.01 0 0 0.02 0 0 0 0 0 0 0 0.01 0 0 -0.01 0 0 0.01 0 0 0 0.01 0 0 0 0 0 0.01 0 0.01 -0.01 0 0 0 0 0 0 0.01 0 0 0 0 0 0 0 0.01 0 0 0 0 -0.01 0 0 0.01 0 0 0 0 0 0.01 0 0 0 0 0 0 0 0.01 0 0 0 0 -0.01 0.01 0 0 0 0.01 0 0 0 0.01 0 0 0 0 -0.01 0.01 0 0 0 0.01 0 0 0 0.01 0 0 0 0.01 -0.01 0 0 0.01 0 0 0 0.01 0 0 0 0.01 -0.01 0 0 0.01 0 1.17 3.94 0 0 0.01 0.05c-0.03,0.01 -0.06,0.02 -0.1,0.03zm-0.68 -2.81l0 0 -0.35 -1.22c0.1,-0.03 0.2,-0.06 0.3,-0.08l0.28 1.24 0 0 0.64 2.82c-0.03,0.01 -0.05,0.01 -0.07,0.02l-0.8 -2.78zm0.88 2.76l-0.01 -0.05 0 0 -0.87 -4.02 0.01 0 0 0 0 0 0.01 -0.01 0 0 0.01 0 0 0 0.01 0 0 0 0 0 0.01 0 0 0 0.01 0 0 0 0.01 -0.01 0 0 0 0 0.01 0 0 0 0.01 0 0 0 0.01 0 0 0 0.01 0 0 0 0.01 -0.01 0 0 0.01 0 0 0 0.01 0 0 0 0.01 0 0 0 0.01 0 0 0 0.01 -0.01 0 0 0.01 0 0 0 0.01 0 0.01 0 0 0 0.01 0 0 0 0.01 0 0 -0.01 0 0 0.01 0 0 0 0.01 0 0 0 0.01 0 0 0 0.01 0 0 0 0 0 0.01 0 0 0 0.01 -0.01 0 0 0.01 0 0 0 0.01 0 0 0 0.01 0 0 0 0.01 0 0 0 0.01 0 0 0 0 0 0.01 0 0.64 4.06 0 0 0 0.05c-0.03,0 -0.07,0.01 -0.1,0.02zm-0.31 -2.88l0 0 -0.18 -1.26c0.09,-0.02 0.19,-0.03 0.29,-0.04l0.12 1.27 0 0 0.26 2.88c-0.02,0 -0.04,0 -0.06,0.01l-0.43 -2.86zm-0.25 3.12l-0.03 -0.04 0 0 -1.9 -2.72 -0.45 -0.64 0 0 0 0 0 0 0 -0.01 0 0 0.01 0 0 0 0 0 0 0 0.01 -0.01 0 0 0 0 0 0 0.01 0 0 0 0 -0.01 0 0 0 0 0 0 0.01 0 0 0 0 0 0 0 0.01 -0.01 0 0 0 0 0 0 0.01 0 0 0 0 -0.01 0 0 0 0 0 0 0.01 0 0 0 0 0 0 0 0.01 -0.01 0 0 0 0 0 0 0.01 0 0 0 0 -0.01 0 0 0 0 0 0 0.01 0 0 0 0 -0.01 0 0 0.01 0 0 0 0 0 0 0 0.01 0 0 0 0 -0.01 0 0 0 0 0.01 0 0 0 0 0 0 -0.01 0 0 0.01 0 0 0 0 0 0 0 0.01 0 0 0 0 -0.01 0 0 0.01 0 0 0 0 0 0 0 0 -0.01 0 0 0.01 0 0 0 0 0 0 0 0.01 0 0 0 0 -0.01 0 0 0.01 0 0 0 0 0 0 0 0 -0.01 0 0 0.01 0 0 0 0 0 0 0 0.01 0 0 0 0 -0.01 0 0 0.01 0 0 0 0 0 0 0 0.01 -0.01 0 0 0 0 0 0 0 0 0 0 0.01 0 0 0 0 -0.01 0 0 0.01 0 0 0 0 0 0 0 0.01 0 0 -0.01 0.01 0 0 0 0 -0.01 2.17 3.49 0 0 0.03 0.05c-0.03,0.02 -0.06,0.03 -0.09,0.05zm-1.4 -2.52l0 0 -0.66 -1.09c0.08,-0.06 0.17,-0.11 0.26,-0.15l0.6 1.12 0 0 1.36 2.55c-0.02,0.01 -0.04,0.02 -0.06,0.03l-1.5 -2.46zm1.57 2.42l-0.02 -0.05 0 0 -0.31 -0.6 -0.01 0 -0.64 -1.23 -0.94 -1.81 0 0 0 0 0 0 0.01 0 0 0 0 -0.01 0 0 0.01 0 0 0 0 0 0 0 0 0 0 0 0.01 -0.01 0 0 0 0 0 0 0.01 0 0 0 0 0 0 0 0.01 -0.01 0 0 0 0 0 0 0.01 0 0 0 0 0 0 0 0.01 0 0 0 0 -0.01 0 0 0.01 0 0 0 0 0 0 0 0.01 -0.01 0 0 0.01 0 0 0 0 0 0 0 0.01 0 0 -0.01 0 0 0 0 0 0 0.01 0 0.01 -0.01 0.01 0 0 0 0 0 0 0 0.01 -0.01 0 0 0.01 0 0 0 0 0 0 0 0.01 0 0 0 0 -0.01 0 0 0.01 0 0 0 0 0 0.01 0 0 0 0 -0.01 0 0 0.01 0 0 0 0 0 0 0 0.01 0 0 0 0 -0.01 0 0 0 0 0.01 0 0 0 0 0 0 0 0 0 0.01 0 0 -0.01 0 0 0.01 0 0 0 0 0 0 0 0.01 0 0 0 0 -0.01 0 0 0.01 0 0 0 0 0 0 0 0.01 0 0 0 0 0 0 0 0.01 -0.01 0 0 0 0 0 0 0.01 0 0 0 0 0 0 0 0.01 -0.01 0 0 0 0 0 0 1.7 3.75 0 0 0.02 0.04c-0.03,0.02 -0.07,0.03 -0.1,0.05zm-1.06 -2.69l0 0 -0.51 -1.17c0.1,-0.04 0.2,-0.09 0.31,-0.13l0.44 1.2 0 0 1 2.71c-0.02,0.01 -0.05,0.02 -0.07,0.03l-1.17 -2.64zm0.59 3.07l-0.04 -0.03 -0.07 -0.06 0 0 -0.54 -0.44 -1.58 -1.3 -0.98 -0.81 0.01 0 0 0 0 0 0 -0.01 0.01 0 0 -0.01 0 0 0.01 0 0 -0.01 0 0 0.01 -0.01 0 0 0 0 0 0 0.01 -0.01 0 0 0 0 0.01 -0.01 0 0 0 -0.01 0.01 0 0 0 0 -0.01 0 0 0.01 0 0 0 0 -0.01 0 0 0 0 0.01 0 0 0 0 -0.01 0 0 0.01 -0.01 0 0 0 0 0 0 0.01 -0.01 0 0 0 0 0 0 0 -0.01 0 0 0.01 0 0 0 0 0 0 0 0.01 -0.01 0 0 0 0 0 0 0 -0.01 0 0 0.01 0 0 0 0 0 0 0 0 -0.01 0 0 0.01 0 0 0 0 -0.01 0 0 0 0 0 0 0.01 0 0 0 0 -0.01 0 0 0 0 0 0 0.01 -0.01 0 0 0 0 0 0 0 0 0.01 0 0 -0.01 0 0 0 0 0 0 0.01 -0.01 0 0 0 0 0 0 0 0 0 0 0.01 -0.01 0 0 0 0 0 0 0 -0.01 0 0 0.01 0 0 0 0 0 0 0 0 -0.01 0 0 0.01 0 0 0 0 -0.01 0 0 0.01 0 0 0 0 0 0 0 3.01 2.78 0 0 0.04 0.04c-0.02,0.02 -0.05,0.05 -0.07,0.07zm-2.02 -2.06l0 0 -0.93 -0.87c0.09,-0.09 0.17,-0.18 0.26,-0.26l0.87 0.93 0 0 1.96 2.12c-0.02,0.02 -0.04,0.04 -0.06,0.06l-2.1 -1.98zm0.46 -0.42l0 0 -0.8 -0.99c0.08,-0.07 0.16,-0.12 0.24,-0.18l0.74 1.03 0 0 1.67 2.35c-0.02,0.01 -0.03,0.03 -0.05,0.04l-1.8 -2.25zm1.35 2.83l-2.64 -1.18 0 0 -1.15 -0.52 0 0 0 -0.01 0.01 0 0 -0.01 0 0 0 -0.01 0 0 0 0 0.01 -0.01 0 0 0 0 0 -0.01 0 0 0 0 0.01 -0.01 0 0 0 -0.01 0 0 0 -0.01 0.01 0 0 -0.01 0 0 0 0 0.01 -0.01 0 0 0 0 0 0 0 -0.01 0 0 0 0 0.01 -0.01 0 0 0 0 0 -0.01 0 0 0 0 0 0 0 -0.01 0 0 0.01 -0.01 0 0 0 0 0 -0.01 0.01 0 0 -0.01 0 0 0 0 0 -0.01 0 0 0.01 -0.01 0 0 0 -0.01 0 0 0.01 0 0 0 0 -0.01 0 0 0 0 0 -0.01 0 0 0 0 0.01 -0.01 0 0 0 0 0 -0.01 0 0 0 0 0.01 -0.01 0 0 0 0 0 -0.01 0 0 0.01 -0.01 0 0 0 0 0 0 0 -0.01 0.01 0 0 -0.01 0 0 0 -0.01 0.01 0 0 -0.01 3.63 1.9 0 0 0.05 0.02c-0.02,0.03 -0.03,0.06 -0.04,0.09zm-2.5 -1.46l0 0 -1.12 -0.59c0.05,-0.09 0.1,-0.18 0.15,-0.26l3.51 2.12 0 0 0.04 0.03c-0.01,0.02 -0.02,0.04 -0.03,0.06l-2.55 -1.36zm2.59 1.28l-2.46 -1.51 0 0 -1.08 -0.66 0.01 -0.01 0 0 0 -0.01 0.01 0 0 -0.01 0 0 0 -0.01 0.01 0 0 0 0 0 0 0 0 -0.01 0.01 0 0 -0.01 0 0 0 0 0 -0.01 0 0 0.01 -0.01 0 0 0 0 0.01 -0.01 0 -0.01 0 0 0.01 -0.01 0 0 0.01 -0.01 0 0 0 0 0 0 0.01 -0.01 0 0 0 -0.01 0 0 0 0 0.01 -0.01 0 0 0 0 0 0 0 -0.01 0 0 0 0 0 0 0.01 0 0 0 0 -0.01 0 0 0 0 0 0 0.01 -0.01 0 -0.01 0 0 0 0 0 0 0.01 -0.01 0 0 0 0 0 0 0.01 -0.01 0 0 0 0 0 -0.01 0.01 0 0 0 0 -0.01 0 0 0 -0.01 0 0 0.01 0 0 0 0 0 0 -0.01 0.01 0 0 -0.01 0 0 0 0 0 0 0.01 -0.01 0 0 0 0 0 -0.01 0.01 0 0 -0.01 3.36 2.35 0 0 0.04 0.03c-0.01,0.03 -0.03,0.06 -0.05,0.08zm-2.29 -1.76l0 0 -1.03 -0.74c0.06,-0.09 0.13,-0.18 0.2,-0.27l3.19 2.58 0 0 0.04 0.03c-0.01,0.03 -0.03,0.05 -0.05,0.07l-2.35 -1.67zm2.13 2.12l-2.76 -0.84 0 0 -1.21 -0.37 0 0 0 -0.01 0 0 0.01 -0.01 0 0 0 -0.01 0 0 0 -0.01 0 0 0 0 0.01 -0.01 0 0 0 -0.01 0 0 0 -0.01 0 0 0 -0.01 0.01 0 0 -0.01 0 0 0 -0.01 0 0 0 0 0 -0.01 0.01 0 0 0 0 -0.01 0 0 0 -0.01 0 0 0 0 0 -0.01 0 0 0 0 0.01 -0.01 0 0 0 0 0 0 0 -0.01 0 0 0 -0.01 0.01 0 0 -0.01 0 0 0 0 0 -0.01 0 0 0 0 0 -0.01 0 0 0.01 0 0 -0.01 0 0 0 0 0 -0.01 0 0 0 0 0 -0.01 0.01 0 0 -0.01 0 0 0 0 0 0 0 -0.01 0 0 0 0 0 0 0 -0.01 0 0 0.01 0 0 -0.01 0 0 0 -0.01 0 0 0.01 -0.01 0 0 0 -0.01 0 0 0 0 0 -0.01 0 0 3.85 1.42 0 0 0 0 0.05 0.01c-0.01,0.03 -0.02,0.06 -0.03,0.09zm-2.67 -1.12l0 0 -1.18 -0.45c0.04,-0.09 0.07,-0.17 0.11,-0.26l3.75 1.64 0 0 0.05 0.02c-0.01,0.03 -0.02,0.05 -0.03,0.07l-2.7 -1.02zm2.61 1.43l-2.88 -0.26 0 0 -0.24 -0.03c-0.33,-0.11 -0.65,-0.23 -0.98,-0.36 0,-0.02 0.01,-0.05 0.01,-0.07l4.05 0.62 0 0 0.05 0.01c-0.01,0.03 -0.01,0.06 -0.01,0.09zm0.01 -0.11l-2.85 -0.46 0 0 -1.24 -0.2 0 0 0 -0.01 0 0 0 0 0 0 0 -0.01 0 0 0 0 0 0 0 -0.01 0 0 0 0 0 0 0.01 -0.01 0 0 0 0 0 0 0 -0.01 0 0 0 0 0 0 0 -0.01 0 0 0 0 0 0 0 -0.01 0 0 0 0 0 0 0 -0.01 0 0 0 0 0 0 0 -0.01 0.01 0 0 0 0 -0.01 0 0 0 -0.01 0 0 0 0 0 -0.01 0 0 0 0 0 0 0 -0.01 0 0 0 0 0 -0.01 0 0 0 0 0 0 0 -0.01 0 0 0.01 0 0 -0.01 0 0 0 -0.01 0 0 0 -0.01 0 0 0 -0.01 0 0 0 -0.01 0.01 0 0 -0.01 0 0 0 0 0 0 0 -0.01 0 0 0 -0.01 0 0 0 -0.01 0 0 0 -0.01 0.01 0 0 0 0 -0.01 0 0 0 -0.01 0 0 0 -0.01 0 0 0 0 0 -0.01 0 0 0 -0.01 0.01 0 0 -0.01 0 0 0 -0.01 0 0 0 -0.01 4 0.89 0 0 0.05 0.01c-0.01,0.03 -0.01,0.06 -0.02,0.09zm-2.79 -0.75l0 0 -1.23 -0.29c0.03,-0.11 0.06,-0.21 0.09,-0.32l3.92 1.16 0 0 0.05 0.01c0,0.03 -0.01,0.06 -0.02,0.09l-2.81 -0.65zm2.77 1.06l-1.1 0.04c-0.24,-0.05 -0.49,-0.1 -0.73,-0.16l1.78 0.03 0 0 0.05 0 0 0.04c0,0.01 0,0.03 0,0.05zm0 -0.1l-1.96 -0.05c-0.33,-0.08 -0.66,-0.17 -0.99,-0.28l2.9 0.24 0 0 0.06 0c-0.01,0.03 -0.01,0.06 -0.01,0.09zm0.01 0.2l-0.45 0.05c-0.19,-0.03 -0.37,-0.06 -0.56,-0.09l0.95 -0.04 0 0 0.05 -0.01c0,0.03 0,0.06 0.01,0.09zm0.01 0.1l-0.03 0c-0.12,-0.01 -0.24,-0.03 -0.36,-0.04l0.33 -0.04 0 0 0.05 -0.01c0,0.03 0,0.06 0.01,0.09zm3.06 -0.42l0.06 0 0 0 0 0 0.86 -0.08 1.95 -0.16c-0.34,0.11 -0.67,0.2 -1,0.29l-1.86 0.06c0,-0.04 0,-0.07 -0.01,-0.11zm1.08 0.23l-1.07 -0.04 0 -0.02c0,-0.02 0,-0.03 0,-0.05l0.05 0 0 0 1.68 -0.04c-0.22,0.06 -0.44,0.11 -0.66,0.15zm-1.11 -0.43l0.05 -0.01 0 0 4 -0.88 0 0 0 0.01 0 0 0 0 0 0 0 0.01 0 0 0 0 0 0 0 0.01 0 0 0.01 0.01 0 0 0 0 0 0 0 0.01 0 0 0 0 0 0 0 0.01 0 0 0 0 0 0 0 0.01 0 0 0 0.01 0 0 0.01 0 0 0 0 0.01 0 0 0 0 0 0 0 0.01 0 0 0 0 0 0 0 0.01 0 0 0 0.01 0 0 0 0.01 0 0 0 0 0 0 0.01 0.01 0 0 0 0 0 0 0 0.01 0 0 0 0.01 0 0 0 0 0 0 0.01 0.04 0 0 0 0 0 0 0 0.02 0 0 0 0.01 0 0 0.01 0.01 0 0 0 0.01 0 0 0 0 0 0 0 0.02 0 0 0 0.01 0 0 0 0 0 0 0 0.01 0 0 0.01 0.01 0 0 0 0 0 0 0 0.01 0 0 0 0 0 0 0 0.01 0 0 0 0.01 0 0 -1.24 0.2 0 0 -2.85 0.47c-0.01,-0.04 -0.01,-0.07 -0.02,-0.11zm2.91 -0.08l0 0 -2.88 0.27c0,-0.03 0,-0.05 -0.01,-0.07l0.05 -0.01 0 0 4.05 -0.62 0 0.01c-0.35,0.15 -0.71,0.28 -1.06,0.4l-0.15 0.02zm-2.97 -0.1l0.05 -0.02 0 0 3.85 -1.39 0 0 0.01 0 0 0 0 0.01 0 0 0 0 0 0 0 0.01 0 0 0 0 0 0 0.01 0.01 0 0 0 0.01 0 0 0 0 0 0 0 0.01 0 0 0 0 0 0 0.01 0.01 0 0 0 0.01 0 0 0 0.01 0 0 0.01 0.01 0 0 0 0 0 0 0 0.01 0 0 0 0.01 0 0 0 0 0 0 0.01 0.03 0 0 0 0 0 0 0.01 0.01 0 0 0 0.01 0 0.01 0 0 0.01 0.01 0 0 0 0 0 0 0 0.01 0 0 0 0 0 0.01 0 0 0.01 0.01 0 0.01 0 0 0 0 0 0.01 0 0 0 0 0 0.01 0 0 0.01 0 0 0.01 0 0 0 0.01 0 0 0 0 0 0.01 0 0 0 0 0.01 0.01 0 0 0 0 0 0.01 0 0 0 0.01 0 0 0 0 0.01 0.01 0 0 0 0 0 0.01 0 0 -1.21 0.36 0 0 -2.77 0.83c-0.01,-0.04 -0.02,-0.07 -0.03,-0.1zm2.87 -0.48l0 0.01 -2.81 0.64c-0.01,-0.02 -0.02,-0.04 -0.02,-0.06l0.05 -0.02 0 0 3.93 -1.13c0.03,0.09 0.06,0.19 0.08,0.28l-1.23 0.28z"/>
   <path class="fil6" d="M11.35 6.65c1.03,0 1.86,0.83 1.86,1.86 0,0.08 0,0.15 -0.01,0.22 -1.23,0.18 -2.47,0.19 -3.71,0.03 -0.01,-0.08 -0.01,-0.16 -0.01,-0.25 0,-1.03 0.83,-1.86 1.87,-1.86z"/>
   <path class="fil7" d="M9.87 8.19c0.18,-0.81 0.99,-1.33 1.8,-1.15 0.79,0.18 1.3,0.95 1.16,1.74 -0.99,0.11 -1.98,0.12 -2.96,0.02 -0.04,-0.2 -0.04,-0.4 0,-0.61z"/>
   <path class="fil8" d="M10.66 7.27c0.31,0 0.56,0.25 0.56,0.56 0,0.31 -0.25,0.55 -0.56,0.55 -0.31,0 -0.55,-0.24 -0.55,-0.55 0,-0.31 0.24,-0.56 0.55,-0.56z"/>
  </g>
 </g>
</svg>
