<?xml version="1.0" encoding="UTF-8"?>
<!DOCTYPE svg PUBLIC "-//W3C//DTD SVG 1.1//EN" "http://www.w3.org/Graphics/SVG/1.1/DTD/svg11.dtd">
<!-- Creator: CorelDRAW 2020 (64-Bit) -->
<svg xmlns="http://www.w3.org/2000/svg" xml:space="preserve" width="24.4774mm" height="24.4774mm" version="1.1" style="shape-rendering:geometricPrecision; text-rendering:geometricPrecision; image-rendering:optimizeQuality; fill-rule:evenodd; clip-rule:evenodd"
viewBox="0 0 2433.56 2433.56"
 xmlns:xlink="http://www.w3.org/1999/xlink"
 xmlns:xodm="http://www.corel.com/coreldraw/odm/2003">
 <defs>
  <style type="text/css">
   <![CDATA[
    .fil2 {fill:#207953}
    .fil0 {fill:#55CD90}
    .fil1 {fill:#FF6600}
    .fil5 {fill:white}
    .fil3 {fill:url(#id0)}
    .fil4 {fill:url(#id1)}
   ]]>
  </style>
  <linearGradient id="id0" gradientUnits="userSpaceOnUse" x1="1212.46" y1="1101.96" x2="1212.46" y2="1634.31">
   <stop offset="0" style="stop-opacity:1; stop-color:#140A00"/>
   <stop offset="1" style="stop-opacity:1; stop-color:#1FA672"/>
  </linearGradient>
  <linearGradient id="id1" gradientUnits="userSpaceOnUse" x1="1313.59" y1="1344.06" x2="1582.99" y2="1702.03">
   <stop offset="0" style="stop-opacity:0; stop-color:#26D491"/>
   <stop offset="0.631373" style="stop-opacity:1; stop-color:#1EF598"/>
   <stop offset="1" style="stop-opacity:1; stop-color:#1FFF9E"/>
  </linearGradient>
 </defs>
 <g id="Layer_x0020_1">
  <metadata id="CorelCorpID_0Corel-Layer"/>
  <g id="_3099469260816">
   <g>
    <path class="fil0" d="M1871.45 1064.53l-369.16 84.33c-0.97,-3.86 -2.04,-7.68 -3.15,-11.47l332.26 -95.62c13.19,7.83 26.55,15.4 40.05,22.77z"/>
    <path class="fil0" d="M2031.08 1137.57l-521.87 49.15c-0.5,-4.36 -1.11,-8.69 -1.82,-12.98l445.67 -68.48c25.56,11.61 51.57,22.4 78.02,32.31z"/>
    <path class="fil0" d="M2181.48 1250.17l-670.34 -24.94 0.06 -4.26c0,-3.07 -0.06,-6.11 -0.15,-9.18l730.76 -15.65c62.42,11.58 126.44,18.63 191.75,20.64 -86.54,2.66 -170.82,14.13 -252.08,33.39z"/>
    <path class="fil0" d="M1059.9 1862.9l85.8 -356.15c-2.85,-0.73 -5.69,-1.46 -8.51,-2.25l-94.13 329.04c5.74,9.7 11.35,19.48 16.84,29.35z"/>
    <path class="fil0" d="M1099.25 1543.22l16.7 -45.53c-4.62,-1.68 -9.19,-3.48 -13.69,-5.39l-111.1 260.77c6.94,9.93 13.78,19.94 20.44,30.07l87.97 -239.81 -0.32 -0.11z"/>
    <path class="fil0" d="M1058.37 1525.14l22.35 -43c-4.33,-2.28 -8.62,-4.64 -12.82,-7.1l-125.34 213.07c6.37,7.97 12.67,16 18.85,24.13l97.19 -186.98 -0.24 -0.12z"/>
    <path class="fil0" d="M1006.41 1426.94l-158.34 155.72c5.74,5.72 11.38,11.51 17.01,17.34l118.09 -128.2 -0.1 -0.09 32.75 -35.55c-3.19,-3 -6.34,-6.07 -9.42,-9.22z"/>
    <path class="fil0" d="M1019.81 1501.61l27.68 -39.71c-4.3,-3.06 -8.54,-6.17 -12.7,-9.45l-140.59 178.75c6.7,7.44 13.32,14.94 19.84,22.54l105.93 -152 -0.17 -0.12z"/>
    <path class="fil0" d="M1134.05 2021.61l51.64 -507.83c-5.28,-0.57 -10.51,-1.27 -15.72,-2.1l-71.52 426.49c12.84,27.29 24.72,55.12 35.6,83.44z"/>
    <path class="fil0" d="M1223.97 1515.3l18.31 701.51c-14.52,70.28 -23.22,142.69 -25.5,216.75 -2.39,-77.63 -11.87,-153.45 -27.69,-226.89l20.81 -691.36 6.85 0.1 7.22 -0.11z"/>
    <path class="fil0" d="M1263 1511.76l68.44 434.39c-11.35,24.6 -21.98,49.58 -31.76,75l-50.96 -507.47c4.79,-0.52 9.55,-1.17 14.29,-1.92z"/>
    <path class="fil0" d="M1318.2 1548.65l-14.16 -46.4c-5.69,1.75 -11.44,3.33 -17.25,4.76l84.3 360.64c9.35,-16.99 19.07,-33.73 29.16,-50.23l-82.03 -268.78 -0.02 0.01z"/>
    <path class="fil0" d="M926.11 1268.19l-47.32 7.8 0.09 0.55 -376.25 62.07c-22.24,-10.63 -44.84,-20.65 -67.78,-30l489.19 -55.79c0.58,5.15 1.27,10.29 2.07,15.36z"/>
    <path class="fil0" d="M953.91 1440.87l36.78 -31.28c-3.01,-3.6 -5.94,-7.29 -8.78,-11.03l-182.04 138.57c6.63,5.95 13.18,11.98 19.69,18.06l134.4 -114.28 -0.04 -0.05z"/>
    <path class="fil0" d="M927.65 1404.92l40.41 -26.3c-2.6,-4.08 -5.07,-8.22 -7.47,-12.44l-216.39 123.8c7.86,6.27 15.64,12.65 23.34,19.1l160.1 -104.16z"/>
    <path class="fil0" d="M906.21 1365.71l43.48 -20.67c-2.31,-4.99 -4.51,-10.03 -6.55,-15.14l-268.57 108.35c10.72,7.4 21.28,14.98 31.75,22.71l199.97 -95.08 -0.08 -0.17z"/>
    <path class="fil0" d="M930.51 1290.13l-353.25 87.26c16.17,9.11 32.11,18.54 47.81,28.33l264.73 -82.56 -0.17 -0.57 45.87 -14.31c-1.85,-5.99 -3.51,-12.03 -4.99,-18.16z"/>
    <path class="fil0" d="M922.51 1230.75l-47.84 1.76 0.02 0.51 -602.23 22.09c-87.49,-22.29 -178.67,-35.44 -272.45,-38.33 52.46,-1.61 104.1,-6.46 154.75,-14.3l15.5 0.26 0.01 -0.44 752.15 12.37 -0.08 6.29c0,3.27 0.07,6.52 0.18,9.78z"/>
    <path class="fil0" d="M605.85 1039.52l328.79 96.99c-1.62,5.4 -3.09,10.86 -4.39,16.36l-46.46 -10.79 -0.1 0.41 -325.85 -75.66c16.23,-8.77 32.23,-17.87 48.01,-27.32z"/>
    <path class="fil0" d="M923.67 1192.84l-47.59 -4.36 -0.04 0.48 -490.77 -44.98c31.63,-11.33 62.63,-23.97 93.02,-37.71l447.63 68.68c-0.92,5.92 -1.69,11.89 -2.25,17.9z"/>
    <path class="fil0" d="M897.41 1098.28l44.53 16.85c1.7,-4.39 3.49,-8.77 5.41,-13.05l-261.76 -114.51c-9.59,6.78 -19.29,13.43 -29.07,19.94l240.76 91.11 0.13 -0.34z"/>
    <path class="fil0" d="M750.29 938.63l214.7 129.6c-2.51,4.11 -4.9,8.27 -7.2,12.51l-41.94 -22.37 -0.15 0.27 -189.46 -101.05c8.09,-6.22 16.11,-12.55 24.04,-18.96z"/>
    <path class="fil0" d="M807.3 889.81l180.62 145.92c-3.38,4.18 -6.64,8.44 -9.8,12.8l-38.64 -27.53 -0.14 0.19 -155.34 -110.68c7.85,-6.81 15.63,-13.7 23.31,-20.7z"/>
    <path class="fil0" d="M1429.86 1017.81l168.56 -154.28c-5.54,-5.36 -11.07,-10.76 -16.49,-16.22l-159.62 162.87c2.56,2.51 5.11,5.03 7.56,7.63z"/>
    <path class="fil0" d="M1488.25 1335.12l255.53 113.82c9.43,-6.72 18.95,-13.28 28.56,-19.74l-279.19 -106.56c-1.53,4.22 -3.18,8.38 -4.9,12.49z"/>
    <path class="fil0" d="M1824.17 1396.17l-323.53 -96.87c0.93,-3.4 1.82,-6.84 2.63,-10.29l353.35 88.21c-10.93,6.15 -21.74,12.48 -32.46,18.95z"/>
    <path class="fil0" d="M1470.87 1369.73l208.96 127.98c7.99,-6.51 16.08,-12.91 24.23,-19.23l-183.72 -98.68 -42.43 -22.79c-2.24,4.29 -4.59,8.53 -7.04,12.71z"/>
    <path class="fil0" d="M1448.22 1402.96l175.39 143.27c7.54,-6.91 15.14,-13.73 22.85,-20.46l-149.42 -107.63 -0.03 0.05 -39.14 -28.2c-3.09,4.42 -6.31,8.73 -9.64,12.97z"/>
    <path class="fil0" d="M1424.91 1429.2l154.29 159.83c4.95,-5 9.96,-9.95 14.99,-14.87l-126.27 -120.01 -0.09 0.1 -35.02 -33.28c-2.58,2.78 -5.21,5.54 -7.9,8.23z"/>
    <path class="fil0" d="M1395.78 1454.74l136.57 184.32c6.08,-6.86 12.24,-13.64 18.47,-20.36l-112.54 -136.13 -0.14 0.12 -30.82 -37.27c-3.78,3.21 -7.63,6.31 -11.54,9.33z"/>
    <path class="fil0" d="M1402.91 1508.9l-25.84 -40.95c-4.13,2.69 -8.34,5.29 -12.62,7.76l122.19 217.82c6.1,-7.72 12.3,-15.37 18.58,-22.95l-102.11 -161.83 -0.21 0.14z"/>
    <path class="fil0" d="M1326.68 1494.18l105.94 273.04c8.13,-11.97 16.46,-23.77 24.99,-35.44l-93.16 -201.29 -0.29 0.14 -20.35 -43.98c-5.62,2.69 -11.34,5.21 -17.14,7.54z"/>
    <path class="fil0" d="M1507.88 1265.18l422.27 73.81c25.51,-12.22 51.51,-23.59 77.94,-34.11l-498.32 -54.82c-0.49,5.08 -1.12,10.1 -1.89,15.12z"/>
    <path class="fil0" d="M1777.45 1007.8l-286.23 106.41c-1.74,-4.48 -3.6,-8.91 -5.55,-13.28l260.76 -114.43c10.22,7.25 20.57,14.36 31.02,21.31z"/>
    <path class="fil0" d="M1704.93 955.75l-230.88 121.98c-2,-3.54 -4.02,-7.04 -6.13,-10.51l214.11 -129.6c7.57,6.13 15.2,12.18 22.91,18.13z"/>
    <path class="fil0" d="M1647.09 908.37l-193.76 137.3c-2.3,-3.09 -4.66,-6.13 -7.07,-9.11l181.92 -145.04c6.25,5.68 12.55,11.3 18.91,16.85z"/>
    <path class="fil0" d="M1552.57 816.74l-149.58 176.16c-3.58,-2.93 -7.24,-5.78 -10.98,-8.54l140.69 -189.48c6.54,7.37 13.16,14.64 19.86,21.85z"/>
    <path class="fil0" d="M1503.39 760.72l-133 209.03c-3.48,-2.15 -7.04,-4.2 -10.62,-6.18l125.31 -225.55c6.01,7.64 12.12,15.2 18.3,22.7z"/>
    <path class="fil0" d="M1454.89 698.09l-118.21 253.91c-3.34,-1.51 -6.76,-2.94 -10.18,-4.31l110.17 -275.36c5.97,8.67 12.05,17.25 18.22,25.76z"/>
    <path class="fil0" d="M1404.51 623.14l-101.72 316.18c-4.33,-1.32 -8.7,-2.55 -13.13,-3.69l89.75 -354.86c8.11,14.3 16.45,28.43 25.1,42.37z"/>
    <path class="fil0" d="M1338.88 503.21l-74.97 427.11c-4.46,-0.73 -8.98,-1.33 -13.52,-1.87l55.71 -499.93c10.15,25.31 21.08,50.23 32.79,74.68z"/>
    <path class="fil0" d="M1249.72 250.23l-25.23 676.4 -7.73 -0.09 -4.45 0.05 -14.55 -743.32c10.66,-59.73 17.11,-120.93 19.03,-183.27 2.64,85.88 13.94,169.54 32.94,250.23z"/>
    <path class="fil0" d="M1138.67 399.54l48.48 528.48c-4.01,0.39 -8.02,0.89 -11.99,1.45l-67.35 -454.59c11.08,-24.7 21.37,-49.83 30.86,-75.34z"/>
    <path class="fil0" d="M1065.95 559.5l84.14 374.63c-4.4,1.01 -8.77,2.12 -13.09,3.34l-96.06 -333.94c8.63,-14.48 16.96,-29.17 25.01,-44.02z"/>
    <path class="fil0" d="M1006.93 657.39l106.27 287.89c-4.62,1.76 -9.22,3.61 -13.73,5.58l-115.16 -260.64c7.72,-10.82 15.24,-21.76 22.62,-32.83z"/>
    <path class="fil0" d="M953.92 730.99l123.17 230.73c-3.97,2.15 -7.91,4.39 -11.77,6.72l-24.58 -40.37 -0.03 0.02 -105.6 -173.44c6.36,-7.8 12.63,-15.69 18.81,-23.65z"/>
    <path class="fil0" d="M906.75 788.29l138.29 193.5c-3.59,2.57 -7.15,5.24 -10.62,8l-29.56 -36.94 -0.07 0.06 -115.8 -144.74c6,-6.56 11.89,-13.19 17.75,-19.88z"/>
    <path class="fil0" d="M860.8 837.96l155.48 167.41c-4.25,3.95 -8.4,8.02 -12.39,12.19l-34.48 -32.49 -0.11 0.12 -131.67 -124.09c7.81,-7.62 15.55,-15.33 23.17,-23.15z"/>
   </g>
   <path class="fil1" d="M1299.63 749.75l5.26 -29.72 38.37 -207.78c10.2,20.87 20.92,41.45 32.22,61.64l-68.5 281.3 -6.88 27.58 -0.4 -0.11 -5.62 23.08 -5.92 23.72c-6.51,-1.78 -13.14,-3.37 -19.83,-4.72l23.96 -135.27 7.34 -39.72zm-394.58 418.88l-48.34 -7.48 -5.13 -0.84 -53.05 -8.2 -310.19 -50.42c20.98,-9.7 41.64,-19.95 61.98,-30.77l358.64 79.92c-1.48,5.88 -2.77,11.78 -3.91,17.78zm71.64 -145.23l-38.48 -31.66 -0.21 0.23 -115.76 -95.25 -11.88 -9.77c8.1,-7.44 16.1,-15.01 24,-22.66l119.13 110.3 -0.02 0.02 36.54 33.83c-4.52,4.51 -9.08,10.17 -13.32,14.95zm135.61 -89.82l-32.42 -88.11 -11.85 -33 -10.06 -27.34 -47.68 -132.76c9.23,-13.98 18.14,-28.17 26.82,-42.52l80.65 271.33 -0.36 0.09 13.92 46.82c-6.43,1.63 -12.76,3.46 -19.02,5.49zm294.75 58.91l28.32 -33.38 17.79 -20.58 18.06 -21.29 84.22 -97.43c7.75,8.28 15.61,16.47 23.58,24.54l-78.69 81.71 -44.68 45.84 -0.16 -0.16 -33.51 34.39c-4.82,-4.72 -9.81,-9.27 -14.92,-13.65zm375.79 18.91l-288.58 104.39c2.31,6.04 4.46,12.16 6.41,18.39l46.34 -13.78 0.12 0.36 278.12 -82.72c-14.32,-8.62 -28.47,-17.48 -42.41,-26.64zm-271.09 257.23l7.5 1.3 40.71 7.49 0.05 -0.37 8.72 1.52 352.31 64.81c-19.29,9.44 -38.33,19.32 -57.05,29.7l-307.72 -73.91 0.01 -0.04 -47.75 -11.47c1.26,-6.27 2.34,-12.63 3.22,-19.03zm-20.13 173.98l-38.42 -31.95c-3.82,5.08 -7.78,10.04 -11.89,14.87l155.97 145.61c7.66,-7.44 15.4,-14.78 23.24,-22.03l-128.58 -106.95 -0.33 0.45zm-87.69 368.73l-93.08 -295.61c6.19,-2.23 12.25,-4.6 18.24,-7.19l18.01 47.65 0.58 -0.25 81.67 216.16c-8.69,12.91 -17.21,25.98 -25.42,39.23zm-339.95 59.11l79.53 -343.37c6.69,1.4 13.43,2.58 20.27,3.55l-9 50.88 0.72 0.11 -61.43 347.49c-9.52,-19.84 -19.57,-39.41 -30.08,-58.66zm-32.24 -420.3l-29.93 37.77 0.19 0.15 -110.77 139.8c-7.59,-8.36 -15.29,-16.6 -23.11,-24.75l149.45 -165.15c4.59,4.2 9.32,8.26 14.17,12.18zm-96.44 -141.84l-42.22 13.17 42.09 -13.61 0.13 0.44zm6.55 18.77l-44.38 17.82 0.04 0.11 -67.62 27.13 -159.97 62.89c-12.99,-8.9 -26.21,-17.51 -39.55,-25.92l305.74 -98.31c1.77,5.5 3.67,10.94 5.74,16.28zm-81.6 -190.76l49.56 11.2 -0.16 0.64 -49.49 -11.49 -0.08 0.34 -128.45 -29.82 128.63 29.08 -0.01 0.05zm29.65 186.86l-49.08 15.31 48.93 -15.82 0.15 0.51z"/>
   <path class="fil2" d="M1319.87 895.16l5.15 -16.11 83 -250.38c8.23,13.1 16.68,26.06 25.38,38.82l-91.76 235.34 -0.3 -0.11 -17.15 43.99c-6.14,-2.41 -12.4,-4.59 -18.73,-6.6l4.43 -13.86 10.28 -31 -0.31 -0.1zm-239.59 64.92l-59.23 -111.27 -0.95 -1.83 -30.86 -57.96 -32.32 -61.87c8.17,-10.61 16.25,-21.31 24.08,-32.19l96.77 213.89 -0.03 0.01 19.47 43.03c-5.76,2.57 -11.38,5.3 -16.91,8.19zm73.58 -26.76l-40.05 -180.06 -0.54 -2.48 -16.2 -72.85 -27.1 -125.87c11.64,-21.82 22.65,-44.03 33.03,-66.6l62.51 397.74 -0.16 0.02 7.33 46.61c-6.34,0.95 -12.62,2.12 -18.82,3.48zm36.78 -5.62l-9.98 -109.76 -0.18 -2.13 -5.7 -62.67 -30.54 -368.61c18.74,-52.39 34.03,-106.44 45.75,-161.82l18.67 656.76 -0.2 0.01 1.34 47.14c-6.43,0.16 -12.85,0.55 -19.17,1.08zm37.63 -0.92l6.3 -161.87 0.16 -3.35 2.72 -70.07 19.09 -413.69c12.18,46.88 26.93,92.72 44.2,137.3l-47.78 466.17 -0.24 -0.03 -4.81 46.93c-6.49,-0.7 -13.04,-1.14 -19.65,-1.39zm111.92 26.78l73.78 -157.65 1.51 -3.16 30.52 -65.23 12.01 -25.21c7.87,10.76 15.91,21.4 24.12,31.88l-101.63 186.79 -0.3 -0.16 -22.58 41.51c-5.69,-3.11 -11.51,-6.03 -17.44,-8.77zm33.13 17.98l53.28 -83.61 2.24 -3.45 31.85 -49.99 45.57 -70.25c7.72,9.28 15.6,18.38 23.57,27.43l-92.17 126.45 -19.65 26.61 -0.12 -0.09 -11.11 15.23 -16.9 22.89c-5.38,-3.93 -10.92,-7.68 -16.57,-11.21zm58.38 48.13l35.24 -31.69 -0.33 -0.35 134.79 -121.19c7.78,7.5 15.65,14.92 23.62,22.22l-143.24 116.29 -0.23 -0.28 -36.81 29.89c-4.19,-5.11 -8.55,-10.08 -13.06,-14.89zm23.68 28.67l79.04 -55.87 2.95 -2.05 48.66 -34.4 64.41 -44.79c9.2,7.96 18.53,15.75 27.96,23.44l-165.62 102.25 -5.57 3.4 -0.17 -0.26 -35.63 22 -4.79 2.92c-3.57,-5.68 -7.32,-11.21 -11.24,-16.65zm20.22 32.03l47.8 -25.23 3.05 -1.58 46.77 -24.69 135.61 -70.11c10.9,8.35 21.92,16.55 33.11,24.56l-168.41 75.69 -45.44 20.11 -0.02 -0.04 -4.4 1.98 -39.08 17.3c-2.79,-6.12 -5.78,-12.1 -8.99,-17.99zm27.45 71.24l46.6 -10.22 -0.09 -0.37 329.59 -72.32c20.86,11.19 42.05,21.83 63.59,31.86l-388.5 63.21 -0.04 -0.26 -47.13 7.67c-1.13,-6.59 -2.47,-13.13 -4.03,-19.58zm6.55 37.76l10.24 -0.96 37.36 -3.18 -0.03 -0.31 11.91 -1.12 476.98 -40.65c51.09,18.42 103.75,33.56 157.68,45.32l-644.9 19.52 -0.01 -0.21 -47.8 1.44c-0.28,-6.66 -0.74,-13.28 -1.43,-19.83zm1.63 35.58l50.8 2.15 -50.8 -1.89 0 -0.26zm46.59 26.64l-47.66 -4.86c0.54,-6.25 0.9,-12.57 1.05,-18.96l47.83 2.21 0.01 -0.42 594.91 27.45c-44.75,11.68 -88.54,25.72 -131.2,42.06l-464.95 -47.47 0 -0.01zm-57.81 50.37l19.81 5.96 26.14 8.08 0.06 -0.2 23.04 6.93 249.19 77.03c-13.69,8.36 -27.19,16.98 -40.53,25.84l-238.53 -88.59 0.02 -0.06 -45.08 -16.74c2.16,-6 4.12,-12.08 5.89,-18.24zm-12.77 35.65l14.59 6.53 29.25 13.34 0.1 -0.24 16.96 7.6 191.22 87.2c-10.47,7.54 -20.8,15.27 -31.02,23.12l-229.14 -120.45c2.86,-5.6 5.55,-11.29 8.03,-17.1zm-17.61 34.36l40.88 25.54 0.2 -0.33 165.55 103.43c-8.81,7.23 -17.55,14.55 -26.16,22l-190.66 -134.78c3.56,-5.16 6.97,-10.45 10.19,-15.86zm-46.75 59.29l33.47 34.87 0.01 -0.01 43.81 45.62 76.12 80.25c-7.57,7.7 -15.02,15.49 -22.39,23.37l-144.52 -171.67c4.62,-4.01 9.12,-8.15 13.49,-12.44zm-29.09 25.04l28.46 39.14 0.3 -0.22 106.94 147.03c-7.16,8.12 -14.23,16.33 -21.18,24.64l-128.95 -200.41c4.91,-3.26 9.73,-6.65 14.43,-10.18zm-49.88 30.32l20.36 43.98 0.29 -0.14 34.15 73.78 -26.29 -56.02 0.86 1.86 -29.71 -63.31 0.33 -0.15zm17.85 -9.33l23.53 42.34 0.02 -0.01 67.07 120.65 31.33 57.03c-7.77,9.9 -15.38,19.93 -22.86,30.07l-114.59 -241.91c5.25,-2.58 10.43,-5.29 15.5,-8.17zm-77.43 30.31l10.62 47.33 0.35 -0.08 71.82 320.1c-10.78,19.9 -21.06,40.12 -30.77,60.65l-62.7 -376.42 0.03 0 -7.97 -47.86c6.28,-1.05 12.5,-2.29 18.63,-3.72zm-38.14 6.32l4.42 48.33 0.35 -0.04 43.31 473.47c-17.66,47.62 -32.49,96.63 -44.35,146.77l-21.59 -618.79 0.08 0 -1.69 -48.49c6.55,-0.2 13.04,-0.61 19.48,-1.26zm-38.81 1.28l-1.89 48.49 0.36 0.01 -23.88 611.82c-11.46,-47.3 -25.58,-93.56 -42.21,-138.6l44.05 -474.61 0.13 0.01 4.48 -48.31c6.26,0.6 12.59,0.98 18.96,1.19zm-72.59 -11.44l-13.75 46.52 0.42 0.12 -81.95 277.24c-7.92,-13.23 -16.04,-26.34 -24.43,-39.24l103.45 -289.87c5.35,1.92 10.77,3.65 16.27,5.23zm-35.11 -12.65l-16.07 37.55 -3.05 6.99 0.09 0.04 -18.68 43.66 -73.9 169.3c-7.67,-10.87 -15.46,-21.65 -23.46,-32.26l118.56 -233.05c5.4,2.75 10.92,5.34 16.51,7.77zm-34.37 -17.69l-24.65 41.69 0.03 0.02 -45.24 76.53 -55.76 92.89c-7.41,-9.19 -14.93,-18.25 -22.59,-27.23l132.65 -193.96c5.09,3.51 10.25,6.87 15.55,10.06zm-60.64 -48.38l-1.62 1.58 -33.11 31.99 0.26 0.27 -1.89 1.84 -123.19 119.03c-7.3,-7.23 -14.7,-14.38 -22.18,-21.43l169.53 -146.75c3.92,4.62 7.99,9.1 12.2,13.46zm-24.59 -29.07l-38.48 29.11 0.01 0.01 -95.14 71.97 -49.79 37.21c-8.35,-7.45 -16.81,-14.78 -25.36,-22.01l198.24 -131.46c3.35,5.15 6.87,10.22 10.52,15.17zm-20.82 -32.34l-36 20.5 -5.89 3.3 0.04 0.07 -41.86 23.83 -135.02 75.68c-9.81,-7.77 -19.77,-15.35 -29.82,-22.83l240.16 -116.8c2.62,5.51 5.43,10.94 8.38,16.25zm-33.07 -95.48l-47.31 7.81 0.09 0.54 -118.1 19.5 63.73 -11.08 54.2 -9.41 47.24 -8.21 0.15 0.85zm3.72 19.1l-46.62 11.43 0 0.02 -55.47 13.6 -257.45 61.18c-19.25,-10.69 -38.83,-20.84 -58.68,-30.52l414.92 -72.22c0.93,5.58 2.02,11.07 3.29,16.5zm-7.33 -56.53l-47.83 1.75 0.02 0.52 -168.26 6.17 73.67 -3.22 -2.35 0.09 144.7 -6.32 0.05 1.01zm1.24 19.23l-38.61 4.36 -9.01 0.94 0.01 0.09 -44.88 5.07 -409.43 43.01c-40.42,-15.95 -81.87,-29.87 -124.23,-41.62l624.99 -28.46c0.23,5.58 0.62,11.1 1.15,16.6zm-0.08 -57.14l-47.58 -4.36 -0.04 0.48 -264.69 -24.26 84.62 7.28 180.2 15.53 47.6 4.1 -0.11 1.24zm-1.19 18.95l-37.67 -0.64 -10.14 -0.26 0 0.08 -43.79 -0.74 -629.6 -15.93c57.4,-11.12 113.4,-26.12 167.71,-44.75l554.46 45.87c-0.47,5.41 -0.79,10.88 -0.96,16.35zm19.47 -96.66l-44.52 -16.85 -0.13 0.34 -100.69 -38.11 60.46 22.5 -1.73 -0.66 86.8 32.3 -0.19 0.48zm-6.46 18.57l-43.67 -12.9 -2.03 -0.62 -0.01 0.02 -50.75 -15 -227.34 -69.26c13.39,-8.12 26.63,-16.44 39.7,-25.04l289.63 106.67c-2,5.3 -3.85,10.67 -5.54,16.14zm22.31 -52.96l-24.14 -12.87 24.24 12.74 -0.1 0.14zm-8.9 17.89l-43.52 -19.2 -152.63 -67.35 -0.04 -0.02 -62.69 -27.66c10.86,-7.74 21.59,-15.66 32.18,-23.73l234.4 122.37c-2.7,5.12 -5.29,10.32 -7.71,15.59zm17.99 -33.41l-40.59 -24.63 -86.67 -52.55 -0.47 -0.29 -60.81 -36.88 -24.58 -15.13c8.99,-7.32 17.89,-14.73 26.65,-22.29l196.17 137.16c-3.38,4.75 -6.62,9.63 -9.71,14.6zm51.52 -61.85l-32.16 -34.74 -0.06 0.06 -101.61 -109.73 -21.42 -23.52c7.66,-7.89 15.22,-15.88 22.67,-23.96l146.58 179.94c-4.77,3.84 -9.45,7.83 -14,11.95zm29.19 -23.38l-27.18 -38.67 -0.3 0.2 -110.25 -156.88c7.47,-8.61 14.8,-17.32 22.03,-26.14l131.22 211.27c-5.3,3.25 -10.47,6.66 -15.52,10.22zm-131.87 78.65l-28.06 -14.97 28.18 14.8 -0.12 0.17zm643.26 167.64l59.06 2.5 -59.06 -2.2 0 -0.3z"/>
   <g>
    <path class="fil3" d="M1216.78 872.84c189.95,0 343.94,153.98 343.94,343.94 0,189.95 -153.98,343.94 -343.94,343.94 -189.95,0 -343.94,-153.98 -343.94,-343.94 0,-189.95 153.98,-343.94 343.94,-343.94z"/>
    <path class="fil4" d="M945.91 1157.34c32.8,-149.6 180.69,-244.31 330.29,-211.46 149.65,32.85 244.31,180.69 211.46,330.34 -32.8,149.6 -180.69,244.26 -330.29,211.46 -149.65,-32.85 -244.31,-180.74 -211.46,-330.34z"/>
    <path class="fil5" d="M1090.66 988.52c56.38,0 102.12,45.68 102.12,102.06 0,56.38 -45.73,102.12 -102.12,102.12 -56.37,0 -102.06,-45.73 -102.06,-102.12 0,-56.37 45.68,-102.06 102.06,-102.06z"/>
   </g>
  </g>
 </g>
</svg>
