<?xml version="1.0" encoding="UTF-8"?>
<!DOCTYPE svg PUBLIC "-//W3C//DTD SVG 1.1//EN" "http://www.w3.org/Graphics/SVG/1.1/DTD/svg11.dtd">
<!-- Creator: CorelDRAW 2020 (64-Bit) -->
<svg xmlns="http://www.w3.org/2000/svg" xml:space="preserve" width="18.098mm" height="18.098mm" version="1.1" style="shape-rendering:geometricPrecision; text-rendering:geometricPrecision; image-rendering:optimizeQuality; fill-rule:evenodd; clip-rule:evenodd"
viewBox="0 0 184.4 184.4"
 xmlns:xlink="http://www.w3.org/1999/xlink"
 xmlns:xodm="http://www.corel.com/coreldraw/odm/2003">
 <defs>
  <style type="text/css">
   <![CDATA[
    .fil2 {fill:#207953}
    .fil4 {fill:#267A59}
    .fil0 {fill:#55CD90}
    .fil3 {fill:#FF6600}
    .fil8 {fill:white}
    .fil6 {fill:url(#id0)}
    .fil1 {fill:url(#id1)}
    .fil7 {fill:url(#id2)}
    .fil5 {fill:url(#id3)}
   ]]>
  </style>
  <linearGradient id="id0" gradientUnits="userSpaceOnUse" x1="91.79" y1="82.04" x2="91.79" y2="128.92">
   <stop offset="0" style="stop-opacity:1; stop-color:#140A00"/>
   <stop offset="1" style="stop-opacity:1; stop-color:#1FA672"/>
  </linearGradient>
  <linearGradient id="id1" gradientUnits="userSpaceOnUse" x1="92.13" y1="92.18" x2="90.93" y2="-38.43">
   <stop offset="0" style="stop-opacity:0; stop-color:#93BF85"/>
   <stop offset="1" style="stop-opacity:0.447059; stop-color:#002611"/>
  </linearGradient>
  <linearGradient id="id2" gradientUnits="userSpaceOnUse" x1="99.95" y1="102.41" x2="121.62" y2="131.22">
   <stop offset="0" style="stop-opacity:0; stop-color:#26D491"/>
   <stop offset="0.631373" style="stop-opacity:1; stop-color:#1EF598"/>
   <stop offset="1" style="stop-opacity:1; stop-color:#1FFF9E"/>
  </linearGradient>
  <radialGradient id="id3" gradientUnits="userSpaceOnUse" gradientTransform="matrix(0.0265703 1.06101 -1.06104 0.0265703 188 -8)" cx="92.2" cy="92.2" r="39.11" fx="92.2" fy="92.2">
   <stop offset="0" style="stop-opacity:1; stop-color:#1F1F02"/>
   <stop offset="1" style="stop-opacity:0; stop-color:#003D23"/>
  </radialGradient>
 </defs>
 <g id="Layer_x0020_1">
  <metadata id="CorelCorpID_0Corel-Layer"/>
  <g id="_3099474759312">
   <path class="fil0" d="M33.91 20.75l42.03 51.59c-0.43,0.34 -0.82,0.72 -1.25,1.1l-44.81 -49.19c1.3,-1.2 2.64,-2.35 4.03,-3.51l0 0zm-4.66 4.08l45.29 48.75c-0.38,0.34 -0.77,0.67 -1.1,1.06l-48.42 -45.63c1.39,-1.44 2.79,-2.83 4.23,-4.18zm14.27 -10.95l35.16 56.54c-0.48,0.34 -0.96,0.62 -1.44,0.96l-38.23 -54.52c1.49,-1.01 2.98,-2.02 4.51,-2.98l0 0zm-5.14 3.46l38.67 54.13c-0.29,0.24 -0.62,0.48 -0.91,0.72l-41.55 -51.97c1.2,-0.96 2.5,-1.97 3.79,-2.88l0 0zm15.8 -9.17l27.47 60.71c-0.53,0.24 -1.06,0.48 -1.58,0.72l-30.84 -58.98c1.63,-0.87 3.27,-1.68 4.95,-2.45zm-5.67 2.83l31.37 58.74c-0.34,0.19 -0.67,0.38 -1.01,0.58l-34.63 -56.87c1.39,-0.87 2.83,-1.68 4.28,-2.45l0 0zm17.44 -7.21l19.02 63.88c-0.58,0.14 -1.15,0.34 -1.68,0.53l-22.53 -62.68c1.73,-0.62 3.46,-1.2 5.19,-1.73zm-5.96 1.97l23.06 62.54c-0.38,0.14 -0.77,0.29 -1.2,0.48l-26.9 -60.95c1.63,-0.72 3.36,-1.39 5.04,-2.07l0 0zm11.72 -3.46l14.6 64.99c-0.38,0.1 -0.77,0.19 -1.15,0.29l-18.4 -64.03c1.63,-0.48 3.27,-0.86 4.95,-1.25l0 0zm14.84 64.94l-14.03 -65.13c1.78,-0.38 3.6,-0.72 5.43,-1.01l10.33 65.81c-0.58,0.1 -1.15,0.19 -1.73,0.34l0 0zm-3.07 -66.81l6.1 66.33c-0.34,0.05 -0.72,0.1 -1.06,0.14l-9.75 -65.95c1.54,-0.19 3.12,-0.38 4.71,-0.53zm6.34 66.29l-5.52 -66.38c1.78,-0.14 3.55,-0.24 5.38,-0.29l1.87 66.57c-0.58,0.05 -1.15,0.05 -1.73,0.1zm5.52 -66.67l-2.5 66.57 -0.67 0 -0.38 0 -1.3 -66.62c0.58,0 1.15,0 1.68,0 1.06,0 2.11,0.05 3.17,0.05l0 0zm-2.26 66.57l3.07 -66.53c1.87,0.1 3.7,0.19 5.57,0.38l-6.82 66.29c-0.58,-0.05 -1.2,-0.1 -1.82,-0.14zm14.79 -65.28l-11.53 65.61c-0.38,-0.05 -0.82,-0.1 -1.2,-0.14l7.4 -66.24c1.78,0.19 3.55,0.43 5.33,0.77zm-11.34 65.66l12.1 -65.52c1.87,0.34 3.7,0.72 5.52,1.15l-15.8 64.75c-0.58,-0.14 -1.2,-0.29 -1.83,-0.38zm23.63 -62.68l-20.41 63.45c-0.39,-0.14 -0.77,-0.24 -1.15,-0.34l16.33 -64.6c1.78,0.43 3.51,0.96 5.24,1.49l0 0zm-20.17 63.5l20.94 -63.26c1.63,0.58 3.27,1.15 4.9,1.78l-24.21 62.06c-0.53,-0.19 -1.1,-0.38 -1.63,-0.58zm30.89 -59.32l-28.15 60.38c-0.29,-0.14 -0.58,-0.29 -0.87,-0.38l24.74 -61.87c1.44,0.58 2.83,1.2 4.28,1.87zm-27.91 60.47l28.63 -60.14c1.63,0.77 3.22,1.59 4.8,2.45l-31.85 58.5c-0.53,-0.29 -1.06,-0.58 -1.59,-0.82l0 0zm38.47 -54.71l-35.74 56.15c-0.29,-0.19 -0.62,-0.34 -0.91,-0.53l32.33 -58.22c1.44,0.82 2.93,1.68 4.32,2.59zm5.19 3.55l-39.2 53.75c-0.48,-0.34 -1.01,-0.67 -1.54,-1.01l36.22 -55.86c1.54,1.01 3.08,2.02 4.51,3.12l0 0zm5 3.94l-43.04 50.72c-0.34,-0.29 -0.62,-0.53 -0.96,-0.77l39.68 -53.41c1.49,1.11 2.93,2.26 4.32,3.46zm-40.54 53.08l49.47 -44.48c1.15,1.25 2.26,2.55 3.31,3.89l-51.64 41.89c-0.34,-0.43 -0.72,-0.87 -1.15,-1.3l0 0zm56.15 -36.17l-54.23 38.47c-0.19,-0.29 -0.38,-0.58 -0.62,-0.82l52.02 -41.45c0.96,1.25 1.92,2.5 2.83,3.79l0 0zm3.51 5.24l-56.58 34.92c-0.29,-0.53 -0.67,-1.01 -1.01,-1.54l54.57 -37.95c1.06,1.49 2.07,3.03 3.03,4.56l0 0zm5.62 10.66l-60.62 27.24c-0.24,-0.58 -0.48,-1.11 -0.82,-1.68l59.03 -30.5c0.86,1.63 1.63,3.27 2.4,4.95zm-2.79 -5.67l-58.74 31.03c-0.19,-0.29 -0.34,-0.62 -0.53,-0.91l56.87 -34.39c0.82,1.39 1.63,2.83 2.4,4.28l0 0zm4.99 11.14l-62.2 23.1c-0.19,-0.38 -0.34,-0.77 -0.53,-1.15l60.86 -26.71c0.67,1.58 1.3,3.12 1.87,4.76l0 0zm-60.57 34.87l65.9 6.63c0.19,-1.73 0.29,-3.55 0.38,-5.33l-66.19 -3.03c0,0.58 -0.05,1.15 -0.1,1.73zm-0.19 1.54l65.23 11.38c0.29,-1.78 0.58,-3.6 0.77,-5.48l-65.81 -7.25c-0.05,0.48 -0.1,0.91 -0.19,1.34zm-17.72 20.8l19.79 62.87c1.73,-0.53 3.41,-1.1 5.09,-1.73l-23.34 -61.67c-0.48,0.19 -1.01,0.38 -1.54,0.53zm1.78 -0.62l23.82 61.48c1.82,-0.72 3.6,-1.49 5.38,-2.31l-27.71 -59.85c-0.48,0.24 -0.96,0.48 -1.49,0.67zm1.73 -0.77l28.2 59.61c1.68,-0.82 3.31,-1.63 4.95,-2.55l-31.75 -57.78c-0.48,0.24 -0.91,0.48 -1.39,0.72l0 0zm37.9 54.23l-35.21 -55.77c-0.34,0.24 -0.72,0.48 -1.1,0.67l32.28 57.54c1.35,-0.77 2.69,-1.59 4.03,-2.45zm-33.72 -56.77l38.81 53.32c-1.44,1.06 -2.93,2.07 -4.42,3.03l-35.69 -55.48c0.43,-0.29 0.87,-0.58 1.3,-0.87l0 0zm1.34 -1.15l42.51 50.48c1.39,-1.2 2.79,-2.4 4.13,-3.7l-45.39 -47.89c-0.43,0.38 -0.82,0.77 -1.25,1.1l0 0zm-1.15 1.01l39.24 52.98c1.3,-0.96 2.55,-1.92 3.79,-2.98l-42.03 -50.82c-0.34,0.24 -0.67,0.53 -1.01,0.82l0 0zm3.41 -3.17l48.23 45.06c1.25,-1.3 2.45,-2.69 3.6,-4.03l-50.77 -42.27c-0.34,0.43 -0.72,0.87 -1.06,1.25l0 -0zm-0.87 0.91l45.82 47.46c0.91,-0.87 1.82,-1.78 2.74,-2.74l-47.89 -45.44c-0.19,0.24 -0.43,0.48 -0.67,0.72l-0 0zm3.03 -3.65l53.94 38.14c1.06,-1.49 2.07,-2.98 2.98,-4.52l-56.01 -35.02c-0.29,0.48 -0.58,0.96 -0.91,1.39l0 -0zm-0.96 1.34l51.11 41.74c1.15,-1.39 2.26,-2.83 3.31,-4.28l-53.6 -38.62c-0.24,0.39 -0.53,0.77 -0.82,1.15zm2.69 -4.28l58.5 30.79c0.87,-1.59 1.63,-3.22 2.4,-4.85l-60.18 -27.43c-0.19,0.48 -0.43,1.01 -0.72,1.49zm-0.72 1.35l56.34 34.49c0.91,-1.39 1.73,-2.88 2.55,-4.32l-58.26 -31.27c-0.19,0.34 -0.39,0.72 -0.62,1.11zm3.22 -8.98l65.13 11.96c-0.29,1.73 -0.67,3.46 -1.06,5.14l-64.36 -15.47c0.1,-0.53 0.24,-1.11 0.29,-1.63l0 0zm62.83 21.76l-63.4 -18.97c0.1,-0.34 0.14,-0.62 0.24,-0.91l64.22 16.04c-0.34,1.3 -0.67,2.55 -1.06,3.84l0 0zm-63.98 -17.15l62.01 23.06c0.62,-1.68 1.2,-3.41 1.73,-5.14l-63.21 -19.55c-0.19,0.58 -0.34,1.1 -0.53,1.63zm-0.53 1.3l60.43 26.9c0.62,-1.44 1.25,-2.88 1.83,-4.42l-61.82 -23.58c-0.14,0.38 -0.29,0.77 -0.43,1.11l0 -0zm-5.96 -28.77l46.11 -47.89c-1.3,-1.25 -2.59,-2.5 -3.99,-3.65l-43.52 50.34c0.48,0.38 0.96,0.77 1.39,1.2l0 0zm0.82 0.87l49.04 -44.91c-1.01,-1.15 -2.07,-2.21 -3.12,-3.31l-46.59 47.55c0.24,0.19 0.48,0.43 0.67,0.67l0 0zm-38.76 1.39l-51.35 -42.27c1.15,-1.44 2.4,-2.83 3.65,-4.18l48.8 45.2c-0.38,0.38 -0.77,0.82 -1.1,1.25l0 0zm-51.88 -41.65l51.73 41.79c-0.34,0.38 -0.58,0.77 -0.87,1.15l-54.13 -38.57c1.01,-1.49 2.11,-2.93 3.27,-4.37zm49.81 44.48l-56.58 -34.82c0.96,-1.59 1.97,-3.12 3.03,-4.61l54.47 38.09c-0.34,0.43 -0.62,0.87 -0.91,1.34l0 0zm-57.02 -34.15l56.92 34.34c-0.24,0.34 -0.43,0.72 -0.67,1.1l-58.6 -31.27c0.77,-1.39 1.54,-2.79 2.35,-4.18l-0 0zm56.15 35.64l-58.89 -30.74c-0.87,1.68 -1.68,3.36 -2.45,5.04l60.62 27.19c0.24,-0.53 0.48,-1.01 0.72,-1.49zm-63.4 -20.65l62.11 23.49c0.19,-0.38 0.34,-0.77 0.48,-1.15l-60.86 -26.61c-0.58,1.39 -1.15,2.83 -1.73,4.28l0 0zm61.53 25.17l-63.5 -19.36c0.53,-1.73 1.11,-3.41 1.68,-5.04l62.35 22.91c-0.19,0.48 -0.38,0.96 -0.53,1.49zm-1.01 5.14l-66 -6.05c0.14,-1.87 0.38,-3.7 0.62,-5.57l65.56 10.09c-0.1,0.48 -0.14,1.01 -0.19,1.54zm0.24 -1.78l-65.47 -10.61c0.29,-1.83 0.62,-3.55 1.01,-5.33l64.75 14.46c-0.1,0.48 -0.19,1.01 -0.29,1.49l0 -0zm-62.92 -21.95l63.64 18.78c-0.14,0.48 -0.29,0.96 -0.38,1.44l-64.65 -14.99c0.43,-1.78 0.87,-3.51 1.39,-5.24l0 0zm62.59 27.09l-66.19 2.45c-0.05,-1.25 -0.1,-2.45 -0.1,-3.7 0,-0.43 0,-0.82 0,-1.25l66.29 1.06 -0.05 0.58c0,0.29 0.05,0.58 0.05,0.87l0 -0zm0 -1.63l-66.24 -1.68c0,-1.78 0.1,-3.51 0.24,-5.28l66.05 5.48c0,0.48 -0.05,1.01 -0.05,1.49zm0.1 3.36l-65.85 6.92c-0.19,-1.78 -0.34,-3.6 -0.43,-5.38l66.19 -3.03c0,0.48 0.05,1.01 0.1,1.49zm0.58 3.51l-64.22 15.85c0.43,1.82 0.96,3.65 1.54,5.43l63.16 -19.69c-0.19,-0.53 -0.34,-1.06 -0.48,-1.59l0 0zm-57.98 33.24l59.71 -28.39c-0.24,-0.48 -0.43,-0.91 -0.58,-1.34l-61.34 24.74c0.67,1.68 1.39,3.36 2.21,4.99zm-2.55 -5.76l61.58 -24.21c-0.19,-0.48 -0.38,-0.96 -0.53,-1.44l-62.97 20.22c0.58,1.87 1.25,3.65 1.92,5.43zm8.45 16.33l55.38 -36.02c-0.19,-0.34 -0.43,-0.72 -0.62,-1.1l-57.4 32.85c0.86,1.44 1.73,2.88 2.64,4.28zm-3.03 -5l57.64 -32.33c-0.24,-0.48 -0.48,-0.96 -0.72,-1.44l-59.46 28.92c0.82,1.63 1.63,3.27 2.55,4.85l-0 0zm10.13 14.46l50.29 -42.75c-0.29,-0.34 -0.53,-0.62 -0.77,-0.96l-52.55 39.96c0.96,1.3 1.97,2.55 3.03,3.75l-0 0zm-3.51 -4.37l52.88 -39.53c-0.34,-0.43 -0.67,-0.91 -0.96,-1.39l-55.05 36.5c0.96,1.49 2.02,2.98 3.12,4.42l0 0zm48.08 -50.82l-65.32 10.76c-0.24,-1.54 -0.43,-3.08 -0.62,-4.61l65.81 -7.54c0.05,0.48 0.1,0.91 0.14,1.39zm0.34 1.68l-64.36 15.32c-0.43,-1.83 -0.82,-3.6 -1.15,-5.43l65.23 -11.38c0.1,0.53 0.19,1.01 0.29,1.49l0 0zm6.58 12.1l-47.46 45.87c-1.2,-1.25 -2.4,-2.55 -3.51,-3.84l49.91 -43.18c0.34,0.38 0.72,0.77 1.06,1.15l0 0zm23.01 7.59l10.81 65.04c1.78,-0.29 3.51,-0.62 5.24,-1.01l-14.41 -64.32c-0.53,0.1 -1.11,0.24 -1.63,0.29l0 0zm22.62 62.25l-19.26 -63.02c-0.48,0.14 -1.01,0.29 -1.49,0.43l14.99 64.17c1.97,-0.48 3.89,-1.01 5.76,-1.59zm-24.35 -62.01l6 65.61c-1.78,0.19 -3.6,0.29 -5.43,0.34l-2.31 -65.81c0.58,-0.05 1.15,-0.1 1.73,-0.14zm1.49 -0.19l10.28 65.13c-1.63,0.24 -3.27,0.43 -4.95,0.62l-6.58 -65.57c0.43,-0.05 0.82,-0.1 1.25,-0.19zm-4.9 0.34l-2.59 65.81c-1.73,-0.05 -3.46,-0.14 -5.19,-0.34l6.1 -65.61c0.58,0.1 1.1,0.1 1.68,0.14zm1.49 0l1.68 65.85c-0.77,0.05 -1.54,0.05 -2.35,0.05 -0.87,0 -1.73,-0.05 -2.59,-0.05l2.02 -65.85 0.58 0 0.67 0zm-6.68 -0.72l-14.89 64.22c1.68,0.38 3.36,0.72 5.09,1.01l11.48 -64.89c-0.58,-0.1 -1.15,-0.19 -1.68,-0.34l0 -0zm-3.36 66.14l6.63 -65.57c-0.43,-0.05 -0.91,-0.1 -1.34,-0.19l-10.9 64.99c1.82,0.34 3.7,0.58 5.62,0.77zm-8.17 -72.24l-44.24 48.95c1.39,1.25 2.83,2.5 4.32,3.7l41.26 -51.49c-0.43,-0.38 -0.91,-0.77 -1.34,-1.15l0 0zm-35.06 56.2l37.71 -54.08c-0.38,-0.29 -0.77,-0.53 -1.1,-0.82l-40.78 51.83c1.34,1.06 2.74,2.11 4.18,3.08l0 -0zm34.1 -57.16l-47.07 46.26c1.06,1.06 2.11,2.07 3.17,3.08l44.72 -48.51c-0.29,-0.29 -0.58,-0.58 -0.82,-0.82zm-23.87 63.36l30.41 -58.5c-0.39,-0.19 -0.77,-0.43 -1.15,-0.62l-33.43 56.82c1.39,0.82 2.74,1.59 4.18,2.31l0 0zm-4.85 -2.69l33.91 -56.53c-0.48,-0.29 -0.91,-0.62 -1.39,-0.91l-37.23 54.42c1.54,1.06 3.07,2.07 4.71,3.03l0 0zm15.66 7.45l22.67 -61.92c-0.38,-0.14 -0.77,-0.29 -1.2,-0.43l-25.84 60.62c1.44,0.62 2.88,1.2 4.37,1.73l0 0zm-5.09 -2.02l26.37 -60.43c-0.48,-0.24 -1.01,-0.48 -1.49,-0.72l-29.88 58.79c1.63,0.82 3.31,1.59 4.99,2.35zm10.76 3.89l18.68 -63.21c-0.48,-0.14 -0.96,-0.29 -1.44,-0.48l-22.14 62.11c1.59,0.58 3.22,1.11 4.9,1.59zm4.23 1.1l15.42 -64.08c-0.24,-0.05 -0.48,-0.14 -0.77,-0.19l-18.11 63.36c1.15,0.34 2.31,0.62 3.46,0.91l0 0zm47.46 -92.03l66.04 -5.62c0.19,1.78 0.29,3.55 0.34,5.38l-66.24 1.97c-0.05,-0.58 -0.1,-1.15 -0.14,-1.73zm66.33 5.62l-66.19 -2.45 0 -0.38c0,-0.29 0,-0.53 0,-0.82l66.24 -1.39c0,0.62 0.05,1.2 0.05,1.83 0,1.1 -0.05,2.16 -0.1,3.22l0 0zm-66.91 -8.98l64.8 -14.17c0.38,1.73 0.72,3.51 1.01,5.28l-65.42 10.66c-0.14,-0.58 -0.24,-1.2 -0.38,-1.78l0 0zm66.57 -3.07l-66 6.2c-0.05,-0.38 -0.1,-0.77 -0.19,-1.15l65.57 -10.04c0.24,1.63 0.48,3.31 0.62,5zm-67.54 0.05l62.44 -22.62c0.62,1.78 1.2,3.51 1.73,5.28l-63.6 18.92c-0.19,-0.53 -0.38,-1.06 -0.58,-1.59zm65.61 -11.96l-64.7 14.79c-0.1,-0.34 -0.19,-0.67 -0.29,-1.01l63.79 -18.35c0.43,1.49 0.82,3.03 1.2,4.56l0 0z"/>
   <path class="fil1" d="M95.35 0.05c-0.87,22.19 -1.63,44.38 -2.5,66.57l-0.67 0 0 -4.47 0 0 0 4.47 -0.38 0 -1.3 -66.62c0.58,0 1.15,0 1.68,0 1.06,0 2.11,0.05 3.17,0.05l0 0zm6.39 0.43l-6.82 66.29c-0.58,-0.05 -1.2,-0.1 -1.82,-0.14l3.07 -66.53c1.87,0.1 3.75,0.19 5.57,0.38zm0.14 116.14l23.82 61.48c1.82,-0.72 3.6,-1.49 5.38,-2.31l-27.71 -59.85c-0.48,0.24 -0.96,0.48 -1.49,0.67zm23.1 61.77l-23.34 -61.67c-0.48,0.19 -1.01,0.38 -1.54,0.53l19.79 62.87c1.73,-0.53 3.41,-1.1 5.09,-1.73zm-17.1 -177.05l-11.53 65.61c-0.38,-0.05 -0.82,-0.1 -1.2,-0.14l7.4 -66.24c1.78,0.19 3.55,0.43 5.33,0.77zm6.29 1.3l-15.8 64.75c-0.58,-0.14 -1.2,-0.29 -1.83,-0.38l12.1 -65.52c1.87,0.34 3.7,0.72 5.52,1.15zm11.67 3.7l-24.21 62.06c-0.53,-0.19 -1.1,-0.38 -1.63,-0.58l20.94 -63.26c1.63,0.58 3.27,1.15 4.9,1.78zm-5.67 -2.02l-20.41 63.45c-0.39,-0.14 -0.77,-0.24 -1.15,-0.34l16.33 -64.6c1.78,0.43 3.51,0.96 5.24,1.49l0 0zm10.71 4.18l-28.15 60.38c-0.29,-0.14 -0.58,-0.29 -0.87,-0.38l24.74 -61.87c1.44,0.58 2.83,1.2 4.28,1.87zm5.52 2.79l-31.85 58.5c-0.53,-0.29 -1.06,-0.58 -1.59,-0.82l28.63 -60.14c1.63,0.77 3.22,1.59 4.8,2.45l0 0zm5.04 2.98l-35.74 56.15c-0.29,-0.19 -0.62,-0.34 -0.91,-0.53l32.33 -58.22c1.44,0.82 2.93,1.68 4.32,2.59zm-51.64 52.45l-5.52 -66.38c1.78,-0.14 3.55,-0.24 5.38,-0.29l1.87 66.57c-0.58,0.05 -1.15,0.05 -1.73,0.1zm16.09 3.84l36.22 -55.86c1.54,1.01 3.08,2.02 4.51,3.12l-39.19 53.75c-0.48,-0.34 -1.01,-0.67 -1.54,-1.01l0 0zm45.73 -48.8l-43.04 50.72c-0.34,-0.29 -0.62,-0.53 -0.96,-0.77l39.68 -53.41c1.49,1.11 2.93,2.26 4.32,3.46zm-40.54 53.08l49.47 -44.48c1.15,1.25 2.26,2.55 3.31,3.89l-51.64 41.89c-0.34,-0.43 -0.72,-0.87 -1.15,-1.3l0 0zm56.15 -36.17l-54.23 38.47c-0.19,-0.29 -0.38,-0.58 -0.62,-0.82l52.02 -41.45c0.96,1.25 1.92,2.5 2.83,3.79l0 0zm-49.23 56.25l65.9 6.63c0.19,-1.73 0.29,-3.55 0.38,-5.33l-66.19 -3.03c0,0.58 -0.05,1.15 -0.1,1.73zm-0.19 1.54l65.23 11.38c0.29,-1.78 0.58,-3.6 0.77,-5.48l-65.81 -7.25c-0.05,0.48 -0.1,0.91 -0.19,1.34zm-14.22 19.41l28.2 59.61c1.68,-0.82 3.31,-1.63 4.95,-2.55l-31.75 -57.78c-0.48,0.24 -0.91,0.48 -1.39,0.72l0 0zm37.9 54.23l-35.21 -55.77c-0.34,0.24 -0.72,0.48 -1.1,0.67l32.28 57.54c1.35,-0.77 2.69,-1.59 4.03,-2.45zm-33.72 -56.77l38.81 53.32c-1.44,1.06 -2.93,2.07 -4.42,3.03l-35.69 -55.48c0.43,-0.29 0.87,-0.58 1.3,-0.87l0 0zm1.34 -1.15l42.51 50.48c1.39,-1.2 2.79,-2.4 4.13,-3.7l-45.39 -47.89c-0.43,0.38 -0.82,0.77 -1.25,1.1l0 0zm-1.15 1.01l39.24 52.98c1.3,-0.96 2.55,-1.92 3.79,-2.98l-42.03 -50.82c-0.34,0.24 -0.67,0.53 -1.01,0.82l0 0zm3.41 -3.17l48.23 45.06c1.25,-1.3 2.45,-2.69 3.6,-4.03l-50.77 -42.27c-0.34,0.43 -0.72,0.87 -1.06,1.25l0 -0zm-0.87 0.91l45.82 47.46c0.91,-0.87 1.82,-1.78 2.74,-2.74l-47.89 -45.44c-0.19,0.24 -0.43,0.48 -0.67,0.72l-0 0zm3.03 -3.65l53.94 38.14c1.06,-1.49 2.07,-2.98 2.98,-4.52l-56.01 -35.02c-0.29,0.48 -0.58,0.96 -0.91,1.39l0 -0zm-0.96 1.34l51.11 41.74c1.15,-1.39 2.26,-2.83 3.31,-4.28l-53.6 -38.62c-0.24,0.39 -0.53,0.77 -0.82,1.15zm2.69 -4.28l58.5 30.79c0.87,-1.59 1.63,-3.22 2.4,-4.85l-60.18 -27.43c-0.19,0.48 -0.43,1.01 -0.72,1.49zm-0.72 1.35l56.34 34.49c0.91,-1.39 1.73,-2.88 2.55,-4.32l-58.26 -31.27c-0.19,0.34 -0.39,0.72 -0.62,1.11zm3.22 -8.98l65.13 11.96c-0.29,1.73 -0.67,3.46 -1.06,5.14l-64.36 -15.47c0.1,-0.53 0.24,-1.11 0.29,-1.63l0 0zm62.83 21.76l-63.4 -18.97c0.1,-0.34 0.14,-0.62 0.24,-0.91l64.22 16.04c-0.34,1.3 -0.67,2.55 -1.06,3.84l0 0zm-63.98 -17.15l62.01 23.06c0.62,-1.68 1.2,-3.41 1.73,-5.14l-63.21 -19.55c-0.19,0.58 -0.34,1.1 -0.53,1.63zm-0.53 1.3l60.43 26.9c0.62,-1.44 1.25,-2.88 1.83,-4.42l-61.82 -23.58c-0.14,0.38 -0.29,0.77 -0.43,1.11l0 -0zm-0.34 -20.8l60.62 -27.24c-0.77,-1.68 -1.54,-3.31 -2.4,-4.95l-59.03 30.5c0.29,0.58 0.58,1.1 0.82,1.68zm0.62 1.34l62.2 -23.15c-0.58,-1.59 -1.2,-3.12 -1.87,-4.71l-60.86 26.71c0.19,0.39 0.34,0.77 0.53,1.15l0 -0zm-2.21 -4.32l56.58 -34.92c-0.96,-1.54 -1.97,-3.07 -3.03,-4.56l-54.57 37.95c0.34,0.53 0.72,1.01 1.01,1.54l0 0zm0.67 1.1l58.74 -31.03c-0.77,-1.44 -1.59,-2.88 -2.45,-4.28l-56.82 34.39c0.19,0.29 0.34,0.62 0.53,0.91l0 0zm-4.71 -6.1l46.11 -47.89c-1.3,-1.25 -2.59,-2.5 -3.99,-3.65l-43.52 50.34c0.48,0.38 0.96,0.77 1.39,1.2l0 0zm0.82 0.87l49.09 -44.91c-1.06,-1.15 -2.11,-2.21 -3.17,-3.31l-46.59 47.55c0.24,0.19 0.48,0.43 0.67,0.67l0 0zm-18.78 -8.07l0 -4.47 0 4.47zm-8.89 1.58l-22.53 -62.68c1.73,-0.62 3.46,-1.2 5.19,-1.73l19.02 63.88c-0.58,0.14 -1.15,0.34 -1.68,0.53zm-23.3 -62.44l23.06 62.54c-0.38,0.14 -0.77,0.29 -1.2,0.48l-26.9 -60.95c1.63,-0.72 3.36,-1.39 5.04,-2.07l0 0zm17.96 -4.66l10.33 65.81c-0.58,0.1 -1.15,0.19 -1.73,0.34l-14.03 -65.13c1.78,-0.38 3.6,-0.72 5.43,-1.01l0 0zm-6.24 1.2l14.6 64.99c-0.38,0.1 -0.77,0.19 -1.15,0.29l-18.4 -64.03c1.63,-0.48 3.27,-0.86 4.95,-1.25l0 0zm11.77 -1.87l6.1 66.33c-0.34,0.05 -0.72,0.1 -1.06,0.14l-9.75 -65.95c1.54,-0.19 3.12,-0.38 4.71,-0.53zm-3.41 69.17l-30.84 -58.98c1.63,-0.87 3.27,-1.68 4.95,-2.45l27.48 60.71c-0.53,0.24 -1.06,0.48 -1.59,0.72zm-31.56 -58.6l31.37 58.74c-0.34,0.19 -0.67,0.38 -1.01,0.58l-34.63 -56.87c1.39,-0.87 2.83,-1.68 4.28,-2.45l0 0zm28.72 60.38l-38.23 -54.52c1.49,-1.01 2.98,-2.02 4.52,-2.98l35.16 56.54c-0.48,0.34 -0.96,0.62 -1.44,0.96l0 0zm-5.04 4.71l-51.35 -42.27c1.15,-1.44 2.4,-2.83 3.65,-4.18l48.8 45.2c-0.38,0.38 -0.77,0.82 -1.1,1.25l0 0zm-42.94 -51.25l45.29 48.75c-0.38,0.34 -0.77,0.67 -1.1,1.06l-48.42 -45.63c1.39,-1.44 2.79,-2.83 4.23,-4.18zm45.44 48.61l-44.81 -49.19c1.3,-1.2 2.64,-2.35 4.03,-3.51l42.03 51.59c-0.43,0.34 -0.82,0.72 -1.25,1.1l0 0zm-36.31 -56.1l38.67 54.13c-0.29,0.24 -0.62,0.48 -0.91,0.72l-41.55 -51.97c1.2,-0.96 2.5,-1.97 3.79,-2.88l0 0zm30.17 64.56l-60.62 -27.19c0.77,-1.68 1.59,-3.36 2.45,-5.04l58.89 30.74c-0.24,0.48 -0.48,0.96 -0.72,1.49zm-55.43 -37.13l56.92 34.34c-0.24,0.38 -0.43,0.72 -0.67,1.1l-58.6 -31.27c0.77,-1.39 1.54,-2.83 2.35,-4.18l-0 0zm57.02 34.15l-56.58 -34.82c0.96,-1.59 1.97,-3.12 3.03,-4.61l54.47 38.09c-0.34,0.43 -0.62,0.87 -0.91,1.34l0 0zm-49.81 -44.48l51.73 41.79c-0.34,0.38 -0.62,0.77 -0.87,1.15l-54.13 -38.57c1.01,-1.49 2.11,-2.93 3.27,-4.37zm47.07 50.48l-63.5 -19.36c0.53,-1.73 1.11,-3.41 1.68,-5.04l62.35 22.91c-0.19,0.48 -0.34,0.96 -0.53,1.49zm-59.8 -29.44l60.86 26.61c-0.14,0.38 -0.29,0.77 -0.48,1.15l-62.11 -23.49c0.58,-1.44 1.15,-2.88 1.73,-4.28l0 0zm58.79 34.58l-66 -6c0.14,-1.92 0.38,-3.75 0.62,-5.62l65.56 10.09c-0.1,0.48 -0.14,1.01 -0.19,1.54zm0.24 -1.78l-65.47 -10.61c0.29,-1.83 0.62,-3.55 1.01,-5.33l64.75 14.46c-0.1,0.48 -0.19,1.01 -0.29,1.49l0 -0zm-62.92 -21.95l63.64 18.78c-0.14,0.48 -0.29,0.96 -0.38,1.44l-64.65 -14.99c0.43,-1.78 0.87,-3.51 1.39,-5.24l0 0zm62.59 27.09l-66.19 2.45c-0.05,-1.25 -0.1,-2.45 -0.1,-3.7 0,-0.43 0,-0.82 0,-1.25l66.29 1.06 -0.05 0.58c0,0.29 0.05,0.58 0.05,0.87l0 -0zm-66 -8.6l66.05 5.48c0,0.48 -0.05,1.01 -0.05,1.49l-66.24 -1.68c0,-1.78 0.1,-3.51 0.24,-5.28zm66.09 10.33l-65.85 6.92c-0.19,-1.78 -0.34,-3.6 -0.43,-5.38l66.19 -3.03c0,0.48 0.05,1.01 0.1,1.49zm-65.76 7.73l65.81 -7.54c0.05,0.48 0.1,0.91 0.14,1.39l-65.33 10.76c-0.24,-1.54 -0.43,-3.08 -0.62,-4.61zm66.29 -4.47l-64.36 15.32c-0.43,-1.78 -0.82,-3.6 -1.15,-5.43l65.23 -11.38c0.1,0.53 0.19,1.01 0.29,1.49l0 0zm-64.17 16.09l64.22 -15.85c0.14,0.53 0.29,1.06 0.48,1.59l-63.16 19.69c-0.58,-1.78 -1.11,-3.6 -1.54,-5.43l0 0zm65.28 -12.59l-61.58 24.21c-0.67,-1.78 -1.34,-3.55 -1.92,-5.43l62.97 -20.22c0.14,0.48 0.34,0.96 0.53,1.44zm-61.24 24.98l61.34 -24.74c0.14,0.43 0.34,0.87 0.58,1.34l-59.71 28.39c-0.82,-1.63 -1.54,-3.31 -2.21,-5zm62.73 -21.76l-57.64 32.33c-0.91,-1.59 -1.73,-3.22 -2.55,-4.85l59.46 -28.92c0.24,0.48 0.48,0.96 0.72,1.44l0 0zm1.87 2.88l-52.88 39.53c-1.1,-1.44 -2.16,-2.93 -3.12,-4.42l55.05 -36.51c0.29,0.48 0.62,0.96 0.96,1.39l0 -0zm-59.13 30.17l57.4 -32.85c0.19,0.38 0.43,0.77 0.62,1.1l-55.38 36.02c-0.91,-1.39 -1.78,-2.83 -2.64,-4.28zm84.25 -20.08l10.81 65.04c1.78,-0.29 3.51,-0.62 5.24,-1.01l-14.41 -64.32c-0.53,0.1 -1.11,0.24 -1.63,0.29l0 0zm22.62 62.25l-19.26 -63.02c-0.48,0.14 -1.01,0.29 -1.49,0.43l14.99 64.17c1.97,-0.48 3.89,-1.01 5.76,-1.59zm-24.35 -62.01l6 65.61c-1.78,0.19 -3.6,0.29 -5.43,0.34l-2.31 -65.81c0.58,-0.05 1.15,-0.1 1.73,-0.14zm1.49 -0.19l10.28 65.13c-1.63,0.24 -3.27,0.43 -4.95,0.62l-6.58 -65.57c0.43,-0.05 0.82,-0.1 1.25,-0.19zm-4.9 0.34l-2.59 65.81c-1.73,-0.05 -3.46,-0.14 -5.19,-0.34l6.1 -65.61c0.58,0.1 1.1,0.1 1.68,0.14zm-1.78 65.85l2.02 -65.85 0.58 0 0.67 0 1.68 65.85c-0.77,0.05 -1.54,0.05 -2.35,0.05 -0.86,0 -1.73,-0.05 -2.59,-0.05zm-3.41 -66.57l-14.89 64.22c1.68,0.38 3.36,0.72 5.09,1.01l11.48 -64.89c-0.58,-0.1 -1.15,-0.19 -1.68,-0.34l0 -0zm-3.36 66.14l6.63 -65.57c-0.43,-0.05 -0.91,-0.1 -1.34,-0.19l-10.9 64.99c1.82,0.34 3.7,0.58 5.62,0.77zm-8.17 -72.24l-44.24 48.95c1.39,1.25 2.83,2.5 4.32,3.7l41.26 -51.49c-0.43,-0.38 -0.91,-0.77 -1.34,-1.15l0 0zm-35.06 56.2l37.71 -54.08c-0.38,-0.29 -0.77,-0.58 -1.1,-0.82l-40.78 51.83c1.34,1.06 2.74,2.11 4.18,3.08l0 -0zm34.1 -57.16l-47.07 46.26c1.06,1.06 2.11,2.07 3.17,3.08l44.72 -48.51c-0.29,-0.29 -0.58,-0.53 -0.82,-0.82zm-47.65 45.68l47.46 -45.87c-0.34,-0.38 -0.72,-0.77 -1.06,-1.15l-49.91 43.18c1.11,1.3 2.31,2.59 3.51,3.84l0 0zm45.49 -48.18l-52.55 39.96c0.96,1.3 1.97,2.55 3.03,3.75l50.29 -42.75c-0.29,-0.34 -0.53,-0.62 -0.77,-0.96l0 0zm-21.71 65.85l30.41 -58.5c-0.39,-0.19 -0.77,-0.43 -1.15,-0.62l-33.43 56.82c1.39,0.82 2.74,1.59 4.18,2.31l0 0zm-4.85 -2.69l33.91 -56.53c-0.48,-0.29 -0.91,-0.62 -1.39,-0.91l-37.23 54.42c1.54,1.06 3.07,2.07 4.71,3.03l0 0zm15.66 7.45l22.67 -61.92c-0.38,-0.14 -0.77,-0.29 -1.2,-0.43l-25.84 60.62c1.44,0.62 2.88,1.2 4.37,1.73l0 0zm-5.09 -2.02l26.37 -60.43c-0.48,-0.24 -1.01,-0.48 -1.49,-0.72l-29.88 58.79c1.63,0.82 3.31,1.59 4.99,2.35zm14.99 5l15.42 -64.08c-0.24,-0.05 -0.48,-0.14 -0.77,-0.19l-18.11 63.36c1.15,0.34 2.31,0.62 3.46,0.91l0 0zm-4.23 -1.1l18.68 -63.21c-0.48,-0.14 -0.96,-0.29 -1.44,-0.48l-22.14 62.11c1.59,0.58 3.22,1.11 4.9,1.59zm51.68 -90.93l66.04 -5.62c0.19,1.78 0.29,3.55 0.34,5.38l-66.24 1.97c-0.05,-0.58 -0.1,-1.15 -0.14,-1.73zm66.33 5.62l-66.19 -2.45 0 -0.38c0,-0.29 0,-0.53 0,-0.82l66.24 -1.39c0,0.62 0.05,1.2 0.05,1.83 0,1.1 -0.05,2.16 -0.1,3.22l0 0zm-66.91 -8.98l64.8 -14.17c0.38,1.73 0.72,3.51 1.01,5.28l-65.42 10.66c-0.14,-0.62 -0.24,-1.2 -0.38,-1.78l0 0zm66.57 -3.07l-66 6.2c-0.05,-0.38 -0.1,-0.77 -0.19,-1.15l65.57 -10.04c0.24,1.63 0.43,3.31 0.62,5zm-67.54 0.05l62.44 -22.62c0.62,1.78 1.2,3.51 1.73,5.28l-63.6 18.92c-0.19,-0.53 -0.38,-1.06 -0.58,-1.59zm65.61 -11.96l-64.7 14.79c-0.1,-0.34 -0.19,-0.67 -0.29,-1.01l63.79 -18.35c0.43,1.49 0.82,3.03 1.2,4.56l0 0z"/>
   <path class="fil2" d="M117.97 89.77l0.91 -0.1 65.13 -5.52c0.19,1.78 0.29,3.55 0.34,5.38l-66.24 1.97c-0.05,-0.58 -0.1,-1.15 -0.14,-1.73z"/>
   <path class="fil2" d="M118.11 92.9l4.47 0.19 -4.47 -0.14 0 -0.05zm65.81 8.65l-65.9 -6.72c0.05,-0.53 0.1,-1.1 0.1,-1.63l66.19 3.03c-0.1,1.78 -0.19,3.6 -0.38,5.33z"/>
   <path class="fil3" d="M67.44 100.25l-3.75 1.15 3.7 -1.2 0.05 0.05zm0.58 1.68l-5.14 2.02 -56.44 22.19c-0.67,-1.78 -1.34,-3.55 -1.92,-5.43l62.97 -20.22c0.14,0.48 0.34,0.96 0.53,1.44z"/>
   <path class="fil3" d="M75.89 112.73l-11.48 14.55 -29.68 37.03c-1.49,-1.2 -2.93,-2.45 -4.32,-3.7l44.24 -48.95c0.43,0.38 0.87,0.72 1.25,1.06l0 0z"/>
   <path class="fil3" d="M163.22 151.02l-50.19 -41.74c-0.34,0.43 -0.67,0.87 -1.06,1.3l47.65 44.48c1.25,-1.3 2.45,-2.69 3.6,-4.03l0 0z"/>
   <path class="fil3" d="M119.89 180.12l-19.4 -61.58c0.58,-0.24 1.1,-0.43 1.63,-0.67l22.86 60.52c-1.68,0.62 -3.36,1.2 -5.09,1.73z"/>
   <path class="fil3" d="M118.21 96.74l0.62 0.14 64.08 11.77c-0.29,1.73 -0.67,3.46 -1.06,5.14l-63.93 -15.37c0.1,-0.53 0.19,-1.1 0.29,-1.68l0 0z"/>
   <path class="fil3" d="M178.87 60.76l-62.2 22.53c0.19,0.53 0.38,1.06 0.53,1.63l63.4 -18.88c-0.53,-1.78 -1.1,-3.51 -1.73,-5.28z"/>
   <path class="fil3" d="M108.99 72.43l2.5 -2.93 40.78 -47.22c1.39,1.15 2.69,2.4 3.99,3.65l-42.6 44.24 -3.36 3.46c-0.43,-0.43 -0.87,-0.82 -1.3,-1.2l0 0z"/>
   <path class="fil3" d="M96.74 66.48l2.11 -11.91 9.8 -53.08c1.87,0.34 3.7,0.72 5.52,1.15l-15.18 62.15 -0.48 2.07c-0.58,-0.14 -1.15,-0.29 -1.78,-0.38l0 -0z"/>
   <path class="fil3" d="M83 67.25l-2.83 -7.78 -19.4 -53.94c1.73,-0.62 3.46,-1.2 5.19,-1.73l18.73 62.97c-0.58,0.14 -1.11,0.29 -1.68,0.48l0 0z"/>
   <path class="fil3" d="M71.04 75.17l-8.74 -7.2 -41.45 -34.15c1.15,-1.44 2.4,-2.83 3.65,-4.18l47.75 44.19c-0.38,0.43 -0.82,0.91 -1.2,1.35l0 -0z"/>
   <path class="fil3" d="M64.75 87.95l-4.28 -0.67 -59.32 -9.61c0.29,-1.83 0.62,-3.55 1.01,-5.33l62.92 14.03c-0.1,0.53 -0.24,1.06 -0.34,1.59l0 -0zm-9.32 -4.08l9.75 2.21 0 0.1 -9.75 -2.31z"/>
   <path class="fil3" d="M71.28 182l14.46 -62.49c0.62,0.14 1.2,0.24 1.83,0.34l-11.19 63.16c-1.73,-0.29 -3.41,-0.62 -5.09,-1.01l-0 0z"/>
   <path class="fil2" d="M84.97 117.49l-18.68 63.21c-1.68,-0.48 -3.31,-1.01 -4.9,-1.59l22.14 -62.11c0.48,0.19 0.96,0.34 1.44,0.48zm-14.7 52.16l-3.17 11.29 -0.05 -0.05 3.22 -11.24z"/>
   <path class="fil2" d="M81.85 116.34l-1.39 3.31 -24.93 57.16c-1.68,-0.77 -3.36,-1.54 -4.99,-2.35l29.88 -58.79c0.48,0.24 0.96,0.48 1.44,0.67z"/>
   <path class="fil2" d="M78.82 114.8l-3.41 5.81 -30.45 50.77c-1.63,-0.96 -3.17,-1.97 -4.71,-3.03l37.23 -54.42c0.43,0.29 0.91,0.58 1.34,0.86l0 0z"/>
   <path class="fil2" d="M73.49 110.52l-0.14 0.14 -47.31 45.73c-1.2,-1.25 -2.4,-2.55 -3.51,-3.84l49.91 -43.18c0.34,0.38 0.72,0.77 1.06,1.15l0 0z"/>
   <path class="fil2" d="M71.33 107.98l-7.2 5.48 -45.63 34.1c-1.1,-1.44 -2.11,-2.93 -3.12,-4.42l55.05 -36.5c0.29,0.48 0.58,0.91 0.91,1.34z"/>
   <path class="fil2" d="M69.5 105.14l-3.17 1.78 -54.47 30.55c-0.91,-1.59 -1.73,-3.22 -2.55,-4.85l59.47 -28.92c0.19,0.48 0.48,0.96 0.72,1.44l0 0z"/>
   <path class="fil2" d="M66.57 96.74l-8.93 1.44 8.93 -1.54 0 0.1zm0.34 1.68l-4.18 1.01 -60.18 14.31c-0.43,-1.78 -0.82,-3.6 -1.15,-5.43l65.23 -11.38c0.1,0.53 0.19,1.01 0.29,1.49l0 0z"/>
   <path class="fil2" d="M66.29 93.42l-12.78 0.48 12.78 -0.58 0 0.1zm0.1 1.68l-3.41 0.39 -62.44 6.58c-0.19,-1.78 -0.34,-3.6 -0.43,-5.38l66.19 -3.03c0,0.48 0.05,0.96 0.1,1.44z"/>
   <path class="fil2" d="M66.38 90.06l-20.08 -1.83 20.08 1.73 0 0.1zm-0.1 1.68l-3.31 -0.05 -62.92 -1.59c0,-1.78 0.1,-3.51 0.24,-5.28l66.05 5.48c0,0.48 -0.05,0.96 -0.05,1.44z"/>
   <path class="fil2" d="M67.97 83.24l-7.59 -2.88 7.64 2.83 -0.05 0.05zm-0.53 1.63l-3.89 -1.15 -59.66 -18.16c0.53,-1.73 1.11,-3.41 1.68,-5.04l62.35 22.91c-0.19,0.48 -0.34,0.96 -0.48,1.44l0 0z"/>
   <path class="fil2" d="M69.36 80.22l-2.11 -1.15 2.16 1.15 -0.05 0zm-0.77 1.59l-17.29 -7.64 -43.37 -19.45c0.77,-1.68 1.59,-3.36 2.45,-5.04l58.89 30.74c-0.24,0.48 -0.43,0.91 -0.67,1.39z"/>
   <path class="fil2" d="M70.18 78.82l-11.19 -6.77 -45.44 -27.96c0.96,-1.59 1.97,-3.12 3.03,-4.61l54.47 38.09c-0.29,0.39 -0.58,0.82 -0.87,1.25l0 0z"/>
   <path class="fil2" d="M74.74 73.39l-7.73 -8.31 -37.13 -40.83c1.3,-1.2 2.64,-2.35 4.03,-3.51l42.03 51.59c-0.38,0.34 -0.82,0.67 -1.2,1.06l0 0z"/>
   <path class="fil2" d="M77.29 71.33l-38.28 -54.47c1.49,-1.01 2.98,-2.02 4.52,-2.98l35.16 56.54c-0.48,0.29 -0.96,0.62 -1.39,0.91l0 0z"/>
   <path class="fil2" d="M80.17 69.6l-5.24 -9.8 -25.7 -49.19c1.63,-0.87 3.27,-1.68 4.95,-2.45l27.48 60.71c-0.53,0.19 -1.01,0.43 -1.49,0.72z"/>
   <path class="fil2" d="M86.65 67.25l-3.55 -15.9 -10.57 -49.23c1.78,-0.38 3.6,-0.72 5.43,-1.01l10.33 65.81c-0.53,0.1 -1.11,0.19 -1.63,0.34z"/>
   <path class="fil2" d="M89.87 66.72l-0.86 -9.66 -4.71 -56.73c1.78,-0.14 3.55,-0.24 5.38,-0.29l1.87 66.57c-0.53,0.05 -1.11,0.05 -1.68,0.1z"/>
   <path class="fil2" d="M93.18 66.67l0.58 -14.27 2.4 -52.31c1.87,0.1 3.7,0.19 5.57,0.38l-6.82 66.29c-0.58,-0.05 -1.15,-0.1 -1.73,-0.1z"/>
   <path class="fil2" d="M100 67.82l0.38 -1.2 20.56 -62.06c1.63,0.58 3.27,1.15 4.9,1.78l-24.21 62.06c-0.53,-0.19 -1.1,-0.38 -1.63,-0.58z"/>
   <path class="fil2" d="M103.03 69.02l6.53 -13.88 22.05 -46.3c1.63,0.77 3.22,1.59 4.8,2.45l-31.85 58.5c-0.48,-0.29 -1.01,-0.53 -1.54,-0.77l0 0z"/>
   <path class="fil2" d="M105.96 70.61l4.71 -7.4 31.46 -48.51c1.54,1.01 3.08,2.02 4.51,3.12l-37.71 51.73 -1.49 2.02c-0.48,-0.34 -0.96,-0.67 -1.49,-0.96l0 0z"/>
   <path class="fil2" d="M111.1 74.84l49.47 -44.48c1.15,1.25 2.26,2.55 3.31,3.89l-51.64 41.89c-0.34,-0.43 -0.72,-0.87 -1.15,-1.3l0 0z"/>
   <path class="fil2" d="M113.21 77.33l6.96 -4.9 47.55 -33.1c1.06,1.49 2.07,3.03 3.03,4.56l-56.15 34.68 -0.43 0.24c-0.29,-0.48 -0.62,-1.01 -0.96,-1.49l0 0z"/>
   <path class="fil2" d="M114.99 80.17l4.18 -2.21 54.81 -28.34c0.86,1.63 1.63,3.27 2.4,4.95l-57.16 25.65 -3.46 1.54c-0.24,-0.53 -0.48,-1.06 -0.77,-1.59z"/>
   <path class="fil2" d="M117.39 86.46l64.8 -14.22c0.38,1.73 0.72,3.51 1.01,5.28l-65.42 10.66c-0.14,-0.58 -0.24,-1.15 -0.38,-1.73l0 0z"/>
   <path class="fil2" d="M117.15 99.72l1.73 0.48 61.48 19.02c-0.53,1.73 -1.11,3.46 -1.73,5.14l-62.01 -23.06c0.19,-0.53 0.34,-1.06 0.53,-1.59z"/>
   <path class="fil2" d="M116 102.84l1.3 0.58 58.89 26.85c-0.77,1.63 -1.54,3.27 -2.4,4.85l-58.5 -30.79c0.29,-0.48 0.53,-0.96 0.72,-1.49z"/>
   <path class="fil2" d="M114.46 105.86l56.01 35.02c-0.91,1.54 -1.92,3.03 -2.98,4.51l-53.94 -38.14c0.34,-0.43 0.62,-0.91 0.91,-1.39l0 0z"/>
   <path class="fil2" d="M110.33 111.1l3.31 3.46 42.13 44.38c-1.34,1.3 -2.74,2.5 -4.13,3.7l-42.51 -50.48c0.43,-0.34 0.82,-0.67 1.2,-1.06l0 0z"/>
   <path class="fil2" d="M98.13 117.83l14.41 64.32c-1.73,0.38 -3.46,0.72 -5.24,1.01l-10.81 -65.04c0.53,-0.05 1.1,-0.19 1.63,-0.29l-0 0z"/>
   <path class="fil2" d="M107.79 113.31l38.81 53.32c-1.44,1.06 -2.93,2.07 -4.42,3.03l-35.69 -55.48c0.43,-0.29 0.87,-0.58 1.3,-0.87l0 0z"/>
   <path class="fil2" d="M94.77 118.35l6 65.61c-1.78,0.19 -3.6,0.29 -5.43,0.34l-2.31 -65.81c0.58,-0.05 1.15,-0.1 1.73,-0.14z"/>
   <path class="fil4" d="M103.37 115.95l2.59 5.62 -2.59 -5.62 0 0zm1.58 -0.82l5.09 9.13 26.71 48.66c-1.63,0.91 -3.27,1.73 -4.95,2.55l-28.2 -59.61c0.43,-0.24 0.91,-0.48 1.34,-0.72l0 -0z"/>
   <path class="fil2" d="M91.36 118.5l-2.59 65.81c-1.73,-0.05 -3.46,-0.14 -5.19,-0.34l6.1 -65.61c0.58,0.1 1.1,0.1 1.68,0.14z"/>
   <path class="fil5" d="M33.91 20.75l42.03 51.59 0 0 0.58 0.67c-0.43,0.34 -0.87,0.67 -1.25,1.06l-0.58 -0.62 -3.07 -3.41 -4.61 -4.95 -37.13 -40.83 0.05 -0.05 0.05 -0.05 0.05 -0.05 0.1 -0.05 0.05 -0.1 0.05 -0.05 0.1 -0.05 0.05 -0.05 0.05 -0.05 0 0 0.1 -0.05 0 0 0.05 -0.1 0 0 0.05 -0.05 0 0 0.05 -0.05 0.1 -0.05 0.05 -0.05 0.05 -0.05 0.1 -0.1 0 0 0.05 -0.05 0.05 -0.05 0.1 -0.05 0 0 0.05 -0.05 0.05 -0.05 0 0 0.1 -0.1 0.05 -0.05 0.05 -0.05 0 0 0.05 -0.05 0.1 -0.05 0.05 -0.05 0 0 0.05 -0.05 0 0 0.1 -0.1 0 0 0.05 -0.05 0 0 0.05 -0.05 0 0 0.1 -0.05 0 0 0.05 -0.05 0 0 0.05 -0.05 0 0 0.1 -0.05 0.05 -0.1 0.05 -0.05 0.1 -0.05 0 0 0.05 -0.05 0.05 -0.05 0 0 0.1 -0.05 0.05 -0.05 0 0 0.05 -0.1 0.1 -0.05 0 0 0.05 -0.05 0.05 -0.05 0.1 -0.05 0 0 0.05 -0.05 0 0 0.05 -0.05 0.1 -0.05 0.05 -0.1 0.05 -0.05 0.1 -0.05 0.05 -0.05 0.05 -0.05 0.1 -0.05 0 0 0.05 -0.05 0.1 -0.05 0.05 -0.1 0.05 -0.05 0.1 -0.05 0.05 -0.05 0 0 0.05 -0.05 0 0zm60.67 0l0 0 -1.73 46.74 -0.67 0 -0.38 0 -0.91 -46.78 0 0 -0.38 -20.7c0.58,0 1.15,0 1.68,0 1.06,0 2.11,0.05 3.17,0.05l-0.77 20.7 0 0zm-4.71 46.83l-0.05 -0.86 0 0 -1.73 -20.7 -3.79 -45.68 0 0 0.1 0 0 0 0.1 0 0 0 0.05 0 0 0 0.1 0 0 0 0.1 -0.05 0 0 0.1 0 0 0 0.05 0 0 0 0.1 0 0 0 0.1 0 0 0 0.05 0 0.05 0 0.05 0 0 0 0.1 -0.05 0 0 0.1 0 0 0 0.05 0 0 0 0.1 0 0.1 0 0 0 0.1 0 0 0 0.05 0 0 0 0.1 0 0 0 0.1 -0.05 0 0 0.1 0 0 0 0.05 0 0 0 0.1 0 0 0 0.1 0 0 0 0.1 0 0.05 0 0.1 0 0 0 0.1 0 0 0 0.1 -0.05 0 0 0.05 0 0 0 0.1 0 0 0 0.1 0 0 0 0.1 0 0.05 0 0.1 0 0.1 0 0.1 0 0 0 0.05 0 0 0 0.1 -0.05 0.1 0 0.1 0 0 0 0.05 0 0.1 0 0.1 0 0.1 0 0.05 0 0.1 0 0.1 0 0.1 0 0.05 0 0 0 0.1 0 0.1 -0.05 0.1 0 0.05 0 0.1 0 0.1 0 0.1 0 0.05 0 0.1 0 0.1 0 0.1 0 0.05 0 0.1 0 0.1 0 1.87 66.57 0 0 0.05 0.87c-0.58,0.05 -1.15,0.05 -1.73,0.1l-0 0zm3.22 -0.1l0 -0.86 0 0 0.67 -14.22 0 0 2.4 -52.31c1.87,0.1 3.7,0.19 5.57,0.38l-6.82 66.29 0 0 0 0 -0.1 0.87c-0.58,-0.05 -1.15,-0.1 -1.73,-0.14zm7.16 -46.35l0 0 2.31 -20.56c1.78,0.19 3.55,0.43 5.33,0.77l-3.6 20.37 0 0 -8.07 46.11c-0.38,-0.05 -0.77,-0.14 -1.15,-0.14l5.19 -46.54 0 0zm-3.84 46.74l0.19 -0.86 -0.05 0 2.31 -12.44 0 0 9.8 -53.08 0.1 0 0.1 0 0.1 0.05 0.1 0 0.05 0 0.1 0.05 0.1 0 0.1 0 0.1 0.05 0.05 0 0.1 0 0.1 0.05 0.1 0 0.1 0 0.05 0.05 0.1 0 0 0 0.1 0 0.1 0.05 0.05 0 0 0 0.1 0 0.1 0.05 0 0 0.1 0 0.1 0.05 0.05 0 0 0 0.1 0 0 0 0.1 0.05 0.1 0 0.1 0 0.05 0.05 0 0 0.1 0 0 0 0.1 0.05 0.1 0 0.1 0 0 0 0.05 0.05 0.1 0 0 0 0.1 0 0.1 0.05 0 0 0.05 0 0.1 0.05 0.1 0 0.1 0 0 0 0.1 0.05 0 0 0.05 0 0 0 0.1 0.05 0 0 0.1 0 0.1 0 0.05 0.05 0.1 0 0 0 0.1 0.05 0.1 0 0 0 0.1 0 0.05 0.05 0 0 0.1 0 0.1 0.05 0.1 0 0 0 0.05 0.05 0.1 0 0.1 0 0.1 0.05 0.1 0 0.05 0.05 0.1 0 0 0 0.1 0.05 0.1 0 -15.18 62.2 -0.62 2.55 0 0 -0.19 0.82c-0.58,-0.14 -1.15,-0.24 -1.78,-0.34l0 -0zm13.45 -44.96l0 0 5.09 -20.08c1.78,0.43 3.51,0.96 5.24,1.49l-6.34 19.69 0 0 -14.31 44.58c-0.38,-0.14 -0.77,-0.24 -1.11,-0.34l11.43 -45.34 0 0zm-10.14 45.73l0.29 -0.82 0 0 0.34 -1.15 0.05 -0.05 20.56 -62.06 0.1 0.05 0.05 0 0.1 0.05 0.05 0 0.1 0.05 0.1 0.05 0.05 0 0.1 0.05 0.05 0 0.1 0.05 0.1 0 0.05 0.05 0.1 0 0 0 0.1 0.05 0.05 0 0.1 0.05 0 0 0.05 0.05 0 0 0.1 0 0.1 0.05 0.05 0 0.1 0.05 0 0 0.05 0 0.1 0.05 0.1 0 0.05 0.05 0.1 0.05 0.05 0 0 0 0.1 0.05 0.1 0 0.05 0.05 0.1 0 0 0 0.05 0.05 0 0 0.1 0.05 0 0 0.1 0 0 0 0.05 0.05 0 0 0.1 0 0.05 0.05 0.1 0 0.05 0.05 0 0 0.1 0.05 0.1 0 0.05 0.05 0 0 0.1 0 0.05 0.05 0.1 0 0 0.05 0.1 0 0.05 0.05 0.1 0 0 0 0.05 0.05 0 0 0.1 0 0 0 0.05 0.05 0 0 0.1 0.05 0 0 0.1 0 0 0 0.05 0.05 0 0 0.1 0 0.05 0.05 0.1 0.05 0.1 0 0.05 0.05 0.1 0 0 0.05 0.05 0 0.1 0.05 0.05 0 0.1 0.05 -24.21 62.06 0 0 -0.29 0.82c-0.53,-0.19 -1.06,-0.38 -1.63,-0.58l-0 0zm22.43 -41.4l0 0 -19.74 42.41c-0.29,-0.1 -0.58,-0.24 -0.87,-0.34l17.39 -43.47 7.69 -19.21c1.44,0.58 2.83,1.2 4.28,1.87l-8.74 18.73 0 0zm-19.55 42.51l0.38 -0.77 0 0 6.53 -13.74 0.05 -0.1 22.05 -46.3 0.05 0.05 0.1 0 0.1 0.05 0.05 0.05 0.1 0.05 0.05 0 0.1 0.05 0.1 0.05 0 0 0.05 0.05 0.1 0 0 0 0.05 0.05 0.1 0.05 0 0 0.05 0.05 0.1 0.05 0 0 0.1 0 0.05 0.05 0.1 0.05 0 0 0.05 0.05 0 0 0.1 0 0.1 0.05 0.05 0.05 0 0 0.1 0.05 0 0 0.05 0.05 0 0 0.1 0 0 0 0.05 0.05 0 0 0.1 0.05 0 0 0.1 0.05 0 0 0.05 0.05 0 0 0.1 0 0 0 0.05 0.05 0 0 0.1 0.05 0.05 0.05 0.1 0 0.05 0.05 0.05 0 0.05 0.05 0.1 0.05 0.05 0.05 0 0 0.1 0 0.05 0.05 0.1 0.05 0.05 0.05 0.1 0.05 0.1 0.05 0.05 0 0.1 0.05 0 0 0.05 0.05 0.1 0.05 0.05 0.05 0 0 0.1 0 0.05 0.05 0.1 0.05 0.1 0.05 0.05 0.05 0.1 0.05 0.05 0 0.1 0.05 0.05 0.05 0.1 0.05 0.05 0.05 0.1 0.05 0.05 0 0.1 0.05 0.05 0.05 0.1 0.05 -31.85 58.5 0 0 -0.38 0.77c-0.53,-0.29 -1.06,-0.58 -1.59,-0.82zm27.76 -38.04l0 0 -25.07 39.48c-0.34,-0.19 -0.62,-0.38 -0.91,-0.53l0.43 -0.77 32.33 -58.22c1.44,0.82 2.93,1.68 4.32,2.59l-11.1 17.44zm-24.93 39.58l0.48 -0.72 0 0 4.71 -7.3 31.51 -48.56 0.1 0.05 0.05 0.05 0.1 0.05 0.05 0.05 0.1 0.05 0.05 0.05 0.1 0.05 0.05 0.05 0.1 0.05 0.05 0.05 0 0 0.1 0.05 0.05 0.05 0.1 0.05 0.05 0.05 0.1 0.05 0.05 0.05 0 0 0.1 0.05 0.05 0.05 0.1 0.05 0.05 0.05 0.1 0.05 0 0 0.05 0.05 0 0 0.1 0.05 0 0 0.05 0.05 0.05 0.05 0.1 0.05 0.05 0.05 0.1 0.05 0 0 0.05 0.05 0.1 0.05 0 0 0.05 0.05 0.1 0.05 0.05 0.05 0.1 0.05 0 0 0.05 0.05 0.1 0.05 0.05 0.05 0 0 0.1 0.05 0 0 0.05 0.05 0 0 0.05 0.05 0 0 0.1 0.05 0 0 0.05 0.05 0 0 0.1 0.05 0 0 0.05 0.05 0 0 0.1 0.05 0.05 0.05 0.1 0.05 0 0 0.05 0.05 0 0 0.05 0.05 0.1 0.05 0 0 0.05 0.05 0.1 0.05 0 0 0.05 0.05 0.1 0.05 0.05 0.05 0 0 0.1 0.05 0.05 0.05 0.05 0.05 0.1 0.05 0.05 0.05 0.1 0.1 0.05 0.05 0.1 0.05 0.05 0.05 -12.15 16.67 0 0 -27.57 37.8c-0.48,-0.34 -0.96,-0.67 -1.49,-1.01zm32.86 -33.82l0.05 0 -30.31 35.69c-0.29,-0.24 -0.58,-0.48 -0.91,-0.72l0.53 -0.72 0 0 39.68 -53.41c1.49,1.11 2.93,2.26 4.32,3.46l-13.35 15.71 0 0zm-27.81 37.95l0.67 -0.58 -0.05 0 0 0 49.47 -44.48 0.05 0.05 0.05 0.1 0.05 0.05 0.05 0.05 0 0 0.1 0.05 0 0 0.05 0.05 0 0 0.05 0.1 0.05 0.05 0.05 0.05 0 0 0.05 0.05 0.05 0.1 0.05 0.05 0 0 0.05 0.05 0.05 0.05 0.1 0.1 0.05 0.05 0.05 0.05 0 0 0.05 0.05 0 0 0.05 0.1 0.05 0.05 0.05 0.05 0 0 0.05 0.05 0.1 0.14 0.05 0.05 0.1 0.05 0.05 0.1 0 0 0.05 0.05 0.05 0.05 0.05 0.05 0 0 0.05 0.1 0.05 0.05 0.05 0.05 0 0 0.05 0.05 0.05 0.1 0.05 0.05 0 0 0.05 0.05 0.05 0.1 0.05 0.05 0.1 0.05 0 0 0.05 0.05 0 0 0.05 0.1 0 0 0.05 0.05 0 0 0.05 0.05 0 0 0.05 0.05 0 0 0.05 0.1 0 0 0.05 0.05 0 0 0.05 0.05 0 0 0.05 0.05 0 0 0.05 0.1 0.05 0.05 0 0 0.05 0.05 0 0 0.05 0.1 0 0 0.05 0.05 0 0 0.05 0.05 0 0 0.1 0.05 0.05 0.1 0 0 0.05 0.05 0 0 0.05 0.05 0 0 0.05 0.1 0 0 0.05 0.05 0 0 0.05 0.05 0 0 0.05 0.05 0 0 0.05 0.1 0 0 -15.99 12.97 0 0 -36.31 29.49c-0.34,-0.43 -0.72,-0.87 -1.1,-1.3l-0 0zm40.01 -24.83l0 0 -38.14 27.04c-0.19,-0.24 -0.43,-0.53 -0.62,-0.77l0.67 -0.53 0 0 52.02 -41.45c0.96,1.25 1.92,2.5 2.83,3.79l-16.76 11.91 -0 0zm-33.34 44.24l46.54 4.71 0 0 20.22 2.02c0.19,-1.73 0.29,-3.55 0.38,-5.33l-66.19 -3.03 0 0 0 0 -0.87 -0.05c0,0.58 -0.05,1.15 -0.1,1.68zm-0.19 1.49l46.11 8.07 0 0 19.98 3.46c0.29,-1.78 0.58,-3.6 0.77,-5.48l-65.81 -7.25 0 0.05 -0.86 -0.1c-0.05,0.43 -0.1,0.86 -0.19,1.25l-0 0zm-17.1 20.13l14.03 44.67 0 0 6 19.02 0 0 0.1 0 0 0 0.05 -0.05 0.05 0 0.05 0 0 0 0.1 -0.05 0 0 0.05 0 0.05 0 0.05 -0.05 0 0 0.1 0 0 0 0.05 -0.05 0.05 0 0.05 0 0 0 0.1 -0.05 0 0 0.05 0 0 0 0.1 -0.05 0 0 0.1 -0.05 0 0 0.05 0 0 0 0.1 -0.05 0 0 0.1 0 0 0 0.05 -0.05 0 0 0.1 0 0 0 0.1 -0.05 0 0 0.05 0 0 0 0.1 -0.05 0.1 0 0 0 0.05 -0.05 0 0 0.1 -0.05 0 0 0.1 0 0.05 -0.05 0 0 0.1 0 0 0 0.1 -0.05 0 0 0.05 0 0 0 0.1 -0.05 0.1 -0.05 0.05 0 0.1 -0.05 0.05 0 0.1 -0.05 0.1 0 0.05 -0.05 0.1 -0.05 0.1 0 0 0 0.05 -0.05 0 0 0.1 0 0.1 -0.05 0.05 -0.05 0.1 0 0 0 0.1 -0.05 0.05 0 0.1 -0.05 0.05 0 0.1 -0.05 0.1 -0.05 0.05 0 0.1 -0.05 0.1 -0.05 0.05 0 0.1 -0.05 0 0 0.1 0 0.05 -0.05 0.1 -0.05 0.05 0 0.1 -0.05 0.1 0 0.05 -0.05 0.1 -0.05 0.1 0 -22.86 -60.52 -0.48 -1.15 0 0 -0.29 -0.82c-0.48,0.19 -1.01,0.38 -1.49,0.53l0 0zm1.68 -0.62l16.96 43.66 0 0 7.21 18.64c1.82,-0.72 3.6,-1.49 5.38,-2.31l-25.17 -54.33 0.05 0.1 -2.59 -5.62 0 0 -0.34 -0.77c-0.48,0.24 -1.01,0.43 -1.49,0.62l0 0zm1.68 -0.72l20.03 42.27 0 0 8.55 18.11 0 0 0.1 -0.05 0 0 0.1 -0.05 0 0 0.05 -0.05 0 0 0.1 0 0 0 0.05 -0.05 0 0 0.1 -0.05 0 0 0.1 -0.05 0.05 -0.05 0 0 0.1 0 0 0 0.1 -0.05 0 0 0.05 -0.05 0 0 0.1 -0.05 0 0 0.05 0 0 0 0.1 -0.05 0 0 0.1 -0.05 0 0 0.05 -0.05 0 0 0.1 -0.05 0 0 0.1 0 0 0 0.05 -0.05 0 0 0.1 -0.05 0.05 -0.05 0 0 0.1 -0.05 0 0 0.1 -0.05 0 0 0.05 0 0.1 -0.05 0 0 0.05 -0.05 0.1 -0.05 0 0 0.1 -0.05 0.05 0 0 0 0.1 -0.05 0.05 -0.05 0.05 0 0.05 -0.05 0.1 -0.05 0.05 -0.05 0 0 0.1 0 0 0 0.1 -0.05 0.05 -0.05 0.1 -0.05 0.05 -0.05 0.1 -0.05 0 0 0.05 0 0.05 0 0.05 -0.05 0 0 0.1 -0.05 0 0 0.05 -0.05 0 0 0.1 -0.05 0.05 -0.05 0.1 0 0.1 -0.05 0.05 -0.05 0.1 -0.05 0.05 -0.05 0.1 -0.05 0.1 -0.05 0.05 0 0.1 -0.05 0 0 0.05 -0.05 0.1 -0.05 0 0 0.1 -0.05 0.05 -0.05 0.1 -0.05 0.05 0 0.1 -0.05 0.05 -0.05 0.1 -0.05 -31.75 -57.78 0 0 -0.43 -0.77c-0.43,0.24 -0.91,0.48 -1.34,0.72l-0 0zm4.03 -2.5l0.53 0.72 0 0 38.81 53.32 -0.1 0.05 -0.05 0.05 -0.1 0.05 -0.05 0.05 -0.05 0.05 -0.1 0.05 -0.05 0.05 -0.1 0.05 -0.05 0.05 -0.05 0.05 -0.05 0 -0.05 0.05 -0.05 0.05 -0.1 0.05 -0.05 0.05 -0.1 0.05 -0.05 0.05 -0.05 0.05 -0.1 0.05 -0.05 0.05 -0.1 0.05 0 0 -0.05 0.05 -0.05 0.05 -0.1 0.05 -0.05 0.05 -0.1 0.05 0 0 -0.05 0.05 0 0 -0.05 0.05 -0.05 0 -0.05 0.05 -0.05 0.05 -0.1 0.05 0 0 -0.05 0.05 0 0 -0.1 0.05 0 0 -0.05 0.05 -0.05 0.05 -0.1 0.05 -0.05 0.05 0 0 -0.1 0.05 0 0 -0.05 0.05 -0.1 0.05 0 0 -0.05 0.05 -0.05 0.05 -0.1 0.05 -0.05 0.05 0 0 -0.1 0.05 -0.05 0.05 0 0 -0.1 0.05 -0.05 0.05 -0.1 0.05 0 0 -0.05 0.05 -0.05 0.05 -0.1 0.05 -0.05 0.05 -0.1 0.05 0 0 -0.05 0.05 0 0 -0.1 0.05 0 0 -0.05 0 0 0 -0.05 0.05 -0.05 0 -0.05 0.05 -0.05 0.05 -0.1 0.05 -0.05 0.05 -0.1 0.05 -0.05 0.05 -0.1 0.05 -10.81 -16.86 -0.05 0 -25.31 -39.34c0.43,-0.24 0.87,-0.58 1.25,-0.87zm20.41 42.46l0 0 -22.91 -40.78c0.38,-0.24 0.72,-0.43 1.1,-0.67l0.43 0.72 0 0 35.21 55.77c-1.34,0.86 -2.69,1.68 -4.03,2.45l-9.8 -17.48 0 -0zm-19.07 -43.52l30.12 35.78 0 0 12.92 15.32 0.05 -0.05 0.1 -0.05 0.05 -0.05 0 0 0.05 -0.05 0.1 -0.1 0.05 -0.05 0 0 0.1 -0.05 0 0 0.05 -0.05 0 0 0.05 -0.05 0.1 -0.05 0.05 -0.1 0.05 -0.05 0 0 0.1 -0.05 0.05 -0.05 0.1 -0.05 0 0 0.05 -0.1 0.05 -0.05 0.1 -0.05 0 0 0.05 -0.05 0 0 0.05 -0.05 0 0 0.1 -0.05 0 0 0.05 -0.1 0.05 -0.05 0 0 0.1 -0.05 0.05 -0.05 0.05 -0.05 0.05 0 0.05 -0.1 0.05 -0.05 0.1 -0.05 0.05 -0.05 0 0 0.05 -0.05 0 0 0.1 -0.1 0 0 0.05 -0.05 0 0 0.05 -0.05 0 0 0.1 -0.05 0 0 0.05 -0.05 0 0 0.05 -0.1 0.1 -0.05 0 0 0.05 -0.05 0 0 0.05 -0.05 0.1 -0.1 0 0 0.05 -0.05 0 0 0.05 -0.05 0 0 0.1 -0.05 0 0 0.05 -0.05 0 0 0.05 -0.1 0 0 0.1 -0.05 0 0 0.05 -0.05 0 0 0.05 -0.05 0.1 -0.1 0 0 0.05 -0.05 0 0 0.05 -0.05 0 0 0.1 -0.05 0 0 0.05 -0.05 0 0 0.05 -0.1 0 0 0.1 -0.05 0 0 0.05 -0.05 0 0 0.05 -0.05 0 0 0.1 -0.1 0 0 0.05 -0.05 0 0 0.05 -0.05 0 0 0.05 -0.05 0 0 0.1 -0.1 0 0 0.05 -0.05 0 0 -24.3 -25.65 -17.82 -18.73 -0.05 -0.1 -3.22 -3.41 -0.05 0 -0.58 -0.62c-0.38,0.38 -0.77,0.77 -1.15,1.1l0 0zm-1.15 0.91l27.86 37.61 0 0 11.91 16.09c1.3,-0.96 2.55,-1.92 3.79,-2.98l-42.03 -50.82 0 0 -0.58 -0.67c-0.34,0.29 -0.62,0.53 -0.96,0.77l0 0zm3.27 -3.03l34.2 31.94 0 0 14.7 13.69 0.05 -0.05 0.1 -0.1 0.05 -0.05 0.05 -0.05 0.05 -0.05 0.05 -0.1 0.1 -0.05 0.05 -0.05 0.05 -0.1 0 0 0.05 -0.05 0.05 -0.05 0.1 -0.05 0 0 0.05 -0.1 0.05 -0.05 0 0 0.05 -0.05 0.05 -0.1 0.05 -0.05 0.1 -0.05 0 0 0.05 -0.1 0.05 -0.05 0.05 -0.05 0.05 -0.1 0.05 -0.05 0.05 0 0.05 -0.05 0 0 0.05 -0.05 0 0 0.05 -0.1 0 0 0.05 -0.05 0 0 0.05 -0.05 0 0 0.1 -0.1 0.05 -0.05 0.05 -0.05 0 0 0.05 -0.1 0 0 0.05 -0.05 0 0 0.05 -0.05 0 0 0.05 -0.1 0.05 0 0.05 -0.05 0 0 0.05 -0.05 0 0 0.05 -0.1 0.05 -0.05 0 0 0.05 -0.05 0 0 0.05 -0.1 0.1 -0.05 0 0 0.05 -0.05 0 0 0.05 -0.1 0.05 -0.05 0 0 0.05 -0.05 0 0 0.05 -0.1 0 0 0.05 -0.05 0 0 0.1 -0.05 0.05 -0.1 0 0 0.05 -0.05 0 0 0.05 -0.05 0 0 0.05 -0.1 0 0 0.05 -0.05 0 0 0.05 -0.05 0.1 -0.1 0 0 0.05 -0.05 0.05 -0.05 0 0 0.05 -0.1 0 0 0.05 -0.05 0 0 0.05 -0.05 0 0 0.05 -0.1 0 0 0.1 -0.05 0 0 0.05 -0.05 0 0 -32.57 -27.09 -17.63 -14.65 -0.58 -0.53 0 0.05 -0.67 -0.58c-0.34,0.43 -0.67,0.82 -1.06,1.2l0 0zm-0.82 0.87l32.52 33.67 0 0 13.93 14.41c0.91,-0.86 1.83,-1.78 2.74,-2.74l-47.89 -45.44 0 0 -0.62 -0.58c-0.19,0.24 -0.43,0.43 -0.67,0.67l0 0zm2.93 -3.51l38.23 26.99 0 0 16.43 11.62 0 0 0.05 -0.1 0 0 0.05 -0.05 0 0 0.05 -0.05 0 0 0.05 -0.1 0 0 0.05 -0.05 0 0 0.05 -0.1 0 0 0.05 -0.05 0 0 0.05 -0.1 0 0 0.05 -0.05 0 0 0.05 -0.1 0 0 0.05 -0.05 0 0 0.05 -0.05 0.05 -0.1 0 0 0.05 -0.05 0 0 0.05 -0.1 0 0 0.05 -0.05 0 0 0.05 -0.1 0 0 0.05 -0.05 0.05 -0.1 0 0 0.05 -0.05 0.05 -0.1 0 0 0.05 -0.05 0.05 -0.05 0 0 0.05 -0.1 0.05 -0.05 0.05 -0.1 0.05 -0.05 0 0 0.05 -0.1 0.05 -0.05 0.05 -0.1 0 0 0.05 -0.05 0 0 0.05 -0.1 0.05 -0.05 0.05 -0.1 0.05 -0.05 0.05 -0.1 0.05 -0.05 0 0 0.05 -0.1 0 0 0.05 -0.05 0.05 -0.05 0.05 -0.1 0 0 0.05 -0.05 0.05 -0.1 0.05 -0.05 0 0 0 -0.1 0.05 0 0 -0.05 0 0 0.05 -0.1 0.05 -0.05 0 0 0.05 -0.1 0 0 0.05 -0.05 0.05 -0.1 0 0 0.05 -0.05 0 0 0.05 -0.1 0 0 0.05 -0.05 0 0 0.05 -0.1 0 0 0.05 -0.05 0 0 0.05 -0.1 0 0 0.05 -0.05 0 0 0.05 -0.1 0 0 0.05 -0.05 0 0 0.05 -0.1 0 0 0.05 -0.05 0 0 0.05 -0.1 0 0 0 -0.05 0 0 -56.01 -35.02 0 0 -0.77 -0.43c-0.24,0.43 -0.53,0.91 -0.87,1.34zm-0.91 1.3l36.22 29.59 0 -0.05 15.56 12.73c1.15,-1.39 2.26,-2.83 3.31,-4.28l-53.6 -38.62 0 0 -0.67 -0.48c-0.29,0.34 -0.53,0.72 -0.82,1.1l0 0zm2.59 -4.13l41.4 21.76 0.05 0 17.82 9.41 0.05 -0.1 0.05 -0.05 0.05 -0.1 0.05 -0.1 0.05 -0.05 0 -0.1 0.05 -0.05 0.05 -0.1 0.05 -0.05 0.05 -0.1 0 -0.05 0.05 -0.1 0.05 -0.1 0.05 -0.05 0.05 -0.1 0 -0.05 0.05 -0.1 0.05 -0.05 0.05 -0.1 0 0 0 -0.05 0.05 -0.1 0.05 -0.1 0 0 0.05 -0.05 0.05 -0.1 0 -0.05 0.05 -0.1 0 0 0.05 -0.05 0 0 0.05 -0.1 0 0 0.05 -0.1 0 0 0 -0.05 0.05 -0.1 0.05 -0.05 0.05 -0.1 0 0 0 -0.05 0 0 0.05 -0.1 0 0 0.05 -0.1 0 0 0.05 -0.05 0 -0.1 0.05 -0.05 0 0 0.05 -0.1 0 0 0.05 -0.05 0.05 -0.1 0 0 0 -0.1 0 0 0.05 -0.05 0.05 -0.1 0 0 0.05 -0.05 0 -0.1 0 0 0.05 -0.1 0.05 -0.05 0 0 0.05 -0.1 0 0 0 -0.05 0 0 0.05 -0.1 0 0 0.05 -0.05 0 0 0.05 -0.1 0 -0.1 0 0 0.05 -0.05 0 0 0.05 -0.1 0 0 0 -0.05 0 0 0.05 -0.1 0 0 0.05 -0.1 0 0 0.05 -0.05 0 0 0 -0.1 0 0 0.05 -0.05 0 0 0.05 -0.1 0 0 -60.18 -27.43 0 0 0 0 -0.77 -0.34c-0.24,0.48 -0.43,0.96 -0.72,1.44l0 0zm-0.67 1.3l39.87 24.4 0.05 0 17.15 10.52c0.91,-1.39 1.73,-2.88 2.55,-4.32l-58.26 -31.27 0 0 -0.77 -0.43c-0.19,0.38 -0.38,0.72 -0.58,1.1zm3.12 -8.69l0.82 0.14 0 0 65.13 11.96 0 0.1 -0.05 0.1 0 0.05 0 0.1 0 0.1 -0.05 0.05 0 0.1 0 0.1 -0.05 0.05 0 0.1 0 0.1 -0.05 0.05 0 0.1 0 0.1 -0.05 0.05 0 0.1 0 0.1 -0.05 0.05 0 0 0 0.1 0 0.1 -0.05 0.05 0 0.1 0 0.1 -0.05 0.05 0 0.05 0 0.05 0 0 0 0.1 0 0 -0.05 0.05 0 0.05 0 0.05 0 0.1 -0.05 0.05 0 0.05 0 0.05 0 0 0 0.1 0 0 -0.05 0.1 0 0 0 0.05 0 0 0 0.1 0 0 -0.05 0.1 0 0 0 0.05 -0.05 0.1 0 0.1 0 0 0 0.05 0 0 -0.05 0.1 0 0 0 0.1 0 0.05 0 0 -0.05 0.1 0 0 0 0.1 0 0.05 0 0 -0.05 0.1 0 0 0 0.05 0 0 -0.05 0.1 0 0 0 0.1 0 0.05 0 0 -0.05 0.1 0 0 0 0.1 0 0 0 0.05 -0.05 0.1 0 0 0 0.1 0 0 -0.05 0.05 0 0 0 0.1 0 0 0 0.1 0 0 -0.05 0.05 0 0 0 0.1 0 0 -0.05 0.1 0 0 0 0.05 0 0 0 0.1 0 0 -19.74 -4.76 0 0.05 -45.49 -10.95c0.14,-0.53 0.24,-1.06 0.34,-1.59l0 -0zm44.24 16.09l0 0 -44.81 -13.4c0.05,-0.29 0.14,-0.58 0.19,-0.86l0.87 0.19 0 0 64.22 16.04c-0.34,1.3 -0.67,2.55 -1.06,3.84l-19.4 -5.81 0 0zm-45.39 -11.62l43.86 16.28 0 0 18.97 7.06 0 -0.1 0.05 -0.1 0.05 -0.05 0 -0.1 0.05 -0.1 0 0 0 -0.05 0.05 -0.1 0.05 -0.1 0 -0.05 0.05 -0.1 0 0 0 -0.1 0 0 0.05 -0.05 0.05 -0.1 0 -0.1 0.05 -0.05 0 0 0 -0.1 0 0 0.05 -0.05 0 0 0 -0.1 0.05 -0.1 0 0 0.05 -0.05 0 0 0 -0.1 0.05 -0.1 0 0 0 -0.05 0 0 0.05 -0.1 0 0 0.05 -0.1 0 0 0 -0.05 0 0 0.05 -0.1 0 0 0 -0.1 0 0 0.05 -0.05 0 -0.1 0 0 0.05 -0.1 0 0 0 -0.05 0.05 -0.1 0 0 0.05 -0.1 0 0 0 -0.05 0.05 -0.1 0 -0.1 0 0 0.05 -0.05 0 0 0 -0.1 0 0 0.05 -0.1 0 0 0.05 -0.05 0 -0.1 0.05 -0.1 0 -0.05 0.05 -0.1 0 -0.1 0.05 -0.05 0 0 0 -0.1 0 0 0.05 -0.1 0 0 0 -0.05 0 0 0.05 -0.1 0 0 0 -0.1 0 0 0.05 -0.05 0 0 0.05 -0.1 0 0 0 -0.1 0 0 0.05 -0.05 0 -0.1 0 0 0.05 -0.1 0 0 0 -0.05 0 0 0.05 -0.1 0 0 0 -0.1 0 0 0.05 -0.05 0 -0.05 0 -0.05 0 0 0.05 -0.1 0 0 -52.4 -16.19 -10.81 -3.36 0 0.05 0 0 -0.87 -0.29c-0.14,0.53 -0.29,1.06 -0.48,1.59l-0 0zm-0.48 1.25l42.7 19.07 0.05 -0.05 18.44 8.21c0.62,-1.44 1.25,-2.88 1.83,-4.42l-61.82 -23.58 0 0.05 -0.82 -0.34c-0.1,0.39 -0.24,0.72 -0.38,1.06l0 -0zm-0.34 -20.13l42.7 -19.17 0 0 18.68 -8.41 -0.05 -0.1 -0.05 -0.1 0 -0.05 -0.05 -0.1 -0.05 -0.05 -0.05 -0.1 0 -0.1 -0.05 -0.05 -0.05 -0.1 0 -0.1 -0.05 -0.05 -0.05 -0.1 -0.05 -0.05 0 -0.1 0 0 -0.05 -0.1 -0.05 -0.05 -0.05 -0.1 0 -0.05 -0.05 -0.1 -0.05 -0.1 -0.05 -0.05 -0.05 -0.1 0 -0.1 -0.05 -0.05 0 0 -0.05 -0.1 -0.05 -0.05 0 0 0 -0.1 -0.05 -0.1 -0.05 -0.05 0 0 -0.05 -0.1 0 -0.05 -0.05 -0.1 0 0 -0.05 -0.1 -0.05 -0.05 -0.05 -0.1 0 -0.05 0 0 -0.05 -0.1 0 0 -0.05 -0.1 0 0 -0.05 -0.05 0 0 0 -0.1 0 0 -0.05 -0.05 0 0 -0.05 -0.1 0 0 -0.05 -0.1 0 0 -0.05 -0.05 0 0 0 -0.1 -0.05 -0.05 -0.05 -0.1 -0.05 -0.05 0 -0.05 -0.05 -0.05 0 -0.1 -0.05 -0.05 0 0 -0.05 -0.1 -0.05 -0.05 -0.05 -0.1 0 -0.1 -0.05 -0.05 -0.05 -0.1 -0.05 -0.05 -0.05 -0.1 0 0 -0.05 -0.1 0 -0.05 -0.05 -0.1 0 0 -0.05 -0.05 -0.05 -0.1 -59.03 30.5 0.05 0.05 -0.77 0.39c0.29,0.53 0.53,1.06 0.77,1.58l0 0zm0.58 1.34l43.85 -16.33 0 0 19.17 -7.11c-0.58,-1.63 -1.2,-3.17 -1.87,-4.76l-60.86 26.71 0 0 -0.77 0.34c0.14,0.39 0.34,0.77 0.48,1.15l0 -0zm-2.11 -4.18l39.82 -24.59 0 0 17.48 -10.81 0 0 -0.05 -0.05 0 0 -0.05 -0.1 0 0 -0.05 -0.05 0 0 -0.05 -0.1 0 0 -0.05 -0.05 0 0 -0.05 -0.1 0 0 -0.05 -0.05 0 0 -0.05 -0.1 0 0 -0.05 -0.05 0 0 -0.05 -0.1 0 0 -0.05 -0.05 0 0 -0.05 -0.1 0 0 -0.05 -0.05 0 0 -0.05 -0.1 0 0 0 -0.05 0 0 -0.05 -0.1 0 0 -0.05 -0.05 0 0 -0.05 -0.1 0 0 -0.05 -0.05 0 0 -0.05 -0.1 0 0 -0.05 -0.05 0 0 -0.05 -0.1 0 0 -0.05 -0.05 0 0 -0.05 -0.1 0 0 -0.05 -0.05 -0.05 -0.1 0 0 -0.05 -0.05 0 0 -0.05 -0.1 0 0 -0.05 -0.05 0 0 -0.05 -0.1 0 0 -0.05 -0.05 0 0 -0.05 -0.1 0 0 -0.05 -0.05 0 0 -0.05 -0.1 0 0 -0.05 -0.05 0 0 -0.05 -0.1 0 0 -0.05 -0.05 0 0 -0.05 -0.1 0 0 -0.05 -0.05 -0.05 -0.1 0 0 -0.05 -0.05 0 0 -0.05 -0.1 0 0 -0.05 -0.05 0 0 -0.05 -0.05 0 -0.05 -0.05 -0.05 0 0 -0.05 -0.05 0 0 -0.05 -0.1 0 0 -0.05 -0.05 0 0 -0.05 -0.1 0 0 -0.05 -0.05 0 0 -0.05 -0.1 -0.05 -0.05 -0.05 -0.1 0 0 -0.05 -0.05 -0.05 -0.1 -0.05 -0.05 0 0 -0.05 -0.1 -0.05 -0.05 0 0 -0.05 -0.05 -0.05 -0.1 0 0 -0.05 -0.05 -0.05 -0.1 -0.05 -0.05 -0.05 -0.1 -47.55 33.1 -0.1 0.05 -6.92 4.8 0 0.05 -0.72 0.48c0.38,0.48 0.72,0.96 1.01,1.49zm0.62 1.06l41.4 -21.85 0 0 18.11 -9.61c-0.77,-1.44 -1.59,-2.88 -2.4,-4.28l-56.87 34.39 0 0 -0.72 0.43c0.14,0.34 0.34,0.62 0.48,0.91l0 -0zm-4.56 -5.91l32.47 -33.67 0 0 14.27 -14.84 -0.05 -0.1 -0.05 -0.05 -0.05 -0.05 -0.1 -0.05 -0.05 -0.05 0 0 -0.05 -0.1 -0.05 -0.05 -0.1 -0.05 -0.05 -0.05 -0.05 -0.1 -0.05 -0.05 0 0 -0.1 -0.05 -0.05 -0.05 0 0 -0.05 -0.05 -0.1 -0.1 0 0 -0.05 -0.05 0 0 -0.05 -0.05 -0.05 -0.05 -0.1 -0.05 0 0 -0.05 -0.1 0 0 -0.05 -0.05 0 0 -0.1 -0.05 0 0 -0.05 -0.05 0 0 -0.05 -0.05 0 0 -0.05 -0.1 0 0 -0.1 -0.05 0 0 -0.05 -0.05 0 0 -0.05 -0.05 -0.1 -0.05 0 0 -0.05 -0.1 0 0 -0.05 -0.05 0 0 -0.1 -0.05 0 0 -0.05 -0.05 0 0 -0.05 -0.05 -0.05 -0.05 0 0 -0.1 -0.1 0 0 -0.05 -0.05 0 0 -0.05 -0.05 0 0 -0.1 -0.05 0 0 -0.05 -0.05 -0.05 -0.1 -0.1 -0.05 0 0 -0.05 -0.05 0 0 -0.05 -0.05 0 0 -0.05 -0.05 -0.05 0 -0.05 -0.05 -0.05 -0.1 -0.05 -0.05 0 0 -0.1 -0.05 0 0 -0.05 -0.05 0 0 -0.05 -0.05 -0.1 -0.05 -0.05 -0.1 -0.05 -0.05 -0.1 -0.05 -0.05 -0.05 0 0 -0.05 -0.05 0 0 -0.1 -0.05 -0.05 -0.05 -0.05 -0.1 -0.1 -0.05 -0.05 -0.05 -0.05 -0.05 0 0 -0.1 -0.05 -40.78 47.22 -0.05 0.05 -2.69 3.07 0.05 0 -0.58 0.67c0.43,0.34 0.91,0.77 1.3,1.15l0 0zm0.82 0.82l34.49 -31.61 0 0 15.18 -13.88c-1.01,-1.15 -2.07,-2.21 -3.12,-3.31l-46.59 47.55 0 0 -0.58 0.58c0.19,0.24 0.43,0.43 0.62,0.67l-0 0zm-26.75 -6.24l-0.29 -0.82 0 0 -22.53 -62.68 0.1 -0.05 0.05 -0.05 0.1 0 0 0 0.1 -0.05 0 0 0.05 0 0 -0.05 0.19 -0.05 0.05 0 0.1 -0.05 0.14 -0.05 0.1 -0.05 0 0 0.1 0 0 0 0.05 -0.05 0 0 0.1 0 0 0 0.1 -0.05 0 0 0.05 -0.05 0.19 -0.05 0 0 0.24 -0.05 0 0 0.1 -0.05 0 0 0.05 -0.05 0.1 0 0 0 0.14 -0.05 0 0 0.1 -0.05 0 0 0.1 0 0.05 -0.05 0.19 -0.05 0 0 0.05 -0.05 0.05 0 0.05 0 0 0 0.1 -0.05 0 0 0.1 0 0 0 0.05 -0.05 0 0 0.1 0 0 0 0.1 -0.05 0.05 0 0 0 0.1 -0.05 0 0 0.1 0 0 -0.05 0.05 0 0.1 -0.05 0.1 0 0.1 -0.05 0.05 0 0.1 -0.05 0 0 0.1 0 0.05 -0.05 0.1 0 0.1 -0.05 0.05 0 0.1 -0.05 0.1 0 0.1 -0.05 0.05 0 0.1 -0.05 0.1 0 0.05 -0.05 0.1 -0.05 0.1 0 0.1 -0.05 0.05 0 19.02 63.88 -0.05 0 0.29 0.82c-0.58,0.14 -1.1,0.34 -1.63,0.53l0 0zm-11.1 -45.58l0 0 -5.72 -19.89c1.63,-0.48 3.27,-0.86 4.95,-1.25l4.51 20.17 0.05 0 10.23 45.68c-0.38,0.05 -0.72,0.14 -1.1,0.24l-12.92 -44.96 0 0zm14.22 44.67l-0.14 -0.87 0 0 -14.03 -65.13 0.05 0 0.1 -0.05 0 0 0.1 0 0.1 -0.05 0.05 0 0.1 0 0.1 -0.05 0.1 0 0 0 0.05 0 0.1 -0.05 0.1 0 0.1 0 0.05 -0.05 0.1 0 0 0 0.1 -0.05 0.1 0 0.05 0 0 0 0.1 -0.05 0.1 0 0.1 0 0.1 -0.05 0.05 0 0.1 0 0.1 -0.05 0.1 0 0.05 0 0.1 -0.05 0.1 0 0.1 0 0.05 -0.05 0.1 0 0.1 0 0.1 -0.05 0.1 0 0.05 0 0.1 -0.05 0.1 0 0.1 0 0.05 -0.05 0.1 0 0.1 0 0.1 -0.05 0 0 0.1 0 0.05 0 0.1 -0.05 0.1 0 0.1 0 0.05 -0.05 0.1 0 0 0 0.1 0 0.1 0 0.1 -0.05 0.05 0 0.1 0 0.1 -0.05 0 0 0.1 0 0.05 0 0.1 -0.05 0.1 0 0.1 0 0.1 0 0.05 -0.05 0 0 0.1 0 0.1 0 10.33 65.81 0 0 0.14 0.87c-0.58,0.1 -1.15,0.19 -1.73,0.34zm-4.9 -46.64l0 0 -3.03 -20.51c1.54,-0.19 3.12,-0.38 4.71,-0.53l1.92 20.61 0 0 4.27 46.59c-0.34,0 -0.67,0.05 -1.01,0.1l-6.87 -46.26 0 0zm-4.03 50.58l-0.53 -0.67 0 0 -30.93 -44.14 -7.3 -10.38 0 0 0.1 -0.05 0 0 0.05 -0.05 0 0 0.1 -0.05 0 0 0.05 -0.05 0 0 0.05 -0.05 0.05 0 0.05 -0.05 0 0 0.05 -0.05 0.05 0 0.05 -0.05 0 0 0.05 -0.05 0 0 0.1 -0.05 0 0 0.05 -0.05 0 0 0.1 -0.05 0 0 0.05 -0.05 0 0 0.1 -0.05 0 0 0.05 -0.05 0 0 0.05 -0.05 0.05 0 0.05 -0.05 0 0 0.05 -0.05 0 0 0.1 -0.05 0 0 0.05 -0.05 0 0 0.1 -0.05 0 0 0.05 -0.05 0 0 0.1 -0.05 0 0 0.05 -0.05 0 0 0.1 -0.05 0 0 0.05 -0.05 0 0 0.05 -0.05 0.05 0 0.05 -0.05 0 0 0.05 -0.05 0.05 0 0.05 -0.05 0 0 0.05 -0.05 0 0 0.1 -0.05 0 0 0.05 0 0 -0.05 0.1 0 0 -0.05 0.05 0 0 0 0.1 -0.05 0 0 0.05 -0.05 0 0 0.1 -0.05 0 0 0.05 -0.05 0 0 0.1 -0.05 0 0 0.05 -0.05 0 0 0.1 -0.05 0 0 0.05 -0.05 0 0 0.1 -0.05 0 0 0.05 -0.05 0 0 0.05 -0.05 0.05 0 0.05 -0.05 0 0 0.05 -0.05 0.05 0 0.05 -0.05 0 0 0.05 -0.05 0 0 0.1 -0.05 0 0 0.05 -0.05 0 0 0.1 -0.05 0 0 0.05 -0.05 0 0 0.1 -0.05 0 0 0.05 0 0 -0.05 0.1 0 0 0 0.05 -0.05 0 0 0.1 -0.05 0 0 0.05 -0.05 0.1 -0.05 0.05 -0.05 0.1 -0.05 0.05 -0.05 35.16 56.54 -0.05 0 0.48 0.77c-0.48,0.29 -0.91,0.58 -1.34,0.87zm-22.82 -40.97l0 0 -10.71 -17.63c1.39,-0.87 2.83,-1.68 4.28,-2.45l9.75 18.2 0 0 22.05 41.26c-0.34,0.19 -0.67,0.38 -1.01,0.58l-24.35 -39.96 0 0zm25.55 39.29l-0.43 -0.77 0 0 -5.04 -9.7 -0.1 -0.1 -10.33 -19.84 -15.37 -29.35 0 0 0.1 -0.05 0 0 0.05 -0.05 0 0 0.1 -0.05 0 0 0.1 -0.05 0 0 0.05 0 0 0 0.1 -0.05 0 0 0.05 -0.05 0 0 0.1 -0.05 0 0 0.1 -0.05 0 0 0.05 -0.05 0 0 0.1 0 0 0 0.05 -0.05 0 0 0.1 -0.05 0 0 0.1 -0.05 0 0 0.05 -0.05 0 0 0.1 -0.05 0 0 0.05 0 0 0 0.1 -0.05 0 0 0.14 -0.1 0 0 0.1 -0.05 0 0 0.05 0 0 0 0.1 -0.05 0.1 -0.05 0 0 0.05 -0.05 0 0 0.1 -0.05 0.24 -0.1 0.05 -0.05 0 0 0.1 -0.05 0 0 0.14 -0.05 0 0 0.1 -0.05 0 0 0.05 -0.05 0 0 0.1 0 0 0 0.05 -0.05 0 0 0.1 -0.05 0 0 0.1 -0.05 0.05 -0.05 0 0 0.1 0 0 0 0.05 -0.05 0 0 0.1 -0.05 0 0 0.1 -0.05 0 0 0.05 0 0 0 0.1 -0.05 0 0 0.1 -0.05 0 0 0.05 -0.05 0 0 0.1 -0.05 0.05 0 0 0 0.1 -0.05 0 0 0.1 -0.05 0 0 0.05 -0.05 0 0 0.1 0 0 0 0.1 -0.05 0 0 0.05 -0.05 0 0 0.1 -0.05 0 0 0.05 0 0 0 0.1 -0.05 0 0 0.1 -0.05 0 0 0.05 -0.05 0 0 0.1 0 0 0 0.1 -0.05 0 0 0.05 -0.05 0 0 27.47 60.71 0 0 0.34 0.77c-0.48,0.24 -1.01,0.48 -1.49,0.72l-0 0zm-17.2 -43.61l0 0 -8.36 -18.93c1.63,-0.72 3.36,-1.39 5.04,-2.07l7.16 19.41 0 0 16.24 43.9c-0.38,0.14 -0.82,0.34 -1.2,0.48l-18.88 -42.8 0 0zm9.51 49.86l-0.62 -0.53 -1.1 -0.91 -0.05 0 -8.74 -7.2 -25.6 -21.09 -15.85 -13.07 0.05 -0.05 0.05 -0.05 0 0 0.05 -0.1 0.05 -0.05 0.05 -0.1 0.1 -0.05 0.05 -0.05 0.05 -0.1 0.05 -0.05 0.05 -0.1 0 0 0.05 -0.05 0.05 -0.05 0.1 -0.1 0.05 -0.05 0 0 0.05 -0.1 0.05 -0.05 0.05 -0.05 0.05 -0.1 0.1 -0.05 0.05 -0.05 0 -0.05 0.05 -0.05 0 0 0.05 -0.05 0.05 -0.1 0 0 0.1 -0.05 0 0 0.05 -0.05 0.05 -0.1 0.05 -0.05 0 0 0.05 -0.1 0.05 -0.05 0.1 -0.05 0 0 0.05 -0.1 0 0 0.05 -0.05 0 0 0.05 -0.05 0 0 0.05 -0.1 0 0 0.1 -0.05 0 0 0.05 -0.05 0 0 0.05 -0.1 0 0 0.05 -0.05 0 0 0.05 -0.1 0 0 0.1 -0.05 0 0 0.05 -0.05 0 0 0.05 -0.1 0 0 0.05 -0.05 0 0 0.05 -0.05 0 0 0.1 -0.1 0 0 0.05 -0.05 0 0 0.05 -0.05 0 0 0.05 -0.1 0 0 0.05 -0.05 0 0 0.1 -0.05 0 0 0.05 -0.1 0 0 0.05 -0.05 0 0 0.05 -0.05 0 0 0.1 -0.1 0 0 0.05 -0.05 0 0 0.05 -0.05 0 0 0.05 -0.1 0 0 0.05 -0.05 0 0 0.1 -0.05 0 0 0.05 -0.1 0 0 0.05 -0.05 0 0 0.05 -0.05 0 0 0.1 -0.1 0 0 0.05 -0.05 0 0 48.8 45.2 0 0 0.62 0.58c-0.38,0.39 -0.72,0.77 -1.1,1.2l0 0zm-32.81 -33.43l0 -0.05 -14.99 -14.12c1.39,-1.44 2.79,-2.83 4.23,-4.18l14.03 15.08 0 0 31.85 34.29c-0.38,0.34 -0.72,0.67 -1.06,1.01l-34.06 -32.04zm7.45 -6.82l0 0 -12.87 -16.14c1.2,-0.96 2.5,-1.97 3.79,-2.88l12.01 16.81 0 0 27.19 38.04c-0.29,0.24 -0.62,0.43 -0.91,0.67l-29.2 -36.5zm21.9 45.87l-42.7 -19.12 0 0 -18.73 -8.41 0.05 -0.05 0.05 -0.1 0.05 -0.1 0 -0.05 0.05 -0.1 0.05 -0.1 0 0 0.05 -0.05 0 -0.1 0.05 -0.1 0 0 0.05 -0.05 0.05 -0.1 0 0 0 -0.1 0.05 -0.05 0.1 -0.19 0 0 0 -0.05 0.05 -0.1 0.05 -0.1 0.05 -0.05 0 -0.1 0.05 -0.1 0 0 0.05 -0.05 0 0 0.05 -0.1 0.05 -0.1 0 0 0 -0.05 0 0 0.05 -0.1 0.05 -0.1 0 0 0.05 -0.05 0 0 0.05 -0.1 0 0 0.05 -0.14 0 0 0.05 -0.1 0.05 -0.05 0 -0.1 0.05 -0.1 0.05 -0.05 0 0 0.05 -0.1 0 0 0.1 -0.14 0 -0.1 0.05 -0.1 0 0 0.05 -0.05 0 0 0.05 -0.1 0 0 0.05 -0.05 0 -0.1 0 0 0.05 -0.1 0.05 -0.05 0 0 0.05 -0.1 0.05 -0.1 0 0 0 -0.05 0.05 -0.1 0.05 -0.05 0 -0.05 0.05 -0.05 0.05 -0.1 0.05 -0.05 0 0 0 -0.1 0.05 -0.1 0.05 -0.05 0.05 -0.1 0.05 -0.1 0.05 -0.05 0 -0.1 0.05 -0.05 0.05 -0.1 58.89 30.74 0 0 0.77 0.43c-0.24,0.43 -0.48,0.91 -0.67,1.39l0 0zm-40.49 -23.63l0 0 -18.11 -9.66c0.77,-1.39 1.54,-2.79 2.35,-4.18l56.92 34.34 0 0 0.72 0.43c-0.19,0.38 -0.43,0.72 -0.62,1.06l-41.26 -22 -0 0zm41.98 20.75l-39.82 -24.5 0 0 -17.48 -10.76 0.05 -0.1 0.05 -0.1 0.05 -0.05 0.05 -0.1 0.05 -0.05 0.05 -0.1 0.05 -0.05 0.05 -0.1 0 0 0 -0.05 0 0 0.05 -0.1 0.05 -0.05 0.05 -0.1 0 0 0.05 -0.05 0.05 -0.1 0 0 0.1 -0.14 0.05 -0.05 0 0 0.1 -0.14 0.1 -0.14 0 0 0.1 -0.14 0 0 0.1 -0.14 0 0 0.05 -0.1 0 0 0.14 -0.19 0 0 0.05 -0.1 0.05 -0.05 0 0 0.05 -0.1 0 0 0.05 -0.05 0 0 0.05 -0.1 0 0 0.05 -0.05 0 0 0.05 -0.1 0 0 0.05 -0.05 0 0 0.05 -0.1 0 0 0.05 -0.05 0.1 -0.14 0 0 0.05 -0.1 0 0 0.1 -0.14 0 0 0.05 -0.05 0 0 0.05 -0.1 0 0 0.05 -0.05 0.05 -0.1 0.05 -0.05 0 0 0.05 -0.1 0.05 -0.05 0.05 -0.1 0 0 0.05 -0.05 0.05 -0.1 0 0 0.05 -0.05 0.05 -0.1 0.05 -0.05 0 0 0.05 -0.05 0 0 0.05 -0.1 0.05 -0.05 0.05 -0.1 0.05 -0.05 0.05 -0.1 0.05 -0.05 54.47 38.09 0 0 0.72 0.48c-0.34,0.43 -0.62,0.87 -0.91,1.3zm-37.08 -28.63l0 0 -16.72 -11.91c1.01,-1.49 2.11,-2.93 3.27,-4.37l51.73 41.79 0 0 0.67 0.58c-0.29,0.34 -0.58,0.72 -0.87,1.06l-38.09 -27.14zm34.49 34.44l-44.77 -13.64 0 0 -19.6 -5.96 0.05 -0.1 0 -0.05 0.05 -0.1 0 -0.1 0.05 -0.05 0 -0.1 0.05 -0.1 0.05 -0.05 0 -0.1 0 0 0.05 -0.1 0 -0.05 0.05 -0.1 0 -0.1 0.05 -0.05 0 -0.1 0.05 -0.1 0 -0.05 0.05 -0.1 0 -0.1 0.05 -0.05 0 0 0 -0.1 0.05 -0.1 0 -0.05 0 0 0.05 -0.1 0 -0.05 0.05 -0.1 0 -0.1 0 0 0.05 -0.05 0.05 -0.1 0 0 0 -0.1 0 0 0.05 -0.05 0 -0.1 0.05 -0.1 0 -0.05 0.05 -0.1 0 -0.1 0.05 -0.05 0 -0.1 0.05 0 0 -0.1 0 0 0.05 -0.05 0 -0.1 0 0 0.05 -0.05 0 -0.1 0 0 0.05 -0.1 0 -0.05 0 0 0.05 -0.1 0.05 -0.1 0 -0.05 0.05 -0.1 0 0 0 -0.1 0 0 0.05 -0.05 0 0 0 -0.1 0 0 0.05 -0.05 0 0 0.05 -0.1 0 -0.1 0.05 -0.05 0 -0.1 0.05 -0.1 0 -0.05 0.05 -0.1 0.05 -0.05 0 -0.1 0 0 0.05 -0.1 0 -0.05 62.35 22.91 0 0 0 0.05 0.77 0.29c-0.14,0.43 -0.29,0.91 -0.43,1.39l0 0zm-43.23 -18.16l0 0 -19.17 -7.25c0.58,-1.44 1.15,-2.88 1.73,-4.27l60.86 26.61 0 0 0.82 0.34c-0.19,0.38 -0.34,0.77 -0.48,1.1l-43.76 -16.52 0 0zm42.22 23.15l-46.59 -4.27 0 0 -20.27 -1.87c0.14,-1.87 0.38,-3.7 0.62,-5.57l65.56 10.09 0 0 0.87 0.1c-0.1,0.53 -0.14,1.06 -0.19,1.54zm0.19 -1.73l-46.16 -7.49 0 0 -20.13 -3.27 0 0 0 -0.1 0 0 0 -0.1 0 0 0.05 -0.1 0 0 0 -0.05 0 0 0 -0.1 0 0 0.05 -0.1 0 0 0 -0.1 0 0 0 -0.05 0 0 0 -0.1 0 0 0.05 -0.1 0 0 0 -0.1 0 0 0 -0.05 0 0 0.05 -0.1 0 0 0 -0.1 0 0 0 -0.05 0 0 0 -0.1 0 0 0.05 -0.1 0 -0.1 0 0 0 -0.05 0 0 0.05 -0.1 0 -0.1 0 0 0 -0.1 0 0 0.05 -0.05 0 0 0 -0.1 0 -0.1 0 0 0.05 -0.05 0 0 0 -0.1 0 0 0 -0.1 0 0 0.05 -0.1 0 -0.05 0 -0.1 0.05 -0.1 0 -0.1 0 -0.05 0 -0.1 0.05 -0.1 0 -0.05 0 -0.1 0.05 -0.1 0 -0.1 0 0 0.05 -0.05 0 0 0 -0.1 0 -0.1 0.05 -0.05 0 -0.1 0 -0.1 0.05 -0.1 0 -0.05 0 -0.1 0 0 0.05 -0.1 0 -0.05 0 -0.1 0.05 -0.1 0 -0.1 0 0 0 -0.05 0.05 -0.1 0 -0.1 0 -0.05 0.05 -0.1 0 -0.1 0.05 -0.05 0 -0.1 0 -0.1 0.05 -0.1 64.75 14.46 0 0 0.82 0.19c-0.1,0.48 -0.19,0.96 -0.29,1.44zm-45.2 -12.25l0 0 -19.93 -4.61c0.43,-1.78 0.86,-3.51 1.39,-5.24l63.64 18.78 0 0 0.82 0.24c-0.14,0.48 -0.24,0.96 -0.38,1.39l-45.54 -10.57 0 -0zm44.91 17.2l-46.78 1.73 0 0 -20.27 0.77c-0.05,-1.25 -0.1,-2.45 -0.1,-3.7 0,-0.43 0,-0.82 0,-1.25l66.29 1.06 0 0.05 0.86 0 -0.05 0.53c0,0.29 0.05,0.58 0.05,0.82l0 -0zm0 -1.59l-46.78 -1.15 0 0 -20.32 -0.53 0 -0.1 0 -0.1 0 -0.05 0 -0.1 0 -0.58 0 0 0 -0.1 0 0 0 -0.05 0 0 0 -0.1 0 -0.1 0 -0.1 0 0 0 -0.05 0 0 0.05 -0.1 0 0 0 -0.14 0 0 0 -0.1 0 -0.1 0 0 0 -0.24 0 0 0 -0.1 0 0 0 -0.05 0 0 0 -0.1 0 0 0 -0.24 0 0 0.05 -0.19 0 0 0 -0.05 0 0 0 -0.1 0 0 0 -0.1 0 0 0 -0.14 0 0 0 -0.1 0 0 0 -0.1 0 0 0 -0.05 0 0 0.05 -0.1 0 0 0 -0.1 0 0 0 -0.1 0 0 0 -0.14 0 0 0 -0.1 0 0 0 -0.14 0 0 0 -0.14 0 0 0.05 -0.1 0 0 0 -0.1 0 0 0 -0.1 0 0 0 -0.05 0 0 0 -0.1 0 0 0 -0.1 0 0 0 -0.05 0 0 0 -0.1 0 0 0.05 -0.1 0 0 0 -0.05 0 0 0 -0.1 0 0 0 -0.1 0 0 0 -0.1 0 0 66.05 5.48 0 0 0.86 0.1c0,0.48 -0.05,0.91 -0.05,1.39l0 0zm0.1 3.27l-46.54 4.9 0 0 -20.17 2.11 0 -0.1 0 -0.1 -0.05 -0.05 0 -0.1 0 -0.1 0 0 0 -0.1 0 0 0 -0.05 0 0 0 -0.1 0 0 -0.05 -0.1 0 0 0 -0.1 0 0 0 -0.05 0 -0.1 0 -0.19 -0.05 -0.05 0 0 0 -0.1 0 -0.1 0 0 0 -0.1 0 -0.05 0 0 -0.05 -0.19 0 0 0 -0.1 0 -0.05 0 -0.1 0 0 0 -0.1 0 -0.1 0 0 0 -0.05 0 0 -0.05 -0.1 0 0 0 -0.1 0 -0.14 0 0 0 -0.1 0 0 0 -0.19 0 0 -0.05 -0.05 0 0 0 -0.1 0 0 0 -0.19 0 0 0 -0.14 0 0 0 -0.19 0 0 -0.05 -0.05 0 -0.1 0 0 0 -0.1 0 0 0 -0.1 0 0 0 -0.14 0 -0.19 0 0 0 -0.1 -0.05 -0.05 0 0 0 -0.19 0 0 0 -0.1 0 -0.05 0 -0.1 0 0 0 -0.1 0 0 0 -0.1 0 0 0 -0.05 0 -0.1 0 0 -0.05 -0.1 0 -0.1 0 -0.05 66.19 -3.03 0 0 0.86 -0.05c0,0.48 0.05,0.96 0.1,1.44l0 0zm0.58 3.41l-0.87 0.19 0 0 -64.22 15.85c0.43,1.82 0.96,3.65 1.54,5.43l19.31 -6 0 0 44.67 -13.93c-0.19,-0.53 -0.29,-1.01 -0.43,-1.54l0 0zm-42.56 20.27l0 0 43.57 -17.1c-0.19,-0.48 -0.38,-0.96 -0.53,-1.44l-0.82 0.29 0 0 0 0 -62.97 20.22 0 0.1 0.05 0.1 0.05 0.1 0 0.1 0.05 0.05 0 0.1 0.05 0.1 0 0 0.05 0.1 0 0 0 0.05 0 0 0.05 0.1 0 0.1 0.1 0.19 0 0 0 0.05 0 0 0.05 0.19 0 0 0.05 0.1 0 0 0.05 0.05 0 0 0 0.1 0 0 0.1 0.29 0.05 0.05 0 0 0 0.1 0 0 0.05 0.1 0 0 0.05 0.1 0 0 0.05 0.24 0 0 0.05 0.1 0 0 0.05 0.05 0 0 0 0.1 0 0 0.05 0.1 0 0 0.05 0.1 0 0 0 0.05 0.05 0.19 0 0 0.05 0.1 0 0 0.05 0.1 0.05 0.14 0 0 0.05 0.19 0.05 0.05 0.05 0.1 0 0 0 0.1 0 0 0.05 0.1 0.05 0.05 0 0.1 0 0 0.1 0.19 0 0.05 0.05 0.1 0.05 0.1 0 0 0 0.1 0.05 0.05 0.05 0.1 0 0 0 0.1 0 0 0.05 0.05 0.05 0.1 0 0.1 0 0 0.05 0.1 0.05 0.05 0 0.1 18.83 -7.4 0 -0zm42.17 -22.14l-46.16 7.59 0 0 -20.03 3.31c-0.24,-1.54 -0.43,-3.08 -0.62,-4.61l65.81 -7.54 0 0.05 0.82 -0.1c0.05,0.43 0.14,0.87 0.19,1.3zm0.34 1.63l-45.54 10.81 0 0 -19.69 4.71 0 0 -0.05 -0.1 0 0 0 -0.1 0 0 0 -0.05 0 0 -0.05 -0.1 0 0 0 -0.1 0 0 -0.05 -0.1 0 0 0 -0.05 0 0 0 -0.1 0 0 -0.05 -0.1 0 0 0 -0.1 0 0 -0.05 -0.05 0 0 0 -0.1 0 0 0 -0.1 0 0 -0.05 -0.1 0 0 0 -0.05 0 -0.05 -0.05 -0.05 0 0 0 -0.1 0 0 0 -0.1 0 0 -0.05 -0.05 0 -0.05 0 -0.05 0 0 -0.05 -0.1 0 0 0 -0.1 0 0 0 -0.1 0 0 -0.05 -0.05 0 0 0 -0.1 0 0 -0.05 -0.1 0 0 0 -0.1 0 0 0 -0.05 0 0 -0.05 -0.1 0 0 0 -0.1 0 0 0 -0.1 0 0 -0.05 -0.05 0 0 0 -0.1 0 0 0 -0.1 -0.05 0 0 -0.1 0 0 0 -0.1 0 0 -0.05 -0.05 0 0 0 -0.1 0 0 0 -0.1 0 0 -0.05 -0.1 0 0 0 -0.05 0 0 0 -0.1 0 0 -0.05 -0.1 0 0 0 -0.1 0 0 0 -0.05 0 -0.05 -0.05 -0.05 0 0 0 -0.1 0 0 0 -0.1 0 0 -0.05 -0.1 0 0 0 -0.05 0 0 0 -0.1 0 0 -0.05 -0.1 0 0 0 -0.1 0 0 0 -0.05 0 -0.05 -0.05 -0.05 0 0 0 -0.1 0 0 0 -0.1 0 0 -0.05 -0.1 0 0 0 -0.05 0 0 0 -0.1 0 0 -0.05 -0.1 0 0 0 -0.1 0 0 0 -0.1 0 0 -0.05 -0.05 0 0 65.23 -11.38 0 0 0.86 -0.14c0.1,0.48 0.19,0.96 0.29,1.44l0 0zm2.5 6.49l-40.83 22.91 0 0 -17.58 9.85 0 0 -0.05 -0.1 0 0 -0.05 -0.05 0 0 -0.05 -0.1 0 0 0 -0.05 0 0 -0.05 -0.1 0 0 -0.05 -0.05 0 -0.05 -0.05 -0.05 0 0 -0.05 -0.1 0 0 -0.05 -0.05 0 0 -0.05 -0.1 0 0 0 -0.05 0 0 -0.05 -0.1 0 0 -0.05 -0.05 -0.05 -0.1 0 0 -0.05 -0.1 0 0 -0.05 -0.05 0 0 -0.05 -0.1 0 -0.05 0 0 -0.05 -0.1 0 0 -0.05 -0.05 0 0 -0.05 -0.1 0 0 -0.05 -0.05 0 -0.05 -0.05 -0.05 0 0 -0.05 -0.1 0 0 -0.05 -0.14 0 0 -0.05 -0.05 0 0 -0.05 -0.1 0 0 -0.05 -0.1 -0.05 -0.05 0 -0.1 0 0 -0.05 -0.05 0 0 -0.05 -0.1 0 0 -0.1 -0.14 0 0 -0.05 -0.1 0 -0.05 0 0 -0.05 -0.1 -0.05 -0.05 0 0 -0.05 -0.1 -0.05 -0.05 0 0 -0.05 -0.19 -0.05 -0.05 -0.1 -0.14 0 -0.1 -0.05 0 0 -0.1 -0.05 -0.05 -0.05 -0.1 0 0 -0.05 -0.05 -0.05 -0.1 0 -0.1 -0.05 -0.05 -0.05 -0.1 0 0 -0.05 -0.05 -0.05 -0.1 0 -0.1 -0.05 -0.05 -0.05 -0.1 -0.05 -0.05 0 -0.1 -0.05 -0.1 0 0 -0.05 -0.05 59.47 -28.92 0 0 0 0 0.77 -0.38c0.24,0.48 0.48,0.96 0.72,1.39l0 0zm-43.09 18.49l0 0 -18.2 8.69c-0.82,-1.63 -1.54,-3.31 -2.21,-4.99l61.34 -24.74 0 0 0.77 -0.34c0.19,0.43 0.38,0.87 0.58,1.3l-42.27 20.08 0 -0zm44.86 -15.71l-37.47 28 0 0 -16.09 12.06 0 0 -0.1 -0.05 0 0 -0.05 -0.1 0 0 -0.05 -0.05 0 0 -0.05 -0.1 0 0 -0.05 -0.05 0 0 -0.05 -0.05 0 -0.05 -0.05 -0.05 0 0 -0.05 -0.05 0 0 -0.05 -0.1 0 0 -0.05 -0.05 0 0 -0.05 -0.1 0 0 -0.05 -0.05 0 0 -0.05 -0.05 -0.05 -0.1 0 0 -0.05 -0.05 0 0 -0.05 -0.1 0 0 -0.05 -0.05 0 0 -0.05 -0.05 -0.05 -0.1 -0.05 -0.05 -0.05 -0.1 0 0 -0.05 -0.05 0 0 -0.05 -0.1 -0.05 -0.05 0 0 -0.05 -0.05 0 0 -0.05 -0.1 0 0 -0.05 -0.05 0 0 -0.05 -0.1 -0.05 -0.05 0 0 -0.05 -0.1 -0.05 -0.05 0 0 -0.05 -0.05 -0.05 -0.1 -0.05 0 -0.05 -0.05 -0.05 -0.1 0 0 -0.05 -0.05 -0.05 -0.1 0 0 -0.05 -0.05 0 0 -0.05 -0.05 0 0 -0.05 -0.1 -0.05 -0.05 0 0 -0.05 -0.1 0 0 -0.05 -0.05 0 0 -0.05 -0.1 0 0 -0.05 -0.05 0 0 -0.05 -0.1 0 0 -0.05 -0.05 0 -0.05 -0.05 0 0 -0.1 -0.05 0 0 -0.05 -0.05 0 0 -0.1 0 0 -0.05 -0.05 0 0 -0.05 -0.1 0 0 -0.05 -0.05 0 0 -0.05 -0.1 0 0 -0.05 -0.05 0 0 -0.05 -0.1 0 0 -0.05 -0.05 0 0 -0.05 -0.05 0 0 -0.05 -0.1 0 0 -0.05 -0.05 0 0 -0.05 -0.1 0 0 -0.05 -0.05 0 0 -0.05 -0.1 0 0 55.05 -36.5 0 0 0.72 -0.48c0.29,0.48 0.62,0.91 0.91,1.34l0 0zm-40.25 24.02l0 0 -16.91 10.95c-0.91,-1.39 -1.78,-2.83 -2.64,-4.28l57.4 -32.85 0 0 0.72 -0.43c0.19,0.38 0.43,0.72 0.62,1.11l-39.19 25.5zm64.56 -14.22l7.69 46.16 0 0 3.27 19.69 0 0 0.1 0 0 0 0.1 -0.05 0 0 0.14 0 0 0 0.1 -0.05 0 0 0.14 0 0 0 0.1 0 0 0 0.1 -0.05 0 0 0.1 0 0 0 0.05 0 0 0 0.1 -0.05 0 0 0.1 0 0.14 -0.05 0 0 0.1 0 0 0 0.1 0 0 0 0.05 -0.05 0.19 0 0 0 0.05 0 0 0 0.1 -0.05 0 0 0.1 0 0.1 0 0.05 -0.05 0 0 0.1 0 0 0 0.14 -0.05 0 0 0.1 0 0 0 0.1 0 0.05 -0.05 0.1 0 0.1 0 0.1 -0.05 0.05 0 0.1 0 0.1 -0.05 0 0 0.05 0 0.1 0 0.19 -0.05 0.05 0 0.1 -0.05 0.1 0 0.05 0 0 0 0.19 -0.05 0 0 0.05 -0.05 0.1 0 0.1 0 0 0 0.1 -0.05 0.05 0 0 0 0.1 0 0.1 -0.05 0 0 0.05 0 0.1 0 0 0 0.1 -0.05 0 0 0.05 0 0 0 0.1 -0.05 0 0 0.1 0 0 0 0.05 0 0 0 0.1 -0.05 0 0 0.1 0 0.05 0 -14.41 -64.32 0 0 -0.19 -0.87c-0.53,0.14 -1.06,0.24 -1.58,0.34l0 0zm12.44 45.2l0 0 4.56 19.45c1.97,-0.48 3.89,-1.01 5.76,-1.59l-19.26 -63.02 0 0 -0.24 -0.82c-0.48,0.14 -0.96,0.29 -1.49,0.38l10.66 45.58 0 0zm-14.12 -45.01l0.1 0.86 0 0 6 65.61 -0.1 0 -0.05 0.05 -0.1 0 -0.1 0 0 0 -0.1 0 -0.05 0 -0.1 0 -0.1 0.05 -0.1 0 -0.05 0 -0.1 0 0 0 -0.1 0 -0.1 0 -0.05 0 0 0 -0.1 0.05 -0.19 0 -0.05 0 0 0 -0.1 0 -0.1 0 -0.1 0 -0.14 0.05 0 0 -0.19 0 0 0 -0.1 0 -0.05 0 -0.1 0 -0.19 0 -0.05 0.05 0 0 -0.1 0 0 0 -0.19 0 -0.05 0 -0.29 0 0 0 -0.05 0 -0.1 0.05 -0.1 0 -0.19 0 0 0 -0.05 0 0 0 -0.1 0 0 0 -0.1 0 0 0 -0.1 0 0 0 -0.14 0 0 0 -0.1 0 0 0 -0.14 0.05 0 0 -0.1 0 0 0 -0.1 0 0 0 -0.1 0 0 0 -0.1 0 -0.05 0 -0.1 0 -0.1 0 -0.1 0 -0.05 0 -0.1 0 -0.1 0 -0.1 0 -2.31 -65.81 0 0 0 -0.87c0.53,-0.05 1.1,-0.05 1.63,-0.14l0 0zm1.44 -0.14l0.14 0.82 0 0 10.28 65.13c-1.63,0.24 -3.27,0.43 -4.95,0.62l-2.02 -19.89 0 0 -4.66 -46.54c0.38,-0.05 0.82,-0.1 1.2,-0.14zm-4.71 0.29l-0.05 0.87 0 0 -2.59 65.81c-1.73,-0.05 -3.46,-0.14 -5.19,-0.34l6.1 -65.61 0 0 0 0 0.1 -0.82c0.53,0.05 1.06,0.05 1.63,0.1zm1.39 0l1.25 46.78 0.48 19.93c-0.77,0.05 -1.54,0.05 -2.35,0.05 -0.87,0 -1.73,-0.05 -2.59,-0.05l0.62 -19.98 0 0 1.39 -46.74 0.58 0 0.62 0zm-6.44 -0.67l-0.19 0.82 0 0 -14.89 64.22 0.1 0 0.05 0.05 0.1 0 0.1 0.05 0.05 0 0.1 0 0.1 0.05 0.05 0 0.1 0 0.1 0.05 0.05 0 0.1 0.05 0 0 0.05 0 0.1 0 0.1 0.05 0.05 0 0.1 0 0.1 0.05 0 0 0.05 0 0.1 0 0.1 0.05 0.05 0 0.1 0 0 0 0.1 0.05 0 0 0.05 0 0.1 0 0.1 0.05 0 0 0.05 0 0.1 0 0.05 0.05 0.1 0 0 0 0.1 0 0.05 0.05 0 0 0.1 0 0 0 0.1 0 0.05 0.05 0.1 0 0.1 0 0.05 0.05 0.1 0 0.1 0 0.05 0.05 0.1 0 0 0 0.1 0 0.05 0.05 0.1 0 0 0 0.1 0 0.05 0.05 0 0 0.1 0 0.1 0 0 0 0.05 0.05 0 0 0.1 0 0.1 0 0.05 0 0.1 0.05 0 0 0.1 0 0 0 0.05 0 0 0 0.1 0.05 0 0 0.1 0 0.05 0 0.1 0.05 0.1 0 0.05 0 0.1 0 11.48 -64.89 0 0 0.14 -0.82c-0.58,-0.1 -1.11,-0.24 -1.63,-0.34l0 0zm-5.91 46.5l0 0 -3.27 19.69c1.82,0.34 3.7,0.58 5.62,0.77l2.02 -19.89 0 0 4.71 -46.54c-0.43,-0.05 -0.86,-0.1 -1.34,-0.19l-7.73 46.16zm-5.19 -52.4l-0.58 0.62 -0.05 0 -44.24 48.95 0.05 0.05 0.05 0.05 0.1 0.05 0.05 0.05 0.1 0.1 0 0 0.05 0.05 0.05 0.05 0.1 0.05 0 0 0.05 0.1 0.1 0.05 0 0 0.05 0.05 0.05 0.05 0 0 0.1 0.1 0.05 0.05 0.1 0.05 0 0 0.05 0.05 0 0 0.05 0.05 0 0.05 0.1 0.05 0.05 0.05 0.1 0.05 0.05 0.05 0 0 0.05 0.1 0 0 0.1 0.05 0 0 0.05 0.05 0.1 0.05 0.05 0.05 0 0 0.05 0.1 0.1 0.05 0 0 0.05 0.05 0.1 0.05 0 0 0.05 0.1 0.05 0.05 0.1 0.05 0 0 0.05 0.05 0 0 0.1 0.05 0.05 0.1 0.1 0.05 0.05 0.05 0.05 0.05 0.1 0.05 0.05 0.05 0 0.05 0.1 0.05 0.05 0.05 0.1 0.05 0.05 0.05 0.05 0.05 0.1 0.1 0.05 0.05 0.1 0.05 0.05 0.05 0.1 0.05 0.05 0.1 0.1 0.05 0.05 0.05 0.05 0.05 0.1 0.05 0.05 0.05 0.1 0.1 0 0 0.05 0.05 0.1 0.05 0.05 0.05 0.1 0.05 0.05 0.05 0.05 0.1 12.54 -15.66 17.15 -21.38 0 -0.05 11.58 -14.41 0 0 0.53 -0.72c-0.43,-0.34 -0.87,-0.67 -1.25,-1.06zm-24.26 40.4l0 0 26.76 -38.38c-0.34,-0.24 -0.72,-0.53 -1.06,-0.82l-12.49 15.85 -28.82 36.7c1.34,1.06 2.74,2.11 4.18,3.08l11.43 -16.43zm23.25 -41.36l-0.58 0.62 0 0 -47.07 46.26c1.06,1.06 2.11,2.07 3.17,3.08l13.59 -14.75 0 0 31.7 -34.44c-0.29,-0.24 -0.53,-0.48 -0.82,-0.77zm4.61 4.71l0.48 -0.72c-0.48,-0.29 -0.96,-0.58 -1.39,-0.86l-0.48 0.72 0 0 0 0 -15.13 22.09 -22.1 32.33 0 0 0.05 0.05 0 0 0.1 0.05 0 0 0.05 0.05 0.1 0.05 0 0 0.05 0.05 0 0 0.1 0.05 0.14 0.1 0 0 0.05 0.05 0 0 0.14 0.1 0 0 0.1 0.05 0 0 0.05 0.05 0 0 0.1 0.05 0.05 0.05 0 0 0.14 0.1 0 0 0.1 0.05 0.05 0.05 0.1 0.05 0.05 0.05 0.1 0.05 0.1 0.05 0 0 0.05 0.05 0 0 0.1 0.05 0.05 0.05 0.1 0.05 0 0 0.05 0.05 0.1 0.05 0 0 0.05 0.05 0.1 0.05 0.05 0.05 0 0 0.1 0.05 0 0 0.05 0.05 0.1 0.05 0 0 0.05 0.05 0.1 0.05 0 0 0.05 0.05 0.1 0.05 0.1 0.05 0 0 0.05 0.05 0 0 0.1 0.05 0.05 0.05 0.1 0.05 0.05 0.05 0 0 0.1 0.05 0 0 0.05 0.05 0 0 0.1 0.05 0 0 0.05 0.05 0 0 0.1 0 0 0 0.1 0.05 0.05 0.05 0 0 0.1 0.05 0.05 0.05 0 0 0.1 0.05 0.05 0.05 0.1 0.05 0 0 0.05 0.05 0.1 0.05 0.05 0.05 0.1 0.05 0.1 0.05 0.05 0.05 0.1 0.05 33.91 -56.53 0 -0.05zm-23.1 39.72l0.05 0 -10.18 17.24c1.39,0.82 2.74,1.59 4.18,2.31l9.22 -17.77 0 0 21.57 -41.5c-0.34,-0.19 -0.72,-0.38 -1.11,-0.62l-23.73 40.35zm26.13 -38.14l0.34 -0.82c-0.48,-0.19 -0.96,-0.43 -1.44,-0.67l-0.38 0.77 -29.88 58.79 0 0 0.05 0.05 0 0 0.1 0 0 0 0.1 0.05 0 0 0.05 0.05 0 0 0.1 0.05 0 0 0.05 0.05 0 0 0.1 0 0 0 0.1 0.05 0.05 0.05 0 0 0.1 0.05 0.05 0.05 0 0 0.1 0 0 0 0.1 0.05 0 0 0.05 0.05 0 0 0.1 0.05 0.05 0.05 0 0 0.1 0 0 0 0.1 0.05 0 0 0.05 0.05 0 0 0.1 0.05 0.1 0 0.05 0.05 0 0 0.1 0.05 0 0 0.05 0.05 0 0 0.1 0.05 0.1 0 0.05 0.05 0.1 0.05 0.05 0.05 0.1 0 0 0 0.1 0.05 0 0 0.05 0.05 0.1 0.05 0.1 0.05 0 0 0.05 0 0.1 0.05 0.1 0.05 0.05 0.05 0.1 0 0.05 0.05 0.1 0.05 0.1 0.05 0.05 0 0.1 0.05 0.1 0.05 0.05 0.05 0.1 0 0.05 0.05 0.05 0 0.05 0.05 0 0 0.1 0 0.05 0.05 0.1 0.05 0.1 0.05 0.05 0 0.1 0.05 0.1 0.05 0.05 0.05 0.1 0 0 0 0.1 0.05 0 0 0.05 0.05 0 0 0.1 0.05 0 0 0.1 0 0 0 0.05 0.05 0 0 0.1 0.05 0 0 26.37 -60.43 0 0 0 0zm-17.82 42.32l0.05 0 -7.88 18.4c1.44,0.62 2.88,1.2 4.37,1.73l22.67 -61.92 0 0 0.34 -0.77c-0.43,-0.14 -0.82,-0.34 -1.2,-0.48l-18.35 43.04 0 0zm4.03 1.59l0 0 -6.72 18.83 0 0 0.05 0 0 0 0.1 0.05 0 0 0.05 0 0 0 0.1 0.05 0 0 0.1 0 0 0 0.05 0.05 0 0 0.1 0.05 0 0 0.05 0 0 0 0.1 0.05 0 0 0.05 0 0.05 0 0.05 0.05 0 0 0.1 0 0 0 0.05 0.05 0 0 0.1 0 0 0 0.05 0.05 0 0 0.1 0 0 0 0.1 0.05 0 0 0.05 0.05 0 0 0.1 0 0 0 0.05 0.05 0 0 0.1 0 0 0 0.1 0.05 0 0 0.05 0 0 0 0.1 0.05 0 0 0.05 0 0 0 0.1 0.05 0 0 0.05 0 0 0 0.1 0.05 0 0 0.1 0 0 0 0.05 0.05 0 0 0.1 0 0 0 0.05 0.05 0 0 0.1 0 0 0 0.1 0.05 0 0 0.05 0 0 0 0.1 0.05 0 0 0.05 0 0.1 0.05 0.1 0 0.05 0.05 0.1 0 0 0 0.05 0.05 0.1 0 0.1 0.05 0.05 0 0 0 0.1 0.05 0.05 0 0.1 0.05 0.1 0 0.14 0.05 0.05 0.05 0.1 0 0 0 0.1 0.05 0.05 0 0 0 0.1 0.05 0.1 0 0.05 0.05 0 0 0.1 0 0.05 0.05 0.1 0 0.1 0.05 0.05 0 0.1 0.05 18.68 -63.21 0 0 0 0 0.24 -0.87c-0.48,-0.1 -0.91,-0.24 -1.39,-0.43l-15.71 44.09 0 0zm4.42 1.39l0 0 -5.48 19.21c1.15,0.34 2.31,0.62 3.46,0.91l4.66 -19.41 0 0 10.95 -45.49c-0.24,-0.1 -0.48,-0.14 -0.72,-0.19l-12.87 44.96 0 0zm1.58 -51.73l-33.62 32.52 0 0 -14.46 13.93 -0.05 -0.05 -0.05 -0.05 -0.05 -0.1 -0.1 -0.05 0 0 -0.05 -0.05 0 0 -0.14 -0.19 -0.05 -0.05 -0.1 -0.05 -0.05 -0.05 -0.1 -0.14 0 0 -0.05 -0.05 0 0 -0.05 -0.05 0 0 -0.1 -0.1 -0.05 -0.05 0 0 -0.05 -0.05 0 0 -0.05 -0.05 -0.1 -0.14 -0.1 -0.05 0 0 -0.05 -0.05 0 0 -0.05 -0.05 0 0 -0.05 -0.1 -0.05 -0.05 0 0 -0.14 -0.1 0 0 -0.05 -0.1 -0.05 -0.05 -0.05 -0.05 -0.05 -0.05 0 0 -0.05 -0.1 0 0 -0.14 -0.1 0 0 -0.05 -0.05 0 0 -0.05 -0.1 -0.05 -0.05 -0.05 -0.05 0 0 -0.05 -0.05 0 0 -0.05 -0.1 -0.1 -0.05 0 0 -0.05 -0.05 -0.05 -0.05 0 0 -0.05 -0.1 -0.05 -0.05 -0.05 -0.05 -0.05 -0.1 -0.1 -0.05 -0.05 -0.05 0 0 -0.05 -0.05 -0.05 -0.1 -0.05 -0.05 -0.05 -0.05 -0.05 -0.05 -0.05 -0.1 -0.1 -0.05 -0.05 -0.05 -0.05 -0.05 0 0 -0.05 -0.1 -0.05 -0.05 -0.05 -0.05 -0.05 -0.1 -0.05 -0.05 49.91 -43.18 0 0 0.67 -0.58c0.34,0.38 0.67,0.77 1.01,1.15l0 0zm-36.79 28.96l-0.05 0 -15.27 13.02c-1.06,-1.2 -2.07,-2.45 -3.03,-3.75l52.55 -39.96 0 0 0.67 -0.53c0.24,0.29 0.48,0.62 0.77,0.91l-35.64 30.31 0 0zm79.78 -49.04l0.87 -0.1 0 0 0 0 13.98 -1.2 52.07 -4.42 0 0 0 0.05 0 0 0.05 0.1 0 0 0 0.1 0 0 0 0.1 0 0 0 0.05 0 0 0 0.1 0 0 0 0.1 0 0 0 0.1 0 0 0.05 0.05 0 0 0 0.1 0 0 0 0.1 0 0 0 0.1 0 0 0 0.05 0 0 0 0.1 0 0 0 0.1 0 0 0.05 0.1 0 0 0 0.05 0 0 0 0.1 0 0 0 0.1 0 0 0 0.1 0 0 0 0.05 0 0 0 0.1 0 0 0 0.1 0 0 0.05 0.1 0 0 0 0.05 0 0 0 0.1 0 0 0 0.1 0 0 0 0.05 0 0.05 0 0.05 0 0 0 0.1 0 0 0 0.1 0 0 0 0.1 0 0 0 0.05 0 0 0.05 0.1 0 0 0 0.1 0 0 0 0.1 0 0 0 0.05 0 0 0 0.1 0 0 0 0.1 0 0 0 0.1 0 0 0 0.05 0 0 0 0.1 0 0 0 0.1 0 0 0 0.1 0 0 0.05 0.05 0 0 0 0.1 0 0 0 0.1 0 0 0 0.1 0 0 0 0.05 0 0 0 0.1 0 0 0 0.1 0 0 0 0.1 0 0 0 0.05 0 0 0 0.1 0 0 0 0.1 0 0 0 0.1 0 0 0 0.05 0 0 0.05 0.1 0 0 0 0.1 0 0 0 0.1 0 0 0 0.05 0 0 0 0.1 0 0 0 0.1 0 0 0 0.1 0 0 -20.32 0.62 0 0 -46.78 1.39c-0.05,-0.58 -0.05,-1.1 -0.14,-1.68l0 -0zm46.93 4.76l0 0.05 -46.78 -1.73 0 -0.38c0,-0.24 0,-0.53 0,-0.77l0.86 -0.05 0 0 66.24 -1.39c0,0.62 0.05,1.2 0.05,1.82 0,1.11 -0.05,2.16 -0.1,3.22l-20.27 -0.77 0 0zm-47.46 -7.97l0.82 -0.19 0 -0.05 64.8 -14.17 0 0 0.05 0.05 0 0 0 0.1 0 0 0.05 0.1 0 0 0 0.1 0 0 0 0.05 0 0 0.05 0.19 0 0 0 0.05 0 0 0.05 0.1 0 0 0 0.1 0 0 0 0.1 0 0 0.05 0.05 0 0 0 0.1 0 0 0.05 0.14 0 0 0 0.1 0 0 0.05 0.1 0 0 0 0.1 0 0 0 0.05 0 0 0.05 0.1 0 0 0 0.1 0 0 0.05 0.14 0 0 0 0.1 0 0 0 0.1 0 0 0.05 0.05 0 0 0 0.1 0 0 0 0.1 0 0 0.05 0.14 0 0 0 0.1 0 0 0.14 0.58 0 0 0 0.1 0 0 0.05 0.24 0 0 0.05 0.14 0 0 0 0.24 0 0.05 0.05 0.05 0 0 0 0.1 0 0 0.05 0.34 0 0 0.05 0.1 0 0 0 0.05 0 0 0 0.19 0 0 0.05 0.1 0 0 0 0.05 0 0 0 0.1 0 0 0.05 0.1 0 0 0 0.14 0 0 0 0.1 0 0 -20.13 3.27 0 0 -46.16 7.54c-0.1,-0.58 -0.24,-1.15 -0.34,-1.68zm47.12 -1.39l0 0 -46.59 4.37c-0.05,-0.34 -0.1,-0.72 -0.14,-1.11l0.82 -0.1 0 -0.05 65.57 -10.04c0.24,1.63 0.48,3.31 0.62,5l-20.27 1.92zm-48.08 -1.59l0.82 -0.29 0 0 62.44 -22.62 0 0 0.05 0.1 0 0 0.05 0.1 0 0 0 0.05 0 0.05 0.05 0.05 0 0 0 0.1 0 0 0.1 0.14 0 0 0 0.1 0 0 0.05 0.1 0 0 0 0.05 0 0 0.05 0.1 0 0 0.05 0.1 0 0 0.05 0.24 0 0 0.05 0.1 0 0 0.05 0.14 0 0 0.05 0.1 0 0 0.05 0.14 0 0 0 0.1 0 0 0.05 0.1 0 0 0.14 0.38 0 0 0 0.1 0 0 0.1 0.14 0 0 0 0.1 0.05 0.14 0 0 0.05 0.19 0 0 0.05 0.1 0 0 0 0.05 0 0 0.05 0.1 0.05 0.1 0 0 0.05 0.24 0 0 0.05 0.1 0 0 0 0.05 0.05 0.1 0 0 0 0.1 0 0 0.05 0.1 0.05 0.14 0 0 0.05 0.1 0 0.05 0 0 0.05 0.1 0 0.1 0 0 0.05 0.1 0 0.05 0 0 0.05 0.1 0 0.1 0.05 0.1 0 0 0 0.05 0.05 0.1 0 0.1 0 0 0.05 0.1 0 0.05 -19.6 5.86 0 0 -44.81 13.3c-0.19,-0.48 -0.34,-1.01 -0.58,-1.54l0 0zm46.5 -7.68l0 0 -45.63 10.42c-0.05,-0.34 -0.14,-0.62 -0.24,-0.96l0.82 -0.24 0 0 63.79 -18.35c0.43,1.49 0.82,3.03 1.2,4.56l-19.93 4.56 0 0z"/>
   <circle class="fil6" cx="92.18" cy="92.18" r="30.31"/>
   <path class="fil7" d="M68.35 86.94c2.88,-13.16 15.9,-21.52 29.06,-18.59 13.21,2.88 21.52,15.9 18.64,29.06 -2.88,13.21 -15.9,21.52 -29.11,18.64 -13.16,-2.88 -21.52,-15.9 -18.59,-29.11z"/>
   <path class="fil8" d="M81.08 72.1c4.95,0 8.98,4.03 8.98,8.98 0,4.95 -4.03,8.98 -8.98,8.98 -4.95,0 -8.98,-4.03 -8.98,-8.98 0,-4.95 4.03,-8.98 8.98,-8.98z"/>
  </g>
 </g>
</svg>
