<svg width="43" height="40" viewBox="0 0 43 40" fill="none" xmlns="http://www.w3.org/2000/svg">
<path d="M21.4935 0C20.8354 0 20.2042 0.26369 19.7388 0.733062C19.2735 1.20243 19.012 1.83904 19.012 2.50283C19.0127 2.85418 19.0867 3.20146 19.2292 3.52207C19.3717 3.84267 19.5795 4.12942 19.8392 4.36366V6.89582C20.4265 7.056 20.979 7.30409 21.4935 7.61278C22.008 7.30409 22.5606 7.056 23.1479 6.89582V4.36366C23.4075 4.12942 23.6154 3.84267 23.7579 3.52207C23.9004 3.20146 23.9744 2.85418 23.9751 2.50283C23.9751 1.83904 23.7136 1.20243 23.2482 0.733062C22.7829 0.26369 22.1517 0 21.4935 0ZM29.7653 1.66855C28.5013 1.66855 26.4695 2.55122 26.4695 5.00566C26.4695 5.69811 26.8003 6.38118 27.022 7.06528C29.0403 7.79945 30.5937 9.48601 31.1611 11.5984C35.2358 11.2246 40.0049 9.39372 42.1341 8.14398V8.14072C42.3959 7.99754 42.6146 7.78572 42.767 7.5276C42.9194 7.26948 42.9999 6.97464 43 6.67421C43 6.23169 42.8257 5.80728 42.5155 5.49437C42.2052 5.18146 41.7844 5.00566 41.3457 5.00566C41.323 5.00628 41.3004 5.00737 41.2778 5.00892C34.7328 4.98335 34.6383 1.66855 29.7653 1.66855ZM13.2347 1.67181C8.35724 1.67181 8.26892 4.98938 1.70604 5.00892C1.68883 5.00756 1.67159 5.00648 1.65434 5.00566C1.21558 5.00566 0.794795 5.18146 0.484546 5.49437C0.174296 5.80728 0 6.23169 0 6.67421C6.98231e-05 6.97464 0.0805608 7.26948 0.232976 7.5276C0.385391 7.78572 0.604076 7.99754 0.865945 8.14072V8.14398C2.99509 9.39372 7.76259 11.2263 11.8389 11.5984C12.4063 9.48601 13.9597 7.79945 15.978 7.06528C16.1997 6.38118 16.5305 5.69811 16.5305 5.00566C16.5305 2.55122 14.4987 1.67014 13.2347 1.67181ZM18.1849 9.98525C16.2803 9.98525 14.8762 11.5823 14.8762 13.3484C14.8762 15.603 15.7156 17.4119 16.9247 18.6018C17.1977 18.8704 17.4853 19.1018 17.7777 19.3187C17.5469 19.4599 17.3161 19.6003 17.0927 19.7685C15.8797 20.6813 14.8762 22.261 14.8762 24.194C14.8762 26.0473 15.6414 27.5935 16.6791 28.5968C17.1407 29.043 17.6365 29.3899 18.1364 29.6918C17.2404 30.5592 16.5305 31.8429 16.5305 33.3711C16.5305 34.7069 16.9521 35.8773 17.5839 36.7962C17.2304 36.9481 16.9405 37.2193 16.7637 37.5633C16.5869 37.9073 16.5343 38.3027 16.6149 38.6815C16.6955 39.0603 16.9044 39.3991 17.2055 39.6396C17.5067 39.8801 17.8815 40.0074 18.2656 39.9997C18.2656 39.9997 19.7717 39.9738 21.4935 39.4391C23.2154 39.9738 24.7214 39.9997 24.7214 39.9997C25.1055 40.0074 25.4803 39.8801 25.7815 39.6396C26.0827 39.3991 26.2915 39.0603 26.3722 38.6815C26.4528 38.3027 26.4002 37.9073 26.2234 37.5633C26.0466 37.2193 25.7566 36.9481 25.4032 36.7962C26.035 35.8773 26.4566 34.7069 26.4566 33.3711C26.4566 31.8429 25.7466 30.5592 24.8507 29.6918C25.3506 29.3899 25.8464 29.043 26.3079 28.5968C27.3457 27.5935 28.1109 26.0473 28.1109 24.194C28.1109 22.261 27.1074 20.6813 25.8944 19.7685C25.6709 19.6003 25.4401 19.4599 25.2093 19.3187C25.5018 19.1018 25.7894 18.8704 26.0624 18.6018C27.2715 17.4119 28.1109 15.603 28.1109 13.3484C28.1109 11.5823 26.7068 9.98525 24.8022 9.98525C23.7843 9.98525 22.9327 10.4912 22.3853 11.1063C21.8379 11.7214 21.4935 12.4539 21.4935 13.3484C21.4894 13.6891 21.5888 14.0228 21.7782 14.3049C21.9677 14.5869 22.2382 14.8037 22.5534 14.9261C22.8686 15.0485 23.2134 15.0707 23.5415 14.9896C23.8696 14.9086 24.1652 14.7282 24.3886 14.4727C24.2118 15.0773 24.145 15.8232 23.7489 16.213C23.2226 16.7308 22.4062 17.1601 21.4935 17.5752C20.5808 17.1601 19.7644 16.7308 19.2382 16.213C18.8421 15.8232 18.7753 15.0773 18.5984 14.4727C18.8219 14.7282 19.1175 14.9086 19.4456 14.9896C19.7737 15.0707 20.1185 15.0485 20.4337 14.9261C20.7489 14.8037 21.0194 14.5869 21.2088 14.3049C21.3983 14.0228 21.4977 13.6891 21.4935 13.3484C21.4935 12.4539 21.1491 11.7214 20.6017 11.1063C20.0543 10.4912 19.2027 9.98525 18.1849 9.98525ZM21.4935 21.2317C22.4899 21.6522 23.3854 22.0441 23.9169 22.444C24.565 22.9317 24.8022 23.218 24.8022 24.194C24.8022 25.2498 24.5335 25.6923 24.0203 26.1885C23.5071 26.6846 22.6438 27.1397 21.6325 27.6061C21.5883 27.6264 21.5382 27.6509 21.4935 27.6713C21.4489 27.6509 21.3988 27.6264 21.3546 27.6061C20.3433 27.1397 19.48 26.6846 18.9668 26.1885C18.4536 25.6923 18.1849 25.2498 18.1849 24.194C18.1849 23.218 18.4221 22.9317 19.0702 22.444C19.6016 22.0441 20.4972 21.6522 21.4935 21.2317ZM21.4935 31.3766C21.8831 31.5826 22.2267 31.7832 22.4661 31.9795C22.9784 32.3996 23.1479 32.6171 23.1479 33.3711C23.1479 34.2235 22.9165 34.6828 22.5437 35.1048C22.2846 35.3981 21.9066 35.642 21.4935 35.8576C21.0805 35.642 20.7025 35.3981 20.4434 35.1048C20.0706 34.6828 19.8392 34.2235 19.8392 33.3711C19.8392 32.6171 20.0086 32.3996 20.521 31.9795C20.7604 31.7832 21.1039 31.5826 21.4935 31.3766Z" fill="url(#paint0_linear_823_35539)"/>
<defs>
<linearGradient id="paint0_linear_823_35539" x1="21.5" y1="35" x2="19.8206" y2="13.3353" gradientUnits="userSpaceOnUse">
<stop stop-color="#5FB56D"/>
<stop offset="1" stop-color="#FB8C3F"/>
</linearGradient>
</defs>
</svg>
