<svg width="67" height="41" viewBox="0 0 67 41" fill="none" xmlns="http://www.w3.org/2000/svg">
<path d="M33.1662 0C13.2665 0 0.43617 19.2868 0.43617 19.2868V19.3429C0.182083 19.6767 0 20.0607 0 20.5C0 20.8938 0.150543 21.2406 0.358436 21.553V21.6171C0.358436 21.6171 11.0554 41 33.1662 41C55.2769 41 65.9739 21.6171 65.9739 21.6171V21.553C66.1818 21.2406 66.3323 20.8938 66.3323 20.5C66.3323 20.0607 66.1502 19.6767 65.8962 19.3429V19.2868C65.8962 19.2868 53.0659 0 33.1662 0ZM33.1662 6.15C41.7142 6.15 48.6437 12.5747 48.6437 20.5C48.6437 28.4253 41.7142 34.85 33.1662 34.85C24.6181 34.85 17.6886 28.4253 17.6886 20.5C17.6886 12.5747 24.6181 6.15 33.1662 6.15ZM33.1662 14.35C29.5024 14.35 26.5329 17.1031 26.5329 20.5C26.5329 23.8968 29.5024 26.65 33.1662 26.65C36.8299 26.65 39.7994 23.8968 39.7994 20.5C39.7994 17.1031 36.8299 14.35 33.1662 14.35Z" fill="url(#paint0_linear_823_35530)"/>
<defs>
<linearGradient id="paint0_linear_823_35530" x1="33.1662" y1="35.875" x2="32.0185" y2="13.5944" gradientUnits="userSpaceOnUse">
<stop stop-color="#5FB56D"/>
<stop offset="1" stop-color="#FB8C3F"/>
</linearGradient>
</defs>
</svg>
