<?xml version="1.0" encoding="UTF-8"?>
<!DOCTYPE svg PUBLIC "-//W3C//DTD SVG 1.1//EN" "http://www.w3.org/Graphics/SVG/1.1/DTD/svg11.dtd">
<!-- Creator: CorelDRAW X8 -->
<svg xmlns="http://www.w3.org/2000/svg" xml:space="preserve" width="142.001mm" height="38.387mm" version="1.1" style="shape-rendering:geometricPrecision; text-rendering:geometricPrecision; image-rendering:optimizeQuality; fill-rule:evenodd; clip-rule:evenodd"
viewBox="0 0 14200 3839"
 xmlns:xlink="http://www.w3.org/1999/xlink">
 <defs>
  <style type="text/css">
   <![CDATA[
    .fil5 {fill:#207953}
    .fil7 {fill:#267A59}
    .fil3 {fill:#55CD90}
    .fil6 {fill:#FF6600}
    .fil11 {fill:white}
    .fil2 {fill:#1D5C3E;fill-rule:nonzero}
    .fil1 {fill:#FF6600;fill-rule:nonzero}
    .fil9 {fill:url(#id0)}
    .fil4 {fill:url(#id1)}
    .fil10 {fill:url(#id2)}
    .fil8 {fill:url(#id3)}
    .fil0 {fill:url(#id4);fill-rule:nonzero}
   ]]>
  </style>
  <linearGradient id="id0" gradientUnits="userSpaceOnUse" x1="1911.43" y1="1708.81" x2="1911.43" y2="2684.97">
   <stop offset="0" style="stop-opacity:1; stop-color:#140A00"/>
   <stop offset="1" style="stop-opacity:1; stop-color:#1FA672"/>
  </linearGradient>
  <linearGradient id="id1" gradientUnits="userSpaceOnUse" x1="1918.94" y1="1919.35" x2="1893.48" y2="-800.83">
   <stop offset="0" style="stop-opacity:0; stop-color:#93BF85"/>
   <stop offset="1" style="stop-opacity:0.447059; stop-color:#002611"/>
  </linearGradient>
  <linearGradient id="id2" gradientUnits="userSpaceOnUse" x1="2096.87" y1="2152.75" x2="2590.87" y2="2809.16">
   <stop offset="0" style="stop-opacity:0; stop-color:#26D491"/>
   <stop offset="0.631373" style="stop-opacity:1; stop-color:#1EF598"/>
   <stop offset="1" style="stop-opacity:1; stop-color:#1FFF9E"/>
  </linearGradient>
  <radialGradient id="id3" gradientUnits="userSpaceOnUse" gradientTransform="matrix(0.0255014 1.01833 -1.01836 0.0255014 3825 -84)" cx="1919.36" cy="1919.35" r="400.37" fx="1919.36" fy="1919.35">
   <stop offset="0" style="stop-opacity:1; stop-color:#1F1F02"/>
   <stop offset="1" style="stop-opacity:0; stop-color:#003D23"/>
  </radialGradient>
  <linearGradient id="id4" gradientUnits="userSpaceOnUse" x1="9204.03" y1="1281.37" x2="9223.83" y2="2692.82">
   <stop offset="0" style="stop-opacity:1; stop-color:#207953"/>
   <stop offset="0.278431" style="stop-opacity:1; stop-color:#1D5B3D"/>
   <stop offset="1" style="stop-opacity:1; stop-color:#193C26"/>
  </linearGradient>
 </defs>
 <g id="Слой_x0020_1">
  <metadata id="CorelCorpID_0Corel-Layer"/>
  <g id="_1794294843600">
   <path class="fil0" d="M5791 520c0,23 -1,43 -3,59 -2,15 -5,28 -9,38 -4,10 -8,16 -14,21 -6,4 -13,6 -21,6l-498 0 0 1216c0,7 -3,14 -8,20 -5,6 -14,11 -25,15 -12,3 -27,7 -47,9 -19,2 -44,2 -74,2 -30,0 -54,0 -74,-2 -20,-2 -36,-6 -47,-9 -12,-4 -20,-9 -25,-15 -5,-6 -8,-13 -8,-20l0 -1370c0,-32 9,-56 25,-72 17,-16 39,-24 66,-24l715 0c16,0 27,9 35,29 8,19 12,51 12,97zm5786 1340c0,7 -2,14 -7,20 -4,6 -13,11 -24,15 -12,3 -28,7 -47,9 -20,2 -45,2 -74,2 -30,0 -56,0 -75,-2 -19,-2 -35,-6 -46,-9 -12,-4 -20,-9 -25,-15 -4,-6 -7,-13 -7,-20l0 -1216 -249 0c-22,178 -44,333 -66,466 -23,133 -47,247 -73,341 -25,95 -54,173 -84,233 -31,61 -66,109 -105,144 -39,36 -84,60 -133,73 -50,13 -106,20 -169,20 -12,0 -22,-2 -30,-5 -9,-3 -15,-9 -21,-18 -5,-8 -8,-20 -11,-35 -2,-16 -3,-36 -3,-59 0,-34 1,-61 2,-81 2,-21 4,-37 8,-48 4,-11 9,-18 16,-22 6,-4 13,-6 22,-6 24,0 47,-5 69,-15 22,-10 43,-29 64,-57 21,-29 41,-70 60,-122 19,-52 37,-120 56,-205 18,-85 36,-189 54,-311 19,-122 37,-268 56,-436 4,-40 14,-67 28,-83 14,-16 34,-24 61,-24l666 0c28,0 49,8 64,24 16,16 23,40 23,72l0 1370zm1345 4c0,7 -2,14 -6,19 -4,6 -12,10 -23,13 -11,4 -25,6 -44,8 -18,2 -41,2 -69,2 -28,0 -52,0 -71,-2 -19,-2 -34,-4 -46,-8 -12,-3 -21,-7 -26,-13 -5,-5 -8,-12 -8,-19l0 -464c0,-33 1,-66 3,-101 2,-35 5,-69 9,-103 -19,33 -39,65 -60,96 -22,32 -44,63 -67,94l-350 476c-7,9 -13,16 -20,22 -6,6 -14,10 -23,14 -10,3 -22,6 -37,7 -15,1 -34,1 -57,1 -28,0 -51,0 -68,-2 -17,-2 -31,-4 -42,-8 -10,-3 -18,-7 -22,-13 -4,-6 -6,-13 -6,-21l0 -1042c0,-6 2,-13 6,-19 4,-6 12,-11 23,-14 12,-4 26,-7 45,-9 18,-2 41,-3 69,-3 55,0 93,4 116,12 23,7 34,19 34,33l0 461c0,32 -1,65 -4,99 -2,35 -5,67 -9,99 19,-31 37,-62 57,-92 19,-31 40,-61 62,-89l353 -478c6,-8 13,-15 20,-21 7,-6 16,-10 26,-14 11,-4 23,-6 39,-8 15,-1 34,-2 59,-2 27,0 49,1 68,2 17,2 31,5 42,9 10,3 18,8 21,15 4,6 6,13 6,21l0 1042zm1267 7c0,7 -2,12 -7,16 -4,4 -11,8 -22,11 -11,2 -26,4 -45,6 -19,2 -43,2 -71,2 -33,0 -59,0 -80,-2 -21,-2 -38,-4 -50,-6 -13,-3 -21,-7 -27,-13 -5,-5 -9,-12 -13,-20l-96 -247c-12,-34 -25,-62 -38,-84 -14,-23 -29,-40 -45,-54 -16,-14 -35,-23 -56,-29 -21,-6 -45,-9 -72,-9l-59 0 0 423c0,6 -3,11 -8,16 -6,6 -15,10 -26,14 -12,3 -27,7 -45,9 -19,2 -42,2 -68,2 -27,0 -50,0 -69,-2 -18,-2 -33,-6 -45,-9 -11,-4 -20,-8 -25,-14 -5,-5 -7,-10 -7,-16l0 -1050c0,-6 2,-11 7,-16 5,-5 14,-9 25,-13 12,-3 27,-6 45,-8 19,-2 42,-3 69,-3 26,0 49,1 68,3 18,2 33,5 45,8 11,4 20,8 26,13 5,5 8,10 8,16l0 403 59 0c24,0 46,-3 65,-9 19,-6 37,-15 53,-29 16,-13 31,-31 44,-54 14,-22 27,-50 39,-83l87 -224c3,-7 7,-14 12,-20 5,-6 14,-10 25,-14 11,-4 27,-6 47,-8 19,-1 45,-2 78,-2 29,0 52,1 71,2 18,2 32,4 42,7 11,3 18,7 22,11 4,5 6,10 6,16 0,8 -2,17 -5,28 -3,11 -8,26 -16,44l-83 198c-16,39 -33,73 -51,101 -19,27 -37,50 -56,68 -19,18 -38,32 -58,43 -19,11 -38,19 -56,25l0 3c24,10 47,20 68,32 21,12 40,27 60,46 19,18 37,41 54,69 17,28 35,61 52,99l101 233c4,10 8,19 11,27 3,7 5,13 6,19 2,6 3,11 3,15 1,4 1,7 1,10zm-7508 -11c0,7 -3,14 -8,20 -4,6 -12,11 -23,15 -11,3 -26,7 -45,9 -19,2 -42,2 -70,2 -29,0 -53,0 -72,-2 -19,-2 -35,-6 -46,-9 -11,-4 -19,-9 -23,-15 -4,-6 -6,-13 -6,-20l0 -840 -210 0c-12,122 -28,229 -46,321 -18,92 -39,172 -64,238 -23,67 -50,123 -79,166 -29,44 -61,79 -96,105 -35,25 -73,44 -114,54 -40,11 -84,17 -129,17 -10,0 -19,-2 -27,-5 -6,-3 -12,-9 -16,-18 -3,-9 -6,-22 -8,-39 -1,-17 -2,-40 -2,-68 0,-28 0,-52 1,-70 2,-17 4,-31 7,-41 3,-9 7,-16 13,-19 5,-3 12,-5 20,-5 22,0 43,-4 62,-13 20,-9 39,-25 56,-48 18,-23 35,-53 50,-91 16,-37 30,-85 43,-142 14,-57 26,-126 38,-205 12,-80 23,-173 34,-278 1,-32 8,-56 20,-71 12,-16 32,-23 59,-23l600 0c27,0 48,7 61,23 13,15 20,39 20,71l0 981zm1176 4c0,10 -4,19 -12,25 -8,6 -20,11 -37,13 -16,3 -41,4 -74,4 -35,0 -60,-1 -76,-4 -16,-2 -27,-7 -34,-13 -7,-6 -10,-15 -10,-25l0 -83c-43,46 -91,81 -146,106 -54,26 -115,38 -182,38 -54,0 -105,-7 -151,-21 -46,-14 -86,-36 -120,-64 -34,-28 -60,-63 -78,-105 -19,-42 -28,-91 -28,-147 0,-60 12,-113 35,-157 24,-45 59,-82 106,-111 47,-29 105,-50 175,-64 69,-14 150,-21 242,-21l102 0 0 -63c0,-33 -4,-61 -10,-86 -7,-24 -18,-45 -33,-61 -15,-16 -35,-28 -60,-36 -25,-8 -57,-12 -94,-12 -48,0 -92,6 -130,17 -39,10 -72,23 -102,36 -29,13 -54,25 -74,36 -19,11 -35,16 -48,16 -8,0 -16,-2 -22,-8 -7,-5 -13,-13 -17,-23 -4,-10 -7,-23 -9,-37 -3,-15 -4,-31 -4,-49 0,-24 2,-43 6,-57 4,-14 11,-26 22,-38 11,-11 30,-23 57,-37 27,-13 59,-26 95,-37 37,-12 76,-22 119,-29 44,-7 88,-11 134,-11 81,0 151,8 208,24 58,16 106,40 143,73 37,33 64,76 81,128 17,51 26,113 26,184l0 699zm-288 -446l-112 0c-47,0 -87,4 -121,10 -33,8 -60,18 -81,32 -21,14 -36,31 -46,51 -10,19 -14,42 -14,67 0,44 14,78 41,103 27,25 65,37 114,37 41,0 79,-10 113,-31 35,-21 70,-52 106,-92l0 -177zm1371 154c0,57 -12,108 -36,152 -24,43 -58,80 -101,111 -44,30 -96,53 -158,68 -61,15 -131,22 -207,22 -40,0 -78,-2 -114,-8 -37,-6 -70,-13 -101,-23 -30,-8 -56,-17 -76,-27 -20,-10 -35,-19 -44,-26 -8,-7 -15,-14 -19,-22 -5,-7 -8,-15 -10,-25 -2,-9 -4,-20 -5,-34 -1,-13 -1,-30 -1,-49 0,-18 1,-32 2,-43 2,-11 4,-20 7,-26 2,-8 6,-12 10,-15 4,-3 8,-4 14,-4 9,0 23,5 38,15 16,9 37,19 61,31 24,11 54,22 89,32 36,10 78,15 128,15 34,0 64,-4 90,-10 26,-8 48,-18 66,-30 17,-13 30,-29 39,-48 9,-18 13,-39 13,-62 0,-22 -4,-41 -12,-58 -9,-17 -23,-32 -43,-44 -20,-12 -46,-21 -78,-27 -32,-6 -72,-9 -118,-9l-112 0c-10,0 -18,-2 -24,-6 -6,-3 -12,-9 -16,-17 -3,-8 -6,-18 -7,-31 -1,-13 -2,-29 -2,-48 0,-18 1,-33 3,-45 1,-12 4,-22 7,-29 4,-7 8,-12 14,-15 6,-3 13,-5 22,-5l107 0c42,0 78,-3 108,-9 30,-6 55,-15 74,-27 20,-12 34,-27 42,-45 10,-17 14,-37 14,-61 0,-20 -4,-38 -13,-54 -9,-16 -20,-29 -36,-39 -15,-11 -34,-19 -56,-24 -22,-5 -46,-7 -73,-7 -44,0 -83,4 -118,14 -34,10 -64,21 -90,32 -25,12 -46,23 -63,32 -17,10 -29,14 -38,14 -5,0 -9,0 -13,-2 -3,-2 -7,-7 -11,-13 -3,-7 -6,-16 -8,-28 -2,-11 -3,-27 -3,-46 0,-30 2,-55 7,-73 4,-19 11,-32 21,-42 9,-10 26,-21 51,-33 24,-11 53,-23 86,-32 33,-10 69,-18 108,-24 39,-6 79,-9 121,-9 63,0 122,6 174,19 53,12 98,31 134,56 37,25 66,56 85,94 20,37 30,80 30,129 0,29 -5,57 -14,85 -9,27 -22,51 -39,73 -17,22 -38,42 -62,59 -25,17 -53,30 -85,40l-1 2c33,4 65,13 94,28 29,15 54,33 76,56 22,22 40,48 53,78 12,30 19,62 19,97zm1274 -242c0,88 -12,169 -35,242 -24,73 -59,135 -106,188 -48,53 -107,94 -178,123 -72,28 -155,42 -250,42 -93,0 -173,-12 -241,-38 -68,-25 -125,-63 -170,-112 -45,-48 -78,-108 -100,-180 -22,-71 -33,-152 -33,-244 0,-88 12,-169 36,-242 23,-74 59,-136 106,-189 48,-52 107,-92 178,-121 71,-29 154,-43 249,-43 93,0 174,13 242,38 69,25 125,62 169,111 45,49 78,109 100,180 22,71 33,153 33,245zm-301 12c0,-51 -3,-99 -12,-141 -8,-44 -22,-81 -41,-113 -20,-32 -46,-57 -78,-74 -32,-18 -73,-27 -122,-27 -44,0 -82,8 -115,24 -32,16 -59,39 -80,70 -22,30 -37,67 -48,110 -10,43 -16,92 -16,147 0,52 5,99 13,142 9,43 23,80 42,112 19,32 45,56 78,74 32,17 73,26 121,26 45,0 83,-8 116,-24 33,-16 60,-39 81,-69 21,-30 36,-67 46,-110 10,-43 15,-92 15,-147z"/>
   <path class="fil1" d="M4991 2448c-29,0 -53,-24 -53,-53 0,-29 24,-53 53,-53l9156 0c30,0 53,24 53,53 0,29 -23,53 -53,53l-9156 0z"/>
   <g>
    <path class="fil2" d="M5299 3430c0,2 -1,4 -3,5 -2,2 -7,2 -15,2 -6,0 -11,0 -13,-2 -3,-1 -4,-3 -4,-5l0 -110 -306 0c-6,0 -10,-1 -13,-5 -3,-3 -5,-9 -5,-16l0 -413c0,-3 1,-5 4,-7 3,-1 9,-2 17,-2 8,0 13,1 16,2 3,2 5,4 5,7l0 397 216 0 0 -397c0,-3 2,-5 5,-7 3,-1 9,-2 17,-2 8,0 13,1 16,2 3,2 4,4 4,7l0 397 48 0c3,0 6,1 8,4 2,2 3,4 3,8l0 135zm328 -287c0,8 -2,14 -6,17 -4,3 -9,5 -13,5l-210 0c0,19 2,36 6,51 4,16 10,29 19,40 8,11 19,20 33,26 14,5 31,8 51,8 15,0 27,-1 39,-3 11,-3 21,-6 29,-9 9,-3 15,-6 21,-8 5,-3 9,-4 11,-4 1,0 3,0 4,1 1,1 2,2 2,3 1,2 2,4 2,6 0,2 1,5 1,8 0,2 -1,3 -1,5 0,1 0,3 -1,4 0,1 -1,2 -1,3 -1,2 -2,3 -3,4 -1,1 -5,3 -11,6 -5,3 -13,6 -23,9 -9,3 -20,5 -33,8 -13,2 -26,3 -41,3 -24,0 -45,-4 -63,-11 -19,-7 -34,-17 -46,-31 -13,-14 -22,-32 -29,-52 -6,-21 -10,-45 -10,-72 0,-26 4,-50 10,-71 7,-20 17,-38 29,-52 13,-15 28,-26 45,-33 18,-8 38,-12 59,-12 23,0 43,4 60,12 16,8 29,18 40,31 11,13 18,28 23,46 5,17 7,35 7,54l0 8zm-41 -12c0,-33 -7,-58 -23,-76 -16,-19 -38,-28 -68,-28 -16,0 -29,3 -41,9 -12,6 -22,13 -30,23 -8,9 -14,20 -18,33 -5,13 -7,26 -8,39l188 0zm399 183c0,1 -1,2 -1,3 -1,2 -2,3 -4,3 -1,1 -3,1 -6,2 -2,0 -6,1 -9,1 -5,0 -8,-1 -10,-1 -3,-1 -5,-1 -7,-2 -1,0 -2,-1 -3,-3 0,-1 -1,-2 -1,-3l0 -143 -174 0 0 143c0,1 -1,2 -2,3 0,2 -1,3 -3,3 -1,1 -3,1 -6,2 -2,0 -6,1 -10,1 -4,0 -7,-1 -10,-1 -2,-1 -4,-1 -6,-2 -1,0 -3,-1 -3,-3 -1,-1 -1,-2 -1,-3l0 -309c0,-1 0,-2 1,-4 0,-1 2,-2 3,-2 2,-1 4,-2 6,-2 3,-1 6,-1 10,-1 4,0 8,0 10,1 3,0 5,1 6,2 2,0 3,1 3,2 1,2 2,3 2,4l0 131 174 0 0 -131c0,-1 1,-2 1,-4 1,-1 2,-2 3,-2 2,-1 4,-2 7,-2 2,-1 5,-1 10,-1 3,0 7,0 9,1 3,0 5,1 6,2 2,0 3,1 4,2 0,2 1,3 1,4l0 309zm330 -297c0,3 0,5 -1,8 0,2 -1,4 -2,5 0,2 -2,3 -3,4 -1,1 -2,1 -4,1l-101 0 0 279c0,1 0,2 -1,3 -1,2 -2,3 -3,3 -2,1 -4,1 -6,2 -3,0 -6,1 -10,1 -4,0 -7,-1 -10,-1 -3,-1 -5,-1 -6,-2 -2,0 -3,-1 -4,-3 0,-1 0,-2 0,-3l0 -279 -101 0c-2,0 -3,0 -5,-1 -1,-1 -2,-2 -3,-4 -1,-1 -1,-3 -2,-5 0,-3 0,-5 0,-8 0,-3 0,-5 0,-8 1,-2 1,-4 2,-6 1,-2 2,-3 3,-4 2,-1 3,-1 5,-1l242 0c2,0 3,0 4,1 1,1 3,2 3,4 1,2 2,4 2,6 1,3 1,5 1,8zm339 137c0,27 -3,51 -9,72 -6,21 -15,39 -26,54 -11,14 -25,26 -42,34 -16,8 -35,12 -57,12 -9,0 -17,-1 -25,-3 -8,-2 -16,-5 -24,-9 -7,-4 -15,-9 -22,-15 -8,-6 -16,-14 -25,-22l0 159c0,1 0,2 -1,4 0,1 -1,2 -3,3 -1,0 -3,1 -6,1 -3,1 -6,1 -10,1 -4,0 -7,0 -10,-1 -2,0 -4,-1 -6,-1 -2,-1 -3,-2 -3,-3 -1,-2 -1,-3 -1,-4l0 -431c0,-1 0,-3 1,-4 0,-1 1,-2 3,-3 1,0 3,-1 6,-1 2,-1 5,-1 8,-1 4,0 7,0 9,1 2,0 4,1 6,1 1,1 2,2 3,3 1,1 1,3 1,4l0 44c10,-9 19,-18 27,-25 9,-7 18,-13 26,-18 9,-5 18,-8 27,-10 9,-3 19,-4 29,-4 22,0 41,4 57,13 16,8 28,20 38,35 10,15 17,32 22,52 4,19 7,40 7,62zm-43 7c0,-17 -1,-34 -4,-50 -3,-16 -7,-30 -14,-43 -7,-12 -15,-22 -26,-30 -11,-7 -24,-11 -41,-11 -8,0 -16,1 -24,3 -8,3 -16,7 -24,12 -8,5 -17,12 -26,20 -8,8 -18,19 -28,31l0 134c18,21 34,37 49,48 16,11 32,16 49,16 16,0 30,-4 41,-11 11,-8 20,-18 27,-30 8,-13 13,-27 16,-42 3,-16 5,-31 5,-47zm583 -5c0,24 -4,47 -10,68 -6,20 -16,38 -29,54 -12,15 -28,27 -47,35 -19,9 -41,13 -66,13 -24,0 -45,-4 -63,-11 -18,-8 -33,-19 -45,-33 -12,-14 -22,-32 -28,-52 -6,-20 -9,-43 -9,-68 0,-25 4,-47 10,-68 6,-21 15,-39 28,-54 13,-15 28,-27 47,-35 19,-9 41,-13 66,-13 25,0 46,4 64,11 18,8 33,19 45,33 12,14 21,31 27,52 6,20 10,43 10,68zm-44 4c0,-18 -2,-35 -5,-50 -3,-16 -9,-30 -17,-43 -8,-12 -19,-21 -32,-28 -13,-8 -30,-11 -50,-11 -18,0 -34,3 -47,10 -14,6 -25,15 -33,27 -9,12 -15,26 -19,41 -4,16 -6,34 -6,52 0,18 1,35 5,50 3,17 9,31 17,43 8,12 18,21 32,28 13,7 30,11 50,11 18,0 34,-4 47,-10 14,-7 25,-16 33,-27 9,-12 15,-26 19,-42 4,-16 6,-33 6,-51zm472 -3c0,23 -4,45 -11,65 -7,20 -17,37 -30,52 -13,15 -30,27 -49,36 -20,9 -43,15 -68,16l0 110c0,1 -1,2 -1,4 -1,1 -2,2 -4,3 -1,0 -3,1 -6,1 -3,1 -6,1 -10,1 -3,0 -7,0 -9,-1 -3,0 -5,-1 -7,-1 -1,-1 -2,-2 -3,-3 -1,-2 -1,-3 -1,-4l0 -110c-26,-1 -49,-6 -69,-14 -19,-8 -36,-19 -49,-33 -13,-14 -23,-31 -30,-51 -6,-20 -10,-42 -10,-66 0,-24 4,-46 11,-66 6,-20 16,-38 30,-52 13,-15 30,-27 49,-36 20,-9 43,-14 68,-16l0 -140c0,-2 0,-3 1,-4 1,-1 2,-2 3,-3 2,-1 4,-1 7,-2 2,0 6,0 9,0 4,0 7,0 10,0 3,1 5,1 6,2 2,1 3,2 4,3 0,1 1,2 1,4l0 140c26,2 49,6 69,14 20,9 36,20 49,34 13,14 23,31 30,51 6,20 10,41 10,66zm-43 3c0,-40 -9,-71 -27,-94 -18,-22 -48,-35 -88,-38l0 262c37,-1 66,-13 86,-36 19,-22 29,-53 29,-94zm-156 -132c-38,2 -66,14 -86,35 -19,22 -29,54 -29,95 0,20 2,37 6,53 4,16 11,29 20,40 10,11 21,20 36,27 15,6 32,11 53,12l0 -262zm490 -11c0,3 0,5 0,8 -1,2 -1,4 -2,5 -1,2 -2,3 -3,4 -2,1 -3,1 -5,1l-101 0 0 279c0,1 0,2 -1,3 0,2 -1,3 -3,3 -1,1 -3,1 -6,2 -3,0 -6,1 -10,1 -4,0 -7,-1 -10,-1 -2,-1 -4,-1 -6,-2 -2,0 -3,-1 -3,-3 -1,-1 -1,-2 -1,-3l0 -279 -101 0c-2,0 -3,0 -4,-1 -1,-1 -3,-2 -4,-4 0,-1 -1,-3 -1,-5 -1,-3 -1,-5 -1,-8 0,-3 0,-5 1,-8 0,-2 1,-4 1,-6 1,-2 3,-3 4,-4 1,-1 2,-1 4,-1l242 0c2,0 3,0 5,1 1,1 2,2 3,4 1,2 1,4 2,6 0,3 0,5 0,8zm285 297c0,2 -1,4 -2,5 -2,1 -4,2 -6,3 -2,0 -6,1 -10,1 -3,0 -7,-1 -10,-1 -2,-1 -4,-2 -6,-3 -1,-1 -2,-3 -2,-5l0 -35c-14,15 -29,27 -46,35 -17,8 -34,12 -52,12 -16,0 -30,-2 -43,-6 -13,-5 -24,-11 -33,-18 -9,-8 -16,-18 -20,-29 -5,-11 -7,-24 -7,-38 0,-17 3,-32 10,-44 7,-13 17,-23 30,-32 13,-8 29,-14 47,-19 18,-4 38,-6 61,-6l49 0 0 -26c0,-14 -2,-25 -5,-35 -2,-10 -7,-19 -13,-26 -6,-6 -14,-11 -24,-15 -9,-3 -21,-5 -36,-5 -13,0 -25,2 -36,5 -11,3 -21,7 -29,11 -8,4 -15,8 -20,11 -6,4 -9,5 -12,5 -1,0 -2,0 -3,0 -2,-1 -2,-2 -3,-3 -1,-1 -2,-3 -2,-5 0,-2 0,-4 0,-7 0,-4 0,-8 1,-11 0,-3 2,-6 5,-9 3,-2 8,-6 15,-10 7,-4 16,-7 25,-11 9,-3 20,-6 30,-8 11,-2 22,-3 33,-3 21,0 39,3 54,8 14,5 26,12 35,22 9,9 15,21 19,35 4,14 6,30 6,48l0 209zm-40 -147l-57 0c-16,0 -30,2 -42,5 -13,3 -23,7 -31,13 -8,6 -14,12 -18,20 -4,8 -6,17 -6,28 0,17 5,32 17,42 11,11 27,16 47,16 16,0 31,-4 45,-12 14,-9 29,-21 45,-39l0 -73zm397 147c0,1 0,2 -1,3 -1,2 -2,3 -3,3 -2,1 -4,1 -6,2 -3,0 -6,1 -10,1 -4,0 -8,-1 -10,-1 -3,-1 -5,-1 -7,-2 -1,0 -2,-1 -3,-3 0,-1 -1,-2 -1,-3l0 -281 -97 0c-4,37 -8,70 -13,98 -5,29 -10,54 -16,76 -7,22 -13,40 -21,55 -7,15 -16,27 -25,37 -8,9 -18,16 -29,21 -10,4 -22,6 -34,6 -2,0 -3,0 -4,-1 -1,0 -2,-1 -3,-3 -1,-1 -1,-3 -2,-5 0,-3 0,-6 0,-9 0,-4 0,-8 0,-10 1,-3 1,-5 2,-6 1,-2 2,-3 3,-4 1,0 2,0 3,0 9,0 17,-2 24,-6 7,-4 14,-11 21,-20 6,-8 12,-20 17,-34 6,-14 11,-31 16,-52 4,-20 9,-43 13,-70 4,-27 8,-58 11,-92 1,-6 2,-10 5,-12 2,-3 5,-4 9,-4l147 0c4,0 7,1 10,4 3,2 4,6 4,12l0 300zm358 -95c0,14 -2,28 -8,41 -5,13 -13,24 -25,33 -11,10 -26,18 -44,24 -18,5 -40,8 -65,8 -5,0 -11,0 -17,0 -6,0 -11,0 -17,0 -6,-1 -11,-1 -17,-2 -5,0 -11,-1 -16,-1 -9,-2 -16,-4 -20,-9 -5,-5 -7,-12 -7,-22l0 -286c0,-1 0,-2 1,-4 0,-1 1,-2 3,-2 2,-1 4,-2 6,-2 3,-1 6,-1 10,-1 4,0 8,0 10,1 3,0 5,1 6,2 2,0 3,1 3,2 1,2 2,3 2,4l0 116c8,0 18,-1 28,-1 10,-1 20,-1 31,-1 24,0 45,3 62,7 17,5 31,12 42,21 11,8 19,19 24,31 6,12 8,26 8,41zm-43 3c0,-10 -1,-20 -4,-28 -4,-8 -9,-15 -17,-21 -7,-6 -17,-10 -29,-13 -12,-3 -27,-5 -44,-5 -10,0 -21,0 -31,1 -10,0 -19,1 -27,2l0 128c8,1 17,2 27,3 10,0 21,1 34,1 31,0 54,-6 69,-18 15,-12 22,-29 22,-50zm498 88c0,4 -1,8 -3,10 -2,2 -8,3 -16,3 -4,0 -7,-1 -10,-1 -3,0 -5,0 -6,-1 -2,-1 -3,-1 -4,-2 0,-1 -1,-3 -1,-4l-24 -188c-1,-7 -2,-14 -3,-21 -1,-7 -1,-15 -2,-22 -1,-8 -1,-15 -2,-23 -1,-7 -1,-14 -2,-21l-1 -8c-2,7 -4,14 -7,21 -2,8 -5,15 -8,23 -2,7 -5,15 -8,22 -2,8 -5,15 -7,22l-70 189c-1,3 -2,5 -3,7 -1,1 -2,3 -4,4 -1,1 -3,1 -5,2 -3,0 -5,1 -9,1 -3,0 -6,-1 -8,-1 -2,0 -4,-1 -6,-2 -1,-1 -3,-2 -4,-4 -1,-1 -2,-4 -3,-6l-68 -190c-2,-7 -5,-14 -7,-21 -3,-8 -5,-15 -8,-23 -2,-7 -5,-15 -7,-22 -3,-8 -5,-15 -7,-22l0 8c-1,7 -2,14 -2,21 -1,8 -2,15 -3,23 -1,7 -2,15 -2,22 -1,7 -2,14 -3,21l-22 184c-1,2 -1,4 -2,6 0,2 -2,3 -3,4 -2,0 -4,1 -7,1 -3,0 -6,1 -11,1 -4,0 -7,-1 -10,-1 -3,-1 -4,-1 -5,-2 -2,-1 -2,-3 -3,-4 0,-2 0,-4 1,-6l36 -294c1,-6 3,-10 6,-13 4,-4 9,-5 15,-5l18 0c5,0 10,0 13,1 4,1 7,2 10,4 2,2 4,5 6,8 2,4 4,8 6,13l51 145c3,8 6,17 9,25 3,9 5,17 8,25 3,8 5,16 8,24 2,8 5,15 7,23l0 0c3,-8 5,-16 7,-24 3,-8 5,-16 8,-25 3,-8 6,-17 9,-25 3,-8 5,-16 8,-24l52 -144c1,-5 3,-9 5,-12 1,-3 4,-6 6,-8 3,-2 6,-4 9,-5 3,-1 8,-1 12,-1l18 0c7,0 12,1 15,3 4,3 6,8 6,14l37 295zm375 -154c0,24 -3,47 -10,68 -6,20 -16,38 -28,54 -13,15 -29,27 -48,35 -18,9 -40,13 -65,13 -24,0 -46,-4 -64,-11 -18,-8 -33,-19 -45,-33 -12,-14 -21,-32 -27,-52 -6,-20 -9,-43 -9,-68 0,-25 3,-47 9,-68 6,-21 16,-39 28,-54 13,-15 29,-27 48,-35 18,-9 41,-13 66,-13 24,0 45,4 63,11 18,8 33,19 45,33 12,14 21,31 28,52 6,20 9,43 9,68zm-44 4c0,-18 -1,-35 -5,-50 -3,-16 -9,-30 -17,-43 -8,-12 -18,-21 -32,-28 -13,-8 -30,-11 -50,-11 -18,0 -34,3 -47,10 -14,6 -25,15 -33,27 -9,12 -15,26 -19,41 -4,16 -6,34 -6,52 0,18 2,35 5,50 3,17 9,31 17,43 8,12 19,21 32,28 13,7 30,11 50,11 18,0 34,-4 48,-10 13,-7 24,-16 32,-27 9,-12 15,-26 19,-42 4,-16 6,-33 6,-51zm364 154c0,1 -1,2 -1,3 -1,2 -2,3 -4,3 -1,1 -3,1 -6,2 -2,0 -6,1 -9,1 -5,0 -8,-1 -11,-1 -2,-1 -4,-1 -6,-2 -2,0 -3,-1 -3,-3 -1,-1 -1,-2 -1,-3l0 -281 -97 0c-4,37 -8,70 -13,98 -5,29 -11,54 -17,76 -6,22 -13,40 -20,55 -8,15 -16,27 -25,37 -9,9 -19,16 -29,21 -11,4 -22,6 -35,6 -1,0 -2,0 -3,-1 -1,0 -2,-1 -3,-3 -1,-1 -2,-3 -2,-5 0,-3 0,-6 0,-9 0,-4 0,-8 0,-10 0,-3 1,-5 2,-6 0,-2 1,-3 2,-4 1,0 2,0 4,0 8,0 16,-2 23,-6 8,-4 15,-11 21,-20 7,-8 13,-20 18,-34 5,-14 11,-31 15,-52 5,-20 9,-43 13,-70 4,-27 8,-58 12,-92 0,-6 2,-10 4,-12 3,-3 6,-4 10,-4l147 0c3,0 7,1 9,4 3,2 5,6 5,12l0 300z"/>
    <path class="fil2" d="M10458 3156c0,24 -3,47 -10,68 -6,20 -16,38 -28,54 -13,15 -29,27 -48,35 -18,9 -40,13 -65,13 -24,0 -46,-4 -64,-11 -18,-8 -33,-19 -45,-33 -12,-14 -21,-32 -27,-52 -6,-20 -9,-43 -9,-68 0,-25 3,-47 9,-68 6,-21 16,-39 28,-54 13,-15 29,-27 48,-35 18,-9 40,-13 66,-13 24,0 45,4 63,11 18,8 33,19 45,33 12,14 21,31 28,52 6,20 9,43 9,68zm-44 4c0,-18 -1,-35 -5,-50 -3,-16 -9,-30 -17,-43 -8,-12 -18,-21 -32,-28 -13,-8 -30,-11 -50,-11 -18,0 -34,3 -47,10 -14,6 -25,15 -33,27 -9,12 -15,26 -19,41 -4,16 -6,34 -6,52 0,18 2,35 5,50 3,17 9,31 17,43 8,12 19,21 32,28 13,7 30,11 50,11 18,0 34,-4 48,-10 13,-7 24,-16 32,-27 9,-12 15,-26 19,-42 4,-16 6,-33 6,-51zm317 -144c0,3 0,6 0,8 -1,2 -1,4 -2,6 -1,2 -2,3 -3,4 -1,0 -3,1 -5,1l-124 0 0 279c0,1 0,2 -1,3 0,2 -2,3 -3,3 -1,1 -4,1 -6,2 -3,0 -6,1 -10,1 -4,0 -7,-1 -10,-1 -2,-1 -5,-1 -6,-2 -2,0 -3,-1 -3,-3 -1,-1 -1,-2 -1,-3l0 -300c0,-6 1,-10 4,-12 3,-3 6,-4 10,-4l150 0c2,0 4,0 5,1 1,1 2,2 3,4 1,2 1,3 2,6 0,2 0,4 0,7zm329 298c0,1 0,2 -1,3 -1,2 -2,3 -3,3 -2,1 -4,1 -6,2 -3,0 -6,1 -10,1 -4,0 -7,-1 -10,-1 -3,-1 -5,-1 -6,-2 -2,0 -3,-1 -4,-3 0,-1 0,-2 0,-3l0 -199c0,-9 0,-17 0,-26 0,-9 1,-17 1,-26 -5,9 -11,18 -17,26 -6,9 -12,17 -19,26l-145 199c-1,1 -2,3 -3,4 -1,1 -2,2 -4,2 -1,1 -3,2 -5,2 -2,0 -5,1 -8,1 -3,0 -6,-1 -8,-1 -2,-1 -4,-1 -5,-2 -2,0 -3,-1 -3,-3 -1,-1 -1,-2 -1,-3l0 -309c0,-1 0,-2 1,-4 0,-1 2,-2 3,-2 2,-1 4,-2 6,-2 3,-1 6,-1 10,-1 8,0 13,1 16,3 3,1 5,3 5,6l0 201c0,8 -1,17 -1,25 0,8 -1,16 -2,24 6,-8 11,-16 16,-24 5,-8 11,-16 17,-24l147 -202c1,-1 3,-3 4,-4 1,-1 2,-2 4,-3 2,-1 4,-1 6,-1 2,-1 5,-1 8,-1 3,0 6,0 8,1 2,0 4,0 5,1 2,1 3,2 3,3 1,1 1,3 1,4l0 309zm379 0c0,1 0,2 -1,3 -1,2 -2,3 -3,3 -2,1 -4,1 -6,2 -3,0 -6,1 -10,1 -4,0 -7,-1 -10,-1 -3,-1 -5,-1 -6,-2 -2,0 -3,-1 -4,-3 0,-1 0,-2 0,-3l0 -199c0,-9 0,-17 0,-26 0,-9 1,-17 1,-26 -5,9 -11,18 -17,26 -6,9 -12,17 -19,26l-145 199c-1,1 -2,3 -3,4 -1,1 -2,2 -4,2 -1,1 -3,2 -5,2 -2,0 -5,1 -8,1 -3,0 -6,-1 -8,-1 -2,-1 -4,-1 -5,-2 -2,0 -3,-1 -3,-3 -1,-1 -1,-2 -1,-3l0 -309c0,-1 0,-2 1,-4 0,-1 2,-2 3,-2 2,-1 4,-2 6,-2 3,-1 6,-1 10,-1 8,0 13,1 16,3 3,1 5,3 5,6l0 201c0,8 -1,17 -1,25 0,8 -1,16 -2,24 6,-8 11,-16 16,-24 5,-8 11,-16 17,-24l147 -202c1,-1 3,-3 4,-4 1,-1 2,-2 4,-3 2,-1 4,-1 6,-1 2,-1 5,-1 8,-1 3,0 6,0 8,1 2,0 4,0 5,1 2,1 3,2 3,3 1,1 1,3 1,4l0 309z"/>
   </g>
   <g>
    <path class="fil3" d="M706 432l875 1074c-9,7 -17,15 -26,23l-933 -1024c27,-25 55,-49 84,-73zm-97 85l943 1015c-8,7 -16,14 -23,22l-1008 -950c29,-30 58,-59 88,-87zm297 -228l732 1177c-10,7 -20,13 -30,20l-796 -1135c31,-21 62,-42 94,-62zm-107 72l805 1127c-6,5 -13,10 -19,15l-865 -1082c25,-20 52,-41 79,-60zm329 -191l572 1264c-11,5 -22,10 -33,15l-642 -1228c34,-18 68,-35 103,-51zm-118 59l653 1223c-7,4 -14,8 -21,12l-721 -1184c29,-18 59,-35 89,-51zm363 -150l396 1330c-12,3 -24,7 -35,11l-469 -1305c36,-13 72,-25 108,-36zm-124 41l480 1302c-8,3 -16,6 -25,10l-560 -1269c34,-15 70,-29 105,-43zm244 -72l304 1353c-8,2 -16,4 -24,6l-383 -1333c34,-10 68,-18 103,-26zm309 1352l-292 -1356c37,-8 75,-15 113,-21l215 1370c-12,2 -24,4 -36,7zm-64 -1391l127 1381c-7,1 -15,2 -22,3l-203 -1373c32,-4 65,-8 98,-11zm132 1380l-115 -1382c37,-3 74,-5 112,-6l39 1386c-12,1 -24,1 -36,2zm115 -1388l-52 1386 -14 0 -8 0 -27 -1387c12,0 24,0 35,0 22,0 44,1 66,1zm-47 1386l64 -1385c39,2 77,4 116,8l-142 1380c-12,-1 -25,-2 -38,-3zm308 -1359l-240 1366c-8,-1 -17,-2 -25,-3l154 -1379c37,4 74,9 111,16zm-236 1367l252 -1364c39,7 77,15 115,24l-329 1348c-12,-3 -25,-6 -38,-8zm492 -1305l-425 1321c-8,-3 -16,-5 -24,-7l340 -1345c37,9 73,20 109,31zm-420 1322l436 -1317c34,12 68,24 102,37l-504 1292c-11,-4 -23,-8 -34,-12zm643 -1235l-586 1257c-6,-3 -12,-6 -18,-8l515 -1288c30,12 59,25 89,39zm-581 1259l596 -1252c34,16 67,33 100,51l-663 1218c-11,-6 -22,-12 -33,-17zm801 -1139l-744 1169c-6,-4 -13,-7 -19,-11l673 -1212c30,17 61,35 90,54zm108 74l-816 1119c-10,-7 -21,-14 -32,-21l754 -1163c32,21 64,42 94,65zm104 82l-896 1056c-7,-6 -13,-11 -20,-16l826 -1112c31,23 61,47 90,72zm-844 1105l1030 -926c24,26 47,53 69,81l-1075 872c-7,-9 -15,-18 -24,-27zm1169 -753l-1129 801c-4,-6 -8,-12 -13,-17l1083 -863c20,26 40,52 59,79zm73 109l-1178 727c-6,-11 -14,-21 -21,-32l1136 -790c22,31 43,63 63,95zm117 222l-1262 567c-5,-12 -10,-23 -17,-35l1229 -635c18,34 34,68 50,103zm-58 -118l-1223 646c-4,-6 -7,-13 -11,-19l1184 -716c17,29 34,59 50,89zm104 232l-1295 481c-4,-8 -7,-16 -11,-24l1267 -556c14,33 27,65 39,99zm-1261 726l1372 138c4,-36 6,-74 8,-111l-1378 -63c0,12 -1,24 -2,36zm-4 32l1358 237c6,-37 12,-75 16,-114l-1370 -151c-1,10 -2,19 -4,28zm-369 433l412 1309c36,-11 71,-23 106,-36l-486 -1284c-10,4 -21,8 -32,11zm37 -13l496 1280c38,-15 75,-31 112,-48l-577 -1246c-10,5 -20,10 -31,14zm36 -16l587 1241c35,-17 69,-34 103,-53l-661 -1203c-10,5 -19,10 -29,15zm789 1129l-733 -1161c-7,5 -15,10 -23,14l672 1198c28,-16 56,-33 84,-51zm-702 -1182l808 1110c-30,22 -61,43 -92,63l-743 -1155c9,-6 18,-12 27,-18zm28 -24l885 1051c29,-25 58,-50 86,-77l-945 -997c-9,8 -17,16 -26,23zm-24 21l817 1103c27,-20 53,-40 79,-62l-875 -1058c-7,5 -14,11 -21,17zm71 -66l1004 938c26,-27 51,-56 75,-84l-1057 -880c-7,9 -15,18 -22,26zm-18 19l954 988c19,-18 38,-37 57,-57l-997 -946c-4,5 -9,10 -14,15zm63 -76l1123 794c22,-31 43,-62 62,-94l-1166 -729c-6,10 -12,20 -19,29zm-20 28l1064 869c24,-29 47,-59 69,-89l-1116 -804c-5,8 -11,16 -17,24zm56 -89l1218 641c18,-33 34,-67 50,-101l-1253 -571c-4,10 -9,21 -15,31zm-15 28l1173 718c19,-29 36,-60 53,-90l-1213 -651c-4,7 -8,15 -13,23zm67 -187l1356 249c-6,36 -14,72 -22,107l-1340 -322c2,-11 5,-23 6,-34zm1308 453l-1320 -395c2,-7 3,-13 5,-19l1337 334c-7,27 -14,53 -22,80zm-1332 -357l1291 480c13,-35 25,-71 36,-107l-1316 -407c-4,12 -7,23 -11,34zm-11 27l1258 560c13,-30 26,-60 38,-92l-1287 -491c-3,8 -6,16 -9,23zm-124 -599l960 -997c-27,-26 -54,-52 -83,-76l-906 1048c10,8 20,16 29,25zm17 18l1021 -935c-21,-24 -43,-46 -65,-69l-970 990c5,4 10,9 14,14zm-807 29l-1069 -880c24,-30 50,-59 76,-87l1016 941c-8,8 -16,17 -23,26zm-1080 -867l1077 870c-7,8 -12,16 -18,24l-1127 -803c21,-31 44,-61 68,-91zm1037 926l-1178 -725c20,-33 41,-65 63,-96l1134 793c-7,9 -13,18 -19,28zm-1187 -711l1185 715c-5,7 -9,15 -14,23l-1220 -651c16,-29 32,-58 49,-87zm1169 742l-1226 -640c-18,35 -35,70 -51,105l1262 566c5,-11 10,-21 15,-31zm-1320 -430l1293 489c4,-8 7,-16 10,-24l-1267 -554c-12,29 -24,59 -36,89zm1281 524l-1322 -403c11,-36 23,-71 35,-105l1298 477c-4,10 -8,20 -11,31zm-21 107l-1374 -126c3,-39 8,-77 13,-116l1365 210c-2,10 -3,21 -4,32zm5 -37l-1363 -221c6,-38 13,-74 21,-111l1348 301c-2,10 -4,21 -6,31zm-1310 -457l1325 391c-3,10 -6,20 -8,30l-1346 -312c9,-37 18,-73 29,-109zm1303 564l-1378 51c-1,-26 -2,-51 -2,-77 0,-9 0,-17 0,-26l1380 22 -1 12c0,6 1,12 1,18zm0 -34l-1379 -35c0,-37 2,-73 5,-110l1375 114c0,10 -1,21 -1,31zm2 70l-1371 144c-4,-37 -7,-75 -9,-112l1378 -63c0,10 1,21 2,31zm12 73l-1337 330c9,38 20,76 32,113l1315 -410c-4,-11 -7,-22 -10,-33zm-1207 692l1243 -591c-5,-10 -9,-19 -12,-28l-1277 515c14,35 29,70 46,104zm-53 -120l1282 -504c-4,-10 -8,-20 -11,-30l-1311 421c12,39 26,76 40,113zm176 340l1153 -750c-4,-7 -9,-15 -13,-23l-1195 684c18,30 36,60 55,89zm-63 -104l1200 -673c-5,-10 -10,-20 -15,-30l-1238 602c17,34 34,68 53,101zm211 301l1047 -890c-6,-7 -11,-13 -16,-20l-1094 832c20,27 41,53 63,78zm-73 -91l1101 -823c-7,-9 -14,-19 -20,-29l-1146 760c20,31 42,62 65,92zm1001 -1058l-1360 224c-5,-32 -9,-64 -13,-96l1370 -157c1,10 2,19 3,29zm7 35l-1340 319c-9,-38 -17,-75 -24,-113l1358 -237c2,11 4,21 6,31zm137 252l-988 955c-25,-26 -50,-53 -73,-80l1039 -899c7,8 15,16 22,24zm479 158l225 1354c37,-6 73,-13 109,-21l-300 -1339c-11,2 -23,5 -34,6zm471 1296l-401 -1312c-10,3 -21,6 -31,9l312 1336c41,-10 81,-21 120,-33zm-507 -1291l125 1366c-37,4 -75,6 -113,7l-48 -1370c12,-1 24,-2 36,-3zm31 -4l214 1356c-34,5 -68,9 -103,13l-137 -1365c9,-1 17,-2 26,-4zm-102 7l-54 1370c-36,-1 -72,-3 -108,-7l127 -1366c12,2 23,2 35,3zm31 0l35 1371c-16,1 -32,1 -49,1 -18,0 -36,-1 -54,-1l42 -1371 12 0 14 0zm-139 -15l-310 1337c35,8 70,15 106,21l239 -1351c-12,-2 -24,-4 -35,-7zm-70 1377l138 -1365c-9,-1 -19,-2 -28,-4l-227 1353c38,7 77,12 117,16zm-170 -1504l-921 1019c29,26 59,52 90,77l859 -1072c-9,-8 -19,-16 -28,-24zm-730 1170l785 -1126c-8,-6 -16,-11 -23,-17l-849 1079c28,22 57,44 87,64zm710 -1190l-980 963c22,22 44,43 66,64l931 -1010c-6,-6 -12,-12 -17,-17zm-497 1319l633 -1218c-8,-4 -16,-9 -24,-13l-696 1183c29,17 57,33 87,48zm-101 -56l706 -1177c-10,-6 -19,-13 -29,-19l-775 1133c32,22 64,43 98,63zm326 155l472 -1289c-8,-3 -16,-6 -25,-9l-538 1262c30,13 60,25 91,36zm-106 -42l549 -1258c-10,-5 -21,-10 -31,-15l-622 1224c34,17 69,33 104,49zm224 81l389 -1316c-10,-3 -20,-6 -30,-10l-461 1293c33,12 67,23 102,33zm88 23l321 -1334c-5,-1 -10,-3 -16,-4l-377 1319c24,7 48,13 72,19zm988 -1916l1375 -117c4,37 6,74 7,112l-1379 41c-1,-12 -2,-24 -3,-36zm1381 117l-1378 -51 0 -8c0,-6 0,-11 0,-17l1379 -29c0,13 1,25 1,38 0,23 -1,45 -2,67zm-1393 -187l1349 -295c8,36 15,73 21,110l-1362 222c-3,-12 -5,-25 -8,-37zm1386 -64l-1374 129c-1,-8 -2,-16 -4,-24l1365 -209c5,34 10,69 13,104zm-1406 1l1300 -471c13,37 25,73 36,110l-1324 394c-4,-11 -8,-22 -12,-33zm1366 -249l-1347 308c-2,-7 -4,-14 -6,-21l1328 -382c9,31 17,63 25,95z"/>
    <path class="fil4" d="M1985 1c-18,462 -34,924 -52,1386l-14 0 0 -93 0 0 0 93 -8 0 -27 -1387c12,0 24,0 35,0 22,0 44,1 66,1zm133 9l-142 1380c-12,-1 -25,-2 -38,-3l64 -1385c39,2 78,4 116,8zm3 2418l496 1280c38,-15 75,-31 112,-48l-577 -1246c-10,5 -20,10 -31,14zm481 1286l-486 -1284c-10,4 -21,8 -32,11l412 1309c36,-11 71,-23 106,-36zm-356 -3686l-240 1366c-8,-1 -17,-2 -25,-3l154 -1379c37,4 74,9 111,16zm131 27l-329 1348c-12,-3 -25,-6 -38,-8l252 -1364c39,7 77,15 115,24zm243 77l-504 1292c-11,-4 -23,-8 -34,-12l436 -1317c34,12 68,24 102,37zm-118 -42l-425 1321c-8,-3 -16,-5 -24,-7l340 -1345c37,9 73,20 109,31zm223 87l-586 1257c-6,-3 -12,-6 -18,-8l515 -1288c30,12 59,25 89,39zm115 58l-663 1218c-11,-6 -22,-12 -33,-17l596 -1252c34,16 67,33 100,51zm105 62l-744 1169c-6,-4 -13,-7 -19,-11l673 -1212c30,17 61,35 90,54zm-1075 1092l-115 -1382c37,-3 74,-5 112,-6l39 1386c-12,1 -24,1 -36,2zm335 80l754 -1163c32,21 64,42 94,65l-816 1119c-10,-7 -21,-14 -32,-21zm952 -1016l-896 1056c-7,-6 -13,-11 -20,-16l826 -1112c31,23 61,47 90,72zm-844 1105l1030 -926c24,26 47,53 69,81l-1075 872c-7,-9 -15,-18 -24,-27zm1169 -753l-1129 801c-4,-6 -8,-12 -13,-17l1083 -863c20,26 40,52 59,79zm-1025 1171l1372 138c4,-36 6,-74 8,-111l-1378 -63c0,12 -1,24 -2,36zm-4 32l1358 237c6,-37 12,-75 16,-114l-1370 -151c-1,10 -2,19 -4,28zm-296 404l587 1241c35,-17 69,-34 103,-53l-661 -1203c-10,5 -19,10 -29,15zm789 1129l-733 -1161c-7,5 -15,10 -23,14l672 1198c28,-16 56,-33 84,-51zm-702 -1182l808 1110c-30,22 -61,43 -92,63l-743 -1155c9,-6 18,-12 27,-18zm28 -24l885 1051c29,-25 58,-50 86,-77l-945 -997c-9,8 -17,16 -26,23zm-24 21l817 1103c27,-20 53,-40 79,-62l-875 -1058c-7,5 -14,11 -21,17zm71 -66l1004 938c26,-27 51,-56 75,-84l-1057 -880c-7,9 -15,18 -22,26zm-18 19l954 988c19,-18 38,-37 57,-57l-997 -946c-4,5 -9,10 -14,15zm63 -76l1123 794c22,-31 43,-62 62,-94l-1166 -729c-6,10 -12,20 -19,29zm-20 28l1064 869c24,-29 47,-59 69,-89l-1116 -804c-5,8 -11,16 -17,24zm56 -89l1218 641c18,-33 34,-67 50,-101l-1253 -571c-4,10 -9,21 -15,31zm-15 28l1173 718c19,-29 36,-60 53,-90l-1213 -651c-4,7 -8,15 -13,23zm67 -187l1356 249c-6,36 -14,72 -22,107l-1340 -322c2,-11 5,-23 6,-34zm1308 453l-1320 -395c2,-7 3,-13 5,-19l1337 334c-7,27 -14,53 -22,80zm-1332 -357l1291 480c13,-35 25,-71 36,-107l-1316 -407c-4,12 -7,23 -11,34zm-11 27l1258 560c13,-30 26,-60 38,-92l-1287 -491c-3,8 -6,16 -9,23zm-7 -433l1262 -567c-16,-35 -32,-69 -50,-103l-1229 635c6,12 12,23 17,35zm13 28l1295 -482c-12,-33 -25,-65 -39,-98l-1267 556c4,8 7,16 11,24zm-46 -90l1178 -727c-20,-32 -41,-64 -63,-95l-1136 790c7,11 15,21 21,32zm14 23l1223 -646c-16,-30 -33,-60 -51,-89l-1183 716c4,6 7,13 11,19zm-98 -127l960 -997c-27,-26 -54,-52 -83,-76l-906 1048c10,8 20,16 29,25zm17 18l1022 -935c-22,-24 -44,-46 -66,-69l-970 990c5,4 10,9 14,14zm-391 -168l0 -93 0 93zm-185 33l-469 -1305c36,-13 72,-25 108,-36l396 1330c-12,3 -24,7 -35,11zm-485 -1300l480 1302c-8,3 -16,6 -25,10l-560 -1269c34,-15 70,-29 105,-43zm374 -97l215 1370c-12,2 -24,4 -36,7l-292 -1356c37,-8 75,-15 113,-21zm-130 25l304 1353c-8,2 -16,4 -24,6l-383 -1333c34,-10 68,-18 103,-26zm245 -39l127 1381c-7,1 -15,2 -22,3l-203 -1373c32,-4 65,-8 98,-11zm-71 1440l-642 -1228c34,-18 68,-35 103,-51l572 1264c-11,5 -22,10 -33,15zm-657 -1220l653 1223c-7,4 -14,8 -21,12l-721 -1184c29,-18 59,-35 89,-51zm598 1257l-796 -1135c31,-21 62,-42 94,-62l732 1177c-10,7 -20,13 -30,20zm-105 98l-1069 -880c24,-30 50,-59 76,-87l1016 941c-8,8 -16,17 -23,26zm-894 -1067l943 1015c-8,7 -16,14 -23,22l-1008 -950c29,-30 58,-59 88,-87zm946 1012l-933 -1024c27,-25 55,-49 84,-73l875 1074c-9,7 -17,15 -26,23zm-756 -1168l805 1127c-6,5 -13,10 -19,15l-865 -1082c25,-20 52,-41 79,-60zm628 1344l-1262 -566c16,-35 33,-70 51,-105l1226 640c-5,10 -10,20 -15,31zm-1154 -773l1185 715c-5,8 -9,15 -14,23l-1220 -651c16,-29 32,-59 49,-87zm1187 711l-1178 -725c20,-33 41,-65 63,-96l1134 793c-7,9 -13,18 -19,28zm-1037 -926l1077 870c-7,8 -13,16 -18,24l-1127 -803c21,-31 44,-61 68,-91zm980 1051l-1322 -403c11,-36 23,-71 35,-105l1298 477c-4,10 -7,20 -11,31zm-1245 -613l1267 554c-3,8 -6,16 -10,24l-1293 -489c12,-30 24,-60 36,-89zm1224 720l-1374 -125c3,-40 8,-78 13,-117l1365 210c-2,10 -3,21 -4,32zm5 -37l-1363 -221c6,-38 13,-74 21,-111l1348 301c-2,10 -4,21 -6,31zm-1310 -457l1325 391c-3,10 -6,20 -8,30l-1346 -312c9,-37 18,-73 29,-109zm1303 564l-1378 51c-1,-26 -2,-51 -2,-77 0,-9 0,-17 0,-26l1380 22 -1 12c0,6 1,12 1,18zm-1374 -179l1375 114c0,10 -1,21 -1,31l-1379 -35c0,-37 2,-73 5,-110zm1376 215l-1371 144c-4,-37 -7,-75 -9,-112l1378 -63c0,10 1,21 2,31zm-1369 161l1370 -157c1,10 2,19 3,29l-1360 224c-5,-32 -9,-64 -13,-96zm1380 -93l-1340 319c-9,-37 -17,-75 -24,-113l1358 -237c2,11 4,21 6,31zm-1336 335l1337 -330c3,11 6,22 10,33l-1315 410c-12,-37 -23,-75 -32,-113zm1359 -262l-1282 504c-14,-37 -28,-74 -40,-113l1311 -421c3,10 7,20 11,30zm-1275 520l1277 -515c3,9 7,18 12,28l-1243 591c-17,-34 -32,-69 -46,-104zm1306 -453l-1200 673c-19,-33 -36,-67 -53,-101l1238 -602c5,10 10,20 15,30zm39 60l-1101 823c-23,-30 -45,-61 -65,-92l1146 -760c6,10 13,20 20,29zm-1231 628l1195 -684c4,8 9,16 13,23l-1153 750c-19,-29 -37,-59 -55,-89zm1754 -418l225 1354c37,-6 73,-13 109,-21l-300 -1339c-11,2 -23,5 -34,6zm471 1296l-401 -1312c-10,3 -21,6 -31,9l312 1336c41,-10 81,-21 120,-33zm-507 -1291l125 1366c-37,4 -75,6 -113,7l-48 -1370c12,-1 24,-2 36,-3zm31 -4l214 1356c-34,5 -68,9 -103,13l-137 -1365c9,-1 17,-2 26,-4zm-102 7l-54 1370c-36,-1 -72,-3 -108,-7l127 -1366c12,2 23,2 35,3zm-37 1371l42 -1371 12 0 14 0 35 1371c-16,1 -32,1 -49,1 -18,0 -36,-1 -54,-1zm-71 -1386l-310 1337c35,8 70,15 106,21l239 -1351c-12,-2 -24,-4 -35,-7zm-70 1377l138 -1365c-9,-1 -19,-2 -28,-4l-227 1353c38,7 77,12 117,16zm-170 -1504l-921 1019c29,26 59,52 90,77l859 -1072c-9,-8 -19,-16 -28,-24zm-730 1170l785 -1126c-8,-6 -16,-12 -23,-17l-849 1079c28,22 57,44 87,64zm710 -1190l-980 963c22,22 44,43 66,64l931 -1010c-6,-6 -12,-11 -17,-17zm-992 951l988 -955c-7,-8 -15,-16 -22,-24l-1039 899c23,27 48,54 73,80zm947 -1003l-1094 832c20,27 41,53 63,78l1047 -890c-6,-7 -11,-13 -16,-20zm-452 1371l633 -1218c-8,-4 -16,-9 -24,-13l-696 1183c29,17 57,33 87,48zm-101 -56l706 -1177c-10,-6 -19,-13 -29,-19l-775 1133c32,22 64,43 98,63zm326 155l472 -1289c-8,-3 -16,-6 -25,-9l-538 1262c30,13 60,25 91,36zm-106 -42l549 -1258c-10,-5 -21,-10 -31,-15l-622 1224c34,17 69,33 104,49zm312 104l321 -1334c-5,-1 -10,-3 -16,-4l-377 1319c24,7 48,13 72,19zm-88 -23l389 -1316c-10,-3 -20,-6 -30,-10l-461 1293c33,12 67,23 102,33zm1076 -1893l1375 -117c4,37 6,74 7,112l-1379 41c-1,-12 -2,-24 -3,-36zm1381 117l-1378 -51 0 -8c0,-6 0,-11 0,-17l1379 -29c0,13 1,25 1,38 0,23 -1,45 -2,67zm-1393 -187l1349 -295c8,36 15,73 21,110l-1362 222c-3,-13 -5,-25 -8,-37zm1386 -64l-1374 129c-1,-8 -2,-16 -4,-24l1365 -209c5,34 9,69 13,104zm-1406 1l1300 -471c13,37 25,73 36,110l-1324 394c-4,-11 -8,-22 -12,-33zm1366 -249l-1347 308c-2,-7 -4,-14 -6,-21l1328 -382c9,31 17,63 25,95z"/>
    <path class="fil5" d="M2456 1869l19 -2 1356 -115c4,37 6,74 7,112l-1379 41c-1,-12 -2,-24 -3,-36z"/>
    <path class="fil5" d="M2459 1934l93 4 -93 -3 0 -1zm1370 180l-1372 -140c1,-11 2,-23 2,-34l1378 63c-2,37 -4,75 -8,111z"/>
    <path class="fil6" d="M1404 2087l-78 24 77 -25 1 1zm12 35l-107 42 -1175 462c-14,-37 -28,-74 -40,-113l1311 -421c3,10 7,20 11,30z"/>
    <path class="fil6" d="M1580 2347l-239 303 -618 771c-31,-25 -61,-51 -90,-77l921 -1019c9,8 18,15 26,22z"/>
    <path class="fil6" d="M3398 3144l-1045 -869c-7,9 -14,18 -22,27l992 926c26,-27 51,-56 75,-84z"/>
    <path class="fil6" d="M2496 3750l-404 -1282c12,-5 23,-9 34,-14l476 1260c-35,13 -70,25 -106,36z"/>
    <path class="fil6" d="M2461 2014l13 3 1334 245c-6,36 -14,72 -22,107l-1331 -320c2,-11 4,-23 6,-35z"/>
    <path class="fil6" d="M3724 1265l-1295 469c4,11 8,22 11,34l1320 -393c-11,-37 -23,-73 -36,-110z"/>
    <path class="fil6" d="M2269 1508l52 -61 849 -983c29,24 56,50 83,76l-887 921 -70 72c-9,-9 -18,-17 -27,-25z"/>
    <path class="fil6" d="M2014 1384l44 -248 204 -1105c39,7 77,15 115,24l-316 1294 -10 43c-12,-3 -24,-6 -37,-8z"/>
    <path class="fil6" d="M1728 1400l-59 -162 -404 -1123c36,-13 72,-25 108,-36l390 1311c-12,3 -23,6 -35,10z"/>
    <path class="fil6" d="M1479 1565l-182 -150 -863 -711c24,-30 50,-59 76,-87l994 920c-8,9 -17,19 -25,28z"/>
    <path class="fil6" d="M1348 1831l-89 -14 -1235 -200c6,-38 13,-74 21,-111l1310 292c-2,11 -5,22 -7,33zm-194 -85l203 46 0 2 -203 -48z"/>
    <path class="fil6" d="M1484 3789l301 -1301c13,3 25,5 38,7l-233 1315c-36,-6 -71,-13 -106,-21z"/>
    <path class="fil5" d="M1769 2446l-389 1316c-35,-10 -69,-21 -102,-33l461 -1293c10,4 20,7 30,10zm-306 1086l-66 235 -1 -1 67 -234z"/>
    <path class="fil5" d="M1704 2422l-29 69 -519 1190c-35,-16 -70,-32 -104,-49l622 -1224c10,5 20,10 30,14z"/>
    <path class="fil5" d="M1641 2390l-71 121 -634 1057c-34,-20 -66,-41 -98,-63l775 -1133c9,6 19,12 28,18z"/>
    <path class="fil5" d="M1530 2301l-3 3 -985 952c-25,-26 -50,-53 -73,-80l1039 -899c7,8 15,16 22,24z"/>
    <path class="fil5" d="M1485 2248l-150 114 -950 710c-23,-30 -44,-61 -65,-92l1146 -760c6,10 12,19 19,28z"/>
    <path class="fil5" d="M1447 2189l-66 37 -1134 636c-19,-33 -36,-67 -53,-101l1238 -602c4,10 10,20 15,30z"/>
    <path class="fil5" d="M1386 2014l-186 30 186 -32 0 2zm7 35l-87 21 -1253 298c-9,-37 -17,-75 -24,-113l1358 -237c2,11 4,21 6,31z"/>
    <path class="fil5" d="M1380 1945l-266 10 266 -12 0 2zm2 35l-71 8 -1300 137c-4,-37 -7,-75 -9,-112l1378 -63c0,10 1,20 2,30z"/>
    <path class="fil5" d="M1382 1875l-418 -38 418 36 0 2zm-2 35l-69 -1 -1310 -33c0,-37 2,-73 5,-110l1375 114c0,10 -1,20 -1,30z"/>
    <path class="fil5" d="M1415 1733l-158 -60 159 59 -1 1zm-11 34l-81 -24 -1242 -378c11,-36 23,-71 35,-105l1298 477c-4,10 -7,20 -10,30z"/>
    <path class="fil5" d="M1444 1670l-44 -24 45 24 -1 0zm-16 33l-360 -159 -903 -405c16,-35 33,-70 51,-105l1226 640c-5,10 -9,19 -14,29z"/>
    <path class="fil5" d="M1461 1641l-233 -141 -946 -582c20,-33 41,-65 63,-96l1134 793c-6,8 -12,17 -18,26z"/>
    <path class="fil5" d="M1556 1528l-161 -173 -773 -850c27,-25 55,-49 84,-73l875 1074c-8,7 -17,14 -25,22z"/>
    <path class="fil5" d="M1609 1485l-797 -1134c31,-21 62,-42 94,-62l732 1177c-10,6 -20,13 -29,19z"/>
    <path class="fil5" d="M1669 1449l-109 -204 -535 -1024c34,-18 68,-35 103,-51l572 1264c-11,4 -21,9 -31,15z"/>
    <path class="fil5" d="M1804 1400l-74 -331 -220 -1025c37,-8 75,-15 113,-21l215 1370c-11,2 -23,4 -34,7z"/>
    <path class="fil5" d="M1871 1389l-18 -201 -98 -1181c37,-3 74,-5 112,-6l39 1386c-11,1 -23,1 -35,2z"/>
    <path class="fil5" d="M1940 1388l12 -297 50 -1089c39,2 77,4 116,8l-142 1380c-12,-1 -24,-2 -36,-2z"/>
    <path class="fil5" d="M2082 1412l8 -25 428 -1292c34,12 68,24 102,37l-504 1292c-11,-4 -23,-8 -34,-12z"/>
    <path class="fil5" d="M2145 1437l136 -289 459 -964c34,16 67,33 100,51l-663 1218c-10,-6 -21,-11 -32,-16z"/>
    <path class="fil5" d="M2206 1470l98 -154 655 -1010c32,21 64,42 94,65l-785 1077 -31 42c-10,-7 -20,-14 -31,-20z"/>
    <path class="fil5" d="M2313 1558l1030 -926c24,26 47,53 69,81l-1075 872c-7,-9 -15,-18 -24,-27z"/>
    <path class="fil5" d="M2357 1610l145 -102 990 -689c22,31 43,63 63,95l-1169 722 -9 5c-6,-10 -13,-21 -20,-31z"/>
    <path class="fil5" d="M2394 1669l87 -46 1141 -590c18,34 34,68 50,103l-1190 534 -72 32c-5,-11 -10,-22 -16,-33z"/>
    <path class="fil5" d="M2444 1800l1349 -296c8,36 15,73 21,110l-1362 222c-3,-12 -5,-24 -8,-36z"/>
    <path class="fil5" d="M2439 2076l36 10 1280 396c-11,36 -23,72 -36,107l-1291 -480c4,-11 7,-22 11,-33z"/>
    <path class="fil5" d="M2415 2141l27 12 1226 559c-16,34 -32,68 -50,101l-1218 -641c6,-10 11,-20 15,-31z"/>
    <path class="fil5" d="M2383 2204l1166 729c-19,32 -40,63 -62,94l-1123 -794c7,-9 13,-19 19,-29z"/>
    <path class="fil5" d="M2297 2313l69 72 877 924c-28,27 -57,52 -86,77l-885 -1051c9,-7 17,-14 25,-22z"/>
    <path class="fil5" d="M2043 2453l300 1339c-36,8 -72,15 -109,21l-225 -1354c11,-1 23,-4 34,-6z"/>
    <path class="fil5" d="M2244 2359l808 1110c-30,22 -61,43 -92,63l-743 -1155c9,-6 18,-12 27,-18z"/>
    <path class="fil5" d="M1973 2464l125 1366c-37,4 -75,6 -113,7l-48 -1370c12,-1 24,-2 36,-3z"/>
    <path class="fil7" d="M2152 2414l54 117 -54 -117 0 0zm33 -17l106 190 556 1013c-34,19 -68,36 -103,53l-587 -1241c9,-5 19,-10 28,-15z"/>
    <path class="fil5" d="M1902 2467l-54 1370c-36,-1 -72,-3 -108,-7l127 -1366c12,2 23,2 35,3z"/>
    <path class="fil8" d="M706 432l875 1074 0 0 12 14c-9,7 -18,14 -26,22l-12 -13 -64 -71 -96 -103 -773 -850 1 -1 1 -1 1 -1 2 -1 1 -2 1 -1 2 -1 1 -1 1 -1 0 0 2 -1 0 0 1 -2 0 0 1 -1 0 0 1 -1 2 -1 1 -1 1 -1 2 -2 0 0 1 -1 1 -1 2 -1 0 0 1 -1 1 -1 0 0 2 -2 1 -1 1 -1 0 0 1 -1 2 -1 1 -1 0 0 1 -1 0 0 2 -2 0 0 1 -1 0 0 1 -1 0 0 2 -1 0 0 1 -1 0 0 1 -1 0 0 2 -1 1 -2 1 -1 2 -1 0 0 1 -1 1 -1 0 0 2 -1 1 -1 0 0 1 -2 2 -1 0 0 1 -1 1 -1 2 -1 0 0 1 -1 0 0 1 -1 2 -1 1 -2 1 -1 2 -1 1 -1 1 -1 2 -1 0 0 1 -1 2 -1 1 -2 1 -1 2 -1 1 -1 0 0 1 -1zm1263 0l0 0 -36 973 -14 0 -8 0 -19 -974 0 0 -8 -431c12,0 24,0 35,0 22,0 44,1 66,1l-16 431zm-98 975l-1 -18 0 0 -36 -431 -79 -951 0 0 2 0 0 0 2 0 0 0 1 0 0 0 2 0 0 0 2 -1 0 0 2 0 0 0 1 0 0 0 2 0 0 0 2 0 0 0 1 0 1 0 1 0 0 0 2 -1 0 0 2 0 0 0 1 0 0 0 2 0 2 0 0 0 2 0 0 0 1 0 0 0 2 0 0 0 2 -1 0 0 2 0 0 0 1 0 0 0 2 0 0 0 2 0 0 0 2 0 1 0 2 0 0 0 2 0 0 0 2 -1 0 0 1 0 0 0 2 0 0 0 2 0 0 0 2 0 1 0 2 0 2 0 2 0 0 0 1 0 0 0 2 -1 2 0 2 0 0 0 1 0 2 0 2 0 2 0 1 0 2 0 2 0 2 0 1 0 0 0 2 0 2 -1 2 0 1 0 2 0 2 0 2 0 1 0 2 0 2 0 2 0 1 0 2 0 2 0 39 1386 0 0 1 18c-12,1 -24,1 -36,2zm67 -2l0 -18 0 0 14 -296 0 0 50 -1089c39,2 77,4 116,8l-142 1380 0 0 0 0 -2 18c-12,-1 -24,-2 -36,-3zm149 -965l0 0 48 -428c37,4 74,9 111,16l-75 424 0 0 -168 960c-8,-1 -16,-3 -24,-3l108 -969zm-80 973l4 -18 -1 0 48 -259 0 0 204 -1105 2 0 2 0 2 1 2 0 1 0 2 1 2 0 2 0 2 1 1 0 2 0 2 1 2 0 2 0 1 1 2 0 0 0 2 0 2 1 1 0 0 0 2 0 2 1 0 0 2 0 2 1 1 0 0 0 2 0 0 0 2 1 2 0 2 0 1 1 0 0 2 0 0 0 2 1 2 0 2 0 0 0 1 1 2 0 0 0 2 0 2 1 0 0 1 0 2 1 2 0 2 0 0 0 2 1 0 0 1 0 0 0 2 1 0 0 2 0 2 0 1 1 2 0 0 0 2 1 2 0 0 0 2 0 1 1 0 0 2 0 2 1 2 0 0 0 1 1 2 0 2 0 2 1 2 0 1 1 2 0 0 0 2 1 2 0 -316 1295 -13 53 0 0 -4 17c-12,-3 -24,-5 -37,-7zm280 -936l0 0 106 -418c37,9 73,20 109,31l-132 410 0 0 -298 928c-8,-3 -16,-5 -23,-7l238 -944zm-211 952l6 -17 0 0 7 -24 1 -1 428 -1292 2 1 1 0 2 1 1 0 2 1 2 1 1 0 2 1 1 0 2 1 2 0 1 1 2 0 0 0 2 1 1 0 2 1 0 0 1 1 0 0 2 0 2 1 1 0 2 1 0 0 1 0 2 1 2 0 1 1 2 1 1 0 0 0 2 1 2 0 1 1 2 0 0 0 1 1 0 0 2 1 0 0 2 0 0 0 1 1 0 0 2 0 1 1 2 0 1 1 0 0 2 1 2 0 1 1 0 0 2 0 1 1 2 0 0 1 2 0 1 1 2 0 0 0 1 1 0 0 2 0 0 0 1 1 0 0 2 1 0 0 2 0 0 0 1 1 0 0 2 0 1 1 2 1 2 0 1 1 2 0 0 1 1 0 2 1 1 0 2 1 -504 1292 0 0 -6 17c-11,-4 -22,-8 -34,-12zm467 -862l0 0 -411 883c-6,-2 -12,-5 -18,-7l362 -905 160 -400c30,12 59,25 89,39l-182 390zm-407 885l8 -16 0 0 136 -286 1 -2 459 -964 1 1 2 0 2 1 1 1 2 1 1 0 2 1 2 1 0 0 1 1 2 0 0 0 1 1 2 1 0 0 1 1 2 1 0 0 2 0 1 1 2 1 0 0 1 1 0 0 2 0 2 1 1 1 0 0 2 1 0 0 1 1 0 0 2 0 0 0 1 1 0 0 2 1 0 0 2 1 0 0 1 1 0 0 2 0 0 0 1 1 0 0 2 1 1 1 2 0 1 1 1 0 1 1 2 1 1 1 0 0 2 0 1 1 2 1 1 1 2 1 2 1 1 0 2 1 0 0 1 1 2 1 1 1 0 0 2 0 1 1 2 1 2 1 1 1 2 1 1 0 2 1 1 1 2 1 1 1 2 1 1 0 2 1 1 1 2 1 -663 1218 0 0 -8 16c-11,-6 -22,-12 -33,-17zm578 -792l0 0 -522 822c-7,-4 -13,-8 -19,-11l9 -16 673 -1212c30,17 61,35 90,54l-231 363zm-519 824l10 -15 0 0 98 -152 656 -1011 2 1 1 1 2 1 1 1 2 1 1 1 2 1 1 1 2 1 1 1 0 0 2 1 1 1 2 1 1 1 2 1 1 1 0 0 2 1 1 1 2 1 1 1 2 1 0 0 1 1 0 0 2 1 0 0 1 1 1 1 2 1 1 1 2 1 0 0 1 1 2 1 0 0 1 1 2 1 1 1 2 1 0 0 1 1 2 1 1 1 0 0 2 1 0 0 1 1 0 0 1 1 0 0 2 1 0 0 1 1 0 0 2 1 0 0 1 1 0 0 2 1 1 1 2 1 0 0 1 1 0 0 1 1 2 1 0 0 1 1 2 1 0 0 1 1 2 1 1 1 0 0 2 1 1 1 1 1 2 1 1 1 2 2 1 1 2 1 1 1 -253 347 0 0 -574 787c-10,-7 -20,-14 -31,-21zm684 -704l1 0 -631 743c-6,-5 -12,-10 -19,-15l11 -15 0 0 826 -1112c31,23 61,47 90,72l-278 327zm-579 790l14 -12 -1 0 0 0 1030 -926 1 1 1 2 1 1 1 1 0 0 2 1 0 0 1 1 0 0 1 2 1 1 1 1 0 0 1 1 1 2 1 1 0 0 1 1 1 1 2 2 1 1 1 1 0 0 1 1 0 0 1 2 1 1 1 1 0 0 1 1 2 3 1 1 2 1 1 2 0 0 1 1 1 1 1 1 0 0 1 2 1 1 1 1 0 0 1 1 1 2 1 1 0 0 1 1 1 2 1 1 2 1 0 0 1 1 0 0 1 2 0 0 1 1 0 0 1 1 0 0 1 1 0 0 1 2 0 0 1 1 0 0 1 1 0 0 1 1 0 0 1 2 1 1 0 0 1 1 0 0 1 2 0 0 1 1 0 0 1 1 0 0 2 1 1 2 0 0 1 1 0 0 1 1 0 0 1 2 0 0 1 1 0 0 1 1 0 0 1 1 0 0 1 2 0 0 -333 270 0 0 -756 614c-7,-9 -15,-18 -23,-27zm833 -517l0 0 -794 563c-4,-5 -9,-11 -13,-16l14 -11 0 0 1083 -863c20,26 40,52 59,79l-349 248zm-694 921l969 98 0 0 421 42c4,-36 6,-74 8,-111l-1378 -63 0 0 0 0 -18 -1c0,12 -1,24 -2,35zm-4 31l960 168 0 0 416 72c6,-37 12,-75 16,-114l-1370 -151 0 1 -18 -2c-1,9 -2,18 -4,26zm-356 419l292 930 0 0 125 396 0 0 2 0 0 0 1 -1 1 0 1 0 0 0 2 -1 0 0 1 0 1 0 1 -1 0 0 2 0 0 0 1 -1 1 0 1 0 0 0 2 -1 0 0 1 0 0 0 2 -1 0 0 2 -1 0 0 1 0 0 0 2 -1 0 0 2 0 0 0 1 -1 0 0 2 0 0 0 2 -1 0 0 1 0 0 0 2 -1 2 0 0 0 1 -1 0 0 2 -1 0 0 2 0 1 -1 0 0 2 0 0 0 2 -1 0 0 1 0 0 0 2 -1 2 -1 1 0 2 -1 1 0 2 -1 2 0 1 -1 2 -1 2 0 0 0 1 -1 0 0 2 0 2 -1 1 -1 2 0 0 0 2 -1 1 0 2 -1 1 0 2 -1 2 -1 1 0 2 -1 2 -1 1 0 2 -1 0 0 2 0 1 -1 2 -1 1 0 2 -1 2 0 1 -1 2 -1 2 0 -476 -1260 -10 -24 0 0 -6 -17c-10,4 -21,8 -31,11zm35 -13l353 909 0 0 150 388c38,-15 75,-31 112,-48l-524 -1131 1 2 -54 -117 0 0 -7 -16c-10,5 -21,9 -31,13zm35 -15l417 880 0 0 178 377 0 0 2 -1 0 0 2 -1 0 0 1 -1 0 0 2 0 0 0 1 -1 0 0 2 -1 0 0 2 -1 1 -1 0 0 2 0 0 0 2 -1 0 0 1 -1 0 0 2 -1 0 0 1 0 0 0 2 -1 0 0 2 -1 0 0 1 -1 0 0 2 -1 0 0 2 0 0 0 1 -1 0 0 2 -1 1 -1 0 0 2 -1 0 0 2 -1 0 0 1 0 2 -1 0 0 1 -1 2 -1 0 0 2 -1 1 0 0 0 2 -1 1 -1 1 0 1 -1 2 -1 1 -1 0 0 2 0 0 0 2 -1 1 -1 2 -1 1 -1 2 -1 0 0 1 0 1 0 1 -1 0 0 2 -1 0 0 1 -1 0 0 2 -1 1 -1 2 0 2 -1 1 -1 2 -1 1 -1 2 -1 2 -1 1 0 2 -1 0 0 1 -1 2 -1 0 0 2 -1 1 -1 2 -1 1 0 2 -1 1 -1 2 -1 -661 -1203 0 0 -9 -16c-9,5 -19,10 -28,15zm84 -52l11 15 0 0 808 1110 -2 1 -1 1 -2 1 -1 1 -1 1 -2 1 -1 1 -2 1 -1 1 -1 1 -1 0 -1 1 -1 1 -2 1 -1 1 -2 1 -1 1 -1 1 -2 1 -1 1 -2 1 0 0 -1 1 -1 1 -2 1 -1 1 -2 1 0 0 -1 1 0 0 -1 1 -1 0 -1 1 -1 1 -2 1 0 0 -1 1 0 0 -2 1 0 0 -1 1 -1 1 -2 1 -1 1 0 0 -2 1 0 0 -1 1 -2 1 0 0 -1 1 -1 1 -2 1 -1 1 0 0 -2 1 -1 1 0 0 -2 1 -1 1 -2 1 0 0 -1 1 -1 1 -2 1 -1 1 -2 1 0 0 -1 1 0 0 -2 1 0 0 -1 0 0 0 -1 1 -1 0 -1 1 -1 1 -2 1 -1 1 -2 1 -1 1 -2 1 -225 -351 -1 0 -527 -819c9,-5 18,-12 26,-18zm425 884l0 0 -477 -849c8,-5 15,-9 23,-14l9 15 0 0 733 1161c-28,18 -56,35 -84,51l-204 -364zm-397 -906l627 745 0 0 269 319 1 -1 2 -1 1 -1 0 0 1 -1 2 -2 1 -1 0 0 2 -1 0 0 1 -1 0 0 1 -1 2 -1 1 -2 1 -1 0 0 2 -1 1 -1 2 -1 0 0 1 -2 1 -1 2 -1 0 0 1 -1 0 0 1 -1 0 0 2 -1 0 0 1 -2 1 -1 0 0 2 -1 1 -1 1 -1 1 0 1 -2 1 -1 2 -1 1 -1 0 0 1 -1 0 0 2 -2 0 0 1 -1 0 0 1 -1 0 0 2 -1 0 0 1 -1 0 0 1 -2 2 -1 0 0 1 -1 0 0 1 -1 2 -2 0 0 1 -1 0 0 1 -1 0 0 2 -1 0 0 1 -1 0 0 1 -2 0 0 2 -1 0 0 1 -1 0 0 1 -1 2 -2 0 0 1 -1 0 0 1 -1 0 0 2 -1 0 0 1 -1 0 0 1 -2 0 0 2 -1 0 0 1 -1 0 0 1 -1 0 0 2 -2 0 0 1 -1 0 0 1 -1 0 0 1 -1 0 0 2 -2 0 0 1 -1 0 0 -506 -534 -371 -390 -1 -2 -67 -71 -1 0 -12 -13c-8,8 -16,16 -24,23zm-24 19l580 783 0 0 248 335c27,-20 53,-40 79,-62l-875 -1058 0 0 -12 -14c-7,6 -13,11 -20,16zm68 -63l712 665 0 0 306 285 1 -1 2 -2 1 -1 1 -1 1 -1 1 -2 2 -1 1 -1 1 -2 0 0 1 -1 1 -1 2 -1 0 0 1 -2 1 -1 0 0 1 -1 1 -2 1 -1 2 -1 0 0 1 -2 1 -1 1 -1 1 -2 1 -1 1 0 1 -1 0 0 1 -1 0 0 1 -2 0 0 1 -1 0 0 1 -1 0 0 2 -2 1 -1 1 -1 0 0 1 -2 0 0 1 -1 0 0 1 -1 0 0 1 -2 1 0 1 -1 0 0 1 -1 0 0 1 -2 1 -1 0 0 1 -1 0 0 1 -2 2 -1 0 0 1 -1 0 0 1 -2 1 -1 0 0 1 -1 0 0 1 -2 0 0 1 -1 0 0 2 -1 1 -2 0 0 1 -1 0 0 1 -1 0 0 1 -2 0 0 1 -1 0 0 1 -1 2 -2 0 0 1 -1 1 -1 0 0 1 -2 0 0 1 -1 0 0 1 -1 0 0 1 -2 0 0 2 -1 0 0 1 -1 0 0 -678 -564 -367 -305 -12 -11 0 1 -14 -12c-7,9 -14,17 -22,25zm-17 18l677 701 0 0 290 300c19,-18 38,-37 57,-57l-997 -946 0 0 -13 -12c-4,5 -9,9 -14,14zm61 -73l796 562 0 0 342 242 0 0 1 -2 0 0 1 -1 0 0 1 -1 0 0 1 -2 0 0 1 -1 0 0 1 -2 0 0 1 -1 0 0 1 -2 0 0 1 -1 0 0 1 -2 0 0 1 -1 0 0 1 -1 1 -2 0 0 1 -1 0 0 1 -2 0 0 1 -1 0 0 1 -2 0 0 1 -1 1 -2 0 0 1 -1 1 -2 0 0 1 -1 1 -1 0 0 1 -2 1 -1 1 -2 1 -1 0 0 1 -2 1 -1 1 -2 0 0 1 -1 0 0 1 -2 1 -1 1 -2 1 -1 1 -2 1 -1 0 0 1 -2 0 0 1 -1 1 -1 1 -2 0 0 1 -1 1 -2 1 -1 0 0 0 -2 1 0 0 -1 0 0 1 -2 1 -1 0 0 1 -2 0 0 1 -1 1 -2 0 0 1 -1 0 0 1 -2 0 0 1 -1 0 0 1 -2 0 0 1 -1 0 0 1 -2 0 0 1 -1 0 0 1 -2 0 0 1 -1 0 0 1 -2 0 0 1 -1 0 0 1 -2 0 0 0 -1 0 0 -1166 -729 0 0 -16 -9c-5,9 -11,19 -18,28zm-19 27l754 616 0 -1 324 265c24,-29 47,-59 69,-89l-1116 -804 0 0 -14 -10c-6,7 -11,15 -17,23zm54 -86l862 453 1 0 371 196 1 -2 1 -1 1 -2 1 -2 1 -1 0 -2 1 -1 1 -2 1 -1 1 -2 0 -1 1 -2 1 -2 1 -1 1 -2 0 -1 1 -2 1 -1 1 -2 0 0 0 -1 1 -2 1 -2 0 0 1 -1 1 -2 0 -1 1 -2 0 0 1 -1 0 0 1 -2 0 0 1 -2 0 0 0 -1 1 -2 1 -1 1 -2 0 0 0 -1 0 0 1 -2 0 0 1 -2 0 0 1 -1 0 -2 1 -1 0 0 1 -2 0 0 1 -1 1 -2 0 0 0 -2 0 0 1 -1 1 -2 0 0 1 -1 0 -2 0 0 1 -2 1 -1 0 0 1 -2 0 0 0 -1 0 0 1 -2 0 0 1 -1 0 0 1 -2 0 -2 0 0 1 -1 0 0 1 -2 0 0 0 -1 0 0 1 -2 0 0 1 -2 0 0 1 -1 0 0 0 -2 0 0 1 -1 0 0 1 -2 0 0 -1253 -571 0 0 0 0 -16 -7c-5,10 -9,20 -15,30zm-14 27l830 508 1 0 357 219c19,-29 36,-60 53,-90l-1213 -651 0 0 -16 -9c-4,8 -8,15 -12,23zm65 -181l17 3 0 0 1356 249 0 2 -1 2 0 1 0 2 0 2 -1 1 0 2 0 2 -1 1 0 2 0 2 -1 1 0 2 0 2 -1 1 0 2 0 2 -1 1 0 0 0 2 0 2 -1 1 0 2 0 2 -1 1 0 1 0 1 0 0 0 2 0 0 -1 1 0 1 0 1 0 2 -1 1 0 1 0 1 0 0 0 2 0 0 -1 2 0 0 0 1 0 0 0 2 0 0 -1 2 0 0 0 1 -1 2 0 2 0 0 0 1 0 0 -1 2 0 0 0 2 0 1 0 0 -1 2 0 0 0 2 0 1 0 0 -1 2 0 0 0 1 0 0 -1 2 0 0 0 2 0 1 0 0 -1 2 0 0 0 2 0 0 0 1 -1 2 0 0 0 2 0 0 -1 1 0 0 0 2 0 0 0 2 0 0 -1 1 0 0 0 2 0 0 -1 2 0 0 0 1 0 0 0 2 0 0 -411 -99 0 1 -947 -228c3,-11 5,-22 7,-33zm921 335l0 0 -933 -279c1,-6 3,-12 4,-18l18 4 0 0 1337 334c-7,27 -14,53 -22,80l-404 -121zm-945 -242l913 339 0 0 395 147 0 -2 1 -2 1 -1 0 -2 1 -2 0 0 0 -1 1 -2 1 -2 0 -1 1 -2 0 0 0 -2 0 0 1 -1 1 -2 0 -2 1 -1 0 0 0 -2 0 0 1 -1 0 0 0 -2 1 -2 0 0 1 -1 0 0 0 -2 1 -2 0 0 0 -1 0 0 1 -2 0 0 1 -2 0 0 0 -1 0 0 1 -2 0 0 0 -2 0 0 1 -1 0 -2 0 0 1 -2 0 0 0 -1 1 -2 0 0 1 -2 0 0 0 -1 1 -2 0 -2 0 0 1 -1 0 0 0 -2 0 0 1 -2 0 0 1 -1 0 -2 1 -2 0 -1 1 -2 0 -2 1 -1 0 0 0 -2 0 0 1 -2 0 0 0 -1 0 0 1 -2 0 0 0 -2 0 0 1 -1 0 0 1 -2 0 0 0 -2 0 0 1 -1 0 -2 0 0 1 -2 0 0 0 -1 0 0 1 -2 0 0 0 -2 0 0 1 -1 0 -1 0 -1 0 0 1 -2 0 0 -1091 -337 -225 -70 0 1 0 0 -18 -6c-3,11 -6,22 -10,33zm-10 26l889 397 1 -1 384 171c13,-30 26,-60 38,-92l-1287 -491 0 1 -17 -7c-2,8 -5,15 -8,22zm-7 -419l889 -399 0 0 389 -175 -1 -2 -1 -2 0 -1 -1 -2 -1 -1 -1 -2 0 -2 -1 -1 -1 -2 0 -2 -1 -1 -1 -2 -1 -1 0 -2 0 0 -1 -2 -1 -1 -1 -2 0 -1 -1 -2 -1 -2 -1 -1 -1 -2 0 -2 -1 -1 0 0 -1 -2 -1 -1 0 0 0 -2 -1 -2 -1 -1 0 0 -1 -2 0 -1 -1 -2 0 0 -1 -2 -1 -1 -1 -2 0 -1 0 0 -1 -2 0 0 -1 -2 0 0 -1 -1 0 0 0 -2 0 0 -1 -1 0 0 -1 -2 0 0 -1 -2 0 0 -1 -1 0 0 0 -2 -1 -1 -1 -2 -1 -1 0 -1 -1 -1 0 -2 -1 -1 0 0 -1 -2 -1 -1 -1 -2 0 -2 -1 -1 -1 -2 -1 -1 -1 -2 0 0 -1 -2 0 -1 -1 -2 0 0 -1 -1 -1 -2 -1229 635 1 1 -16 8c6,11 11,22 16,33zm12 28l913 -340 0 0 399 -148c-12,-34 -25,-66 -39,-99l-1267 556 0 0 -16 7c3,8 7,16 10,24zm-44 -87l829 -512 0 0 364 -225 0 0 -1 -1 0 0 -1 -2 0 0 -1 -1 0 0 -1 -2 0 0 -1 -1 0 0 -1 -2 0 0 -1 -1 0 0 -1 -2 0 0 -1 -1 0 0 -1 -2 0 0 -1 -1 0 0 -1 -2 0 0 -1 -1 0 0 -1 -2 0 0 0 -1 0 0 -1 -2 0 0 -1 -1 0 0 -1 -2 0 0 -1 -1 0 0 -1 -2 0 0 -1 -1 0 0 -1 -2 0 0 -1 -1 0 0 -1 -2 0 0 -1 -1 -1 -2 0 0 -1 -1 0 0 -1 -2 0 0 -1 -1 0 0 -1 -2 0 0 -1 -1 0 0 -1 -2 0 0 -1 -1 0 0 -1 -2 0 0 -1 -1 0 0 -1 -2 0 0 -1 -1 0 0 -1 -2 0 0 -1 -1 -1 -2 0 0 -1 -1 0 0 -1 -2 0 0 -1 -1 0 0 -1 -1 0 -1 -1 -1 0 0 -1 -1 0 0 -1 -2 0 0 -1 -1 0 0 -1 -2 0 0 -1 -1 0 0 -1 -2 -1 -1 -1 -2 0 0 -1 -1 -1 -2 -1 -1 0 0 -1 -2 -1 -1 0 0 -1 -1 -1 -2 0 0 -1 -1 -1 -2 -1 -1 -1 -2 -990 689 -2 1 -144 100 0 1 -15 10c8,10 15,20 21,31zm13 22l862 -455 0 0 377 -200c-16,-30 -33,-60 -50,-89l-1184 716 0 0 -15 9c3,7 7,13 10,19zm-95 -123l676 -701 0 0 297 -309 -1 -2 -1 -1 -1 -1 -2 -1 -1 -1 0 0 -1 -2 -1 -1 -2 -1 -1 -1 -1 -2 -1 -1 0 0 -2 -1 -1 -1 0 0 -1 -1 -2 -2 0 0 -1 -1 0 0 -1 -1 -1 -1 -2 -1 0 0 -1 -2 0 0 -1 -1 0 0 -2 -1 0 0 -1 -1 0 0 -1 -1 0 0 -1 -2 0 0 -2 -1 0 0 -1 -1 0 0 -1 -1 -2 -1 0 0 -1 -2 0 0 -1 -1 0 0 -2 -1 0 0 -1 -1 0 0 -1 -1 -1 -1 0 0 -2 -2 0 0 -1 -1 0 0 -1 -1 0 0 -2 -1 0 0 -1 -1 -1 -2 -2 -1 0 0 -1 -1 0 0 -1 -1 0 0 -1 -1 -1 0 -1 -1 -1 -2 -1 -1 0 0 -2 -1 0 0 -1 -1 0 0 -1 -1 -2 -1 -1 -2 -1 -1 -2 -1 -1 -1 0 0 -1 -1 0 0 -2 -1 -1 -1 -1 -2 -2 -1 -1 -1 -1 -1 0 0 -2 -1 -849 983 -1 1 -56 64 1 0 -12 14c9,7 19,16 27,24zm17 17l718 -658 0 0 316 -289c-21,-24 -43,-46 -65,-69l-970 990 0 0 -12 12c4,5 9,9 13,14zm-557 -130l-6 -17 0 0 -469 -1305 2 -1 1 -1 2 0 0 0 2 -1 0 0 1 0 0 -1 4 -1 1 0 2 -1 3 -1 2 -1 0 0 2 0 0 0 1 -1 0 0 2 0 0 0 2 -1 0 0 1 -1 4 -1 0 0 5 -1 0 0 2 -1 0 0 1 -1 2 0 0 0 3 -1 0 0 2 -1 0 0 2 0 1 -1 4 -1 0 0 1 -1 1 0 1 0 0 0 2 -1 0 0 2 0 0 0 1 -1 0 0 2 0 0 0 2 -1 1 0 0 0 2 -1 0 0 2 0 0 -1 1 0 2 -1 2 0 2 -1 1 0 2 -1 0 0 2 0 1 -1 2 0 2 -1 1 0 2 -1 2 0 2 -1 1 0 2 -1 2 0 1 -1 2 -1 2 0 2 -1 1 0 396 1330 -1 0 6 17c-12,3 -23,7 -34,11zm-231 -949l0 0 -119 -414c34,-10 68,-18 103,-26l94 420 1 0 213 951c-8,1 -15,3 -23,5l-269 -936zm296 930l-3 -18 0 0 -292 -1356 1 0 2 -1 0 0 2 0 2 -1 1 0 2 0 2 -1 2 0 0 0 1 0 2 -1 2 0 2 0 1 -1 2 0 0 0 2 -1 2 0 1 0 0 0 2 -1 2 0 2 0 2 -1 1 0 2 0 2 -1 2 0 1 0 2 -1 2 0 2 0 1 -1 2 0 2 0 2 -1 2 0 1 0 2 -1 2 0 2 0 1 -1 2 0 2 0 2 -1 0 0 2 0 1 0 2 -1 2 0 2 0 1 -1 2 0 0 0 2 0 2 0 2 -1 1 0 2 0 2 -1 0 0 2 0 1 0 2 -1 2 0 2 0 2 0 1 -1 0 0 2 0 2 0 215 1370 0 0 3 18c-12,2 -24,4 -36,7zm-102 -971l0 0 -63 -427c32,-4 65,-8 98,-11l40 429 0 0 89 970c-7,0 -14,1 -21,2l-143 -963zm-84 1053l-11 -14 0 0 -644 -919 -152 -216 0 0 2 -1 0 0 1 -1 0 0 2 -1 0 0 1 -1 0 0 1 -1 1 0 1 -1 0 0 1 -1 1 0 1 -1 0 0 1 -1 0 0 2 -1 0 0 1 -1 0 0 2 -1 0 0 1 -1 0 0 2 -1 0 0 1 -1 0 0 1 -1 1 0 1 -1 0 0 1 -1 0 0 2 -1 0 0 1 -1 0 0 2 -1 0 0 1 -1 0 0 2 -1 0 0 1 -1 0 0 2 -1 0 0 1 -1 0 0 1 -1 1 0 1 -1 0 0 1 -1 1 0 1 -1 0 0 1 -1 0 0 2 -1 0 0 1 0 0 -1 2 0 0 -1 1 0 0 0 2 -1 0 0 1 -1 0 0 2 -1 0 0 1 -1 0 0 2 -1 0 0 1 -1 0 0 2 -1 0 0 1 -1 0 0 2 -1 0 0 1 -1 0 0 1 -1 1 0 1 -1 0 0 1 -1 1 0 1 -1 0 0 1 -1 0 0 2 -1 0 0 1 -1 0 0 2 -1 0 0 1 -1 0 0 2 -1 0 0 1 0 0 -1 2 0 0 0 1 -1 0 0 2 -1 0 0 1 -1 2 -1 1 -1 2 -1 1 -1 732 1177 -1 0 10 16c-10,6 -19,12 -28,18zm-475 -853l0 0 -223 -367c29,-18 59,-35 89,-51l203 379 0 0 459 859c-7,4 -14,8 -21,12l-507 -832zm532 818l-9 -16 0 0 -105 -202 -2 -2 -215 -413 -320 -611 0 0 2 -1 0 0 1 -1 0 0 2 -1 0 0 2 -1 0 0 1 0 0 0 2 -1 0 0 1 -1 0 0 2 -1 0 0 2 -1 0 0 1 -1 0 0 2 0 0 0 1 -1 0 0 2 -1 0 0 2 -1 0 0 1 -1 0 0 2 -1 0 0 1 0 0 0 2 -1 0 0 3 -2 0 0 2 -1 0 0 1 0 0 0 2 -1 2 -1 0 0 1 -1 0 0 2 -1 5 -2 1 -1 0 0 2 -1 0 0 3 -1 0 0 2 -1 0 0 1 -1 0 0 2 0 0 0 1 -1 0 0 2 -1 0 0 2 -1 1 -1 0 0 2 0 0 0 1 -1 0 0 2 -1 0 0 2 -1 0 0 1 0 0 0 2 -1 0 0 2 -1 0 0 1 -1 0 0 2 -1 1 0 0 0 2 -1 0 0 2 -1 0 0 1 -1 0 0 2 0 0 0 2 -1 0 0 1 -1 0 0 2 -1 0 0 1 0 0 0 2 -1 0 0 2 -1 0 0 1 -1 0 0 2 0 0 0 2 -1 0 0 1 -1 0 0 572 1264 0 0 7 16c-10,5 -21,10 -31,15zm-358 -908l0 0 -174 -394c34,-15 70,-29 105,-43l149 404 0 0 338 914c-8,3 -17,7 -25,10l-393 -891zm198 1038l-13 -11 -23 -19 -1 0 -182 -150 -533 -439 -330 -272 1 -1 1 -1 0 0 1 -2 1 -1 1 -2 2 -1 1 -1 1 -2 1 -1 1 -2 0 0 1 -1 1 -1 2 -2 1 -1 0 0 1 -2 1 -1 1 -1 1 -2 2 -1 1 -1 0 -1 1 -1 0 0 1 -1 1 -2 0 0 2 -1 0 0 1 -1 1 -2 1 -1 0 0 1 -2 1 -1 2 -1 0 0 1 -2 0 0 1 -1 0 0 1 -1 0 0 1 -2 0 0 2 -1 0 0 1 -1 0 0 1 -2 0 0 1 -1 0 0 1 -2 0 0 2 -1 0 0 1 -1 0 0 1 -2 0 0 1 -1 0 0 1 -1 0 0 2 -2 0 0 1 -1 0 0 1 -1 0 0 1 -2 0 0 1 -1 0 0 2 -1 0 0 1 -2 0 0 1 -1 0 0 1 -1 0 0 2 -2 0 0 1 -1 0 0 1 -1 0 0 1 -2 0 0 1 -1 0 0 2 -1 0 0 1 -2 0 0 1 -1 0 0 1 -1 0 0 2 -2 0 0 1 -1 0 0 1016 941 0 0 13 12c-8,8 -15,16 -23,25zm-683 -696l0 -1 -312 -294c29,-30 58,-59 88,-87l292 314 0 0 663 714c-8,7 -15,14 -22,21l-709 -667zm155 -142l0 0 -268 -336c25,-20 52,-41 79,-60l250 350 0 0 566 792c-6,5 -13,9 -19,14l-608 -760zm456 955l-889 -398 0 0 -390 -175 1 -1 1 -2 1 -2 0 -1 1 -2 1 -2 0 0 1 -1 0 -2 1 -2 0 0 1 -1 1 -2 0 0 0 -2 1 -1 2 -4 0 0 0 -1 1 -2 1 -2 1 -1 0 -2 1 -2 0 0 1 -1 0 0 1 -2 1 -2 0 0 0 -1 0 0 1 -2 1 -2 0 0 1 -1 0 0 1 -2 0 0 1 -3 0 0 1 -2 1 -1 0 -2 1 -2 1 -1 0 0 1 -2 0 0 2 -3 0 -2 1 -2 0 0 1 -1 0 0 1 -2 0 0 1 -1 0 -2 0 0 1 -2 1 -1 0 0 1 -2 1 -2 0 0 0 -1 1 -2 1 -1 0 -1 1 -1 1 -2 1 -1 0 0 0 -2 1 -2 1 -1 1 -2 1 -2 1 -1 0 -2 1 -1 1 -2 1226 640 0 0 16 9c-5,9 -10,19 -14,29zm-843 -492l0 0 -377 -201c16,-29 32,-58 49,-87l1185 715 0 0 15 9c-4,8 -9,15 -13,22l-859 -458zm874 432l-829 -510 0 0 -364 -224 1 -2 1 -2 1 -1 1 -2 1 -1 1 -2 1 -1 1 -2 0 0 0 -1 0 0 1 -2 1 -1 1 -2 0 0 1 -1 1 -2 0 0 2 -3 1 -1 0 0 2 -3 2 -3 0 0 2 -3 0 0 2 -3 0 0 1 -2 0 0 3 -4 0 0 1 -2 1 -1 0 0 1 -2 0 0 1 -1 0 0 1 -2 0 0 1 -1 0 0 1 -2 0 0 1 -1 0 0 1 -2 0 0 1 -1 2 -3 0 0 1 -2 0 0 2 -3 0 0 1 -1 0 0 1 -2 0 0 1 -1 1 -2 1 -1 0 0 1 -2 1 -1 1 -2 0 0 1 -1 1 -2 0 0 1 -1 1 -2 1 -1 0 0 1 -1 0 0 1 -2 1 -1 1 -2 1 -1 1 -2 1 -1 1134 793 0 0 15 10c-7,9 -13,18 -19,27zm-772 -596l0 0 -348 -248c21,-31 44,-61 68,-91l1077 870 0 0 14 12c-6,7 -12,15 -18,22l-793 -565zm718 717l-932 -284 0 0 -408 -124 1 -2 0 -1 1 -2 0 -2 1 -1 0 -2 1 -2 1 -1 0 -2 0 0 1 -2 0 -1 1 -2 0 -2 1 -1 0 -2 1 -2 0 -1 1 -2 0 -2 1 -1 0 0 0 -2 1 -2 0 -1 0 0 1 -2 0 -1 1 -2 0 -2 0 0 1 -1 1 -2 0 0 0 -2 0 0 1 -1 0 -2 1 -2 0 -1 1 -2 0 -2 1 -1 0 -2 1 0 0 -2 0 0 1 -1 0 -2 0 0 1 -1 0 -2 0 0 1 -2 0 -1 0 0 1 -2 1 -2 0 -1 1 -2 0 0 0 -2 0 0 1 -1 0 0 0 -2 0 0 1 -1 0 0 1 -2 0 -2 1 -1 0 -2 1 -2 0 -1 1 -2 1 -1 0 -2 0 0 1 -2 0 -1 1298 477 0 0 0 1 16 6c-3,9 -6,19 -9,29zm-900 -378l0 0 -399 -151c12,-30 24,-60 36,-89l1267 554 0 0 17 7c-4,8 -7,16 -10,23l-911 -344zm879 482l-970 -89 0 0 -422 -39c3,-39 8,-77 13,-116l1365 210 0 0 18 2c-2,11 -3,22 -4,32zm4 -36l-961 -156 0 0 -419 -68 0 0 0 -2 0 0 0 -2 0 0 1 -2 0 0 0 -1 0 0 0 -2 0 0 1 -2 0 0 0 -2 0 0 0 -1 0 0 0 -2 0 0 1 -2 0 0 0 -2 0 0 0 -1 0 0 1 -2 0 0 0 -2 0 0 0 -1 0 0 0 -2 0 0 1 -2 0 -2 0 0 0 -1 0 0 1 -2 0 -2 0 0 0 -2 0 0 1 -1 0 0 0 -2 0 -2 0 0 1 -1 0 0 0 -2 0 0 0 -2 0 0 1 -2 0 -1 0 -2 1 -2 0 -2 0 -1 0 -2 1 -2 0 -1 0 -2 1 -2 0 -2 0 0 1 -1 0 0 0 -2 0 -2 1 -1 0 -2 0 -2 1 -2 0 -1 0 -2 0 0 1 -2 0 -1 0 -2 1 -2 0 -2 0 0 0 -1 1 -2 0 -2 0 -1 1 -2 0 -2 1 -1 0 -2 0 -2 1 -2 1348 301 0 0 17 4c-2,10 -4,20 -6,30zm-941 -255l0 0 -415 -96c9,-37 18,-73 29,-109l1325 391 0 0 17 5c-3,10 -5,20 -8,29l-948 -220zm935 358l-974 36 0 0 -422 16c-1,-26 -2,-51 -2,-77 0,-9 0,-17 0,-26l1380 22 0 1 18 0 -1 11c0,6 1,12 1,17zm0 -33l-974 -24 0 0 -423 -11 0 -2 0 -2 0 -1 0 -2 0 -12 0 0 0 -2 0 0 0 -1 0 0 0 -2 0 -2 0 -2 0 0 0 -1 0 0 1 -2 0 0 0 -3 0 0 0 -2 0 -2 0 0 0 -5 0 0 0 -2 0 0 0 -1 0 0 0 -2 0 0 0 -5 0 0 1 -4 0 0 0 -1 0 0 0 -2 0 0 0 -2 0 0 0 -3 0 0 0 -2 0 0 0 -2 0 0 0 -1 0 0 1 -2 0 0 0 -2 0 0 0 -2 0 0 0 -3 0 0 0 -2 0 0 0 -3 0 0 0 -3 0 0 1 -2 0 0 0 -2 0 0 0 -2 0 0 0 -1 0 0 0 -2 0 0 0 -2 0 0 0 -1 0 0 0 -2 0 0 1 -2 0 0 0 -1 0 0 0 -2 0 0 0 -2 0 0 0 -2 0 0 1375 114 0 0 18 2c0,10 -1,19 -1,29zm2 68l-969 102 0 0 -420 44 0 -2 0 -2 -1 -1 0 -2 0 -2 0 0 0 -2 0 0 0 -1 0 0 0 -2 0 0 -1 -2 0 0 0 -2 0 0 0 -1 0 -2 0 -4 -1 -1 0 0 0 -2 0 -2 0 0 0 -2 0 -1 0 0 -1 -4 0 0 0 -2 0 -1 0 -2 0 0 0 -2 0 -2 0 0 0 -1 0 0 -1 -2 0 0 0 -2 0 -3 0 0 0 -2 0 0 0 -4 0 0 -1 -1 0 0 0 -2 0 0 0 -4 0 0 0 -3 0 0 0 -4 0 0 -1 -1 0 -2 0 0 0 -2 0 0 0 -2 0 0 0 -3 0 -4 0 0 0 -2 -1 -1 0 0 0 -4 0 0 0 -2 0 -1 0 -2 0 0 0 -2 0 0 0 -2 0 0 0 -1 0 -2 0 0 -1 -2 0 -2 0 -1 1378 -63 0 0 18 -1c0,10 1,20 2,30zm12 71l-18 4 0 0 -1337 330c9,38 20,76 32,113l402 -125 0 0 930 -290c-4,-11 -6,-21 -9,-32zm-886 422l0 0 907 -356c-4,-10 -8,-20 -11,-30l-17 6 0 0 0 0 -1311 421 0 2 1 2 1 2 0 2 1 1 0 2 1 2 0 0 1 2 0 0 0 1 0 0 1 2 0 2 2 4 0 0 0 1 0 0 1 4 0 0 1 2 0 0 1 1 0 0 0 2 0 0 2 6 1 1 0 0 0 2 0 0 1 2 0 0 1 2 0 0 1 5 0 0 1 2 0 0 1 1 0 0 0 2 0 0 1 2 0 0 1 2 0 0 0 1 1 4 0 0 1 2 0 0 1 2 1 3 0 0 1 4 1 1 1 2 0 0 0 2 0 0 1 2 1 1 0 2 0 0 2 4 0 1 1 2 1 2 0 0 0 2 1 1 1 2 0 0 0 2 0 0 1 1 1 2 0 2 0 0 1 2 1 1 0 2 392 -154zm878 -461l-961 158 0 0 -417 69c-5,-32 -9,-64 -13,-96l1370 -157 0 1 17 -2c1,9 3,18 4,27zm7 34l-948 225 0 0 -410 98 0 0 -1 -2 0 0 0 -2 0 0 0 -1 0 0 -1 -2 0 0 0 -2 0 0 -1 -2 0 0 0 -1 0 0 0 -2 0 0 -1 -2 0 0 0 -2 0 0 -1 -1 0 0 0 -2 0 0 0 -2 0 0 -1 -2 0 0 0 -1 0 -1 -1 -1 0 0 0 -2 0 0 0 -2 0 0 -1 -1 0 -1 0 -1 0 0 -1 -2 0 0 0 -2 0 0 0 -2 0 0 -1 -1 0 0 0 -2 0 0 -1 -2 0 0 0 -2 0 0 0 -1 0 0 -1 -2 0 0 0 -2 0 0 0 -2 0 0 -1 -1 0 0 0 -2 0 0 0 -2 -1 0 0 -2 0 0 0 -2 0 0 -1 -1 0 0 0 -2 0 0 0 -2 0 0 -1 -2 0 0 0 -1 0 0 0 -2 0 0 -1 -2 0 0 0 -2 0 0 0 -1 0 -1 -1 -1 0 0 0 -2 0 0 0 -2 0 0 -1 -2 0 0 0 -1 0 0 0 -2 0 0 -1 -2 0 0 0 -2 0 0 0 -1 0 -1 -1 -1 0 0 0 -2 0 0 0 -2 0 0 -1 -2 0 0 0 -1 0 0 0 -2 0 0 -1 -2 0 0 0 -2 0 0 0 -2 0 0 -1 -1 0 0 1358 -237 0 0 18 -3c2,10 4,20 6,30zm52 135l-850 477 0 0 -366 205 0 0 -1 -2 0 0 -1 -1 0 0 -1 -2 0 0 0 -1 0 0 -1 -2 0 0 -1 -1 0 -1 -1 -1 0 0 -1 -2 0 0 -1 -1 0 0 -1 -2 0 0 0 -1 0 0 -1 -2 0 0 -1 -1 -1 -2 0 0 -1 -2 0 0 -1 -1 0 0 -1 -2 0 -1 0 0 -1 -2 0 0 -1 -1 0 0 -1 -2 0 0 -1 -1 0 -1 -1 -1 0 0 -1 -2 0 0 -1 -3 0 0 -1 -1 0 0 -1 -2 0 0 -1 -2 -1 -1 0 -2 0 0 -1 -1 0 0 -1 -2 0 0 -2 -3 0 0 -1 -2 0 -1 0 0 -1 -2 -1 -1 0 0 -1 -2 -1 -1 0 0 -1 -4 -1 -1 -2 -3 0 -2 -1 0 0 -2 -1 -1 -1 -2 0 0 -1 -1 -1 -2 0 -2 -1 -1 -1 -2 0 0 -1 -1 -1 -2 0 -2 -1 -1 -1 -2 -1 -1 0 -2 -1 -2 0 0 -1 -1 1238 -602 0 0 0 0 16 -8c5,10 10,20 15,29zm-897 385l0 0 -379 181c-17,-34 -32,-69 -46,-104l1277 -515 0 0 16 -7c4,9 8,18 12,27l-880 418zm934 -327l-780 583 0 0 -335 251 0 0 -2 -1 0 0 -1 -2 0 0 -1 -1 0 0 -1 -2 0 0 -1 -1 0 0 -1 -1 0 -1 -1 -1 0 0 -1 -1 0 0 -1 -2 0 0 -1 -1 0 0 -1 -2 0 0 -1 -1 0 0 -1 -1 -1 -2 0 0 -1 -1 0 0 -1 -2 0 0 -1 -1 0 0 -1 -1 -1 -2 -1 -1 -1 -2 0 0 -1 -1 0 0 -1 -2 -1 -1 0 0 -1 -1 0 0 -1 -2 0 0 -1 -1 0 0 -1 -2 -1 -1 0 0 -1 -2 -1 -1 0 0 -1 -1 -1 -2 -1 0 -1 -1 -1 -2 0 0 -1 -1 -1 -2 0 0 -1 -1 0 0 -1 -1 0 0 -1 -2 -1 -1 0 0 -1 -2 0 0 -1 -1 0 0 -1 -2 0 0 -1 -1 0 0 -1 -2 0 0 -1 -1 0 -1 -1 0 0 -2 -1 0 0 -1 -1 0 0 -2 0 0 -1 -1 0 0 -1 -2 0 0 -1 -1 0 0 -1 -2 0 0 -1 -1 0 0 -1 -2 0 0 -1 -1 0 0 -1 -1 0 0 -1 -2 0 0 -1 -1 0 0 -1 -2 0 0 -1 -1 0 0 -1 -2 0 0 1146 -760 0 0 15 -10c6,10 13,19 19,28zm-838 500l0 0 -352 228c-19,-29 -37,-59 -55,-89l1195 -684 0 0 15 -9c4,8 9,15 13,23l-816 531zm1344 -296l160 961 0 0 68 410 0 0 2 0 0 0 2 -1 0 0 3 0 0 0 2 -1 0 0 3 0 0 0 2 0 0 0 2 -1 0 0 2 0 0 0 1 0 0 0 2 -1 0 0 2 0 3 -1 0 0 2 0 0 0 2 0 0 0 1 -1 4 0 0 0 1 0 0 0 2 -1 0 0 2 0 2 0 1 -1 0 0 2 0 0 0 3 -1 0 0 2 0 0 0 2 0 1 -1 2 0 2 0 2 -1 1 0 2 0 2 -1 0 0 1 0 2 0 4 -1 1 0 2 -1 2 0 1 0 0 0 4 -1 0 0 1 -1 2 0 2 0 0 0 2 -1 1 0 0 0 2 0 2 -1 0 0 1 0 2 0 0 0 2 -1 0 0 1 0 0 0 2 -1 0 0 2 0 0 0 1 0 0 0 2 -1 0 0 2 0 1 0 -300 -1339 0 0 -4 -18c-11,3 -22,5 -33,7zm259 941l0 0 95 405c41,-10 81,-21 120,-33l-401 -1312 0 0 -5 -17c-10,3 -20,6 -31,8l222 949zm-294 -937l2 18 0 0 125 1366 -2 0 -1 1 -2 0 -2 0 0 0 -2 0 -1 0 -2 0 -2 1 -2 0 -1 0 -2 0 0 0 -2 0 -2 0 -1 0 0 0 -2 1 -4 0 -1 0 0 0 -2 0 -2 0 -2 0 -3 1 0 0 -4 0 0 0 -2 0 -1 0 -2 0 -4 0 -1 1 0 0 -2 0 0 0 -4 0 -1 0 -6 0 0 0 -1 0 -2 1 -2 0 -4 0 0 0 -1 0 0 0 -2 0 0 0 -2 0 0 0 -2 0 0 0 -3 0 0 0 -2 0 0 0 -3 1 0 0 -2 0 0 0 -2 0 0 0 -2 0 0 0 -2 0 -1 0 -2 0 -2 0 -2 0 -1 0 -2 0 -2 0 -2 0 -48 -1370 0 0 0 -18c11,-1 23,-1 34,-3zm30 -3l3 17 0 0 214 1356c-34,5 -68,9 -103,13l-42 -414 0 0 -97 -969c8,-1 17,-2 25,-3zm-98 6l-1 18 0 0 -54 1370c-36,-1 -72,-3 -108,-7l127 -1366 0 0 0 0 2 -17c11,1 22,1 34,2zm29 0l26 974 10 415c-16,1 -32,1 -49,1 -18,0 -36,-1 -54,-1l13 -416 0 0 29 -973 12 0 13 0zm-134 -14l-4 17 0 0 -310 1337 2 0 1 1 2 0 2 1 1 0 2 0 2 1 1 0 2 0 2 1 1 0 2 1 0 0 1 0 2 0 2 1 1 0 2 0 2 1 0 0 1 0 2 0 2 1 1 0 2 0 0 0 2 1 0 0 1 0 2 0 2 1 0 0 1 0 2 0 1 1 2 0 0 0 2 0 1 1 0 0 2 0 0 0 2 0 1 1 2 0 2 0 1 1 2 0 2 0 1 1 2 0 0 0 2 0 1 1 2 0 0 0 2 0 1 1 0 0 2 0 2 0 0 0 1 1 0 0 2 0 2 0 1 0 2 1 0 0 2 0 0 0 1 0 0 0 2 1 0 0 2 0 1 0 2 1 2 0 1 0 2 0 239 -1351 0 0 3 -17c-12,-2 -23,-5 -34,-7zm-123 968l0 0 -68 410c38,7 77,12 117,16l42 -414 0 0 98 -969c-9,-1 -18,-2 -28,-4l-161 961zm-108 -1091l-12 13 -1 0 -921 1019 1 1 1 1 2 1 1 1 2 2 0 0 1 1 1 1 2 1 0 0 1 2 2 1 0 0 1 1 1 1 0 0 2 2 1 1 2 1 0 0 1 1 0 0 1 1 0 1 2 1 1 1 2 1 1 1 0 0 1 2 0 0 2 1 0 0 1 1 2 1 1 1 0 0 1 2 2 1 0 0 1 1 2 1 0 0 1 2 1 1 2 1 0 0 1 1 0 0 2 1 1 2 2 1 1 1 1 1 2 1 1 1 0 1 2 1 1 1 2 1 1 1 1 1 2 2 1 1 2 1 1 1 2 1 1 2 2 1 1 1 1 1 2 1 1 1 2 2 0 0 1 1 2 1 1 1 2 1 1 1 1 2 261 -326 357 -445 0 -1 241 -300 0 0 11 -15c-9,-7 -18,-14 -26,-22zm-505 841l0 0 557 -799c-7,-5 -15,-11 -22,-17l-260 330 -600 764c28,22 57,44 87,64l238 -342zm484 -861l-12 13 0 0 -980 963c22,22 44,43 66,64l283 -307 0 0 660 -717c-6,-5 -11,-10 -17,-16zm96 98l10 -15c-10,-6 -20,-12 -29,-18l-10 15 0 0 0 0 -315 460 -460 673 0 0 1 1 0 0 2 1 0 0 1 1 2 1 0 0 1 1 0 0 2 1 3 2 0 0 1 1 0 0 3 2 0 0 2 1 0 0 1 1 0 0 2 1 1 1 0 0 3 2 0 0 2 1 1 1 2 1 1 1 2 1 2 1 0 0 1 1 0 0 2 1 1 1 2 1 0 0 1 1 2 1 0 0 1 1 2 1 1 1 0 0 2 1 0 0 1 1 2 1 0 0 1 1 2 1 0 0 1 1 2 1 2 1 0 0 1 1 0 0 2 1 1 1 2 1 1 1 0 0 2 1 0 0 1 1 0 0 2 1 0 0 1 1 0 0 2 0 0 0 2 1 1 1 0 0 2 1 1 1 0 0 2 1 1 1 2 1 0 0 1 1 2 1 1 1 2 1 2 1 1 1 2 1 706 -1177 0 -1zm-481 827l1 0 -212 359c29,17 57,33 87,48l192 -370 0 0 449 -864c-7,-4 -15,-8 -23,-13l-494 840zm544 -794l7 -17c-10,-4 -20,-9 -30,-14l-8 16 -622 1224 0 0 1 1 0 0 2 0 0 0 2 1 0 0 1 1 0 0 2 1 0 0 1 1 0 0 2 0 0 0 2 1 1 1 0 0 2 1 1 1 0 0 2 0 0 0 2 1 0 0 1 1 0 0 2 1 1 1 0 0 2 0 0 0 2 1 0 0 1 1 0 0 2 1 2 0 1 1 0 0 2 1 0 0 1 1 0 0 2 1 2 0 1 1 2 1 1 1 2 0 0 0 2 1 0 0 1 1 2 1 2 1 0 0 1 0 2 1 2 1 1 1 2 0 1 1 2 1 2 1 1 0 2 1 2 1 1 1 2 0 1 1 1 0 1 1 0 0 2 0 1 1 2 1 2 1 1 0 2 1 2 1 1 1 2 0 0 0 2 1 0 0 1 1 0 0 2 1 0 0 2 0 0 0 1 1 0 0 2 1 0 0 549 -1258 0 0zm-371 881l1 0 -164 383c30,13 60,25 91,36l472 -1289 0 0 7 -16c-9,-3 -17,-7 -25,-10l-382 896zm84 33l0 0 -140 392 0 0 1 0 0 0 2 1 0 0 1 0 0 0 2 1 0 0 2 0 0 0 1 1 0 0 2 1 0 0 1 0 0 0 2 1 0 0 1 0 1 0 1 1 0 0 2 0 0 0 1 1 0 0 2 0 0 0 1 1 0 0 2 0 0 0 2 1 0 0 1 1 0 0 2 0 0 0 1 1 0 0 2 0 0 0 2 1 0 0 1 0 0 0 2 1 0 0 1 0 0 0 2 1 0 0 1 0 0 0 2 1 0 0 2 0 0 0 1 1 0 0 2 0 0 0 1 1 0 0 2 0 0 0 2 1 0 0 1 0 0 0 2 1 0 0 1 0 2 1 2 0 1 1 2 0 0 0 1 1 2 0 2 1 1 0 0 0 2 1 1 0 2 1 2 0 3 1 1 1 2 0 0 0 2 1 1 0 0 0 2 1 2 0 1 1 0 0 2 0 1 1 2 0 2 1 1 0 2 1 389 -1316 0 0 0 0 5 -18c-10,-2 -19,-5 -29,-9l-327 918zm92 29l0 0 -114 400c24,7 48,13 72,19l97 -404 0 0 228 -947c-5,-2 -10,-3 -15,-4l-268 936zm33 -1077l-700 677 0 0 -301 290 -1 -1 -1 -1 -1 -2 -2 -1 0 0 -1 -1 0 0 -3 -4 -1 -1 -2 -1 -1 -1 -2 -3 0 0 -1 -1 0 0 -1 -1 0 0 -2 -2 -1 -1 0 0 -1 -1 0 0 -1 -1 -2 -3 -2 -1 0 0 -1 -1 0 0 -1 -1 0 0 -1 -2 -1 -1 0 0 -3 -2 0 0 -1 -2 -1 -1 -1 -1 -1 -1 0 0 -1 -2 0 0 -3 -2 0 0 -1 -1 0 0 -1 -2 -1 -1 -1 -1 0 0 -1 -1 0 0 -1 -2 -2 -1 0 0 -1 -1 -1 -1 0 0 -1 -2 -1 -1 -1 -1 -1 -2 -2 -1 -1 -1 0 0 -1 -1 -1 -2 -1 -1 -1 -1 -1 -1 -1 -2 -2 -1 -1 -1 -1 -1 0 0 -1 -2 -1 -1 -1 -1 -1 -2 -1 -1 1039 -899 0 0 14 -12c7,8 14,16 21,24zm-766 603l-1 0 -318 271c-22,-25 -43,-51 -63,-78l1094 -832 0 0 14 -11c5,6 10,13 16,19l-742 631zm1661 -1021l18 -2 0 0 0 0 291 -25 1084 -92 0 0 0 1 0 0 1 2 0 0 0 2 0 0 0 2 0 0 0 1 0 0 0 2 0 0 0 2 0 0 0 2 0 0 1 1 0 0 0 2 0 0 0 2 0 0 0 2 0 0 0 1 0 0 0 2 0 0 0 2 0 0 1 2 0 0 0 1 0 0 0 2 0 0 0 2 0 0 0 2 0 0 0 1 0 0 0 2 0 0 0 2 0 0 1 2 0 0 0 1 0 0 0 2 0 0 0 2 0 0 0 1 0 1 0 1 0 0 0 2 0 0 0 2 0 0 0 2 0 0 0 1 0 0 1 2 0 0 0 2 0 0 0 2 0 0 0 1 0 0 0 2 0 0 0 2 0 0 0 2 0 0 0 1 0 0 0 2 0 0 0 2 0 0 0 2 0 0 1 1 0 0 0 2 0 0 0 2 0 0 0 2 0 0 0 1 0 0 0 2 0 0 0 2 0 0 0 2 0 0 0 1 0 0 0 2 0 0 0 2 0 0 0 2 0 0 0 1 0 0 1 2 0 0 0 2 0 0 0 2 0 0 0 1 0 0 0 2 0 0 0 2 0 0 0 2 0 0 -423 13 0 0 -974 29c-1,-12 -1,-23 -3,-35zm977 99l0 1 -974 -36 0 -8c0,-5 0,-11 0,-16l18 -1 0 0 1379 -29c0,13 1,25 1,38 0,23 -1,45 -2,67l-422 -16zm-988 -166l17 -4 0 -1 1349 -295 0 0 1 1 0 0 0 2 0 0 1 2 0 0 0 2 0 0 0 1 0 0 1 4 0 0 0 1 0 0 1 2 0 0 0 2 0 0 0 2 0 0 1 1 0 0 0 2 0 0 1 3 0 0 0 2 0 0 1 2 0 0 0 2 0 0 0 1 0 0 1 2 0 0 0 2 0 0 1 3 0 0 0 2 0 0 0 2 0 0 1 1 0 0 0 2 0 0 0 2 0 0 1 3 0 0 0 2 0 0 3 12 0 0 0 2 0 0 1 5 0 0 1 3 0 0 0 5 0 1 1 1 0 0 0 2 0 0 1 7 0 0 1 2 0 0 0 1 0 0 0 4 0 0 1 2 0 0 0 1 0 0 0 2 0 0 1 2 0 0 0 3 0 0 0 2 0 0 -419 68 0 0 -961 157c-2,-12 -5,-24 -7,-35zm981 -29l0 0 -970 91c-1,-7 -2,-15 -3,-23l17 -2 0 -1 1365 -209c5,34 10,69 13,104l-422 40zm-1001 -33l17 -6 0 0 1300 -471 0 0 1 2 0 0 1 2 0 0 0 1 0 1 1 1 0 0 0 2 0 0 2 3 0 0 0 2 0 0 1 2 0 0 0 1 0 0 1 2 0 0 1 2 0 0 1 5 0 0 1 2 0 0 1 3 0 0 1 2 0 0 1 3 0 0 0 2 0 0 1 2 0 0 3 8 0 0 0 2 0 0 2 3 0 0 0 2 1 3 0 0 1 4 0 0 1 2 0 0 0 1 0 0 1 2 1 2 0 0 1 5 0 0 1 2 0 0 0 1 1 2 0 0 0 2 0 0 1 2 1 3 0 0 1 2 0 1 0 0 1 2 0 2 0 0 1 2 0 1 0 0 1 2 0 2 1 2 0 0 0 1 1 2 0 2 0 0 1 2 0 1 -408 122 0 0 -933 277c-4,-10 -7,-21 -12,-32zm968 -160l0 0 -950 217c-1,-7 -3,-13 -5,-20l17 -5 0 0 1328 -382c9,31 17,63 25,95l-415 95z"/>
    <circle class="fil9" cx="1919" cy="1919" r="631"/>
    <path class="fil10" d="M1423 1810c60,-274 331,-448 605,-387 275,60 448,331 388,605 -60,275 -331,448 -606,388 -274,-60 -448,-331 -387,-606z"/>
    <path class="fil11" d="M1688 1501c103,0 187,84 187,187 0,103 -84,187 -187,187 -103,0 -187,-84 -187,-187 0,-103 84,-187 187,-187z"/>
   </g>
  </g>
 </g>
</svg>
