<?xml version="1.0" encoding="UTF-8"?>
<!DOCTYPE svg PUBLIC "-//W3C//DTD SVG 1.1//EN" "http://www.w3.org/Graphics/SVG/1.1/DTD/svg11.dtd">
<!-- Creator: CorelDRAW X8 -->
<svg xmlns="http://www.w3.org/2000/svg" xml:space="preserve" width="92.596mm" height="73.157mm" version="1.1" style="shape-rendering:geometricPrecision; text-rendering:geometricPrecision; image-rendering:optimizeQuality; fill-rule:evenodd; clip-rule:evenodd"
viewBox="0 0 9260 7316"
 xmlns:xlink="http://www.w3.org/1999/xlink">
 <defs>
  <style type="text/css">
   <![CDATA[
    .fil0 {fill:#FF8C3D;fill-rule:nonzero}
   ]]>
  </style>
 </defs>
 <g id="Слой_x0020_1">
  <metadata id="CorelCorpID_0Corel-Layer"/>
  <g id="_2075232224928">
   <g id="_1794299341968">
    <path class="fil0" d="M4385 3223c68,52 151,80 234,80 83,0 166,-28 234,-80l3933 -2992c-188,-151 -415,-231 -646,-231 -6,0 -9,0 -15,0l-7012 0c-230,0 -455,80 -643,228l3912 2995 3 0z"/>
    <path class="fil0" d="M5234 3826c-178,135 -394,209 -609,209 -218,0 -430,-74 -609,-209l-3942 -3017c-46,135 -71,283 -74,427l0 4847c3,682 501,1233 1119,1233 0,0 0,0 0,0l7027 0c615,-3 1114,-554 1114,-1233l0 -4847c0,-144 -25,-286 -71,-421l-3955 3011z"/>
   </g>
  </g>
 </g>
</svg>
