<?xml version="1.0" encoding="UTF-8"?>
<!DOCTYPE svg PUBLIC "-//W3C//DTD SVG 1.0//EN" "http://www.w3.org/TR/2001/REC-SVG-20010904/DTD/svg10.dtd">
<!-- Creator: CorelDRAW 2020 (64-Bit) -->
<svg xmlns="http://www.w3.org/2000/svg" xml:space="preserve" width="65.4747mm" height="64.4687mm" version="1.0" style="shape-rendering:geometricPrecision; text-rendering:geometricPrecision; image-rendering:optimizeQuality; fill-rule:evenodd; clip-rule:evenodd"
viewBox="0 0 40.36 39.74"
 xmlns:xlink="http://www.w3.org/1999/xlink"
 xmlns:xodm="http://www.corel.com/coreldraw/odm/2003">
 <defs>
  <style type="text/css">
   <![CDATA[
    .fil0 {fill:#858585;fill-rule:nonzero}
    .fil1 {fill:url(#id0);fill-rule:nonzero}
   ]]>
  </style>
  <linearGradient id="id0" gradientUnits="userSpaceOnUse" x1="20.18" y1="8.73" x2="20.18" y2="31.01">
   <stop offset="0" style="stop-opacity:1; stop-color:#207953"/>
   <stop offset="0.411765" style="stop-opacity:1; stop-color:#3F7C50"/>
   <stop offset="0.509804" style="stop-opacity:1; stop-color:#E78A41"/>
   <stop offset="1" style="stop-opacity:1; stop-color:#FF8C3F"/>
  </linearGradient>
 </defs>
 <g id="Layer_x0020_1">
  <metadata id="CorelCorpID_0Corel-Layer"/>
  <g id="_2767493689808">
   <path class="fil0" d="M3.39 17.78c-0,0.03 -0.01,0.05 -0.03,0.06 -0.02,0.01 -0.04,0.02 -0.06,0.02l-0.46 -0.03 -0.14 1.93c-0,0.03 -0.01,0.05 -0.03,0.06 -0.02,0.01 -0.04,0.02 -0.07,0.02l-2.53 -0.18c-0.03,-0 -0.05,-0.01 -0.06,-0.03 -0.01,-0.02 -0.02,-0.04 -0.02,-0.06l0 -0.07c0,-0.03 0.01,-0.05 0.03,-0.06 0.02,-0.02 0.04,-0.02 0.06,-0.02l2.39 0.17 0.11 -1.49 -2.39 -0.17c-0.03,-0 -0.05,-0.01 -0.06,-0.03 -0.01,-0.02 -0.02,-0.04 -0.02,-0.06l0 -0.07c0,-0.03 0.01,-0.05 0.03,-0.06 0.02,-0.02 0.04,-0.02 0.06,-0.02l2.39 0.17 0.01 -0.19c0,-0.03 0.01,-0.05 0.03,-0.06 0.02,-0.02 0.04,-0.02 0.06,-0.02l0.6 0.04c0.03,0 0.05,0.01 0.06,0.03 0.01,0.02 0.02,0.04 0.02,0.07l-0 0.07zm-0.1 -2.13c-0.06,0.24 -0.18,0.41 -0.37,0.52 -0.19,0.11 -0.42,0.14 -0.69,0.1l-0.15 -0.03 -0.15 -0.04c-0.26,-0.08 -0.45,-0.21 -0.57,-0.39 -0.12,-0.18 -0.16,-0.39 -0.1,-0.63 0.06,-0.26 0.19,-0.45 0.4,-0.55 0.21,-0.11 0.46,-0.13 0.76,-0.05l0.06 0.01c0.03,0.01 0.04,0.02 0.05,0.04 0.01,0.02 0.01,0.04 0.01,0.07l-0.31 1.34 0.04 0.01c0.12,0.02 0.24,0.02 0.35,-0 0.11,-0.03 0.21,-0.07 0.29,-0.15 0.08,-0.07 0.14,-0.17 0.16,-0.29 0.03,-0.14 0.03,-0.26 -0,-0.36 -0.03,-0.1 -0.07,-0.17 -0.12,-0.22 -0.02,-0.03 -0.04,-0.05 -0.04,-0.06 -0,-0.01 -0,-0.03 0,-0.06l0.01 -0.06c0.01,-0.02 0.02,-0.04 0.03,-0.05 0.02,-0.01 0.03,-0.02 0.05,-0.01 0.05,0.01 0.11,0.06 0.17,0.14 0.06,0.08 0.1,0.19 0.13,0.32 0.03,0.13 0.02,0.27 -0.01,0.42zm-0.99 -0.87l-0.02 -0c-0.19,-0.04 -0.37,-0.03 -0.52,0.05 -0.15,0.08 -0.25,0.21 -0.29,0.4 -0.04,0.18 -0.01,0.34 0.09,0.48 0.1,0.14 0.25,0.23 0.44,0.27l0.02 0 0.28 -1.2zm1.6 -1.3c-0.01,0.02 -0.03,0.04 -0.05,0.05 -0.02,0.01 -0.04,0.01 -0.07,-0l-1.68 -0.76c-0.02,-0.01 -0.04,-0.03 -0.05,-0.05 -0.01,-0.02 -0.01,-0.04 0,-0.07l0.03 -0.06c0.01,-0.02 0.03,-0.04 0.05,-0.05 0.02,-0.01 0.04,-0.01 0.07,0l0.71 0.33 0.5 -1.1 -0.71 -0.33c-0.02,-0.01 -0.04,-0.03 -0.05,-0.05 -0.01,-0.02 -0.01,-0.04 0,-0.07l0.03 -0.06c0.01,-0.02 0.03,-0.04 0.05,-0.05 0.02,-0.01 0.04,-0.01 0.07,0l1.68 0.76c0.02,0.01 0.04,0.03 0.05,0.05 0.01,0.02 0.01,0.04 -0,0.07l-0.03 0.06c-0.01,0.02 -0.03,0.04 -0.05,0.05 -0.02,0.01 -0.04,0.01 -0.07,-0l-0.76 -0.34 -0.5 1.1 0.76 0.34c0.02,0.01 0.04,0.03 0.05,0.05 0.01,0.02 0.01,0.04 -0,0.07l-0.03 0.06zm1.67 -3.23c-0.01,0.02 -0.03,0.03 -0.05,0.04 -0.02,0 -0.04,0 -0.06,-0.01l-1.43 -0.92 -0.38 0.6c-0.01,0.02 -0.03,0.03 -0.05,0.04 -0.02,0 -0.04,-0 -0.06,-0.01l-0.05 -0.03c-0.02,-0.01 -0.03,-0.03 -0.04,-0.05 -0,-0.02 0,-0.04 0.01,-0.06l0.9 -1.39c0.01,-0.02 0.03,-0.03 0.05,-0.04 0.02,-0 0.04,0 0.06,0.01l0.05 0.03c0.02,0.01 0.03,0.03 0.04,0.05 0,0.02 0,0.04 -0.01,0.06l-0.38 0.6 1.43 0.92c0.02,0.01 0.03,0.03 0.04,0.05 0,0.02 -0,0.04 -0.01,0.06l-0.04 0.06zm1.85 -1.29c-0.02,0.02 -0.04,0.03 -0.06,0.03 -0.02,0 -0.04,-0.01 -0.06,-0.02l-1.95 -1.69c-0.02,-0.02 -0.03,-0.04 -0.03,-0.06 -0,-0.02 0.01,-0.04 0.02,-0.06l0.04 -0.05c0.02,-0.02 0.04,-0.03 0.06,-0.03 0.02,-0 0.04,0.01 0.06,0.02l0.14 0.12c-0.06,-0.25 0.01,-0.48 0.2,-0.69 0.18,-0.21 0.38,-0.31 0.6,-0.29 0.22,0.02 0.43,0.11 0.63,0.27 0.02,0.01 0.05,0.04 0.1,0.08 0.04,0.04 0.08,0.07 0.09,0.09 0.19,0.18 0.31,0.37 0.35,0.59 0.05,0.22 -0.02,0.43 -0.2,0.64 -0.18,0.21 -0.4,0.31 -0.66,0.29l0.69 0.6c0.02,0.02 0.03,0.04 0.03,0.06 0,0.02 -0.01,0.04 -0.02,0.06l-0.04 0.05zm-0.19 -1.19c0.14,-0.16 0.19,-0.32 0.15,-0.48 -0.04,-0.16 -0.13,-0.31 -0.28,-0.45 -0.02,-0.02 -0.04,-0.04 -0.08,-0.07 -0.18,-0.16 -0.36,-0.25 -0.54,-0.28 -0.18,-0.03 -0.34,0.04 -0.49,0.21 -0.13,0.15 -0.18,0.31 -0.15,0.48 0.03,0.17 0.12,0.31 0.25,0.44l0.11 0.1 0.12 0.1c0.09,0.07 0.18,0.12 0.29,0.15 0.11,0.03 0.21,0.03 0.32,0 0.11,-0.03 0.21,-0.09 0.3,-0.2zm3.94 -3.01c-0.56,0.36 -1.04,0.24 -1.44,-0.35 -0.04,-0.06 -0.1,-0.15 -0.18,-0.27 -0.07,-0.12 -0.13,-0.21 -0.17,-0.28 -0.18,-0.3 -0.24,-0.58 -0.19,-0.83 0.06,-0.25 0.21,-0.46 0.47,-0.62 0.26,-0.17 0.52,-0.22 0.77,-0.17 0.25,0.06 0.47,0.23 0.67,0.52 0.09,0.13 0.15,0.22 0.18,0.27 0.03,0.05 0.09,0.14 0.17,0.28 0.37,0.61 0.27,1.09 -0.29,1.45zm-0.12 -0.2c0.2,-0.12 0.31,-0.28 0.35,-0.48 0.04,-0.19 -0.01,-0.41 -0.16,-0.66 -0.08,-0.13 -0.13,-0.22 -0.16,-0.26 -0.03,-0.04 -0.08,-0.13 -0.17,-0.25 -0.16,-0.24 -0.34,-0.38 -0.54,-0.42 -0.19,-0.04 -0.39,-0 -0.58,0.12 -0.19,0.12 -0.31,0.28 -0.35,0.48 -0.04,0.19 0.01,0.41 0.16,0.66 0.04,0.07 0.09,0.15 0.16,0.26 0.07,0.11 0.12,0.19 0.17,0.26 0.16,0.24 0.34,0.38 0.53,0.42 0.19,0.04 0.39,0 0.58,-0.12zm3.37 -0.65c-0.02,0.01 -0.05,0.01 -0.07,0 -0.02,-0.01 -0.03,-0.03 -0.04,-0.05l-0.24 -0.6c-0.3,0.12 -0.55,0.13 -0.76,0.04 -0.21,-0.09 -0.36,-0.26 -0.48,-0.5l-0.05 -0.11 -0.04 -0.12c-0.09,-0.25 -0.09,-0.48 0,-0.69 0.09,-0.21 0.28,-0.37 0.58,-0.49l-0.24 -0.6c-0.01,-0.02 -0.01,-0.05 -0,-0.07 0.01,-0.02 0.03,-0.03 0.05,-0.04l0.06 -0.02c0.02,-0.01 0.05,-0.01 0.07,-0 0.02,0.01 0.03,0.03 0.04,0.05l0.24 0.6c0.3,-0.12 0.55,-0.13 0.76,-0.04 0.21,0.09 0.36,0.26 0.48,0.5 0.01,0.02 0.03,0.06 0.05,0.11 0.02,0.05 0.03,0.09 0.04,0.12 0.09,0.25 0.09,0.48 -0,0.69 -0.09,0.21 -0.28,0.37 -0.58,0.49l0.24 0.6c0.01,0.02 0.01,0.05 0,0.07 -0.01,0.02 -0.03,0.03 -0.05,0.04l-0.06 0.02zm-1.01 -2.31c-0.44,0.17 -0.58,0.47 -0.44,0.9l0.03 0.1 0.04 0.1c0.19,0.41 0.5,0.53 0.94,0.36l-0.58 -1.45zm0.79 1.37c0.44,-0.17 0.58,-0.47 0.44,-0.9 -0.01,-0.02 -0.02,-0.06 -0.03,-0.1 -0.02,-0.04 -0.03,-0.07 -0.04,-0.1 -0.19,-0.41 -0.5,-0.53 -0.94,-0.36l0.58 1.45zm2.89 -0.59c-0.03,0 -0.05,0 -0.07,-0.01 -0.02,-0.01 -0.03,-0.03 -0.03,-0.06l-0.3 -1.68 -0.7 0.12c-0.03,0 -0.05,0 -0.07,-0.01 -0.02,-0.01 -0.03,-0.03 -0.03,-0.06l-0.01 -0.05c-0,-0.03 -0,-0.05 0.01,-0.06 0.01,-0.02 0.03,-0.03 0.06,-0.03l1.63 -0.29c0.03,-0 0.05,-0 0.06,0.01 0.02,0.01 0.03,0.03 0.03,0.06l0.01 0.05c0,0.03 0,0.05 -0.01,0.07 -0.01,0.02 -0.03,0.03 -0.06,0.03l-0.7 0.12 0.3 1.68c0,0.03 0,0.05 -0.01,0.06 -0.01,0.02 -0.03,0.03 -0.06,0.03l-0.06 0.01zm2.63 -0.28c-0.12,0 -0.24,-0.02 -0.35,-0.07 -0.11,-0.05 -0.19,-0.12 -0.26,-0.2 -0.07,-0.09 -0.1,-0.18 -0.1,-0.29 -0,-0.17 0.06,-0.31 0.2,-0.42 0.14,-0.11 0.32,-0.19 0.55,-0.22l0.61 -0.1 -0 -0.14c-0,-0.14 -0.05,-0.25 -0.14,-0.32 -0.09,-0.07 -0.22,-0.11 -0.4,-0.1 -0.13,0 -0.24,0.03 -0.32,0.09 -0.08,0.05 -0.13,0.12 -0.16,0.19 -0.01,0.03 -0.02,0.05 -0.04,0.06 -0.01,0.01 -0.03,0.02 -0.06,0.02l-0.05 0c-0.02,0 -0.04,-0.01 -0.06,-0.02 -0.02,-0.02 -0.03,-0.04 -0.03,-0.06 -0,-0.06 0.02,-0.12 0.07,-0.2 0.05,-0.08 0.13,-0.15 0.23,-0.21 0.11,-0.06 0.24,-0.09 0.4,-0.1 0.28,-0.01 0.47,0.05 0.59,0.18 0.12,0.13 0.18,0.29 0.19,0.48l0.03 1.29c0,0.03 -0.01,0.05 -0.02,0.06 -0.02,0.02 -0.04,0.02 -0.06,0.02l-0.07 0c-0.03,0 -0.05,-0.01 -0.06,-0.02 -0.02,-0.02 -0.02,-0.04 -0.02,-0.06l-0 -0.18c-0.05,0.09 -0.14,0.16 -0.24,0.22 -0.11,0.06 -0.25,0.1 -0.43,0.1zm0.03 -0.23c0.19,-0 0.34,-0.07 0.46,-0.2 0.12,-0.13 0.17,-0.31 0.17,-0.54l-0 -0.13 -0.5 0.08c-0.21,0.03 -0.37,0.09 -0.48,0.16 -0.11,0.07 -0.16,0.16 -0.16,0.27 0,0.12 0.05,0.21 0.16,0.27 0.1,0.06 0.22,0.09 0.35,0.09zm2.17 0.19c-0.03,-0 -0.05,-0.01 -0.06,-0.03 -0.01,-0.02 -0.02,-0.04 -0.02,-0.07l0.01 -0.06c0,-0.02 0.01,-0.04 0.03,-0.05 0.02,-0.01 0.04,-0.02 0.06,-0.02 0.13,0.02 0.24,-0.07 0.34,-0.25 0.09,-0.18 0.17,-0.48 0.22,-0.91l0.06 -0.47c0,-0.03 0.01,-0.05 0.03,-0.06 0.02,-0.01 0.04,-0.02 0.06,-0.02l1.1 0.14c0.03,0 0.05,0.01 0.06,0.03 0.01,0.02 0.02,0.04 0.02,0.06l-0.23 1.83c-0,0.03 -0.01,0.05 -0.03,0.06 -0.02,0.01 -0.04,0.02 -0.06,0.02l-0.07 -0.01c-0.03,-0 -0.05,-0.01 -0.06,-0.03 -0.01,-0.02 -0.02,-0.04 -0.02,-0.06l0.21 -1.69 -0.8 -0.1 -0.05 0.36c-0.12,0.94 -0.39,1.39 -0.81,1.33zm3.13 0.53c-0.02,-0.01 -0.04,-0.02 -0.05,-0.04 -0.01,-0.02 -0.01,-0.04 -0.01,-0.07l0.51 -1.77c0.01,-0.02 0.02,-0.04 0.04,-0.05 0.02,-0.01 0.04,-0.01 0.07,-0.01l0.06 0.02c0.02,0.01 0.04,0.02 0.05,0.04 0.01,0.02 0.01,0.04 0.01,0.07l-0.16 0.57 0.45 0.13c0.47,0.13 0.64,0.42 0.52,0.86 -0.06,0.22 -0.17,0.36 -0.32,0.43 -0.15,0.07 -0.36,0.06 -0.62,-0.01l-0.54 -0.15zm0.63 -0.05c0.18,0.05 0.31,0.06 0.41,0.02 0.1,-0.04 0.17,-0.14 0.21,-0.29 0.04,-0.15 0.04,-0.27 -0.02,-0.37 -0.06,-0.09 -0.17,-0.17 -0.35,-0.22l-0.42 -0.12 -0.24 0.86 0.42 0.12zm4.38 -0.11c0.02,0.01 0.03,0.02 0.04,0.05 0.01,0.02 0.01,0.04 -0,0.06l-0.84 1.65c-0.01,0.02 -0.03,0.04 -0.05,0.04 -0.02,0.01 -0.04,0 -0.07,-0.01l-0.06 -0.03c-0.02,-0.01 -0.04,-0.03 -0.04,-0.05 -0.01,-0.02 -0,-0.04 0.01,-0.07l0.66 -1.29 -1 0.72c-0.03,0.02 -0.06,0.04 -0.09,0.05 -0.02,0.01 -0.05,0 -0.08,-0.01l-0.07 -0.04c-0.03,-0.02 -0.05,-0.03 -0.05,-0.06 -0.01,-0.02 -0.01,-0.06 -0.01,-0.1l-0.02 -1.2 -0.64 1.26c-0.01,0.02 -0.03,0.04 -0.05,0.04 -0.02,0.01 -0.04,0 -0.07,-0.01l-0.06 -0.03c-0.02,-0.01 -0.04,-0.03 -0.04,-0.05 -0.01,-0.02 -0,-0.04 0.01,-0.07l0.84 -1.65c0.01,-0.02 0.02,-0.03 0.04,-0.03 0.02,-0.01 0.04,-0.01 0.06,0l0.08 0.04c0.03,0.02 0.05,0.05 0.05,0.09l0.02 1.53 1.25 -0.88c0.04,-0.03 0.07,-0.03 0.11,-0.01l0.08 0.04zm0.97 3.04c-0.22,-0.15 -0.34,-0.34 -0.37,-0.56 -0.03,-0.22 0.03,-0.44 0.18,-0.65l0.09 -0.13 0.1 -0.13c0.16,-0.21 0.34,-0.34 0.56,-0.38 0.22,-0.05 0.43,0.01 0.65,0.16 0.22,0.15 0.34,0.34 0.37,0.56 0.03,0.22 -0.03,0.44 -0.18,0.65 -0.01,0.02 -0.04,0.07 -0.09,0.13 -0.05,0.07 -0.08,0.11 -0.1,0.13 -0.16,0.21 -0.34,0.34 -0.56,0.38 -0.22,0.05 -0.43,-0.01 -0.65,-0.16zm0.13 -0.18c0.15,0.11 0.3,0.14 0.46,0.11 0.16,-0.03 0.3,-0.13 0.44,-0.31 0.02,-0.02 0.05,-0.06 0.09,-0.11 0.04,-0.06 0.07,-0.1 0.08,-0.12 0.12,-0.18 0.17,-0.35 0.14,-0.51 -0.02,-0.16 -0.11,-0.29 -0.26,-0.4 -0.15,-0.11 -0.3,-0.14 -0.46,-0.11 -0.16,0.03 -0.3,0.13 -0.44,0.31l-0.09 0.11 -0.08 0.12c-0.12,0.18 -0.17,0.35 -0.14,0.51 0.02,0.16 0.11,0.29 0.26,0.4zm1.49 1.4c-0.02,-0.02 -0.03,-0.04 -0.03,-0.06 0,-0.02 0.01,-0.04 0.03,-0.06l0.04 -0.04c0.02,-0.02 0.04,-0.02 0.06,-0.02 0.02,-0 0.04,0.01 0.06,0.02 0.09,0.1 0.23,0.1 0.42,0.02 0.19,-0.08 0.44,-0.27 0.75,-0.57l0.34 -0.33c0.02,-0.02 0.04,-0.03 0.06,-0.03 0.02,0 0.04,0.01 0.06,0.03l0.76 0.8c0.02,0.02 0.03,0.04 0.03,0.06 -0,0.02 -0.01,0.04 -0.03,0.06l-1.33 1.27c-0.02,0.02 -0.04,0.03 -0.06,0.03 -0.02,-0 -0.04,-0.01 -0.06,-0.03l-0.05 -0.05c-0.02,-0.02 -0.03,-0.04 -0.03,-0.06 0,-0.02 0.01,-0.04 0.03,-0.06l1.23 -1.18 -0.56 -0.58 -0.26 0.25c-0.69,0.66 -1.18,0.83 -1.47,0.53zm2.48 2.95c-0.15,-0.22 -0.21,-0.44 -0.16,-0.65 0.05,-0.22 0.18,-0.4 0.38,-0.56l0.13 -0.1 0.13 -0.09c0.22,-0.14 0.44,-0.2 0.65,-0.18 0.22,0.03 0.41,0.15 0.56,0.37 0.15,0.22 0.21,0.44 0.16,0.65 -0.05,0.22 -0.18,0.4 -0.38,0.56 -0.02,0.02 -0.06,0.05 -0.13,0.1 -0.07,0.05 -0.11,0.08 -0.13,0.09 -0.22,0.14 -0.44,0.2 -0.65,0.18 -0.22,-0.03 -0.41,-0.15 -0.56,-0.37zm0.18 -0.13c0.11,0.15 0.24,0.24 0.4,0.26 0.16,0.02 0.33,-0.02 0.51,-0.14 0.02,-0.01 0.06,-0.04 0.12,-0.08 0.06,-0.04 0.1,-0.07 0.11,-0.09 0.17,-0.13 0.27,-0.28 0.31,-0.44 0.03,-0.16 -0.01,-0.31 -0.11,-0.46 -0.11,-0.15 -0.24,-0.24 -0.4,-0.26 -0.16,-0.02 -0.33,0.02 -0.51,0.14l-0.12 0.08 -0.11 0.09c-0.17,0.13 -0.27,0.28 -0.31,0.44 -0.03,0.16 0.01,0.31 0.11,0.46zm1.04 2.04c-0.01,-0.02 -0.01,-0.04 -0.01,-0.07 0.01,-0.02 0.02,-0.04 0.04,-0.05l1.64 -0.84c0.02,-0.01 0.04,-0.01 0.07,-0.01 0.02,0.01 0.04,0.02 0.05,0.04l0.5 0.97c0.01,0.02 0.01,0.04 0.01,0.07 -0.01,0.02 -0.02,0.04 -0.04,0.05l-0.05 0.02c-0.02,0.01 -0.04,0.01 -0.07,0.01 -0.02,-0.01 -0.04,-0.02 -0.05,-0.04l-0.43 -0.84 -1.51 0.78c-0.02,0.01 -0.04,0.01 -0.07,0.01 -0.02,-0.01 -0.04,-0.02 -0.05,-0.04l-0.03 -0.06zm3.37 3.01c0.01,0.02 0,0.04 -0.01,0.06 -0.01,0.02 -0.02,0.03 -0.04,0.04l-1.76 0.58c-0.02,0.01 -0.05,0.01 -0.07,-0 -0.02,-0.01 -0.03,-0.03 -0.04,-0.05l-0.02 -0.06c-0.01,-0.02 -0.01,-0.05 0,-0.07 0.01,-0.02 0.03,-0.03 0.05,-0.04l1.45 -0.48 -1.85 -0.64c-0.05,-0.01 -0.07,-0.04 -0.09,-0.08l-0.02 -0.07c-0.01,-0.02 -0,-0.04 0.01,-0.06 0.01,-0.02 0.02,-0.03 0.04,-0.04l1.76 -0.58c0.02,-0.01 0.05,-0.01 0.07,0 0.02,0.01 0.03,0.03 0.04,0.05l0.02 0.06c0.01,0.02 0.01,0.05 -0,0.07 -0.01,0.02 -0.03,0.03 -0.05,0.04l-1.45 0.48 1.85 0.64c0.05,0.01 0.07,0.04 0.09,0.08l0.02 0.07zm0.62 3.43c0,0.02 -0,0.04 -0.02,0.06 -0.01,0.02 -0.03,0.03 -0.05,0.03l-1.84 0.24c-0.03,0 -0.05,-0 -0.06,-0.01 -0.02,-0.01 -0.03,-0.03 -0.03,-0.06l-0.01 -0.07c-0,-0.03 0,-0.05 0.01,-0.06 0.01,-0.02 0.03,-0.03 0.06,-0.03l1.52 -0.2 -1.7 -0.98c-0.04,-0.02 -0.07,-0.05 -0.07,-0.09l-0.01 -0.07c-0,-0.02 0,-0.04 0.02,-0.06 0.01,-0.02 0.03,-0.03 0.05,-0.03l1.83 -0.24c0.03,-0 0.05,0 0.06,0.01 0.02,0.01 0.03,0.03 0.03,0.06l0.01 0.07c0,0.03 -0,0.05 -0.01,0.06 -0.01,0.02 -0.03,0.03 -0.06,0.03l-1.52 0.2 1.7 0.98c0.04,0.02 0.07,0.05 0.07,0.09l0.01 0.07zm-2.01 3.64c0,-0.03 0.01,-0.05 0.03,-0.06 0.02,-0.01 0.04,-0.02 0.06,-0.02l1.83 0.23c0.03,0 0.05,0.01 0.06,0.03 0.01,0.02 0.02,0.04 0.02,0.06l-0.1 0.76c-0.03,0.21 -0.09,0.36 -0.2,0.47 -0.11,0.1 -0.24,0.15 -0.4,0.13 -0.12,-0.01 -0.2,-0.05 -0.26,-0.1 -0.06,-0.05 -0.1,-0.13 -0.13,-0.23 -0.05,0.09 -0.12,0.16 -0.22,0.2 -0.1,0.04 -0.2,0.06 -0.31,0.04 -0.18,-0.02 -0.31,-0.1 -0.39,-0.23 -0.08,-0.13 -0.11,-0.31 -0.08,-0.52l0.1 -0.78zm1.03 0.86c-0.02,0.14 0,0.26 0.05,0.35 0.05,0.09 0.13,0.15 0.25,0.16 0.11,0.01 0.19,-0.02 0.25,-0.09 0.06,-0.07 0.09,-0.19 0.11,-0.33l0.07 -0.57 -0.66 -0.08 -0.07 0.57zm-0.9 -0.09c-0.02,0.15 -0,0.27 0.04,0.36 0.05,0.09 0.12,0.15 0.23,0.16 0.12,0.01 0.21,-0.01 0.27,-0.08 0.06,-0.07 0.11,-0.19 0.13,-0.35l0.08 -0.6 -0.67 -0.08 -0.08 0.6zm-1.79 5.49c-0.01,0 -0.02,-0 -0.04,-0.01 -0.02,-0.01 -0.04,-0.03 -0.05,-0.05 -0.01,-0.02 -0.01,-0.05 0,-0.07l0.03 -0.06c0.02,-0.04 0.04,-0.06 0.08,-0.06l1.43 -0.25 0.22 -0.49 -1.07 -0.48c-0.02,-0.01 -0.04,-0.03 -0.05,-0.05 -0.01,-0.02 -0.01,-0.04 0,-0.07l0.03 -0.06c0.01,-0.02 0.03,-0.04 0.05,-0.05 0.02,-0.01 0.04,-0.01 0.07,0l2.31 1.04c0.02,0.01 0.04,0.03 0.05,0.05 0.01,0.02 0.01,0.04 -0,0.07l-0.03 0.06c-0.01,0.03 -0.03,0.04 -0.05,0.05 -0.02,0.01 -0.04,0.01 -0.07,-0.01l-1.03 -0.46 -0.22 0.47 0.76 1.15c0.02,0.04 0.02,0.09 0,0.14l-0.03 0.06c-0.02,0.05 -0.06,0.06 -0.1,0.04 -0.01,-0.01 -0.02,-0.02 -0.04,-0.04l-0.77 -1.18 -1.49 0.24zm-1.07 1.51c0.07,-0.1 0.15,-0.19 0.25,-0.25 0.1,-0.06 0.2,-0.09 0.31,-0.1 0.11,-0.01 0.21,0.02 0.3,0.08 0.14,0.09 0.22,0.23 0.24,0.4 0.02,0.17 -0.03,0.37 -0.13,0.58l-0.26 0.56 0.11 0.07c0.12,0.08 0.23,0.1 0.35,0.07 0.11,-0.03 0.21,-0.12 0.31,-0.27 0.07,-0.11 0.11,-0.22 0.11,-0.31 0,-0.1 -0.02,-0.18 -0.07,-0.24 -0.02,-0.03 -0.03,-0.05 -0.03,-0.07 -0,-0.02 0,-0.04 0.02,-0.06l0.03 -0.05c0.01,-0.02 0.03,-0.03 0.05,-0.04 0.02,-0.01 0.04,-0 0.06,0.01 0.05,0.03 0.09,0.09 0.13,0.17 0.04,0.08 0.05,0.19 0.04,0.31 -0.01,0.12 -0.06,0.25 -0.14,0.38 -0.15,0.23 -0.31,0.36 -0.48,0.39 -0.17,0.03 -0.34,-0.01 -0.5,-0.11l-1.08 -0.7c-0.02,-0.01 -0.03,-0.03 -0.04,-0.05 -0,-0.02 0,-0.04 0.01,-0.06l0.04 -0.06c0.01,-0.02 0.03,-0.03 0.05,-0.04 0.02,-0 0.04,0 0.06,0.01l0.15 0.1c-0.04,-0.09 -0.06,-0.2 -0.05,-0.33 0.01,-0.12 0.06,-0.26 0.16,-0.41zm0.17 0.15c-0.1,0.16 -0.13,0.32 -0.1,0.49 0.04,0.17 0.16,0.32 0.35,0.44l0.11 0.07 0.21 -0.46c0.09,-0.19 0.14,-0.35 0.14,-0.48 0,-0.13 -0.04,-0.22 -0.13,-0.28 -0.1,-0.06 -0.2,-0.07 -0.31,-0.02 -0.11,0.05 -0.2,0.13 -0.27,0.24zm-2.07 1.33c0.02,-0.02 0.04,-0.03 0.06,-0.03 0.02,-0 0.04,0.01 0.06,0.03l1.87 1.78c0.02,0.02 0.03,0.04 0.03,0.06 0,0.02 -0.01,0.04 -0.03,0.06l-0.05 0.05c-0.02,0.02 -0.04,0.03 -0.06,0.03 -0.02,0 -0.04,-0.01 -0.06,-0.03l-0.13 -0.13c0.04,0.25 -0.03,0.48 -0.23,0.68 -0.19,0.2 -0.4,0.29 -0.62,0.26 -0.22,-0.03 -0.43,-0.12 -0.62,-0.3 -0.02,-0.02 -0.05,-0.04 -0.1,-0.09 -0.04,-0.04 -0.07,-0.07 -0.09,-0.09 -0.18,-0.18 -0.29,-0.38 -0.33,-0.6 -0.04,-0.22 0.04,-0.43 0.23,-0.63 0.19,-0.2 0.42,-0.29 0.67,-0.26l-0.66 -0.63c-0.02,-0.02 -0.03,-0.04 -0.03,-0.06 -0,-0.02 0.01,-0.04 0.03,-0.06l0.05 -0.05zm0.13 1.2c-0.14,0.15 -0.2,0.31 -0.17,0.47 0.03,0.16 0.12,0.32 0.26,0.47 0.02,0.02 0.04,0.05 0.08,0.08 0.17,0.17 0.35,0.27 0.52,0.31 0.18,0.04 0.34,-0.02 0.5,-0.19 0.14,-0.15 0.2,-0.31 0.17,-0.47 -0.03,-0.17 -0.1,-0.32 -0.23,-0.45l-0.11 -0.11 -0.11 -0.1c-0.08,-0.07 -0.18,-0.13 -0.28,-0.16 -0.1,-0.03 -0.21,-0.04 -0.32,-0.02 -0.11,0.02 -0.21,0.08 -0.31,0.18zm-2.15 1.69c0.1,-0.08 0.2,-0.13 0.32,-0.15 0.12,-0.02 0.22,-0.02 0.33,0.01 0.1,0.03 0.19,0.09 0.25,0.17 0.11,0.13 0.14,0.29 0.1,0.46 -0.04,0.17 -0.15,0.34 -0.31,0.51l-0.43 0.44 0.08 0.11c0.09,0.11 0.19,0.17 0.3,0.18 0.11,0.01 0.24,-0.05 0.38,-0.16 0.1,-0.08 0.17,-0.17 0.21,-0.26 0.03,-0.09 0.04,-0.17 0.01,-0.25 -0.01,-0.03 -0.01,-0.05 -0.01,-0.07 0,-0.02 0.02,-0.03 0.03,-0.05l0.04 -0.03c0.02,-0.01 0.04,-0.02 0.06,-0.02 0.02,0 0.04,0.01 0.06,0.03 0.04,0.04 0.06,0.11 0.06,0.2 0.01,0.09 -0.02,0.19 -0.07,0.3 -0.05,0.11 -0.14,0.22 -0.26,0.31 -0.22,0.17 -0.41,0.24 -0.58,0.21 -0.17,-0.03 -0.32,-0.12 -0.43,-0.27l-0.8 -1.01c-0.02,-0.02 -0.02,-0.04 -0.02,-0.06 0,-0.02 0.01,-0.04 0.03,-0.06l0.05 -0.04c0.02,-0.02 0.04,-0.02 0.06,-0.02 0.02,0 0.04,0.01 0.06,0.03l0.11 0.14c-0.01,-0.1 0.01,-0.21 0.06,-0.32 0.05,-0.11 0.15,-0.23 0.29,-0.34zm0.11 0.2c-0.15,0.12 -0.23,0.26 -0.25,0.43 -0.02,0.17 0.04,0.35 0.19,0.53l0.08 0.1 0.35 -0.36c0.15,-0.15 0.24,-0.29 0.29,-0.41 0.04,-0.12 0.03,-0.22 -0.03,-0.31 -0.07,-0.09 -0.17,-0.13 -0.29,-0.12 -0.12,0.01 -0.23,0.06 -0.33,0.14zm-2.06 1.21c0.02,-0.01 0.04,-0.02 0.07,-0.01 0.02,0.01 0.04,0.02 0.05,0.04l0.92 1.6c0.01,0.02 0.02,0.04 0.01,0.07 -0.01,0.02 -0.02,0.04 -0.04,0.05l-0.95 0.54c-0.02,0.01 -0.04,0.02 -0.07,0.01 -0.02,-0.01 -0.04,-0.02 -0.05,-0.04l-0.03 -0.05c-0.01,-0.02 -0.02,-0.04 -0.01,-0.07 0.01,-0.02 0.02,-0.04 0.04,-0.05l0.82 -0.47 -0.85 -1.48c-0.01,-0.02 -0.02,-0.04 -0.01,-0.07 0.01,-0.02 0.02,-0.04 0.04,-0.05l0.06 -0.03zm-2.59 1.23c0.12,-0.05 0.23,-0.06 0.35,-0.05 0.12,0.01 0.22,0.04 0.31,0.1 0.09,0.06 0.16,0.14 0.19,0.24 0.06,0.16 0.05,0.31 -0.04,0.46 -0.09,0.15 -0.24,0.28 -0.44,0.4l-0.54 0.3 0.05 0.13c0.05,0.13 0.13,0.22 0.24,0.26 0.11,0.04 0.25,0.03 0.41,-0.04 0.12,-0.05 0.21,-0.11 0.27,-0.19 0.06,-0.08 0.09,-0.16 0.08,-0.23 -0,-0.03 0,-0.06 0.01,-0.07 0.01,-0.02 0.02,-0.03 0.05,-0.04l0.05 -0.02c0.02,-0.01 0.04,-0.01 0.07,0 0.02,0.01 0.04,0.02 0.05,0.05 0.02,0.05 0.02,0.12 0,0.21 -0.02,0.09 -0.07,0.18 -0.15,0.27 -0.08,0.09 -0.19,0.17 -0.34,0.23 -0.26,0.1 -0.46,0.11 -0.62,0.03 -0.16,-0.08 -0.27,-0.21 -0.34,-0.38l-0.47 -1.2c-0.01,-0.02 -0.01,-0.05 -0,-0.07 0.01,-0.02 0.03,-0.03 0.05,-0.04l0.06 -0.02c0.02,-0.01 0.05,-0.01 0.07,-0 0.02,0.01 0.03,0.03 0.04,0.05l0.07 0.17c0.02,-0.1 0.07,-0.2 0.15,-0.29 0.08,-0.1 0.2,-0.18 0.37,-0.24zm0.05 0.22c-0.18,0.07 -0.3,0.18 -0.36,0.34 -0.07,0.16 -0.06,0.35 0.03,0.56l0.05 0.12 0.44 -0.25c0.19,-0.1 0.32,-0.21 0.39,-0.31 0.08,-0.1 0.09,-0.21 0.05,-0.3 -0.04,-0.11 -0.12,-0.18 -0.24,-0.2 -0.12,-0.02 -0.24,-0.01 -0.36,0.04z"/>
   <path class="fil0" d="M24.87 37.23c0.03,-0 0.05,-0 0.07,0.01 0.02,0.01 0.03,0.03 0.03,0.06l0.33 1.81c0,0.03 0,0.05 -0.01,0.07 -0.01,0.02 -0.03,0.03 -0.06,0.03l-0.06 0.01c-0.03,0 -0.05,0 -0.07,-0.01 -0.02,-0.01 -0.03,-0.03 -0.03,-0.06l-0.14 -0.77 -1.19 0.21 0.14 0.77c0,0.03 0,0.05 -0.01,0.07 -0.01,0.02 -0.03,0.03 -0.06,0.03l-0.06 0.01c-0.03,0 -0.05,0 -0.07,-0.01 -0.02,-0.01 -0.03,-0.03 -0.03,-0.06l-0.33 -1.81c-0,-0.03 -0,-0.05 0.01,-0.07 0.01,-0.02 0.03,-0.03 0.06,-0.03l0.06 -0.01c0.03,-0 0.05,-0 0.07,0.01 0.02,0.01 0.03,0.03 0.03,0.06l0.15 0.82 1.19 -0.21 -0.15 -0.82c-0,-0.03 -0,-0.05 0.01,-0.07 0.01,-0.02 0.03,-0.03 0.06,-0.03l0.06 -0.01zm-2.84 0.03c0.03,-0 0.05,0.01 0.06,0.02 0.02,0.02 0.02,0.04 0.02,0.06l0.01 0.48c0,0.03 -0.01,0.05 -0.02,0.06 -0.02,0.02 -0.04,0.02 -0.06,0.02l-0.01 0c-0.24,0.01 -0.35,0.42 -0.33,1.24l0.01 0.48c0,0.03 -0.01,0.05 -0.02,0.06 -0.02,0.02 -0.04,0.02 -0.06,0.02l-1.11 0.03c-0.03,0 -0.05,-0.01 -0.06,-0.02 -0.02,-0.02 -0.02,-0.04 -0.02,-0.06l-0.04 -1.69 -0.19 0c-0.03,0 -0.05,-0.01 -0.06,-0.02 -0.02,-0.02 -0.02,-0.04 -0.02,-0.06l-0.01 -0.49c-0,-0.03 0.01,-0.05 0.02,-0.06 0.02,-0.02 0.04,-0.02 0.06,-0.02l0.07 -0c0.03,-0 0.05,0.01 0.06,0.02 0.02,0.02 0.02,0.04 0.02,0.06l0.01 0.34 1.54 -0.04 -0.01 -0.34c-0,-0.03 0.01,-0.05 0.02,-0.06 0.02,-0.02 0.04,-0.02 0.06,-0.02l0.07 -0zm-1.4 0.69l0.04 1.55 0.81 -0.02 -0.01 -0.36c-0.02,-0.59 0.06,-0.99 0.22,-1.21l-1.07 0.04zm-2.5 -0.44c0.24,0.03 0.43,0.14 0.56,0.31 0.13,0.18 0.19,0.4 0.17,0.68l-0.02 0.15 -0.02 0.15c-0.05,0.26 -0.17,0.47 -0.33,0.61 -0.17,0.14 -0.37,0.2 -0.62,0.17 -0.27,-0.03 -0.46,-0.15 -0.59,-0.34 -0.13,-0.2 -0.17,-0.45 -0.13,-0.75l0.01 -0.06c0,-0.03 0.01,-0.04 0.03,-0.06 0.02,-0.01 0.04,-0.02 0.07,-0.02l1.37 0.17 0 -0.04c0.01,-0.12 -0,-0.24 -0.04,-0.35 -0.04,-0.11 -0.1,-0.2 -0.18,-0.28 -0.08,-0.07 -0.18,-0.12 -0.3,-0.13 -0.14,-0.02 -0.26,-0 -0.35,0.04 -0.1,0.04 -0.17,0.09 -0.21,0.14 -0.03,0.03 -0.05,0.04 -0.06,0.05 -0.01,0.01 -0.03,0.01 -0.06,0l-0.06 -0.01c-0.02,-0 -0.04,-0.01 -0.06,-0.03 -0.01,-0.01 -0.02,-0.03 -0.02,-0.05 0.01,-0.05 0.05,-0.11 0.13,-0.18 0.08,-0.07 0.18,-0.12 0.31,-0.16 0.13,-0.04 0.27,-0.05 0.42,-0.03zm-0.76 1.08l-0 0.02c-0.02,0.2 0.01,0.37 0.11,0.51 0.1,0.14 0.24,0.22 0.42,0.25 0.19,0.02 0.34,-0.02 0.47,-0.14 0.12,-0.11 0.2,-0.27 0.22,-0.47l0 -0.02 -1.22 -0.15z"/>
  </g>
  <path class="fil1" d="M23.25 16.2l0.06 0.06c0.02,0.03 0.05,0.05 0.07,0.08 0.05,0.05 0.1,0.1 0.15,0.15l0.01 0.01 0.01 0.01c0.05,0.05 0.1,0.1 0.15,0.15l0.08 0.07 0.06 0.06c1.97,1.83 4.59,2.98 7.47,3.07 -2.88,0.09 -5.5,1.23 -7.47,3.06 -0.03,0.03 -0.06,0.05 -0.08,0.08l-0.05 0.05c-0.06,0.06 -0.12,0.11 -0.17,0.17l-0 0 -0 0c-0.06,0.06 -0.11,0.11 -0.17,0.17l-0.05 0.06c-0.03,0.03 -0.05,0.05 -0.08,0.08 -1.83,1.97 -2.98,4.58 -3.06,7.47 -0.09,-2.88 -1.23,-5.49 -3.05,-7.46 -0.03,-0.04 -0.07,-0.07 -0.1,-0.11l-0.03 -0.03c-0.06,-0.06 -0.12,-0.12 -0.18,-0.18 -0.06,-0.06 -0.12,-0.12 -0.18,-0.18l-0.03 -0.03c-0.03,-0.03 -0.07,-0.07 -0.11,-0.1 -1.97,-1.82 -4.58,-2.97 -7.46,-3.05 2.88,-0.09 5.49,-1.23 7.46,-3.06 0.03,-0.03 0.06,-0.05 0.08,-0.08l0.06 -0.05c0.06,-0.06 0.12,-0.11 0.17,-0.17 0.06,-0.06 0.11,-0.12 0.17,-0.17l0.05 -0.05c0.03,-0.03 0.05,-0.06 0.08,-0.09 1.83,-1.97 2.97,-4.58 3.06,-7.46 0.09,2.89 1.24,5.5 3.07,7.47zm8.07 3.67l0 -0 0 0 -0 -0zm-8.09 -3.05c-1.53,-1.53 -2.61,-3.49 -3.05,-5.68 -0.44,2.19 -1.53,4.15 -3.05,5.68 -1.53,1.53 -3.49,2.61 -5.68,3.05 2.19,0.44 4.15,1.53 5.68,3.05 1.53,1.53 2.61,3.49 3.05,5.68 0.44,-2.19 1.53,-4.15 3.05,-5.68 1.53,-1.53 3.49,-2.61 5.68,-3.05 -2.19,-0.44 -4.15,-1.53 -5.68,-3.05z"/>
 </g>
</svg>
