<svg xmlns="http://www.w3.org/2000/svg" xml:space="preserve" width="73.431mm" height="73.431mm" version="1.1" style="shape-rendering:geometricPrecision; text-rendering:geometricPrecision; image-rendering:optimizeQuality; fill-rule:evenodd; clip-rule:evenodd"
viewBox="0 0 7343 7343">
 <g id="Слой_x0020_1">
   <polygon fill="#FF8C3D" points="814,4686 2650,6529 6400,2786 4564,943 "/>
   <path fill="#FF8C3D" d="M4862 645c15,56 59,81 97,119l344 344c156,156 302,302 459,459 74,74 860,873 921,914 51,-13 70,-48 104,-82l287 -302c68,-66 136,-123 183,-204 51,-89 79,-179 86,-268l0 -103c-15,-177 -106,-346 -247,-486l-775 -774c-193,-195 -304,-262 -599,-262 -212,0 -372,150 -484,262 -91,91 -317,295 -376,383z"/>
   <path fill="#FF8C3D" d="M0 7128c0,122 93,215 215,215 88,0 188,-39 268,-62l771 -219c177,-50 346,-99 513,-146l528 -147c-15,-55 -157,-177 -205,-225l-1398 -1399c-38,-38 -63,-82 -118,-97 -7,79 -395,1405 -436,1544 -31,108 -138,448 -138,536z"/>
 </g>
</svg>
