<?xml version="1.0" encoding="UTF-8"?>
<!DOCTYPE svg PUBLIC "-//W3C//DTD SVG 1.1//EN" "http://www.w3.org/Graphics/SVG/1.1/DTD/svg11.dtd">
<!-- Creator: CorelDRAW X8 -->
<svg xmlns="http://www.w3.org/2000/svg" xml:space="preserve" width="78.64mm" height="73.006mm" version="1.1" style="shape-rendering:geometricPrecision; text-rendering:geometricPrecision; image-rendering:optimizeQuality; fill-rule:evenodd; clip-rule:evenodd"
viewBox="0 0 7864 7301"
 xmlns:xlink="http://www.w3.org/1999/xlink">
 <defs>
  <style type="text/css">
   <![CDATA[
    .fil0 {fill:#FF8C3D}
   ]]>
  </style>
 </defs>
 <g id="Слой_x0020_1">
  <metadata id="CorelCorpID_0Corel-Layer"/>
  <path class="fil0" d="M7466 5199c-194,-96 -1145,-566 -1322,-629 -177,-65 -306,-97 -434,95 -130,195 -501,630 -613,761 -112,128 -226,145 -420,46 -193,-95 -817,-300 -1556,-959 -575,-513 -963,-1147 -1077,-1341 -113,-195 -1,-289 85,-394 209,-260 418,-534 483,-662 66,-130 34,-244 -16,-339 -49,-99 -435,-1051 -597,-1437 -156,-378 -315,-326 -434,-332 -113,-6 -243,-8 -371,-8 -130,0 -340,49 -517,241 -177,194 -677,663 -677,1616 0,953 694,1873 790,2001 97,131 1365,2084 3306,2923 462,199 822,317 1103,406 464,147 886,126 1220,77 372,-57 1143,-467 1305,-919 160,-452 160,-839 112,-919 -48,-82 -178,-131 -370,-227l0 0 0 0 0 0 0 0z"/>
 </g>
</svg>
