<svg xmlns="http://www.w3.org/2000/svg" xml:space="preserve" width="73.437mm" height="73.453mm" version="1.1" style="shape-rendering:geometricPrecision; text-rendering:geometricPrecision; image-rendering:optimizeQuality; fill-rule:evenodd; clip-rule:evenodd"
viewBox="0 0 7344 7345">
 <g id="Слой_x0020_1">
  <path fill="#FF8C3D" d="M2750 5515c662,0 1286,-235 1784,-661l2418 2424c45,45 103,67 162,67 59,0 117,-22 162,-67 90,-89 90,-234 1,-324l-2421 -2426c907,-1082 853,-2702 -161,-3720 -519,-521 -1210,-808 -1945,-808 -735,0 -1426,287 -1946,808 -1072,1075 -1072,2824 0,3899 520,521 1210,808 1946,808l0 0zm-1621 -4383c433,-434 1009,-673 1621,-673 612,0 1187,239 1620,673 894,896 894,2355 0,3251 -433,434 -1008,673 -1620,673 -612,0 -1188,-239 -1621,-673 -894,-896 -894,-2355 0,-3251z"/>
 </g>
</svg>
