<?xml version="1.0" encoding="UTF-8"?>
<!DOCTYPE svg PUBLIC "-//W3C//DTD SVG 1.1//EN" "http://www.w3.org/Graphics/SVG/1.1/DTD/svg11.dtd">
<!-- Creator: CorelDRAW X8 -->
<svg xmlns="http://www.w3.org/2000/svg" xml:space="preserve" width="86.98mm" height="73.477mm" version="1.1" style="shape-rendering:geometricPrecision; text-rendering:geometricPrecision; image-rendering:optimizeQuality; fill-rule:evenodd; clip-rule:evenodd"
viewBox="0 0 8698 7348"
 xmlns:xlink="http://www.w3.org/1999/xlink">
 <defs>
  <style type="text/css">
   <![CDATA[
    .fil0 {fill:#2EA3E6}
   ]]>
  </style>
 </defs>
 <g id="Слой_x0020_1">
  <metadata id="CorelCorpID_0Corel-Layer"/>
  <path class="fil0" d="M3226 6171c-105,-36 -517,-1548 -591,-1777 -128,-396 189,-453 482,-632l3635 -2255c440,-268 665,-247 212,143l-1874 1664c-387,363 -846,768 -1260,1115 -299,250 -407,223 -463,724 -19,172 -73,930 -141,1018l0 0zm4999 -6153c-259,60 -2646,1018 -3094,1196l-4640 1808c-217,86 -650,210 -431,547 105,159 567,237 790,304 277,83 548,161 827,245 676,203 547,104 648,423 171,548 344,1097 518,1647 383,1212 554,836 1547,-199 302,-315 203,-259 587,21 416,301 824,592 1235,907 419,319 993,843 1189,-127l1114 -5334c91,-436 491,-1617 -290,-1438l0 0z"/>
 </g>
</svg>
