<?xml version="1.0" encoding="UTF-8"?>
<!DOCTYPE svg PUBLIC "-//W3C//DTD SVG 1.1//EN" "http://www.w3.org/Graphics/SVG/1.1/DTD/svg11.dtd">
<!-- Creator: CorelDRAW X8 -->
<svg xmlns="http://www.w3.org/2000/svg" xml:space="preserve" width="76.165mm" height="76.165mm" version="1.1" style="shape-rendering:geometricPrecision; text-rendering:geometricPrecision; image-rendering:optimizeQuality; fill-rule:evenodd; clip-rule:evenodd"
viewBox="0 0 7617 7617"
 xmlns:xlink="http://www.w3.org/1999/xlink">
 <defs>
  <style type="text/css">
   <![CDATA[
    .fil0 {fill:#6FDD64}
   ]]>
  </style>
 </defs>
 <g id="Слой_x0020_1">
  <metadata id="CorelCorpID_0Corel-Layer"/>
  <path class="fil0" d="M3810 0l-2 0 0 0c-2100,0 -3808,1708 -3808,3808 0,833 269,1606 725,2232l-474 1415 1464 -468c601,400 1320,629 2095,629 2100,0 3806,-1708 3806,-3808 0,-2100 -1706,-3808 -3806,-3808l0 0 0 0zm2215 5378c-92,259 -456,474 -746,537 -200,43 -460,76 -1335,-286 -1119,-464 -1839,-1601 -1895,-1675 -55,-73 -453,-602 -453,-1149 0,-546 278,-812 390,-926 91,-95 243,-138 388,-138 48,0 89,4 127,5 113,5 169,12 243,189 91,221 316,766 342,822 27,57 55,134 17,207 -37,76 -68,111 -124,175 -56,65 -109,114 -165,184 -52,61 -109,125 -45,237 64,109 288,475 618,767 425,380 770,501 892,552 93,38 202,28 269,-43 85,-91 190,-245 298,-393 76,-109 172,-123 272,-85 105,37 648,306 760,362 111,56 186,83 212,129 28,48 28,269 -64,529l-1 0 0 0z"/>
 </g>
</svg>
